<?xml version="1.0" encoding="UTF-8"?>
<svg version="1.1" xmlns="http://www.w3.org/2000/svg" width="512" height="512" fill="#044B94" fill-opacity="0.2">
<path d="M0 0 C16.09456905 2.13979957 32.03634797 2.76741843 48.25 2.75 C49.12018768 2.75006042 49.99037537 2.75012085 50.88693237 2.75018311 C69.69146856 2.73168169 88.18627969 1.57529945 106.81640625 -1.046875 C114.73709563 -2.0584573 121.25218857 -2.3980643 127.875 2.5625 C135.02807345 8.96189713 140.16693082 17.11482291 145.44604492 25.04907227 C145.97689697 25.84627686 146.50774902 26.64348145 147.0546875 27.46484375 C147.52632324 28.18148193 147.99795898 28.89812012 148.48388672 29.63647461 C150.88681634 32.96338086 152.90691995 34.81979781 156.81713867 36.15307617 C157.60614059 36.42733932 158.39514252 36.70160248 159.20805359 36.98417664 C160.06107559 37.27170303 160.9140976 37.55922943 161.79296875 37.85546875 C163.62437215 38.49277189 165.45575153 39.13014407 167.28710938 39.76757812 C170.15310463 40.75336386 173.02028051 41.73558154 175.88842773 42.71508789 C216.5795992 56.66238913 236.98306749 78.1242215 256.15625 116.16503906 C258.35328069 120.50791962 260.60107368 124.82200213 262.875 129.125 C263.26034912 129.85662354 263.64569824 130.58824707 264.04272461 131.34204102 C266.41483893 135.83457239 268.813672 140.31229314 271.22265625 144.78515625 C279.0813617 159.38319516 286.78491407 174.04747338 294.32836914 188.81103516 C294.67652176 189.49107101 295.02467438 190.17110687 295.38337708 190.87174988 C296.03257464 192.14023772 296.68030198 193.4094796 297.32621765 194.67964172 C298.6524186 197.27046878 300.01618315 199.79195363 301.54199219 202.27172852 C304.00256257 206.50021421 304.043181 210.36421034 303.375 215.125 C300.3046521 222.16121394 294.21529514 225.19043244 287.32727051 227.93392944 C286.37751343 228.29604523 285.42775635 228.65816101 284.44921875 229.03125 C283.44024536 229.42921783 282.43127197 229.82718567 281.39172363 230.23721313 C278.120088 231.52487739 274.84142689 232.79353264 271.5625 234.0625 C268.17256211 235.39217484 264.78456885 236.72672702 261.39656067 238.06130981 C259.13271857 238.95251896 256.8682218 239.84206694 254.60307312 240.72994995 C244.71160389 244.60947591 234.87669773 248.61708138 225.0625 252.6875 C223.66433561 253.26634602 222.26614325 253.84512449 220.86791992 254.42382812 C218.50134536 255.40347327 216.13552953 256.38486856 213.77026367 257.36767578 C211.14542219 258.45090154 208.51233602 259.51017549 205.875 260.5625 C206.57641507 281.47081079 207.90670128 302.33896472 209.20308113 323.21683502 C209.60507377 329.69082982 210.00308053 336.16506618 210.40049744 342.63934326 C211.45846728 359.86478861 212.52167037 377.08991024 213.58695072 394.31490493 C214.28978162 405.67978161 214.99049604 417.04478446 215.68727487 428.41003394 C216.08142857 434.83629519 216.47892016 441.26233824 216.87898839 447.68823385 C217.12714641 451.68640247 217.37222829 455.68475538 217.61647606 459.6831646 C217.72967653 461.52621493 217.84412207 463.36918932 217.95995331 465.21207619 C219.78753049 494.32225857 219.78753049 494.32225857 214.875 500.5625 C211.23150886 503.20057574 208.71641924 503.93778639 204.24493408 503.94002342 C203.11640896 503.94784666 201.98788383 503.95566991 200.82516098 503.96373022 C199.59025043 503.95703805 198.35533989 503.95034589 197.08300781 503.94345093 C195.76735966 503.9481309 194.4517115 503.95281087 193.09619522 503.95763266 C189.44576023 503.97016503 185.79556031 503.96396221 182.14512444 503.95467401 C178.20777665 503.94789298 174.2704696 503.95836004 170.33312988 503.96661377 C162.6204363 503.97996342 154.90783024 503.97706789 147.19513321 503.96837585 C140.92764822 503.96160455 134.66018779 503.96068018 128.3927002 503.9639473 C127.05538231 503.96463684 127.05538231 503.96463684 125.69104791 503.96534032 C123.87997023 503.96629949 122.06889255 503.96727213 120.25781488 503.9682581 C103.26973987 503.9768156 86.28171339 503.96697221 69.29364634 503.950857 C54.71266699 503.93745349 40.1317593 503.93978148 25.55078125 503.95361328 C8.62407628 503.96966273 -8.30258612 503.97599159 -25.22929764 503.96677649 C-27.03376515 503.96582083 -28.83823267 503.96487772 -30.6427002 503.9639473 C-31.5305652 503.96348447 -32.41843021 503.96302164 -33.33320022 503.96254479 C-39.59417348 503.959953 -45.85511978 503.96432998 -52.11608887 503.97138596 C-59.74467095 503.9797941 -67.37316042 503.97753528 -75.00173187 503.96154372 C-78.89500019 503.95365174 -82.788114 503.95058511 -86.68138123 503.96049118 C-90.898725 503.97105965 -95.1156776 503.95845265 -99.33300781 503.94345093 C-100.56791836 503.95014309 -101.8028289 503.95683526 -103.07516098 503.96373022 C-104.2036861 503.95590697 -105.33221123 503.94808373 -106.49493408 503.94002342 C-107.46848469 503.93953637 -108.44203529 503.93904931 -109.44508743 503.93854749 C-114.11685522 503.28300127 -116.56630359 501.27219544 -119.4375 497.625 C-124.46837798 487.81492348 -120.6073871 471.53106356 -119.93164062 460.77441406 C-119.80324144 458.68714849 -119.67517328 456.59986252 -119.54740906 454.51255798 C-119.27287831 450.03874806 -118.99606604 445.56508738 -118.717453 441.09152985 C-118.2767635 434.01476527 -117.84144507 426.93767639 -117.40686035 419.86053467 C-116.56239576 406.12060382 -115.71242749 392.3810161 -114.86194611 378.6414566 C-113.77879986 361.1382359 -112.69841353 343.6348458 -111.62242842 326.13118339 C-111.18993238 319.09838956 -110.75488529 312.06575957 -110.31781769 305.03324842 C-110.04644345 300.65937418 -109.77707255 296.28537817 -109.50821877 291.91134834 C-109.38330655 289.88604773 -109.25755043 287.86079896 -109.13088036 285.83560753 C-108.95783648 283.06723584 -108.78782358 280.29869354 -108.61853027 277.53009033 C-108.56794795 276.73280651 -108.51736562 275.93552269 -108.46525049 275.11407876 C-108.17198493 270.25380694 -108.08133249 265.43176243 -108.125 260.5625 C-112.69099066 258.6805058 -117.25816788 256.80141932 -121.82595825 254.92379761 C-124.3957172 253.86647596 -126.96433557 252.80641472 -129.53295898 251.74633789 C-138.83323184 247.91610786 -148.15185648 244.14180476 -157.51571655 240.46937561 C-162.24499943 238.61408078 -166.96870832 236.74479136 -171.69250488 234.87557983 C-174.01529634 233.96136251 -176.34090346 233.05426575 -178.66931152 232.15444946 C-181.96527635 230.87997396 -185.25071365 229.58117318 -188.53515625 228.27734375 C-189.51797073 227.90485504 -190.50078522 227.53236633 -191.51338196 227.14859009 C-197.47440147 224.74869018 -201.69934009 222.12475987 -205.125 216.5625 C-207.20312464 209.96139821 -204.9803367 204.38193598 -202.05883789 198.36767578 C-200.78029592 195.99621641 -199.4594758 193.65294079 -198.125 191.3125 C-192.34421854 180.95198375 -186.89782708 170.43857864 -181.5 159.875 C-180.66188191 158.23668486 -179.8236663 156.59841961 -178.98535156 154.96020508 C-178.57800781 154.16417374 -178.17066406 153.3681424 -177.75097656 152.54798889 C-177.35104492 151.76644943 -176.95111328 150.98490997 -176.5390625 150.1796875 C-176.1462207 149.41172348 -175.75337891 148.64375946 -175.34863281 147.8525238 C-171.44983827 140.23462398 -167.49666561 132.64744582 -163.47119141 125.09570312 C-162.13284403 122.57726055 -160.80337 120.0542294 -159.47473145 117.53065491 C-138.10575731 76.97829303 -116.30886587 55.89909338 -72.63647461 40.86791992 C-69.8163569 39.89421472 -66.99993528 38.9103444 -64.18359375 37.92578125 C-63.31802353 37.63198074 -62.45245331 37.33818024 -61.56065369 37.03547668 C-60.35778465 36.61439888 -60.35778465 36.61439888 -59.13061523 36.18481445 C-58.42734604 35.94310013 -57.72407684 35.7013858 -56.99949646 35.4523468 C-53.29795645 33.69517968 -51.33171711 30.56332234 -49.0859375 27.24609375 C-48.50980713 26.40361084 -47.93367676 25.56112793 -47.34008789 24.69311523 C-46.73285889 23.80438721 -46.12562988 22.91565918 -45.5 22 C-31.77233617 2.21159645 -24.33269892 -3.25343922 0 0 Z M-25.125 15.5625 C-27.46686058 18.64381813 -29.61717392 21.83404409 -31.75 25.0625 C-32.88736197 26.76085808 -34.02536073 28.45878992 -35.1640625 30.15625 C-35.66115723 30.90583984 -36.15825195 31.65542969 -36.67041016 32.42773438 C-38.125 34.5625 -38.125 34.5625 -39.81616211 36.63305664 C-41.44334662 38.62632629 -41.44334662 38.62632629 -41.02734375 41.83984375 C-40.04442136 45.89493048 -38.58703455 49.43653903 -36.6875 53.125 C-36.33333008 53.81899902 -35.97916016 54.51299805 -35.61425781 55.22802734 C-30.26718955 65.40507965 -23.33650081 74.30616204 -15.9375 83.0625 C-15.46280273 83.62598145 -14.98810547 84.18946289 -14.49902344 84.77001953 C-9.57707384 90.45349752 -4.70756751 95.57294998 2.6875 97.62890625 C9.38239548 97.42566835 14.18284077 92.95024288 18.875 88.6875 C29.39316565 79.27280262 37.71675997 73.74467813 52.328125 74.16796875 C65.39536998 75.62148388 73.84628641 84.15720275 83.12109375 92.609375 C87.39799668 96.22365916 90.77822894 97.53874811 96.44140625 97.125 C109.92677088 94.00799758 121.34735432 74.69284147 128.5 63.76464844 C130.69847343 60.24365583 132.68120648 56.63655041 134.5625 52.9375 C134.88951904 52.2990918 135.21653809 51.66068359 135.5534668 51.00292969 C137.56806888 46.83206094 138.94127705 43.21208966 138.875 38.5625 C137.41856567 35.47611157 135.45485182 32.88142641 133.375 30.1875 C132.82344238 29.44306641 132.27188477 28.69863281 131.70361328 27.93164062 C130.11246283 25.79392603 128.49669856 23.67707797 126.875 21.5625 C126.11960937 20.54929687 125.36421875 19.53609375 124.5859375 18.4921875 C121.74603134 14.43394455 121.74603134 14.43394455 117.875 11.5625 C109.35137613 11.72962988 100.79329834 12.83447257 92.32836914 13.8137207 C78.09055847 15.40437185 63.87385764 15.76540715 49.5625 15.75 C48.25963547 15.75009064 48.25963547 15.75009064 46.93045044 15.75018311 C27.82309499 15.73136308 8.79332692 14.89750302 -10.109375 11.9296875 C-18.49914574 10.88463388 -18.49914574 10.88463388 -25.125 15.5625 Z M-63.4921875 51.37890625 C-64.32275665 51.67304916 -65.15332581 51.96719208 -66.00906372 52.27024841 C-67.77355721 52.8974103 -69.53711483 53.52721044 -71.29980469 54.15942383 C-73.95130382 55.10758649 -76.60811847 56.03953543 -79.265625 56.97070312 C-111.15584413 68.28716767 -129.07169013 87.008259 -144.0625 116.75 C-144.76468159 118.12845053 -145.46773712 119.50645619 -146.17163086 120.8840332 C-147.54762391 123.5776554 -148.92097024 126.27259444 -150.29199219 128.96875 C-152.55566945 133.41421139 -154.85929523 137.83800965 -157.1875 142.25 C-157.56237549 142.9608374 -157.93725098 143.6716748 -158.32348633 144.40405273 C-161.77664165 150.93291042 -165.26589977 157.4425519 -168.75387573 163.95285034 C-169.73758422 165.78932116 -170.72052227 167.62620272 -171.70336914 169.46313477 C-174.41395885 174.52619596 -177.12908312 179.58595205 -179.8984375 184.6171875 C-180.47730713 185.67631348 -180.47730713 185.67631348 -181.06787109 186.75683594 C-182.03941797 188.53119914 -183.01931085 190.30098582 -184 192.0703125 C-184.37125 192.89273438 -184.7425 193.71515625 -185.125 194.5625 C-184.795 195.2225 -184.465 195.8825 -184.125 196.5625 C-182.64 195.5725 -182.64 195.5725 -181.125 194.5625 C-175.12531131 194.83919732 -170.07884993 196.97416191 -164.58984375 199.28125 C-163.67529922 199.6580188 -162.7607547 200.0347876 -161.8184967 200.42297363 C-158.89666022 201.62864502 -155.97953873 202.84527313 -153.0625 204.0625 C-151.16111601 204.84970442 -149.2594255 205.63616889 -147.35742188 206.421875 C-140.57505619 209.22599884 -133.79318914 212.03138962 -127.02032471 214.85839844 C-123.97510236 216.12901804 -120.92723805 217.39311197 -117.87890625 218.65625 C-116.94352524 219.04872925 -116.00814423 219.4412085 -115.04441833 219.84558105 C-114.17970413 220.20269165 -113.31498993 220.55980225 -112.42407227 220.92773438 C-111.66409439 221.24432007 -110.90411652 221.56090576 -110.12110901 221.88708496 C-108.00259188 222.72275741 -108.00259188 222.72275741 -105.125 222.5625 C-103.91641646 218.66632002 -103.8089125 214.70427006 -103.60009766 210.66040039 C-103.55600266 209.86805496 -103.51190765 209.07570953 -103.46647644 208.25935364 C-103.3711023 206.5417676 -103.27733366 204.82409183 -103.18498611 203.10634041 C-103.03778471 200.38654699 -102.88422145 197.66718504 -102.72860718 194.94786072 C-102.28651647 187.21716794 -101.84921567 179.48626337 -101.43261719 171.75415039 C-101.17719659 167.02207955 -100.90865786 162.29090807 -100.63160324 157.56005669 C-100.52863392 155.75863329 -100.43059573 153.95692094 -100.33760452 152.15495491 C-100.20701632 149.63375587 -100.05974735 147.11403803 -99.90869141 144.59399414 C-99.87429459 143.85149414 -99.83989777 143.10899414 -99.80445862 142.34399414 C-99.52455938 138.02160288 -98.88276063 134.96326327 -96.125 131.5625 C-93.0625 131.125 -93.0625 131.125 -90.125 131.5625 C-87.57934032 134.10815968 -87.87074747 135.73746814 -87.85536766 139.21095765 C-87.86523012 140.02554786 -87.87509258 140.84013808 -87.88525391 141.67941284 C-87.89445075 142.99533096 -87.89445075 142.99533096 -87.90383339 144.33783329 C-88.08036288 157.3700795 -88.99428408 170.37873883 -89.81585979 183.3827796 C-90.06577722 187.3605655 -90.30846179 191.33879402 -90.55206299 195.31697083 C-90.97376883 202.18839862 -91.39983752 209.05954424 -91.82891846 215.93051529 C-92.4498903 225.87526106 -93.06340151 235.82045669 -93.67506385 245.76577888 C-94.66881048 261.92128302 -95.66754936 278.0764742 -96.66992188 294.23144531 C-96.72973417 295.19544321 -96.78954647 296.1594411 -96.85117126 297.15265106 C-96.94100417 298.60048633 -96.94100417 298.60048633 -97.0326519 300.0775708 C-97.88307816 313.78405641 -98.73230055 327.49061591 -99.58007812 341.19726562 C-99.63981804 342.16310468 -99.69955795 343.12894373 -99.76110816 344.12405063 C-100.75759654 360.23632087 -101.75160152 376.34874378 -102.7443409 392.46124542 C-103.35574125 402.38187631 -103.96966967 412.30234497 -104.58690882 422.22261433 C-105.00932989 429.01338168 -105.42967335 435.80427549 -105.84839582 442.5952719 C-106.08983565 446.50956593 -106.33230263 450.42378946 -106.57749176 454.33785057 C-106.80217821 457.92476976 -107.02401106 461.51185397 -107.243644 465.09908603 C-107.3608718 467.00162614 -107.48113921 468.90397822 -107.6015377 470.80632031 C-108.00228893 477.40218521 -108.22794113 483.95442941 -108.125 490.5625 C-105.59976145 491.82511927 -103.87077868 491.68785269 -101.04310608 491.68834114 C-99.96050475 491.69094889 -98.87790342 491.69355664 -97.76249599 491.69624341 C-96.56349195 491.69401268 -95.3644879 491.69178196 -94.12915039 491.68948364 C-92.86295144 491.69104363 -91.59675249 491.69260362 -90.29218388 491.69421089 C-86.766067 491.69840327 -83.23997703 491.69631392 -79.71386003 491.69322467 C-75.91559188 491.69097043 -72.1173285 491.69445031 -68.31906128 491.69720459 C-60.87369144 491.70166101 -53.42833166 491.70068638 -45.98296142 491.69779195 C-39.93420691 491.69553742 -33.88545524 491.69522561 -27.83670044 491.69631577 C-26.97718688 491.696469 -26.11767332 491.69662223 -25.2321139 491.69678011 C-23.48625843 491.69709982 -21.74040296 491.69742403 -19.99454749 491.6977527 C-3.60747848 491.70060712 12.77958494 491.69732107 29.16665304 491.69195233 C43.24033659 491.68748433 57.3140119 491.68826027 71.38769531 491.69287109 C87.71444745 491.69821753 104.04119469 491.70033243 120.36794758 491.69725883 C122.10753186 491.69694027 123.84711615 491.6966259 125.58670044 491.69631577 C126.87070461 491.69608435 126.87070461 491.69608435 128.18064827 491.69584826 C134.22507815 491.69498332 140.26950493 491.69644551 146.31393433 491.69879532 C153.67584649 491.70159428 161.03774798 491.70085301 168.39965892 491.69551457 C172.1588212 491.69287887 175.91796567 491.6918703 179.67712784 491.69516373 C183.74448433 491.69867338 187.81179549 491.69449473 191.87915039 491.68948364 C193.67765646 491.69282973 193.67765646 491.69282973 195.51249599 491.69624341 C197.13639799 491.69233178 197.13639799 491.69233178 198.79310608 491.68834114 C200.20290033 491.68809761 200.20290033 491.68809761 201.64117527 491.68784916 C203.91356984 491.70838174 203.91356984 491.70838174 205.875 490.5625 C205.27023935 472.20278094 204.30124115 453.87783106 203.15261757 435.54510498 C202.91792296 431.78795616 202.68684107 428.03058475 202.45532227 424.27323914 C202.05552223 417.79167807 201.65369541 411.3102454 201.25054741 404.82889175 C200.6664596 395.43678306 200.08694485 386.04439602 199.50869728 376.65192614 C198.56826211 361.37656125 197.6260774 346.10130497 196.68188477 330.82617188 C196.62562859 329.91603993 196.56937241 329.00590798 196.5114115 328.06819628 C195.71214156 315.138735 194.91101682 302.20938931 194.10913617 289.28008972 C194.02429712 287.91216308 194.02429712 287.91216308 193.93774414 286.51660156 C193.88125395 285.60578481 193.82476376 284.69496806 193.76656174 283.7565508 C192.82189927 268.52333778 191.88200066 253.2898352 190.94595581 238.05609024 C190.37059784 228.69543734 189.79132595 219.33504347 189.20683313 209.97495644 C188.80650446 203.55901633 188.41067637 197.14280825 188.01826077 190.72637935 C187.79251523 187.03753271 187.5648581 183.34883264 187.33167458 179.66044807 C185.73169438 154.31301756 185.73169438 154.31301756 185.64198303 141.78707886 C185.62658247 140.55548355 185.62658247 140.55548355 185.61087078 139.29900753 C185.63066847 133.80683153 185.63066847 133.80683153 187.875 131.5625 C190.8125 131.125 190.8125 131.125 193.875 131.5625 C197.15956314 135.59943859 197.42987572 139.6897224 197.65869141 144.70166016 C197.70629105 145.50711777 197.75389069 146.31257538 197.80293274 147.1424408 C197.95668358 149.79493877 198.09153968 152.44805107 198.2265625 155.1015625 C198.33068671 156.94818334 198.43612349 158.79473061 198.54281616 160.64120483 C198.82033075 165.49574768 199.08239414 170.35099593 199.34051514 175.206604 C199.75671752 182.98574993 200.19658253 190.76359343 200.63602829 198.54145432 C200.78741444 201.25947293 200.93238636 203.97777545 201.07632446 206.69619751 C201.16746342 208.35818116 201.25871501 210.02015864 201.35009766 211.68212891 C201.38854294 212.43959915 201.42698822 213.1970694 201.46659851 213.97749329 C201.63953275 217.05181289 201.89574439 219.62473317 202.875 222.5625 C206.25016777 221.96535833 209.26771649 221.12456523 212.43969727 219.83178711 C213.31574112 219.47728989 214.19178497 219.12279266 215.09437561 218.7575531 C216.50365578 218.17953697 216.50365578 218.17953697 217.94140625 217.58984375 C218.93011215 217.18850723 219.91881805 216.78717072 220.93748474 216.37367249 C224.10585367 215.0865756 227.27173043 213.79347539 230.4375 212.5 C232.50959617 211.65648466 234.58186027 210.81338172 236.65429688 209.97070312 C237.67333099 209.55607819 238.69236511 209.14145325 239.74227905 208.71426392 C241.78845607 207.88263443 243.83518781 207.05236848 245.88247681 206.22348022 C250.82031322 204.22263804 255.74632644 202.20049848 260.65185547 200.12158203 C261.56007553 199.74272354 262.46829559 199.36386505 263.40403748 198.973526 C265.10101041 198.2654348 266.79336469 197.54612615 268.47987366 196.8134613 C272.96052966 194.96130577 276.05684266 193.96457234 280.875 195.5625 C282.28941874 198.39133747 282.19400332 200.43626745 281.875 203.5625 C278.54539737 206.80936964 274.19080485 208.20733619 269.9296875 209.86328125 C269.13865631 210.17661911 268.34762512 210.48995697 267.53262329 210.81278992 C265.82770078 211.48755882 264.12171804 212.15965375 262.41479492 212.8293457 C257.9044668 214.59917945 253.40186266 216.38847221 248.8984375 218.17578125 C247.52416595 218.7203447 247.52416595 218.7203447 246.12213135 219.27590942 C236.84062991 222.95958759 227.60320893 226.74762412 218.375 230.5625 C217.63231873 230.86926666 216.88963745 231.17603333 216.12445068 231.49209595 C212.04011691 233.17938085 207.95694374 234.86943928 203.875 236.5625 C203.875 239.8625 203.875 243.1625 203.875 246.5625 C212.61365553 243.83043727 221.03289726 240.33766819 229.5 236.875 C231.94426569 235.87632634 234.38855723 234.87771604 236.83288574 233.87919617 C238.53463642 233.18390753 240.23621285 232.48819226 241.93762207 231.79206848 C247.34050088 229.58494053 252.75496428 227.40924435 258.17941284 225.25569153 C261.79172331 223.8198028 265.39917661 222.37195736 269.00604248 220.92245483 C270.74938478 220.22520323 272.4948784 219.53330625 274.24249268 218.84683228 C276.68316456 217.88715288 279.11551518 216.90876749 281.546875 215.92578125 C282.27738068 215.64404053 283.00788635 215.3622998 283.76052856 215.07202148 C287.45915067 213.71529122 287.45915067 213.71529122 289.66490173 210.68751526 C290.04144026 206.87905877 287.7584704 203.69210155 286.01953125 200.4140625 C285.60696075 199.61413879 285.19439026 198.81421509 284.76931763 197.99005127 C283.42049813 195.38288591 282.05438028 192.78523541 280.6875 190.1875 C279.75056002 188.38600745 278.81444606 186.58408507 277.87915039 184.78173828 C272.85843464 175.1315527 267.75242877 165.53166578 262.47070312 156.02148438 C256.65611046 145.48709683 251.25407061 134.73266768 245.81030273 124.00341797 C242.00275579 116.51717726 238.12682452 109.08127465 234.02734375 101.75 C233.48452507 100.77451706 233.48452507 100.77451706 232.93074036 99.77932739 C230.02364471 94.63853376 226.70483303 90.04235056 222.875 85.5625 C221.71871094 84.1084375 221.71871094 84.1084375 220.5390625 82.625 C217.98379897 79.56692037 215.15432411 77.13551235 212 74.6875 C210.51886719 73.51574219 210.51886719 73.51574219 209.0078125 72.3203125 C197.96704498 64.58118175 185.78413819 59.71872363 173.10009766 55.40478516 C170.58139961 54.54766262 168.06980126 53.67177007 165.55859375 52.79296875 C163.95089161 52.23590793 162.34283194 51.67987764 160.734375 51.125 C159.98758484 50.8657373 159.24079468 50.60647461 158.47137451 50.33935547 C155.48338235 49.32721367 153.05283707 48.5625 149.875 48.5625 C149.14796875 50.06876953 149.14796875 50.06876953 148.40625 51.60546875 C139.86883846 69.1109305 129.80854119 84.72250316 116.1875 98.6875 C115.67743408 99.21988281 115.16736816 99.75226563 114.6418457 100.30078125 C109.14526081 105.76488353 102.93931357 109.06001708 95.16015625 109.59375 C89.13698488 109.51138184 84.30450866 107.9582744 79.09375 104.9765625 C78.29904297 104.52490723 77.50433594 104.07325195 76.68554688 103.60791016 C76.08806641 103.2629248 75.49058594 102.91793945 74.875 102.5625 C74.86041748 103.35422607 74.84583496 104.14595215 74.83081055 104.96166992 C74.75621644 108.55826543 74.65959167 112.15394443 74.5625 115.75 C74.53994141 116.99587891 74.51738281 118.24175781 74.49414062 119.52539062 C74.4409668 121.3284668 74.4409668 121.3284668 74.38671875 123.16796875 C74.36053467 124.27293701 74.33435059 125.37790527 74.30737305 126.51635742 C73.8246593 129.9171589 72.98165856 131.86137754 70.875 134.5625 C67.8125 135 67.8125 135 64.875 134.5625 C62.50866992 132.19616992 62.61392764 131.69613844 62.55615234 128.47998047 C62.52634781 127.21889969 62.52634781 127.21889969 62.49594116 125.93234253 C62.47861435 124.56977829 62.47861435 124.56977829 62.4609375 123.1796875 C62.43188828 121.78558151 62.43188828 121.78558151 62.4022522 120.36331177 C62.34236315 117.3881352 62.2960339 114.41292012 62.25 111.4375 C62.21182879 109.42316 62.17277757 107.40883646 62.1328125 105.39453125 C62.036654 100.45065425 61.9526576 95.50670083 61.875 90.5625 C60.59973608 89.90286452 59.32189042 89.24821857 58.04296875 88.59570312 C57.33164795 88.23061646 56.62032715 87.86552979 55.88745117 87.48937988 C53.46641093 86.37431507 51.53721028 86.02652419 48.875 86.0625 C48.111875 86.0521875 47.34875 86.041875 46.5625 86.03125 C43.90559707 86.55645174 42.1009963 87.36699629 39.70703125 88.59570312 C38.98878174 88.96215942 38.27053223 89.32861572 37.53051758 89.70617676 C36.98419678 89.98876343 36.43787598 90.2713501 35.875 90.5625 C35.79903314 97.20101606 35.74643544 103.83942035 35.71020508 110.47827148 C35.69510398 112.73742868 35.67462158 114.99655649 35.64868164 117.25561523 C35.61235692 120.49991093 35.59528692 123.74381956 35.58203125 126.98828125 C35.56654739 128.00086502 35.55106354 129.01344879 35.53511047 130.05671692 C35.53488388 130.99746567 35.53465729 131.93821442 35.53442383 132.9074707 C35.52776199 133.73575882 35.52110016 134.56404694 35.51423645 135.41743469 C35.96153175 138.07700944 36.74738573 138.95162221 38.875 140.5625 C41.352355 141.03439414 41.352355 141.03439414 44.12890625 141.00390625 C45.14791016 141.03033203 46.16691406 141.05675781 47.21679688 141.08398438 C48.27962891 141.09751953 49.34246094 141.11105469 50.4375 141.125 C52.54312697 141.15935162 54.64864115 141.20190794 56.75390625 141.25390625 C58.15491577 141.27239624 58.15491577 141.27239624 59.58422852 141.29125977 C61.875 141.5625 61.875 141.5625 63.875 143.5625 C64.3125 146.5 64.3125 146.5 63.875 149.5625 C59.45061934 153.41017931 54.67255669 153.011358 49.125 152.9375 C47.84109375 152.95490234 47.84109375 152.95490234 46.53125 152.97265625 C39.60897503 152.94119136 32.68287818 152.15438756 27.4375 147.3125 C24.14430698 141.51648029 23.56395846 135.72838018 23.4609375 129.22265625 C23.43188828 128.07222084 23.43188828 128.07222084 23.4022522 126.89854431 C23.34297442 124.47413894 23.29628089 122.04968472 23.25 119.625 C23.21177238 117.97068362 23.17271794 116.31638613 23.1328125 114.66210938 C23.03731637 110.62906156 22.95309693 106.59592073 22.875 102.5625 C22.05733154 102.98402344 21.23966309 103.40554687 20.3972168 103.83984375 C18.78327026 104.66162109 18.78327026 104.66162109 17.13671875 105.5 C16.07155029 106.04527344 15.00638184 106.59054688 13.90893555 107.15234375 C7.13095886 110.30270935 0.86637892 109.98782791 -6.125 107.5625 C-27.18681582 98.50549198 -44.06082609 68.78976496 -52.125 48.5625 C-56.22307504 48.5625 -59.6781141 50.01818334 -63.4921875 51.37890625 Z M-186.125 196.5625 C-187.16044174 198.47131434 -188.17790085 200.38989204 -189.1875 202.3125 C-189.75597656 203.37984375 -190.32445312 204.4471875 -190.91015625 205.546875 C-192.24415229 208.32752142 -192.24415229 208.32752142 -192.14135742 210.54736328 C-190.48897194 213.82355586 -187.33540007 214.56279786 -184.078125 215.8203125 C-183.3352121 216.12129852 -182.59229919 216.42228455 -181.82687378 216.73239136 C-179.34856932 217.732208 -176.86209428 218.709776 -174.375 219.6875 C-172.64512731 220.38015519 -170.91580639 221.07418981 -169.18701172 221.76953125 C-165.48255285 223.25637122 -161.77445792 224.73361846 -158.06347656 226.20410156 C-151.88524246 228.65375866 -145.71959383 231.13421923 -139.5546875 233.6171875 C-131.60466607 236.81504959 -123.65363 240.01033145 -115.6953125 243.1875 C-114.83984833 243.53046112 -113.98438416 243.87342224 -113.10299683 244.22677612 C-109.70897454 245.83881146 -109.70897454 245.83881146 -106.125 246.5625 C-106.125 243.2625 -106.125 239.9625 -106.125 236.5625 C-109.97741079 234.95409763 -113.83209696 233.3512161 -117.6875 231.75 C-118.60482407 231.36874969 -118.60482407 231.36874969 -119.54067993 230.97979736 C-128.8180788 227.12772858 -138.12286615 223.34718932 -147.4453125 219.60546875 C-148.50505783 219.17954941 -149.56480316 218.75363007 -150.65666199 218.31480408 C-154.94882792 216.58989557 -159.24097808 214.86505218 -163.53738403 213.15072632 C-166.58269198 211.93560315 -169.62550317 210.71440647 -172.66796875 209.4921875 C-173.59380768 209.12494064 -174.51964661 208.75769379 -175.47354126 208.37931824 C-176.32169403 208.03741959 -177.1698468 207.69552094 -178.04370117 207.34326172 C-178.78673996 207.04636444 -179.52977875 206.74946716 -180.29533386 206.443573 C-182.125 205.5625 -182.125 205.5625 -184.125 203.5625 C-184.52547444 201.23974823 -184.8647104 198.90510643 -185.125 196.5625 C-185.455 196.5625 -185.785 196.5625 -186.125 196.5625 Z " fill="#FFFFFF" transform="translate(207.125,4.4375)"/>
<path d="M0 0 C1.01369107 -0.00644889 2.02738213 -0.01289778 3.07179111 -0.0195421 C4.74715312 -0.01489629 4.74715312 -0.01489629 6.45636082 -0.01015663 C7.64033201 -0.01468774 8.82430321 -0.01921886 10.04415232 -0.02388728 C13.33618041 -0.03438117 16.62799056 -0.03585312 19.92001998 -0.03349853 C23.46815019 -0.03309116 27.01624754 -0.04412172 30.56436253 -0.05361366 C37.51763578 -0.07024162 44.47087514 -0.075724 51.42416661 -0.07683842 C57.0743333 -0.07778796 62.72448877 -0.08189356 68.37465191 -0.08823967 C84.38455374 -0.10585633 100.39442873 -0.11507778 116.40434032 -0.11357872 C117.69956274 -0.11345885 117.69956274 -0.11345885 119.02095127 -0.11333656 C119.88548381 -0.1132548 120.75001635 -0.11317304 121.64074684 -0.1130888 C135.65732936 -0.11227559 149.6738045 -0.13142093 163.69035595 -0.1596133 C178.07327575 -0.18831495 192.45614313 -0.20215512 206.83909231 -0.20042574 C214.91775773 -0.19976094 222.99631055 -0.20529275 231.07495022 -0.22678185 C237.95227211 -0.24495787 244.82943036 -0.24937055 251.70676582 -0.235763 C255.2171837 -0.22921532 258.72728733 -0.22918028 262.23767567 -0.2464695 C266.03947754 -0.26500182 269.84081615 -0.25269276 273.64264011 -0.23720741 C274.75731739 -0.24749454 275.87199468 -0.25778167 277.02045006 -0.26838052 C278.03674887 -0.25918293 279.05304768 -0.24998534 280.10014343 -0.24050903 C280.9779495 -0.24094377 281.85575557 -0.24137851 282.76016182 -0.24182642 C285.93812377 0.43230033 287.15831217 1.70709724 289.11299229 4.25726891 C289.05049229 7.88226891 289.05049229 7.88226891 288.11299229 11.25726891 C284.86363587 13.42350652 283.9782403 13.50851445 280.22598457 13.51453781 C278.70544797 13.52421115 278.70544797 13.52421115 277.15419346 13.53407991 C275.47883146 13.5294341 275.47883146 13.5294341 273.76962376 13.52469444 C271.99366696 13.53149111 271.99366696 13.53149111 270.18183225 13.53842509 C266.88980417 13.54891898 263.59799402 13.55039093 260.30596459 13.54803634 C256.75783438 13.54762897 253.20973703 13.55865953 249.66162205 13.56815147 C242.70834879 13.58477943 235.75510943 13.59026181 228.80181796 13.59137623 C223.15165128 13.59232578 217.5014958 13.59643138 211.85133266 13.60277748 C195.84143084 13.62039414 179.83155585 13.62961559 163.82164425 13.62811653 C162.95816264 13.62803662 162.09468103 13.62795671 161.2050333 13.62787437 C160.34050076 13.62779261 159.47596823 13.62771085 158.58523773 13.62762661 C144.56865521 13.6268134 130.55218008 13.64595874 116.53562862 13.67415111 C102.15270882 13.70285276 87.76984144 13.71669293 73.38689226 13.71496356 C65.30822685 13.71429875 57.22967403 13.71983056 49.15103436 13.74131966 C42.27371247 13.75949568 35.39655421 13.76390836 28.51921875 13.75030081 C25.00880087 13.74375313 21.49869724 13.74371809 17.98830891 13.76100731 C14.18650703 13.77953963 10.38516843 13.76723057 6.58334446 13.75174522 C5.46866718 13.76203235 4.3539899 13.77231948 3.20553452 13.78291833 C2.1892357 13.77372074 1.17293689 13.76452315 0.12584114 13.75504684 C-0.75196493 13.75548158 -1.62977099 13.75591632 -2.53417724 13.75636423 C-5.71213919 13.08223748 -6.9323276 11.80744057 -8.88700771 9.25726891 C-8.82450771 5.63226891 -8.82450771 5.63226891 -7.88700771 2.25726891 C-4.6376513 0.09103129 -3.75225572 0.00602336 0 0 Z " fill="#FFFFFF" transform="translate(115.88700771331787,469.74273109436035)"/>
<path d="M0 0 C2.65267176 1.94364697 4.64531632 4.36367193 6.75 6.875 C7.99057485 8.26952551 9.23408138 9.66144837 10.48046875 11.05078125 C11.0842334 11.73221191 11.68799805 12.41364258 12.31005859 13.11572266 C21.92470983 23.83601711 33.89513998 31.38270946 46 39 C46.66346436 39.41870361 47.32692871 39.83740723 48.01049805 40.26879883 C53.85970593 43.80373763 58.33485579 44.55884247 65 43 C71.42992326 40.09961824 77.23673604 36.0286503 83 32 C83.89912109 31.37665771 83.89912109 31.37665771 84.81640625 30.74072266 C95.91510716 22.95785703 107.57818756 13.56916043 115.5625 2.5 C118 0 118 0 121.625 -0.5625 C125 0 125 0 126.9375 1.125 C128.50884475 3.89796132 128.30646786 5.84721187 128 9 C125.4921386 13.06119399 122.21144093 16.47825113 119 20 C118.30390625 20.76699219 117.6078125 21.53398438 116.890625 22.32421875 C106.46374838 33.24108017 93.80219412 42.09506145 81 50 C80.41750488 50.36706055 79.83500977 50.73412109 79.23486328 51.11230469 C70.24601422 56.65521697 61.39357973 59.24989843 51 57 C30.01878739 50.44497768 0.68986098 28.19315948 -10 9 C-10.57143254 5.63489728 -10.60858305 4.07397009 -8.9375 1.125 C-5.76654355 -0.71620052 -3.61067797 -0.47499155 0 0 Z " fill="#FFFFFF" transform="translate(197,19)"/>
<path d="M0 0 C2 1 2 1 3 3 C3.51981506 6.56444611 3.63102777 9.73794446 2 13 C-1.26205554 14.63102777 -4.43555389 14.51981506 -8 14 C-10 13 -10 13 -11 11 C-11.51981506 7.43555389 -11.63102777 4.26205554 -10 1 C-6.73794446 -0.63102777 -3.56444611 -0.51981506 0 0 Z " fill="#FFFFFF" transform="translate(260,101)"/>
</svg>
