<?xml version="1.0" encoding="UTF-8"?>
<svg version="1.1" xmlns="http://www.w3.org/2000/svg" width="512" height="512" fill="#044B94" fill-opacity="0.2">
<path d="M0 0 C5.87079935 5.09000018 11.25986283 10.39650024 16.14794922 16.44628906 C18.84002189 13.75921096 21.52564077 11.06631749 24.19873047 8.36035156 C30.0032627 2.49658038 35.79426887 -3.28037018 42.14794922 -8.55371094 C42.68194336 -9.01213379 43.2159375 -9.47055664 43.76611328 -9.94287109 C58.33103162 -22.44098782 75.98223405 -36.86208493 96.26123047 -35.98730469 C103.44027358 -34.90899104 108.54609336 -31.88171203 113.02294922 -26.17871094 C123.17501084 -9.78661144 122.01731932 11.83056972 118.04858398 30.03369141 C109.73488817 64.85527331 91.93062733 96.0742945 69.14794922 123.44628906 C68.51083008 124.21875977 68.51083008 124.21875977 67.86083984 125.00683594 C56.25035872 139.04094359 43.84894673 151.64796973 29.14794922 162.44628906 C28.24044922 163.11402344 27.33294922 163.78175781 26.39794922 164.46972656 C22.36299012 167.35724417 18.32280559 169.89721268 13.96044922 172.25878906 C8.33521991 175.57600697 5.56766199 180.01082816 2.14794922 185.44628906 C-4.37579937 194.89494146 -11.6272488 203.43237944 -19.85205078 211.44628906 C-20.36380859 212.00316406 -20.87556641 212.56003906 -21.40283203 213.13378906 C-47.94758098 241.32692713 -88.21586513 253.27432652 -125.88330078 254.73535156 C-169.89447601 255.71721402 -210.56820404 242.93326122 -242.85205078 212.44628906 C-244.53867536 210.79982221 -246.20716785 209.13445839 -247.85205078 207.44628906 C-248.40892578 206.93453125 -248.96580078 206.42277344 -249.53955078 205.89550781 C-254.0490993 201.64962242 -257.77650665 197.06050043 -261.41455078 192.07128906 C-262.12840942 191.09313232 -262.12840942 191.09313232 -262.85668945 190.09521484 C-264.8916586 187.27452836 -266.84727758 184.4539465 -268.68798828 181.50097656 C-272.49553791 175.42747057 -276.38008748 172.57145269 -282.68408203 169.20410156 C-302.32314802 158.30696261 -320.20453937 140.04142774 -333.85205078 122.44628906 C-334.85829156 121.18044967 -335.86482187 119.91484041 -336.87158203 118.64941406 C-357.62715159 92.31371992 -374.4651622 62.37626081 -381.85205078 29.44628906 C-382.07634766 28.52976562 -382.30064453 27.61324219 -382.53173828 26.66894531 C-386.08205905 9.71981123 -386.05096755 -11.12378149 -376.72705078 -26.17871094 C-372.25382456 -31.87708828 -367.17595757 -34.83405932 -360.03564453 -36.02246094 C-337.75211807 -37.20933319 -318.16206959 -19.46000855 -302.67138672 -5.60302734 C-294.98122161 1.36586047 -287.46111197 8.42410624 -280.85205078 16.44628906 C-280.21267578 15.80691406 -279.57330078 15.16753906 -278.91455078 14.50878906 C-278.44919922 14.04859375 -277.98384766 13.58839844 -277.50439453 13.11425781 C-276.32998546 11.92874322 -275.1784804 10.72034603 -274.04345703 9.49707031 C-263.69212314 -1.40216027 -251.11893665 -9.62751111 -237.85205078 -16.55371094 C-237.25328125 -16.87404297 -236.65451172 -17.194375 -236.03759766 -17.52441406 C-166.99305467 -54.04324174 -61.57958231 -51.6599607 0 0 Z M-267.28955078 22.07128906 C-282.97454287 40.38668355 -284.00174088 66.16603293 -282.40673828 89.14892578 C-278.49378966 135.35485341 -263.37737614 178.09368692 -227.72705078 209.07128906 C-196.90026349 234.89482495 -156.3342781 244.28675445 -116.84179688 241.21191406 C-77.91889903 237.24857092 -43.90799597 220.8533363 -18.09814453 191.25488281 C10.73614984 155.1994782 23.037185 105.49065544 18.4296875 59.69921875 C15.63634917 37.36219441 5.817805 21.31043472 -11.71142578 7.13378906 C-82.22955533 -44.01925828 -205.9397274 -43.88264865 -267.28955078 22.07128906 Z M-365.85205078 -18.55371094 C-374.53348127 -2.77999318 -371.90670872 17.8461416 -367.26611328 34.55615234 C-359.82329305 60.14084688 -346.99688393 84.31583033 -330.85205078 105.44628906 C-330.43133301 106.00832031 -330.01061523 106.57035156 -329.57714844 107.14941406 C-316.54051752 124.55118521 -301.26830022 141.63993502 -282.85205078 153.44628906 C-281.5517814 150.8457503 -282.08041924 150.06381621 -282.92626953 147.32519531 C-283.17989258 146.48166504 -283.43351562 145.63813477 -283.69482422 144.76904297 C-284.11296387 143.40271729 -284.11296387 143.40271729 -284.53955078 142.00878906 C-294.42922354 108.53207449 -299.78057506 71.73184323 -289.75439453 37.68066406 C-289.45662109 36.61332031 -289.15884766 35.54597656 -288.85205078 34.44628906 C-288.32804687 32.99996094 -288.32804687 32.99996094 -287.79345703 31.52441406 C-287.89032307 26.43571822 -291.38314427 23.89831721 -294.85205078 20.44628906 C-295.51140625 19.75809082 -296.17076172 19.06989258 -296.85009766 18.36083984 C-305.04817318 9.83539683 -313.37048359 1.54391936 -322.85205078 -5.55371094 C-323.38894531 -5.96169922 -323.92583984 -6.3696875 -324.47900391 -6.79003906 C-344.55791844 -22.74164257 -344.55791844 -22.74164257 -365.85205078 -18.55371094 Z M40.14794922 11.44628906 C39.49584473 12.05907715 38.84374023 12.67186523 38.171875 13.30322266 C36.08636506 15.27333275 34.02142192 17.26304943 31.96044922 19.25878906 C31.30012695 19.88092285 30.63980469 20.50305664 29.95947266 21.14404297 C27.15824288 23.89585664 25.37235933 25.77727698 24.10888672 29.54394531 C24.1526528 32.79576537 24.78106255 35.04572468 25.96044922 38.07128906 C38.10182601 71.98341044 29.51189752 112.78409729 19.7487793 146.20825195 C19.10532132 148.6050741 18.61045687 151.00866168 18.14794922 153.44628906 C28.08511308 148.90681193 36.2588616 139.87592698 44.14794922 132.44628906 C45.13794922 131.52009766 45.13794922 131.52009766 46.14794922 130.57519531 C51.29573632 125.60615082 55.7108862 120.04717189 60.14794922 114.44628906 C60.95490234 113.43308594 61.76185547 112.41988281 62.59326172 111.37597656 C85.93914028 81.7628714 107.17605725 44.77072879 107.39794922 6.13378906 C107.41857422 5.24755859 107.43919922 4.36132812 107.46044922 3.44824219 C107.51219512 -5.41971247 105.76164983 -13.53658517 100.14794922 -20.55371094 C82.03647608 -32.62802636 51.8810611 0.31745762 40.14794922 11.44628906 Z " fill="#FFFFFF" transform="translate(387.85205078125,149.5537109375)"/>
<path d="M0 0 C2 2.1875 2 2.1875 3 5 C2.4375 7.6875 2.4375 7.6875 1 11 C-12.54127835 42.6328648 -5.41446249 81.98600114 7 113 C11.50865595 123.42788048 17.7684158 132.29932232 25 141 C25.68449219 141.86109375 26.36898437 142.7221875 27.07421875 143.609375 C46.0769928 166.34031234 75.3967273 177.94136062 104.25 180.6875 C106.16554466 180.81058721 108.08237182 180.91535986 110 181 C110.90363281 181.04125 111.80726563 181.0825 112.73828125 181.125 C143.20328901 181.79919104 171.66196098 172.84896342 195 153 C195.71414063 152.443125 196.42828125 151.88625 197.1640625 151.3125 C222.42954564 130.73261555 233.16525836 97.24060841 236.71875 66.0078125 C238.56712249 47.855332 239.89529454 26.93583127 230.625 10.375 C229 7 229 7 229.375 3.625 C231 1 231 1 233.8125 -0.5625 C237.79283283 -1.10882019 238.82961301 -0.36648538 242 2 C257.44989605 26.1966626 252.82228658 61.66271631 247.16503906 88.08666992 C240.89417621 115.59661428 229.53095226 137.72811631 210 158 C209.34644531 158.71671875 208.69289063 159.4334375 208.01953125 160.171875 C185.76491347 183.89748031 151.60423513 193.88273255 120 195 C82.76600548 195.55750766 48.93922032 183.9784778 22 158 C21.29230469 157.35546875 20.58460938 156.7109375 19.85546875 156.046875 C13.2373419 149.84659323 8.15648463 142.41257783 3 135 C2.42121094 134.19046875 1.84242188 133.3809375 1.24609375 132.546875 C-18.08153532 103.26578028 -24.37886822 57.0959619 -18 23 C-16.0655992 14.66705389 -13.11432162 6.91124544 -8 0 C-5.00422405 -1.49788797 -3.16806651 -0.90516186 0 0 Z " fill="#FFFFFF" transform="translate(140,184)"/>
<path d="M0 0 C0.87377008 -0.0060911 1.74754015 -0.01218221 2.64778811 -0.01845789 C5.58120584 -0.0351322 8.51419159 -0.03030576 11.44764709 -0.0255127 C13.54847669 -0.03285042 15.64930225 -0.04143578 17.75012207 -0.05117798 C23.46081817 -0.07343319 29.17137016 -0.07632267 34.88210368 -0.07443047 C39.64622045 -0.07431096 44.41030646 -0.08286706 49.17441469 -0.09120798 C60.41167179 -0.11045628 71.64885459 -0.11332057 82.88612366 -0.10656738 C94.4866914 -0.09992429 106.08694135 -0.12279869 117.68744463 -0.15988111 C127.64083059 -0.19054627 137.59411417 -0.20194163 147.54754645 -0.1980443 C153.49514268 -0.19597362 159.44249166 -0.20150553 165.39004326 -0.22593689 C170.9822295 -0.24814888 176.5738979 -0.2463722 182.1660862 -0.22600937 C184.22000401 -0.22258957 186.27395632 -0.22772992 188.32782745 -0.24199295 C191.12907254 -0.26010578 193.92854592 -0.24749599 196.72973633 -0.22705078 C197.54510658 -0.23956863 198.36047683 -0.25208648 199.20055526 -0.26498365 C203.27079298 -0.20116602 205.20607206 0.22353952 208.47202396 2.73403168 C210.42835999 5.39440918 210.42835999 5.39440918 210.42835999 8.58190918 C209.42835999 11.39440918 209.42835999 11.39440918 206.42835999 13.39440918 C203.55175387 13.59274673 200.77162583 13.67258484 197.89431763 13.66183472 C197.01252931 13.66636583 196.13074098 13.67089694 195.22223181 13.67556536 C192.25581365 13.68826571 189.28957777 13.68658538 186.32313538 13.68493652 C184.20112877 13.69091821 182.07912434 13.69772292 179.9571228 13.70529175 C174.18447712 13.72299441 168.41189068 13.72764889 162.63922048 13.72892332 C157.82535975 13.73081966 153.01151292 13.73817403 148.19765753 13.74526751 C136.84396854 13.76156488 125.49031128 13.76643519 114.13661194 13.76501465 C102.41169563 13.76381249 90.68696318 13.78492606 78.96209341 13.81650198 C68.90599386 13.84262201 58.84995451 13.85338376 48.79382128 13.85210383 C42.78311642 13.85159299 36.77257493 13.85734365 30.76190376 13.87845993 C25.11070684 13.89777067 19.45983033 13.89801595 13.80862236 13.88342667 C11.73170888 13.88132863 9.65477571 13.88609826 7.57789612 13.89814758 C4.74801164 13.91350532 1.91924511 13.90435495 -0.91061401 13.8888855 C-1.73736112 13.89917262 -2.56410823 13.90945975 -3.41590828 13.92005861 C-7.0196851 13.8763607 -9.15393272 13.69676139 -12.11295414 11.55491066 C-13.57164001 9.39440918 -13.57164001 9.39440918 -13.57164001 6.33190918 C-11.29525964 -0.35495817 -6.27886299 -0.04091643 0 0 Z " fill="#FFFFFF" transform="translate(157.57164001464844,249.6055908203125)"/>
<path d="M0 0 C0.80083008 0.19255371 1.60166016 0.38510742 2.42675781 0.58349609 C4.98981164 1.23767485 7.55010514 1.9014887 10.109375 2.5703125 C22.71138878 5.84478195 35.29976569 8.23085567 48.1796875 10.05078125 C48.91354675 10.1556485 49.64740601 10.26051575 50.40350342 10.36856079 C69.57177111 13.08062622 88.30790032 13.96270256 107.6171875 12.05078125 C108.27838593 11.98581451 108.93958435 11.92084778 109.62081909 11.85391235 C129.1151234 9.90863812 148.39142673 6.76421992 167.15649414 1.0300293 C175.04070333 -1.32553005 175.04070333 -1.32553005 178.9921875 0.23828125 C181.49226224 3.06094628 182.02124679 4.52632855 181.8671875 8.30078125 C178.7700841 13.1529099 174.38166858 13.77261937 168.9921875 15.23828125 C168.31317383 15.42745117 167.63416016 15.61662109 166.93457031 15.81152344 C116.78081988 29.5380457 41.55253111 37.97331159 -5.80859375 11.68359375 C-8.0078125 10.23828125 -8.0078125 10.23828125 -9.0078125 9.23828125 C-9.27074306 5.20667934 -9.30186094 3.67935391 -7.0078125 0.23828125 C-3.85858982 -0.81145964 -3.08071132 -0.75374596 0 0 Z " fill="#FFFFFF" transform="translate(169.0078125,292.76171875)"/>
<path d="M0 0 C0.83772949 0.18933105 1.67545898 0.37866211 2.53857422 0.57373047 C15.91557399 3.79057399 15.91557399 3.79057399 19.625 7.5 C20.09579165 13.85568723 20.09579165 13.85568723 18.35717773 16.23510742 C15.71825594 18.16213403 13.32811747 17.46282215 10.23876953 17.00244141 C5.46490602 16.08476804 0.77060808 14.89240812 -3.9375 13.6875 C-16.32942148 10.62513388 -28.73645255 8.27788605 -41.375 6.5 C-42.21272949 6.38140625 -43.05045898 6.2628125 -43.91357422 6.140625 C-80.27375115 1.22332999 -123.70711886 4.11748579 -158.48486328 16.91040039 C-161.54759042 17.86577188 -164.21574602 17.87911048 -167.375 17.5 C-169.3125 16.375 -169.3125 16.375 -170.375 14.5 C-170.87802223 11.122565 -170.95233502 9.30858365 -168.94140625 6.4921875 C-165.23314863 3.61363136 -161.38005228 2.71894332 -156.875 1.5625 C-155.42988037 1.18291138 -155.42988037 1.18291138 -153.95556641 0.7956543 C-102.38270873 -12.29629551 -51.67241093 -11.90036851 0 0 Z " fill="#FFFFFF" transform="translate(330.375,208.5)"/>
<path d="M0 0 C2.6015625 2.5078125 2.6015625 2.5078125 3.1640625 5.6328125 C2.6015625 8.5078125 2.6015625 8.5078125 1.5390625 10.3828125 C-1.49204931 12.1428129 -4.05287883 12.17072876 -7.3984375 11.5078125 C-9.00282822 10.82622693 -10.58447547 10.09015095 -12.1484375 9.3203125 C-25.86019454 2.70794879 -41.44095018 0.50837643 -56.3984375 -1.4921875 C-57.31625 -1.62496094 -58.2340625 -1.75773438 -59.1796875 -1.89453125 C-86.23856954 -5.2768915 -116.62603936 -0.70068239 -141.3984375 10.5078125 C-147.37872228 12.82982783 -147.37872228 12.82982783 -150.7734375 11.7578125 C-152.3984375 10.5078125 -152.3984375 10.5078125 -153.3984375 8.5078125 C-153.97276652 3.22398549 -153.97276652 3.22398549 -151.78515625 0.49609375 C-137.82500566 -11.13355707 -112.77591779 -13.20455168 -95.3984375 -15.4921875 C-94.4084375 -15.62496094 -93.4184375 -15.75773438 -92.3984375 -15.89453125 C-65.76572534 -18.85823245 -21.96784585 -17.25189603 0 0 Z " fill="#FFFFFF" transform="translate(331.3984375,148.4921875)"/>
</svg>
