<?xml version="1.0" encoding="UTF-8"?>
<svg version="1.1" xmlns="http://www.w3.org/2000/svg" width="512" height="512" fill="#044B94" fill-opacity="0.2">
<path d="M0 0 C6.1493678 3.52963713 10.39963195 8.14124651 12.5625 14.9375 C13.05001643 17.94615091 13.30973544 20.96365857 13.5625 24 C13.68214111 25.33744263 13.68214111 25.33744263 13.80419922 26.7019043 C14.8839992 39.10066018 15.71963348 51.52080236 16.5625 63.9375 C50.34572931 74.73276149 85.71142635 78.33598126 118.51123047 61.96484375 C126.3946664 57.81919286 132.96194649 52.96043807 139.33886719 46.76538086 C147.57477359 38.89629555 156.06360777 36.54816346 167.17578125 36.66015625 C175.45283228 37.33797704 182.58123369 41.28869417 188.5625 46.9375 C193.07082745 52.65633731 196.02866392 58.75453254 198.5 65.5625 C199.00031738 66.91396118 199.00031738 66.91396118 199.51074219 68.29272461 C205.66431853 85.2005052 210.51555517 102.20251244 213.5625 119.9375 C213.88347656 121.69320312 213.88347656 121.69320312 214.2109375 123.484375 C220.69015135 162.73526469 216.26767379 213.03018304 192.6875 246.5 C184.56103709 257.4591865 173.3726718 267.20116502 159.5625 269.9375 C157.72545657 270.02911928 155.88541054 270.06657815 154.04608536 270.06892776 C152.91733498 270.07276891 151.7885846 270.07661005 150.62562966 270.0805676 C149.38520276 270.07970112 148.14477585 270.07883463 146.86676025 270.07794189 C145.54903806 270.08091302 144.23131588 270.08388414 142.87366271 270.0869453 C139.21211788 270.09501544 135.55059266 270.0968049 131.88903999 270.09754276 C127.94041544 270.09939358 123.99180105 270.10694165 120.04318237 270.11367798 C111.40158891 270.12726764 102.76000008 270.1332886 94.11839771 270.13768864 C88.71432459 270.14045316 83.31025325 270.14469121 77.90618134 270.14919281 C62.92482236 270.1613923 47.94346482 270.17168637 32.96210098 270.1750679 C32.00283769 270.17528747 31.0435744 270.17550703 30.05524252 270.17573325 C29.0937329 270.17595153 28.13222328 270.17616981 27.14157701 270.1763947 C25.193343 270.17683816 23.245109 270.17728472 21.296875 270.17773438 C20.33049204 270.1779558 19.36410908 270.17817723 18.36844179 270.17840537 C2.75529351 270.18234228 -12.85780777 270.19975924 -28.47093794 270.2230939 C-44.5263985 270.24689415 -60.58183561 270.25927388 -76.63731408 270.26043582 C-85.64102499 270.26134837 -94.64467487 270.26699278 -103.64836884 270.28525543 C-111.32655881 270.30077472 -119.00466896 270.30570851 -126.68287167 270.29751733 C-130.59064707 270.29365053 -134.49826234 270.29434142 -138.4060173 270.30857468 C-179.94147538 270.45087943 -222.82029188 266.17655938 -255.4375 237.9375 C-256.26765625 237.25171875 -257.0978125 236.5659375 -257.953125 235.859375 C-264.51830852 230.26084427 -269.59631861 224.06379126 -274.4375 216.9375 C-275.38109375 215.55111328 -275.38109375 215.55111328 -276.34375 214.13671875 C-283.68624541 202.49499905 -288.52080723 188.29382637 -288.6875 174.5 C-288.71328125 173.22253906 -288.7390625 171.94507813 -288.765625 170.62890625 C-288.27089582 165.063203 -286.49667495 161.67822028 -282.375 157.99536133 C-278.41481847 154.68481646 -274.32168243 152.89256506 -269.515625 151.109375 C-268.21640106 150.6090274 -268.21640106 150.6090274 -266.89093018 150.09857178 C-264.08014379 149.02498109 -261.26092951 147.97735721 -258.4375 146.9375 C-257.50252686 146.59227295 -256.56755371 146.2470459 -255.60424805 145.89135742 C-248.48269292 143.27441875 -241.33666727 140.72781223 -234.1875 138.1875 C-231.90539293 137.37347761 -229.62341329 136.55909791 -227.34155273 135.74438477 C-222.54267744 134.0315993 -217.74305001 132.32094485 -212.94287109 130.61181641 C-205.85996431 128.08920574 -198.77985933 125.55881034 -191.70052719 123.0261879 C-185.96723878 120.97517508 -180.23359272 118.92516195 -174.5 116.875 C-173.2783313 116.43812866 -172.0566626 116.00125732 -170.79797363 115.55114746 C-167.33561769 114.31334555 -163.87293925 113.07645038 -160.41015625 111.83984375 C-158.87153679 111.28957771 -158.87153679 111.28957771 -157.30183411 110.72819519 C-152.69508114 109.08395532 -148.08744793 107.45674135 -143.4375 105.9375 C-143.788125 105.421875 -144.13875 104.90625 -144.5 104.375 C-145.81977484 100.94358541 -145.22403937 98.47692718 -144.4375 94.9375 C-142.4375 92.9375 -142.4375 92.9375 -139.1875 92.5 C-134.31825225 93.0680789 -132.88544083 94.57365529 -129.4375 97.9375 C-126.7975 95.6275 -124.1575 93.3175 -121.4375 90.9375 C-122.13052969 86.33217611 -122.13052969 86.33217611 -123.4375 83.9375 C-123.88470497 78.68284161 -123.88470497 78.68284161 -122.3125 76.0625 C-119.49931421 74.37458853 -117.66257435 74.48598959 -114.4375 74.9375 C-112.7875 76.2575 -111.1375 77.5775 -109.4375 78.9375 C-104.8175 74.6475 -100.1975 70.3575 -95.4375 65.9375 C-96.0975 64.2875 -96.7575 62.6375 -97.4375 60.9375 C-98.3125 58.4375 -98.3125 58.4375 -98.4375 55.9375 C-96.875 53.125 -96.875 53.125 -94.4375 50.9375 C-91.5 50.375 -91.5 50.375 -88.4375 50.9375 C-86.73505405 52.22483576 -85.06288156 53.55413803 -83.4375 54.9375 C-82.52226562 54.01066406 -81.60703125 53.08382812 -80.6640625 52.12890625 C-79.4636739 50.91913961 -78.26314583 49.70951135 -77.0625 48.5 C-76.45921875 47.88833984 -75.8559375 47.27667969 -75.234375 46.64648438 C-74.65429688 46.06318359 -74.07421875 45.47988281 -73.4765625 44.87890625 C-72.67532959 44.06981812 -72.67532959 44.06981812 -71.85791016 43.24438477 C-70.4375 41.9375 -70.4375 41.9375 -68.4375 40.9375 C-68.746875 40.31875 -69.05625 39.7 -69.375 39.0625 C-71.22629491 35.35991017 -71.78241718 33.16273549 -71.4375 28.9375 C-70.3125 27.0625 -70.3125 27.0625 -68.4375 25.9375 C-65.5625 25.5 -65.5625 25.5 -62.4375 25.9375 C-60.73178173 27.22049678 -59.05900772 28.54959933 -57.4375 29.9375 C-56.18398408 28.78644538 -54.93077058 27.63506039 -53.67871094 26.48242188 C-52.54120914 25.43557613 -51.40249873 24.3900424 -50.26269531 23.34570312 C-46.82679286 20.18562272 -43.44301105 16.98271922 -40.10546875 13.71875 C-39.00513306 12.65333984 -39.00513306 12.65333984 -37.88256836 11.56640625 C-36.45070321 10.17769931 -35.02784211 8.7796298 -33.61547852 7.37109375 C-24.21375748 -1.6960184 -12.51810028 -5.69347332 0 0 Z M-33.7890625 26.28515625 C-37.97841188 30.48068461 -42.49362212 34.27809206 -47 38.125 C-47.7115625 39.0221875 -47.7115625 39.0221875 -48.4375 39.9375 C-48.03226355 43.20337753 -46.79699716 45.01390584 -44.63671875 47.43359375 C-44.07146484 48.07490234 -43.50621094 48.71621094 -42.92382812 49.37695312 C-42.33021484 50.03630859 -41.73660156 50.69566406 -41.125 51.375 C-39.96142322 52.68547352 -38.79864503 53.9966566 -37.63671875 55.30859375 C-37.08677246 55.92718262 -36.53682617 56.54577148 -35.97021484 57.18310547 C-34.05265292 59.3780083 -32.23034678 61.64000006 -30.4375 63.9375 C-29.47972656 63.64875 -28.52195312 63.36 -27.53515625 63.0625 C-17.31609194 60.15535239 -8.02758433 59.46566456 2.5625 59.9375 C2.69937005 51.84578919 2.29154717 43.82203773 1.75 35.75 C1.67974609 34.51830078 1.60949219 33.28660156 1.53710938 32.01757812 C1.02672668 24.44349897 0.57888036 18.3974657 -4.5625 12.5 C-16.99668459 5.74229098 -25.80320351 18.13152712 -33.7890625 26.28515625 Z M-59.4375 49.9375 C-60.10136719 50.60136719 -60.76523438 51.26523438 -61.44921875 51.94921875 C-65.77864583 56.27864583 -70.10807292 60.60807292 -74.4375 64.9375 C-71.8753513 66.54223003 -69.31279445 68.14630182 -66.75 69.75 C-66.02876953 70.20181641 -65.30753906 70.65363281 -64.56445312 71.11914062 C-63.15790485 71.99903612 -61.75006075 72.87686415 -60.34082031 73.75244141 C-58.74385103 74.74675758 -57.1542274 75.75285824 -55.56640625 76.76171875 C-53.49633671 78.12886936 -53.49633671 78.12886936 -51.0625 77.9375 C-47.39704179 76.54113497 -44.51314378 74.33951575 -41.4375 71.9375 C-42.72390505 69.16701358 -44.12173771 66.9338532 -46.1171875 64.625 C-46.63410156 64.02429688 -47.15101563 63.42359375 -47.68359375 62.8046875 C-48.22113281 62.18851563 -48.75867188 61.57234375 -49.3125 60.9375 C-49.84230469 60.32132813 -50.37210938 59.70515625 -50.91796875 59.0703125 C-53.65285631 55.90788668 -56.42804961 52.84518154 -59.4375 49.9375 Z M147.5 57.625 C141.68467547 63.0316801 135.50782088 67.06461444 128.5625 70.9375 C127.50675781 71.54464844 126.45101563 72.15179688 125.36328125 72.77734375 C118.44084572 76.5211935 111.54293186 79.06886252 104 81.25 C103.16210938 81.49250488 102.32421875 81.73500977 101.4609375 81.98486328 C90.214569 85.05936317 79.07998846 86.30943077 67.4375 86.25 C66.26243896 86.24436035 65.08737793 86.2387207 63.87670898 86.23291016 C45.20455734 85.9753984 27.93693532 81.91707545 10.4609375 75.4375 C0.00397466 71.59445641 -9.75222862 69.93654876 -20.4375 73.9375 C-18.91554858 77.42196773 -16.81265431 79.90484232 -14.3125 82.75 C-9.87531797 88.19197869 -9.87531797 88.19197869 -9.8125 91.9375 C-10.4375 94.9375 -10.4375 94.9375 -12.4375 96.9375 C-15.203125 97.42578125 -15.203125 97.42578125 -18.4375 96.9375 C-20.64836576 95.03107163 -22.34682352 93.33534142 -24.1875 91.125 C-24.66832031 90.57779297 -25.14914062 90.03058594 -25.64453125 89.46679688 C-27.75353558 87.04349803 -29.65410528 84.61259208 -31.4375 81.9375 C-34.39925123 82.55027612 -35.81808783 83.19122522 -38.4375 84.9375 C-38.4375 85.5975 -38.4375 86.2575 -38.4375 86.9375 C-36.2215167 88.49649937 -36.2215167 88.49649937 -33.5 90 C-28.49710265 92.87789735 -28.49710265 92.87789735 -27.4375 93.9375 C-27.1875 97.375 -27.1875 97.375 -27.4375 100.9375 C-30.4375 102.9375 -30.4375 102.9375 -33.1796875 102.82421875 C-37.77309239 101.57397545 -41.45217496 99.11879894 -45.40234375 96.55664062 C-47.38661198 95.2938058 -47.38661198 95.2938058 -50.4375 93.9375 C-52.85198699 94.5361476 -52.85198699 94.5361476 -54.4375 95.9375 C-51.61420032 101.13237141 -48.40821947 105.799537 -44.828125 110.5078125 C-43.24291835 113.27747131 -43.018497 114.79762942 -43.4375 117.9375 C-45.125 119.8125 -45.125 119.8125 -47.4375 120.9375 C-50.99460467 120.7843796 -52.21300479 120.16313093 -54.75390625 117.609375 C-55.49511719 116.64515625 -56.23632812 115.6809375 -57 114.6875 C-57.74378906 113.73359375 -58.48757812 112.7796875 -59.25390625 111.796875 C-59.97449219 110.85328125 -60.69507813 109.9096875 -61.4375 108.9375 C-62.76721427 107.26794452 -64.0993617 105.60031131 -65.4375 103.9375 C-68.86309084 105.14108597 -70.97008609 106.29642646 -73.4375 108.9375 C-72.94378906 109.27523437 -72.45007813 109.61296875 -71.94140625 109.9609375 C-71.30074219 110.40695313 -70.66007813 110.85296875 -70 111.3125 C-69.36191406 111.75335938 -68.72382813 112.19421875 -68.06640625 112.6484375 C-66.4375 113.9375 -66.4375 113.9375 -65.4375 115.9375 C-65.25 118.9375 -65.25 118.9375 -65.4375 121.9375 C-67.4375 123.9375 -67.4375 123.9375 -70.24609375 124.28515625 C-74.95235114 123.7724795 -77.38402507 121.2794157 -80.97265625 118.37109375 C-83.3714088 116.65294304 -83.3714088 116.65294304 -86.24609375 117.22265625 C-86.96925781 117.45855469 -87.69242188 117.69445312 -88.4375 117.9375 C-87.34723839 121.80297299 -85.85874706 125.01163028 -83.8125 128.4375 C-81.721916 132.09448027 -80.70443865 134.64385493 -81.4375 138.9375 C-83.4375 140.9375 -83.4375 140.9375 -86.6875 141.6875 C-90.4375 140.9375 -90.4375 140.9375 -92.08984375 138.87890625 C-93.12503577 137.10617284 -94.1219995 135.31063097 -95.08203125 133.49609375 C-96.57100569 130.68549359 -98.35725191 128.33778626 -100.4375 125.9375 C-101.4275 126.5975 -102.4175 127.2575 -103.4375 127.9375 C-103.80112818 130.14475073 -103.80112818 130.14475073 -103.625 132.5625 C-103.59792969 133.37976563 -103.57085937 134.19703125 -103.54296875 135.0390625 C-103.50816406 135.66554688 -103.47335938 136.29203125 -103.4375 136.9375 C-105.66710181 138.34132336 -107.13558543 138.93298633 -109.7890625 138.97265625 C-113.78819872 137.40957203 -116.02065939 134.55862013 -118.8125 131.375 C-119.35132813 130.77880859 -119.89015625 130.18261719 -120.4453125 129.56835938 C-122.12399431 127.70382351 -123.78329841 125.82377939 -125.4375 123.9375 C-126.41444824 122.8239917 -126.41444824 122.8239917 -127.41113281 121.68798828 C-129.08858493 119.77289008 -130.76404393 117.85609001 -132.4375 115.9375 C-133.58182495 116.34137939 -133.58182495 116.34137939 -134.74926758 116.75341797 C-136.48295706 117.36530837 -138.21666507 117.97714653 -139.95059204 118.58836365 C-143.53473666 119.85221326 -147.11726147 121.1204155 -150.69750977 122.39526367 C-159.25927 125.43786992 -167.83687868 128.42189811 -176.44947815 131.31793213 C-181.10623062 132.88734489 -185.75569357 134.47774179 -190.40463257 136.07012939 C-192.71654111 136.85614211 -195.03170034 137.63265816 -197.3500061 138.39959717 C-200.63666508 139.48827519 -203.91049405 140.60960043 -207.18359375 141.73828125 C-208.17589996 142.05784286 -209.16820618 142.37740448 -210.19058228 142.70664978 C-215.04343696 144.31116342 -215.04343696 144.31116342 -218.73440552 147.64315796 C-220.55139454 151.63396361 -220.93523099 154.81873978 -219.4375 158.9375 C-215.56248083 161.86163808 -212.07851446 162.54292934 -207.3125 163.125 C-206.09304687 163.28355469 -204.87359375 163.44210937 -203.6171875 163.60546875 C-193.97284319 164.52144879 -184.30175592 163.74594613 -174.66796875 163.0625 C-171.92516944 162.87657004 -169.18208901 162.69498362 -166.43896484 162.51391602 C-165.36976728 162.44312883 -165.36976728 162.44312883 -164.27896976 162.3709116 C-103.623754 158.3763249 -41.46193694 155.71564258 17.98828125 170.76928711 C27.00950295 172.98423687 35.11127874 171.4971049 44.125 170.0625 C88.78701151 163.34631898 133.17802633 165.6341073 177.63476562 172.3515625 C180.14030353 172.72533742 182.64936251 173.07667501 185.16210938 173.3984375 C186.22751953 173.54539062 187.29292969 173.69234375 188.390625 173.84375 C189.30231445 173.96041016 190.21400391 174.07707031 191.15332031 174.19726562 C194.21741204 175.13872551 195.59862206 176.43007949 197.5625 178.9375 C197.4375 182.125 197.4375 182.125 196.5625 184.9375 C190.10094848 188.16827576 180.52485026 185.08443158 173.80279541 183.97128296 C100.34401736 171.94576496 30.21275224 179.6079187 -39.99108887 204.4397583 C-107.6977134 228.38299785 -180.22746048 241.870962 -247.98046875 209.82421875 C-254.92679994 206.44381301 -261.74851784 202.80224525 -268.4375 198.9375 C-263.2614329 216.87941134 -246.17591419 231.06973129 -230.49267578 240.05126953 C-213.42391536 249.30016574 -194.56698088 253.55779783 -175.4375 255.9375 C-174.7470459 256.0303125 -174.0565918 256.123125 -173.34521484 256.21875 C-124.79198748 262.30582279 -73.95025247 246.63105531 -27.06761169 235.87427139 C12.15754791 226.87684257 51.33695175 218.85850835 91.5625 215.9375 C92.30467773 215.87965332 93.04685547 215.82180664 93.81152344 215.76220703 C118.642406 213.88849287 143.90635325 214.32979444 168.75 215.75 C169.43098755 215.78493561 170.1119751 215.81987122 170.81359863 215.85586548 C172.72427578 215.95741722 174.63370582 216.08167182 176.54296875 216.20703125 C178.15014771 216.30914917 178.15014771 216.30914917 179.78979492 216.41333008 C182.8125898 216.98477858 184.29372456 217.90546041 186.5625 219.9375 C185.6875 226.8125 185.6875 226.8125 184.5625 227.9375 C176.61694317 228.32676359 168.66246667 227.92007898 160.73046875 227.44140625 C150.90079337 226.89168923 141.09360152 226.73702909 131.25 226.75 C130.38776825 226.75060425 129.5255365 226.7512085 128.63717651 226.75183105 C63.62673013 226.87420085 1.54196149 241.47337588 -61.4375 255.9375 C-61.4375 256.2675 -61.4375 256.5975 -61.4375 256.9375 C-32.92582096 257.05434951 -4.41417785 257.14249631 24.09769249 257.19656086 C37.33653141 257.22233224 50.57522147 257.25746274 63.81396484 257.31469727 C75.35409922 257.36456444 86.89412578 257.39679876 98.43436491 257.40794247 C104.54374454 257.41445551 110.65281572 257.4297415 116.76209641 257.46615028 C122.5158807 257.50016169 128.26923035 257.51054235 134.02310562 257.50303841 C136.13137933 257.50441063 138.23966802 257.51431206 140.34785461 257.53352737 C155.26254169 257.96804139 155.26254169 257.96804139 168.5625 251.9375 C169.52542969 251.24269531 170.48835938 250.54789063 171.48046875 249.83203125 C196.05689944 227.28601135 201.77545271 190.43605304 203.40234375 158.58203125 C204.47717697 126.59294726 198.1780384 83.83109778 179.5625 56.9375 C173.71807093 51.31065151 169.11568681 49.73812033 161.16015625 49.57421875 C155.32482172 50.39028809 151.58078059 53.60729175 147.5 57.625 Z M-91.25 80.125 C-92.12269531 80.90230469 -92.99539062 81.67960937 -93.89453125 82.48046875 C-96.3237877 84.82763051 -98.39254408 87.25379328 -100.4375 89.9375 C-98.22092876 91.64416987 -95.99179595 93.32705137 -93.75 95 C-92.81124023 95.72799805 -92.81124023 95.72799805 -91.85351562 96.47070312 C-88.18051214 99.25227626 -88.18051214 99.25227626 -83.75 99.9375 C-81.22158074 98.84412951 -79.27889146 97.59081184 -77.125 95.875 C-76.42761719 95.32714844 -75.73023438 94.77929688 -75.01171875 94.21484375 C-74.49222656 93.79332031 -73.97273438 93.37179688 -73.4375 92.9375 C-79.10548947 84.19781695 -79.10548947 84.19781695 -85.4375 75.9375 C-87.58970587 75.9375 -89.78327904 78.80860183 -91.25 80.125 Z M-115.9453125 103.25 C-116.47898438 103.806875 -117.01265625 104.36375 -117.5625 104.9375 C-118.10132813 105.494375 -118.64015625 106.05125 -119.1953125 106.625 C-119.60523438 107.058125 -120.01515625 107.49125 -120.4375 107.9375 C-119.03678507 113.22908974 -115.58262755 115.71228044 -111.4375 118.9375 C-109.7875 117.6175 -108.1375 116.2975 -106.4375 114.9375 C-108.12423918 110.43952887 -110.25423892 106.20863698 -112.4375 101.9375 C-114.51925012 101.71864478 -114.51925012 101.71864478 -115.9453125 103.25 Z M-244.24609375 155.67578125 C-245.00922379 155.95721481 -245.77235382 156.23864838 -246.55860901 156.52861023 C-248.17255871 157.12556635 -249.78557024 157.72506418 -251.39770508 158.3269043 C-253.85907252 159.24406506 -256.32474524 160.14885404 -258.79101562 161.05273438 C-260.35965249 161.63466922 -261.92802104 162.21732795 -263.49609375 162.80078125 C-264.59938271 163.20409416 -264.59938271 163.20409416 -265.72496033 163.61555481 C-269.34747323 164.97932158 -272.60173463 166.25174414 -275.4375 168.9375 C-277.31602905 177.51519516 -274.51522237 186.94983258 -271.4375 194.9375 C-269.9194657 197.26419772 -269.9194657 197.26419772 -268.4375 198.9375 C-268.2828125 197.266875 -268.2828125 197.266875 -268.125 195.5625 C-267.898125 194.36625 -267.67125 193.17 -267.4375 191.9375 C-264.4375 189.9375 -264.4375 189.9375 -261.60961914 190.14404297 C-258.3295125 190.96451142 -255.68987654 192.09294186 -252.68359375 193.6328125 C-251.59240234 194.18074463 -250.50121094 194.72867676 -249.37695312 195.29321289 C-248.22130859 195.87707764 -247.06566406 196.46094238 -245.875 197.0625 C-218.40186841 210.65951178 -189.59008799 217.4138075 -158.9375 217.25 C-157.83449051 217.24676727 -157.83449051 217.24676727 -156.709198 217.24346924 C-113.03202669 217.0397747 -72.69728089 202.90609627 -31.86303711 188.84057617 C-30.26702164 188.29270447 -30.26702164 188.29270447 -28.63876343 187.73376465 C-26.63915541 187.04708818 -24.64048159 186.3576822 -22.64297485 185.66491699 C-16.30408995 183.49091687 -9.92222803 181.62647308 -3.4375 179.9375 C-8.06364856 176.85340096 -13.12334449 176.71800662 -18.5625 175.9375 C-19.62726563 175.7725 -20.69203125 175.6075 -21.7890625 175.4375 C-43.77578235 172.21009158 -65.80919248 171.5681802 -88 171.625 C-89.35231516 171.62572929 -90.70463047 171.62622491 -92.0569458 171.62649536 C-114.97792234 171.64292394 -137.7468607 172.73097647 -160.60575867 174.3946228 C-213.10376645 178.16910487 -213.10376645 178.16910487 -225.4375 169.9375 C-230.76628599 165.18792987 -231.93960614 159.78153535 -233.4375 152.9375 C-237.38072523 152.9375 -240.6009813 154.31693645 -244.24609375 155.67578125 Z " fill="#FFFFFF" transform="translate(292.4375,122.0625)"/>
</svg>
