<?xml version="1.0" encoding="UTF-8"?>
<svg version="1.1" xmlns="http://www.w3.org/2000/svg" width="512" height="512" fill="#044B94" fill-opacity="0.2">
<path d="M0 0 C3.87369706 3.34632177 7.58978032 6.75788857 10.47265625 11.01953125 C10.47265625 11.67953125 10.47265625 12.33953125 10.47265625 13.01953125 C11.62314453 13.04080078 11.62314453 13.04080078 12.796875 13.0625 C35.99611915 14.05944777 60.21260721 21.13035858 76.72265625 38.14453125 C83.85735014 46.64170262 88.27706372 57.21046035 90.47265625 68.01953125 C90.65957031 68.87804687 90.84648437 69.7365625 91.0390625 70.62109375 C91.66774863 75.54863372 91.57676798 80.43313289 91.53515625 85.39453125 C91.53064453 86.41675781 91.52613281 87.43898438 91.52148438 88.4921875 C91.50975925 91.00136319 91.49334801 93.51041615 91.47265625 96.01953125 C92.24222656 96.0453125 93.01179688 96.07109375 93.8046875 96.09765625 C149.0635044 98.82648671 149.0635044 98.82648671 165.22265625 115.51953125 C178.77238673 132.69981153 181.88099345 155.98197649 184.47265625 177.01953125 C184.56041824 177.70771942 184.64818024 178.39590759 184.73860168 179.10494995 C185.82679065 188.98605802 185.63690819 198.92085614 185.640625 208.84765625 C185.64384697 210.88433861 185.64721171 212.92102074 185.65071106 214.95770264 C185.65667861 219.22083063 185.65855364 223.48393844 185.65795898 227.74707031 C185.65785804 233.14217156 185.67145106 238.53713921 185.68873119 243.93220901 C185.69999699 248.14166832 185.70187371 252.35109695 185.70134926 256.56056976 C185.70250986 258.54556484 185.70681988 260.53056123 185.71468163 262.51554108 C185.75300473 273.19945184 185.50301821 283.82616328 184.70825195 294.48339844 C184.61702324 295.91112516 184.61702324 295.91112516 184.52395153 297.36769485 C183.95787887 304.03815855 182.42821558 308.55955646 178.0078125 313.734375 C172.26697388 318.50064155 165.87157494 322.21426473 159.47265625 326.01953125 C158.21799772 326.77256416 156.96377195 327.52631852 155.70996094 328.28076172 C153.17228066 329.80690629 150.63285139 331.3300664 148.09179688 332.85058594 C142.95513305 335.92614221 137.83708928 339.0321767 132.72265625 342.14453125 C131.33433594 342.98854492 131.33433594 342.98854492 129.91796875 343.84960938 C123.07061975 348.02191465 116.26621565 352.26032545 109.47265625 356.51953125 C101.30519973 361.63563831 93.12549069 366.73058174 84.91015625 371.76953125 C83.96462891 372.35412109 83.01910156 372.93871094 82.04492188 373.54101562 C68.67874352 381.70762496 58.26228211 382.24559799 43.03515625 378.984375 C41.93311859 378.75916672 40.83108093 378.53395844 39.69564819 378.30192566 C36.61203404 377.66857918 33.53116357 377.02345305 30.45110321 376.37308502 C27.73508383 375.80192485 25.01703912 375.24073867 22.29896355 374.67945862 C12.61443721 372.67942677 2.93717651 370.64524304 -6.73930359 368.60669708 C-9.61112343 368.00188711 -12.48309138 367.39778506 -15.35510254 366.79388428 C-35.28268878 362.60360291 -55.20808913 358.40299645 -75.13061523 354.1887207 C-108.10249093 347.21423879 -141.08213687 340.2778937 -174.07024384 333.38057709 C-177.5220214 332.65871478 -180.97370335 331.93639708 -184.425354 331.21392822 C-189.89101456 330.06994718 -195.35695333 328.9273029 -200.82302856 327.78530502 C-203.96296718 327.12883622 -207.10258183 326.47083364 -210.2421875 325.81277466 C-220.50267643 323.66613324 -230.76996937 321.56419691 -241.05419922 319.53417969 C-244.06428397 318.93546198 -247.07422074 318.33600499 -250.08413506 317.73643112 C-252.86182297 317.187554 -255.64190446 316.65237759 -258.42237854 316.11782837 C-284.22594323 311.04963287 -284.22594323 311.04963287 -292.52734375 300.01953125 C-297.73967995 291.70585501 -298.67819113 283.94526371 -298.67260742 274.31225586 C-298.67596603 273.46875076 -298.67932465 272.62524567 -298.68278503 271.75617981 C-298.69224954 268.978063 -298.69423694 266.20000692 -298.6953125 263.421875 C-298.6985319 261.46676103 -298.70189647 259.5116473 -298.70539856 257.55653381 C-298.71138129 253.4536178 -298.71323971 249.3507228 -298.71264648 245.24780273 C-298.71254576 240.05426609 -298.72610781 234.86086894 -298.74341869 229.66736507 C-298.75468776 225.62178462 -298.75656107 221.57623608 -298.75603676 217.53064156 C-298.75719807 215.62017913 -298.76151237 213.70971535 -298.76936913 211.79926872 C-298.80733664 201.59980016 -298.5504392 191.488404 -297.67700195 181.32250977 C-297.60466182 180.44397056 -297.53232168 179.56543135 -297.45778942 178.66026974 C-294.69488113 149.6653731 -278.45431357 126.28508508 -256.93701172 107.64160156 C-241.90514437 95.22874252 -222.4540973 85.53334969 -203.52734375 81.01953125 C-202.59019531 80.77976562 -201.65304688 80.54 -200.6875 80.29296875 C-194.9445076 78.96562074 -189.40474676 78.79443922 -183.52734375 79.01953125 C-183.21426989 77.31130299 -182.90191367 75.6029432 -182.58984375 73.89453125 C-182.41582031 72.94320312 -182.24179688 71.991875 -182.0625 71.01171875 C-181.79759766 69.53058594 -181.79759766 69.53058594 -181.52734375 68.01953125 C-181.25277344 66.71242187 -181.25277344 66.71242187 -180.97265625 65.37890625 C-180.5772411 62.39594988 -180.45312945 59.60843732 -180.421875 56.60546875 C-180.19675245 35.04911883 -180.19675245 35.04911883 -173.52734375 26.01953125 C-173.04523438 25.32730469 -172.563125 24.63507813 -172.06640625 23.921875 C-152.36503481 -1.22987585 -116.03939083 -14.52462583 -85.640625 -18.63037109 C-58.08457351 -21.72913033 -22.56435975 -17.68180895 0 0 Z M-154.52734375 24.01953125 C-155.31467896 24.6393689 -155.31467896 24.6393689 -156.11791992 25.27172852 C-159.24917529 27.77973757 -161.66626142 30.21327157 -163.83984375 33.58203125 C-164.33097656 34.32582031 -164.82210937 35.06960937 -165.328125 35.8359375 C-167.63793429 40.04174659 -167.592025 43.51405852 -167.46484375 48.26953125 C-167.33051072 80.71095703 -183.03138787 107.48270908 -197.79541016 135.41894531 C-210.04371896 158.64868479 -218.28144874 183.59697124 -223.33984375 209.33203125 C-223.53481445 210.31985596 -223.72978516 211.30768066 -223.93066406 212.32543945 C-226.86318194 228.18663733 -227.90770102 244.03886883 -227.83984375 260.14453125 C-227.83901794 260.9821701 -227.83819214 261.81980896 -227.83734131 262.68283081 C-227.80526394 276.90509116 -227.19461823 291.00935378 -224.52734375 305.01953125 C-224.305625 306.18613281 -224.08390625 307.35273438 -223.85546875 308.5546875 C-222.69555403 311.33912404 -222.69555403 311.33912404 -219.41015625 312.26171875 C-218.17007813 312.47054688 -216.93 312.679375 -215.65234375 312.89453125 C-214.41742188 313.11882812 -213.1825 313.343125 -211.91015625 313.57421875 C-208.43504559 314.10654041 -208.43504559 314.10654041 -204.52734375 314.01953125 C-204.61822266 313.36509033 -204.70910156 312.71064941 -204.80273438 312.03637695 C-214.43998134 240.14622126 -198.1327554 174.86685174 -163.62109375 111.68359375 C-158.22982805 101.76596071 -153.64758413 91.89722318 -150.52734375 81.01953125 C-150.33446777 80.37798096 -150.1415918 79.73643066 -149.94287109 79.07543945 C-147.81637611 71.02676009 -148.169735 62.64179279 -148.14648438 54.37329102 C-148.10118734 44.76918812 -147.64461655 37.8312838 -141.2578125 30.3671875 C-120.94351608 12.11240501 -94.79493517 1.99768013 -67.40234375 3.10546875 C-51.62332042 4.09165771 -30.74565891 7.90369614 -19.52734375 19.83203125 C-8.7101539 33.63054416 -9.9592469 53.48184718 -11.87744141 70.04199219 C-15.97415694 95.04837929 -29.68069018 118.37876611 -41.47070312 140.4375 C-60.42742121 175.97018665 -72.18593999 213.93523085 -76.52734375 254.01953125 C-76.66873779 255.18935547 -76.66873779 255.18935547 -76.81298828 256.3828125 C-77.84692232 265.89722519 -77.76825068 275.46059527 -77.77734375 285.01953125 C-77.7790155 285.94562195 -77.78068726 286.87171265 -77.78240967 287.8258667 C-77.78437095 306.00031368 -77.34564405 324.38036234 -72.52734375 342.01953125 C-69.44542671 342.69286118 -66.36160295 343.35701984 -63.27734375 344.01953125 C-62.40464844 344.2103125 -61.53195313 344.40109375 -60.6328125 344.59765625 C-59.78847656 344.778125 -58.94414062 344.95859375 -58.07421875 345.14453125 C-57.29916992 345.31210937 -56.52412109 345.4796875 -55.72558594 345.65234375 C-53.24123701 346.12936742 -53.24123701 346.12936742 -49.52734375 346.01953125 C-49.61298584 345.34599609 -49.69862793 344.67246094 -49.78686523 343.97851562 C-57.85556211 280.03913245 -52.14816691 214.60347776 -23.52734375 156.01953125 C-23.23746582 155.41238281 -22.94758789 154.80523437 -22.64892578 154.1796875 C-18.98626296 146.51221102 -15.00425329 139.0274636 -10.95921326 131.55563354 C1.49119934 108.55467841 12.61095839 87.06239565 12.72265625 60.39453125 C12.74328125 59.18667969 12.76390625 57.97882813 12.78515625 56.734375 C12.85882223 39.62545065 7.50968295 24.44554625 -4.52734375 12.01953125 C-45.25215308 -24.23636095 -116.80361543 -6.73132707 -154.52734375 24.01953125 Z M-134.63061523 40.23461914 C-136.93261488 43.61457924 -137.04982988 45.54631571 -137.1015625 49.60546875 C-137.12927734 50.86617187 -137.15699219 52.126875 -137.18554688 53.42578125 C-137.19521484 54.73546875 -137.20488281 56.04515625 -137.21484375 57.39453125 C-137.25717525 59.98573207 -137.30264916 62.57688382 -137.3515625 65.16796875 C-137.36276123 66.31442871 -137.37395996 67.46088867 -137.38549805 68.64208984 C-137.53311838 72.15702897 -137.97455995 75.54717687 -138.52734375 79.01953125 C-135.47385491 80.54627567 -132.165788 80.74099584 -128.81640625 81.2109375 C-128.05186127 81.32050278 -127.28731628 81.43006805 -126.49960327 81.54295349 C-124.8808362 81.77406591 -123.26181944 82.00343517 -121.64257812 82.23120117 C-119.16857213 82.57974496 -116.69559079 82.93495839 -114.22265625 83.29101562 C-112.64979658 83.514724 -111.07688161 83.73804404 -109.50390625 83.9609375 C-108.76524323 84.06716934 -108.0265802 84.17340118 -107.26553345 84.28285217 C-103.96748346 84.74325055 -100.86681973 85.01953125 -97.52734375 85.01953125 C-97.55054688 84.11332031 -97.57375 83.20710938 -97.59765625 82.2734375 C-97.806577 68.17128701 -95.78740573 58.32841203 -85.77734375 47.83203125 C-73.10821761 35.92352807 -56.62932155 27.29700596 -40.52734375 21.01953125 C-67.76308587 2.86236983 -114.24138701 18.76143659 -134.63061523 40.23461914 Z M18.47265625 26.01953125 C19.03846269 29.29312567 19.82897782 32.11806497 21.47265625 35.01953125 C24.4678223 36.99190356 27.65163207 37.79810428 31.09765625 38.70703125 C32.91798859 39.26891212 34.73577159 39.83912518 36.55078125 40.41796875 C37.41123047 40.68834961 38.27167969 40.95873047 39.15820312 41.23730469 C46.89567508 43.85237432 51.16250044 48.16662066 55.28125 55.06640625 C58.76593798 63.70386237 58.7309056 72.45032595 58.59765625 81.64453125 C58.58863281 82.83949219 58.57960938 84.03445312 58.5703125 85.265625 C58.54696702 88.18380959 58.51422281 91.10155901 58.47265625 94.01953125 C63.52692291 94.72336005 68.35788497 95.13531012 73.47265625 95.08203125 C75.17421875 95.06849609 75.17421875 95.06849609 76.91015625 95.0546875 C78.17859375 95.03728516 78.17859375 95.03728516 79.47265625 95.01953125 C80.03382852 74.54106 78.34357687 58.13510069 64.01171875 42.2734375 C58.35078149 37.24826704 52.20050923 34.19158879 45.03515625 31.89453125 C44.26961426 31.64300293 43.50407227 31.39147461 42.71533203 31.13232422 C34.77201458 28.62536189 26.70269467 27.20715705 18.47265625 26.01953125 Z M-79.65234375 57.83203125 C-87.82161017 66.50682158 -86.66886695 75.68195028 -86.52734375 87.01953125 C-82.41482151 88.48917133 -78.46565625 89.47357153 -74.15234375 90.14453125 C-73.09273437 90.31210938 -72.033125 90.4796875 -70.94140625 90.65234375 C-70.14476562 90.77351563 -69.348125 90.8946875 -68.52734375 91.01953125 C-68.54829102 90.39498047 -68.56923828 89.77042969 -68.59082031 89.12695312 C-68.67470219 86.25798065 -68.72622886 83.38926717 -68.77734375 80.51953125 C-68.81085938 79.53726563 -68.844375 78.555 -68.87890625 77.54296875 C-68.98148055 69.84989625 -67.44839994 64.94426789 -62.87890625 58.8046875 C-53.62450375 49.57122256 -42.84338048 43.71395925 -30.70703125 39.2109375 C-28.20200092 38.27232048 -25.88094394 37.27829752 -23.52734375 36.01953125 C-24.51734375 33.70953125 -25.50734375 31.39953125 -26.52734375 29.01953125 C-44.90001936 29.01953125 -67.08774329 45.76477956 -79.65234375 57.83203125 Z M24.47265625 48.01953125 C24.46331055 48.7787085 24.45396484 49.53788574 24.44433594 50.32006836 C24.21569631 65.13345068 23.56947129 78.74675629 19.47265625 93.01953125 C32.83765625 93.51453125 32.83765625 93.51453125 46.47265625 94.01953125 C49.28773213 82.75922773 48.61790456 68.45375452 44.09765625 57.76953125 C38.9172174 52.34240483 31.78034365 49.36172808 24.47265625 48.01953125 Z M-53.71484375 65.89453125 C-57.80618188 70.17500667 -57.67484357 73.18080363 -57.62890625 78.9765625 C-57.48289187 83.35137784 -57.05498782 87.67588991 -56.52734375 92.01953125 C-53.38884311 92.94506868 -50.59053597 93.13617772 -47.32421875 93.1171875 C-46.34453125 93.11396484 -45.36484375 93.11074219 -44.35546875 93.10742188 C-43.3396875 93.09904297 -42.32390625 93.09066406 -41.27734375 93.08203125 C-40.24609375 93.07751953 -39.21484375 93.07300781 -38.15234375 93.06835938 C-35.61061802 93.05659213 -33.06901056 93.04015136 -30.52734375 93.01953125 C-28.05709203 87.10305105 -25.77060909 81.26165633 -24.27734375 75.01953125 C-24.10750977 74.31256104 -23.93767578 73.60559082 -23.76269531 72.87719727 C-21.96624173 64.62778845 -22.17397767 56.41197562 -22.52734375 48.01953125 C-32.81656223 48.01953125 -46.9369571 59.26818272 -53.71484375 65.89453125 Z M-204.27734375 93.70703125 C-205.3147168 93.9695166 -205.3147168 93.9695166 -206.37304688 94.23730469 C-212.40799347 95.83972563 -217.97835888 98.15098823 -223.52734375 101.01953125 C-223.52734375 101.34953125 -223.52734375 101.67953125 -223.52734375 102.01953125 C-213.62734375 102.01953125 -203.72734375 102.01953125 -193.52734375 102.01953125 C-189.37827255 95.21210084 -189.37827255 95.21210084 -189.52734375 92.01953125 C-194.68807013 91.83903952 -199.30182812 92.41825135 -204.27734375 93.70703125 Z M-142.52734375 92.01953125 C-143.36474156 94.14293285 -144.19714658 96.26830405 -145.02734375 98.39453125 C-145.49140625 99.57789063 -145.95546875 100.76125 -146.43359375 101.98046875 C-147.64022169 104.79485565 -147.64022169 104.79485565 -147.52734375 107.01953125 C-140.32503143 108.47164649 -133.12046425 109.91206752 -125.9140625 111.34375 C-122.83579955 111.9579824 -119.75959952 112.58161929 -116.68359375 113.20703125 C-114.90244495 113.56170653 -113.12120022 113.91590049 -111.33984375 114.26953125 C-110.55391846 114.43227539 -109.76799316 114.59501953 -108.95825195 114.76269531 C-97.00722574 117.10296487 -84.72751776 117.19900067 -72.58984375 117.58203125 C-71.34783203 117.62521484 -70.10582031 117.66839844 -68.82617188 117.71289062 C-60.05507821 117.99964667 -51.30193255 118.06857739 -42.52734375 118.01953125 C-42.06714844 117.19501465 -41.60695313 116.37049805 -41.1328125 115.52099609 C-39.48632812 112.57104492 -39.48632812 112.57104492 -37.83984375 109.62109375 C-36.37720107 107.20757616 -36.37720107 107.20757616 -36.52734375 105.01953125 C-37.11370605 105.00607666 -37.70006836 104.99262207 -38.30419922 104.97875977 C-58.11708159 104.36439235 -77.22922719 100.99175212 -96.66943359 97.29516602 C-119.42418623 92.91644484 -119.42418623 92.91644484 -142.52734375 92.01953125 Z M14.47265625 105.01953125 C12.49265625 109.96953125 10.51265625 114.91953125 8.47265625 120.01953125 C10.43380371 120.13228394 10.43380371 120.13228394 12.43457031 120.24731445 C56.28427184 122.78779876 56.28427184 122.78779876 72.78515625 124.58203125 C73.84057617 124.69651611 74.89599609 124.81100098 75.98339844 124.92895508 C81.7222086 125.59289909 87.33974719 126.51629316 92.98901367 127.73022461 C98.60764867 128.38471025 102.50340444 126.04407955 107.16015625 123.20703125 C112.1061856 120.27899229 116.97057659 117.78650232 122.38671875 115.80859375 C124.49873692 115.00966553 126.47080538 114.06121836 128.47265625 113.01953125 C120.63755863 110.73726614 112.62118122 109.9125629 104.53515625 109.01953125 C103.75921112 108.93304321 102.98326599 108.84655518 102.18380737 108.75744629 C73.05414147 105.55869774 43.76236011 104.59943988 14.47265625 105.01953125 Z M-241.52734375 117.01953125 C-242.67976563 117.23996094 -243.8321875 117.46039063 -245.01953125 117.6875 C-258.83685937 121.22258265 -267.55366596 134.67575085 -274.52001953 146.28125 C-281.09359521 157.62489004 -284.42882796 169.72578125 -285.62402344 182.69824219 C-285.70909023 183.61370693 -285.79415703 184.52917168 -285.88180161 185.47237778 C-286.72559169 195.24562713 -286.81818208 204.98186545 -286.79296875 214.78515625 C-286.79432178 216.68414357 -286.79626756 218.58313054 -286.79876709 220.4821167 C-286.80167981 224.41470721 -286.79754135 228.34720553 -286.78808594 232.27978516 C-286.77659837 237.29933989 -286.7833336 242.31868283 -286.79523087 247.33823013 C-286.80247405 251.24000636 -286.80015186 255.14173267 -286.79497528 259.04351044 C-286.79365048 260.89493587 -286.79524504 262.74636598 -286.79993439 264.59778595 C-286.80505104 267.18022147 -286.79722207 269.76231625 -286.78613281 272.34472656 C-286.79018127 273.09289139 -286.79422974 273.84105621 -286.79840088 274.6118927 C-286.74347506 281.56623745 -286.23782059 289.08185157 -281.33984375 294.39453125 C-280.78941406 295.02101563 -280.23898437 295.6475 -279.671875 296.29296875 C-274.77260947 300.23736832 -268.74525269 301.62543501 -262.6953125 302.87890625 C-261.977491 303.0324054 -261.25966949 303.18590454 -260.52009583 303.34405518 C-259.01748343 303.66341902 -257.5141045 303.97919591 -256.01000977 304.29150391 C-253.70156222 304.77229747 -251.39671208 305.26820351 -249.09179688 305.765625 C-247.62649231 306.07512075 -246.16100359 306.3837462 -244.6953125 306.69140625 C-244.00575974 306.84027283 -243.31620697 306.9891394 -242.60575867 307.14251709 C-238.98383163 308.0177186 -238.98383163 308.0177186 -235.52734375 307.01953125 C-235.61298584 306.47240479 -235.69862793 305.92527832 -235.78686523 305.36157227 C-237.659551 293.25170624 -239.18093673 281.27367975 -239.52734375 269.01953125 C-239.54925781 268.3342334 -239.57117188 267.64893555 -239.59375 266.94287109 C-241.10067631 212.95723602 -225.15026332 163.3501453 -200.52734375 116.01953125 C-200.19734375 115.35953125 -199.86734375 114.69953125 -199.52734375 114.01953125 C-213.82445796 113.61965499 -227.48904864 114.1699187 -241.52734375 117.01953125 Z M-154.52734375 119.01953125 C-158.0370438 125.70835841 -161.53000116 132.40566743 -165.01025391 139.10986328 C-166.25753482 141.50205735 -167.51869264 143.88566923 -168.7890625 146.265625 C-188.17533447 183.06643971 -196.73037084 225.30540245 -196.77734375 266.64453125 C-196.77934784 267.50181824 -196.78135193 268.35910522 -196.78341675 269.24237061 C-196.79262805 285.37192873 -195.76853824 301.17873918 -192.52734375 317.01953125 C-175.31412717 320.8859337 -158.08112651 324.56023063 -140.75415039 327.88067627 C-128.07513558 330.31094831 -115.42167158 332.85228663 -102.77734375 335.45703125 C-101.90544403 335.6366037 -101.03354431 335.81617615 -100.13522339 336.00119019 C-95.2653956 337.00472836 -90.39612536 338.01093019 -85.52734375 339.01953125 C-86.15948414 330.80884353 -86.15948414 330.80884353 -87.0625 322.625 C-94.99508775 258.46242848 -81.10103266 195.02867299 -52.72900391 137.56469727 C-51.55721691 135.08280385 -50.51859866 132.57821159 -49.52734375 130.01953125 C-53.75635194 129.84868059 -57.98556922 129.68364573 -62.21484375 129.51953125 C-63.39369141 129.47183594 -64.57253906 129.42414063 -65.78710938 129.375 C-73.70497524 129.07130104 -81.60391817 128.96002498 -89.52734375 129.01953125 C-92.03891786 134.04267947 -92.93133366 138.17618292 -93.21875 143.78515625 C-93.52734375 146.01953125 -93.52734375 146.01953125 -95.52734375 149.01953125 C-98.46484375 149.45703125 -98.46484375 149.45703125 -101.52734375 149.01953125 C-104.20202131 146.79063328 -104.49428223 145.35014645 -104.83984375 141.89453125 C-104.58525934 138.73768458 -104.14440626 135.86647202 -103.5078125 132.77734375 C-103.32500732 131.88418457 -103.14220215 130.99102539 -102.95385742 130.07080078 C-102.74273315 129.05542236 -102.74273315 129.05542236 -102.52734375 128.01953125 C-114.54443537 125.45596943 -126.56996494 122.94580678 -138.65234375 120.70703125 C-139.55678223 120.5359082 -140.4612207 120.36478516 -141.39306641 120.18847656 C-145.83377642 119.3798521 -149.99063972 118.81872632 -154.52734375 119.01953125 Z M1.47265625 132.01953125 C-24.46347701 178.56853851 -41.30660285 228.25385582 -42.52734375 282.01953125 C-42.54780762 282.75123535 -42.56827148 283.48293945 -42.58935547 284.23681641 C-43.13991275 305.98155413 -40.94317285 327.56812453 -37.52734375 349.01953125 C-15.35925831 354.04348551 6.85634074 358.83069821 29.09765625 363.51953125 C30.38864227 363.79236938 31.6796283 364.06520752 33.00973511 364.34631348 C36.69741016 365.12513432 40.38569191 365.90100576 44.07421875 366.67578125 C45.19660446 366.91290833 46.31899017 367.1500354 47.47538757 367.39434814 C48.50138565 367.60903748 49.52738373 367.82372681 50.58447266 368.04492188 C51.48404694 368.23397095 52.38362122 368.42302002 53.31045532 368.61779785 C55.43384672 369.08042195 55.43384672 369.08042195 57.47265625 369.01953125 C57.30137207 367.83738037 57.13008789 366.65522949 56.95361328 365.43725586 C47.67214917 301.15867834 35.82811311 208.61642118 76.47265625 152.01953125 C78.53116944 149.37820851 80.62177074 146.77687409 82.7734375 144.2109375 C84.33533306 142.19663081 85.37625035 140.30488317 86.47265625 138.01953125 C70.4881104 135.57238579 54.47435909 134.35932027 38.34765625 133.33203125 C37.32582245 133.26559418 36.30398865 133.1991571 35.25119019 133.13070679 C23.97927543 132.4045385 12.77269274 131.78864402 1.47265625 132.01953125 Z M102.16015625 162.33203125 C87.58430166 180.03128325 84.29709631 201.66494438 84.28515625 223.95703125 C84.27291016 225.18744141 84.26066406 226.41785156 84.24804688 227.68554688 C84.24611328 228.85666016 84.24417969 230.02777344 84.2421875 231.234375 C84.23807861 232.297771 84.23396973 233.36116699 84.22973633 234.45678711 C84.21376472 237.18545608 84.21376472 237.18545608 86.47265625 239.01953125 C89.07546193 238.69911728 89.07546193 238.69911728 91.47265625 238.01953125 C92.46526028 235.04171915 92.62438785 232.96839526 92.68359375 229.85546875 C93.21641644 208.79910536 94.27665387 188.48378237 107.47265625 171.01953125 C108.55546875 169.47265625 108.55546875 169.47265625 109.66015625 167.89453125 C112.73664318 164.20682175 117.07119385 162.1738201 121.2421875 159.92578125 C123.81606995 158.16059144 123.81606995 158.16059144 123.859375 154.86328125 C123.77911948 152.12420246 123.77911948 152.12420246 122.47265625 151.01953125 C114.39488072 150.12828807 107.32911283 156.74558203 102.16015625 162.33203125 Z M85.47265625 255.01953125 C84.95141684 259.74727608 84.95141684 259.74727608 86.72265625 264.01953125 C88.44672642 265.22545575 88.44672642 265.22545575 90.59765625 264.83203125 C92.66229757 264.17597465 92.66229757 264.17597465 93.47265625 262.01953125 C93.72265625 258.51953125 93.72265625 258.51953125 93.47265625 255.01953125 C92.81265625 254.35953125 92.15265625 253.69953125 91.47265625 253.01953125 C88.28775618 252.74218115 88.28775618 252.74218115 85.47265625 255.01953125 Z " fill="#FFFFFF" transform="translate(312.52734375,74.98046875)"/>
</svg>
