<?xml version="1.0" encoding="UTF-8"?>
<svg version="1.1" xmlns="http://www.w3.org/2000/svg" width="512" height="512" fill="#044B94" fill-opacity="0.2">
<path d="M0 0 C4.65854735 5.7067205 4.4667684 10.82991867 4 18 C5.28213379 18.26409668 6.56426758 18.52819336 7.88525391 18.80029297 C12.99235627 19.93804154 17.88862172 21.50447394 22.8359375 23.1953125 C23.75476715 23.50644989 24.6735968 23.81758728 25.62026978 24.13815308 C27.55903009 24.79638899 29.4969567 25.45708512 31.43408203 26.12011719 C34.32953453 27.1094649 37.22894476 28.08646118 40.12890625 29.0625 C72.79870394 40.1477794 101.95160309 52.84093767 118.01953125 85.37695312 C157.52714431 169.04462017 159.49592045 282.21492517 167.4375 383.71630859 C167.8043642 388.52850995 168.19278605 393.33815355 168.6015625 398.14697266 C173.93637132 461.25333013 173.93637132 461.25333013 162 484 C157.57546484 488.10078869 155.03112884 489.12362547 149.08496094 489.17700195 C147.84317078 489.18983719 146.60138062 489.20267242 145.32196045 489.21589661 C143.95943602 489.22406518 142.59690708 489.23150869 141.234375 489.23828125 C140.20578243 489.24439454 140.20578243 489.24439454 139.15641022 489.25063133 C135.52501222 489.27149483 131.89365201 489.28579375 128.26220703 489.29516602 C124.51843682 489.30621497 120.77526355 489.34059551 117.03170395 489.38033772 C114.14740934 489.4065388 111.26325599 489.41486102 108.37885284 489.41844749 C106.999392 489.42330664 105.61993718 489.43490162 104.24059296 489.45348549 C90.7565865 489.62382276 90.7565865 489.62382276 86 485 C84.52092668 482.6765738 83.3728088 480.60525745 82.25 478.125 C81.92128906 477.41996338 81.59257812 476.71492676 81.25390625 475.98852539 C80.53964092 474.45361832 79.8308481 472.91615525 79.12695312 471.37646484 C78.00638264 469.01345941 76.79267204 466.72485192 75.546875 464.42578125 C67.58920762 449.16108302 64.55006531 433.01815393 61.3984375 416.24609375 C61.18361221 415.10986572 61.18361221 415.10986572 60.96444702 413.95068359 C60.29754921 410.2588998 59.83468322 406.75379914 60 403 C59.34 403 58.68 403 58 403 C57.95875 403.680625 57.9175 404.36125 57.875 405.0625 C56.53088386 409.5748899 54.81257076 412.18365903 51 415 C47.72315979 416.07391357 47.72315979 416.07391357 43.83422852 416.97167969 C43.13069276 417.13718197 42.427157 417.30268425 41.70230198 417.47320175 C39.47083746 417.99445625 37.23593429 418.49830214 35 419 C33.59972749 419.32123206 32.19956866 419.6429601 30.79953003 419.96520996 C26.44254995 420.96125378 22.0793507 421.92817991 17.71484375 422.890625 C16.93287691 423.06347771 16.15091007 423.23633041 15.34524727 423.41442108 C11.22689037 424.32469306 7.10797038 425.23236069 2.98852539 426.13769531 C-1.24248384 427.0680786 -5.47144103 428.00747176 -9.70002079 428.94882584 C-12.98212449 429.67779502 -16.26564684 430.40020552 -19.54958916 431.12084198 C-21.11014888 431.46446807 -22.67017625 431.81052177 -24.22963142 432.15912628 C-26.40431006 432.64461532 -28.58084446 433.12074827 -30.75805664 433.59472656 C-31.99109024 433.86690002 -33.22412384 434.13907349 -34.49452209 434.41949463 C-40.86314222 435.47413491 -45.47864625 435.55820575 -51 432 C-56.25859387 427.47176639 -56.18716081 421.56523957 -57 415 C-57.33 410.38 -57.66 405.76 -58 401 C-69.22 401 -80.44 401 -92 401 C-92.53702439 408.29809343 -92.53702439 408.29809343 -93.04614258 415.59814453 C-93.58951359 422.37157596 -94.30081868 427.50325728 -99.5 432.3125 C-104.75185043 435.85749904 -110.06972544 435.44369885 -116.09753418 434.31906128 C-117.62319693 434.00372957 -119.14726502 433.68061481 -120.66992188 433.35107422 C-121.50826065 433.17539413 -122.34659943 432.99971405 -123.21034241 432.81871033 C-125.96492469 432.23875929 -128.71695146 431.64769791 -131.46875 431.0546875 C-133.39253405 430.64306076 -135.31632154 430.23145009 -137.2401123 429.81985474 C-141.26596187 428.95615253 -145.2903087 428.08577338 -149.31396484 427.21191406 C-154.45775035 426.09630736 -159.60679578 425.00737265 -164.75759125 423.92466545 C-168.73111668 423.08455108 -172.7003174 422.22525431 -176.66859436 421.36072159 C-178.5647944 420.95100959 -180.46253773 420.54837108 -182.36180115 420.15310287 C-185.02273317 419.5973513 -187.67642009 419.01466712 -190.33007812 418.42529297 C-191.10742813 418.26920059 -191.88477814 418.11310822 -192.6856842 417.95228577 C-198.25806224 416.67168096 -202.20219853 414.32162368 -206 410 C-207.59242753 407.32148726 -208 406.18517613 -208 403 C-208.66 403 -209.32 403 -210 403 C-210.0424585 403.54277588 -210.08491699 404.08555176 -210.12866211 404.64477539 C-212.04626976 426.35032054 -216.95278888 446.57988924 -226.1875 466.3125 C-226.54079376 467.06892792 -226.89408752 467.82535583 -227.25808716 468.60470581 C-228.27565275 470.7610003 -229.30934304 472.90821115 -230.35546875 475.05078125 C-230.66263824 475.6826535 -230.96980774 476.31452576 -231.2862854 476.96554565 C-233.89704364 482.1569397 -236.41312926 486.81909369 -242 489 C-244.83236694 489.26742554 -244.83236694 489.26742554 -248.14208984 489.29052734 C-249.38372894 489.30328705 -250.62536804 489.31604675 -251.90463257 489.32919312 C-253.25673262 489.33225088 -254.60883477 489.33447858 -255.9609375 489.3359375 C-257.35332373 489.34236801 -258.74570862 489.34909656 -260.13809204 489.35610962 C-263.05498384 489.36807396 -265.97175728 489.37179134 -268.88867188 489.37060547 C-272.61673597 489.37040237 -276.34403701 489.3976981 -280.07192039 489.43214989 C-282.94765675 489.45444613 -285.82321028 489.45844219 -288.6990242 489.45738602 C-290.07288873 489.45973813 -291.44675859 489.46853979 -292.82053757 489.48405075 C-304.88398487 489.60750011 -304.88398487 489.60750011 -308.70166016 487.28369141 C-312.60558935 483.40464385 -314.26720731 479.93537519 -315.31640625 474.5703125 C-315.52330078 473.52617187 -315.73019531 472.48203125 -315.94335938 471.40625 C-316.14767578 470.3234375 -316.35199219 469.240625 -316.5625 468.125 C-316.87477539 466.55878906 -316.87477539 466.55878906 -317.19335938 464.9609375 C-317.83793764 461.64711818 -318.42038224 458.32574239 -319 455 C-319.21446777 453.94675537 -319.42893555 452.89351074 -319.64990234 451.80834961 C-321.95372861 438.67691724 -320.45457676 425.52269956 -319.5 412.3125 C-319.40610745 410.95815102 -319.31282272 409.60375978 -319.22012329 408.24932861 C-312.92427086 316.34243774 -304.63349441 223.63684525 -253 63 C-252.37609375 62.29488281 -251.7521875 61.58976562 -251.109375 60.86328125 C-239.29084983 48.22540455 -223.53785022 40.94151615 -207.4375 35.375 C-205.67805054 34.7574585 -205.67805054 34.7574585 -203.88305664 34.12744141 C-200.63949902 32.99252285 -197.39328469 31.86590956 -194.14550781 30.74316406 C-191.87582384 29.95698769 -189.60769137 29.16645733 -187.33984375 28.375 C-183.32889543 26.9755444 -179.31594183 25.58200032 -175.30130005 24.19317627 C-173.72933491 23.64907586 -172.15777841 23.10379337 -170.5866394 22.55731201 C-168.3809745 21.79128323 -166.17326247 21.03148472 -163.96484375 20.2734375 C-163.30359497 20.04269531 -162.64234619 19.81195313 -161.96105957 19.57421875 C-159.16223279 18.62006068 -156.9824094 18 -154 18 C-154.04640625 17.28714844 -154.0928125 16.57429688 -154.140625 15.83984375 C-154.38884328 9.25319438 -154.23111915 5.18312096 -150 0 C-144.51857407 -3.55869032 -138.24251882 -5.34114099 -132 -7.0625 C-130.6092627 -7.44873535 -130.6092627 -7.44873535 -129.19042969 -7.84277344 C-91.6842751 -18.05055404 -34.45898979 -22.15112327 0 0 Z M-141 10 C-142.02039315 21.09050256 -140.08822194 29.094806 -133.5625 38.0625 C-122.73692057 50.80199402 -105.42222984 58.36495448 -90 64 C-91.30878091 50.12003401 -92.99194102 38.69795617 -104 29 C-108.6286337 25.52582459 -113.44999521 22.3348089 -118.31762695 19.20751953 C-120.10750698 17.92283711 -121.57847062 16.68661458 -123 15 C-123.3125 11.9375 -123.3125 11.9375 -123 9 C-121 7 -121 7 -118.32421875 6.6015625 C-113.95468843 7.12528999 -111.36887795 8.90033786 -107.8125 11.375 C-107.19697266 11.7875 -106.58144531 12.2 -105.94726562 12.625 C-104.29014064 13.73812838 -102.64447852 14.86827193 -101 16 C-97.93421511 18.04385659 -97.15959499 18.26861948 -93.67480469 18.38574219 C-92.80249207 18.41786804 -91.93017944 18.4499939 -91.03143311 18.48309326 C-87.00244199 18.57295891 -82.97410063 18.65430387 -78.94433594 18.70019531 C-76.83581006 18.73307052 -74.7274956 18.78732699 -72.62011719 18.86425781 C-59.50673192 19.33982997 -50.41726634 18.87653543 -40.12988281 10.25878906 C-36.59483941 7.70760173 -34.31784471 7.16622197 -30 7 C-28 8 -28 8 -27 10 C-26.625 13.25 -26.625 13.25 -28 17 C-30.52142886 19.0053734 -33.1612377 20.56767466 -35.9453125 22.1875 C-47.05705449 28.78065637 -54.43859974 36.40088048 -58.25390625 48.8125 C-59.43057456 53.83952272 -59.81738215 58.85017655 -60 64 C-40.53186285 56.19992616 -19.14636401 47.59543374 -10 27.125 C-8.20178445 21.65017814 -8.76614851 15.6817252 -9 10 C-15.64851385 7.15190601 -22.20141649 4.98302185 -29.25 3.375 C-30.62297241 3.05644043 -30.62297241 3.05644043 -32.02368164 2.73144531 C-56.88013427 -2.90632592 -120.23242831 -10.76757169 -141 10 Z M-86 30 C-85.21625 31.959375 -84.4325 33.91875 -83.625 35.9375 C-79.35332988 47.15213816 -78.20384451 58.12804404 -77 70 C-75.68 70 -74.36 70 -73 70 C-72.93530518 69.34104736 -72.87061035 68.68209473 -72.80395508 68.00317383 C-71.54652392 55.64149224 -70.36510007 44.3284667 -65 33 C-64.67 32.01 -64.34 31.02 -64 30 C-71.26 30 -78.52 30 -86 30 Z M-159.06225586 32.25 C-159.87838852 32.52448975 -160.69452118 32.79897949 -161.53538513 33.08178711 C-162.41960648 33.38479736 -163.30382782 33.68780762 -164.21484375 34 C-165.13979141 34.31396729 -166.06473907 34.62793457 -167.01771545 34.95141602 C-168.98809325 35.62173976 -170.95767155 36.29441736 -172.92651367 36.96923828 C-175.86460879 37.97504689 -178.8060508 38.97051318 -181.74804688 39.96484375 C-191.2580547 43.198987 -200.69469289 46.56710801 -210.02734375 50.28515625 C-210.83662827 50.60689819 -211.64591278 50.92864014 -212.47972107 51.26013184 C-223.51702918 55.73139073 -232.53205989 61.54601037 -241 70 C-241.77214844 70.76054688 -242.54429687 71.52109375 -243.33984375 72.3046875 C-299.21440525 130.56705078 -296.05044276 281.96615012 -304.8125 390.5625 C-304.86558571 391.28646469 -304.91867142 392.01042938 -304.97336578 392.7563324 C-305.60424988 401.38022941 -306.2052934 410.00543987 -306.77090454 418.63391113 C-306.97850023 421.68410481 -307.21265728 424.73079937 -307.45581055 427.77832031 C-308.2159246 438.0448994 -307.68526964 447.40646385 -305.62182617 457.49804688 C-305.17531797 459.68465703 -304.76421453 461.8759953 -304.35742188 464.0703125 C-303.44163905 471.13605929 -303.44163905 471.13605929 -300 477 C-297.71704623 477.3061776 -297.71704623 477.3061776 -295.04711914 477.25878906 C-293.50025169 477.26824554 -293.50025169 477.26824554 -291.9221344 477.27789307 C-290.80443161 477.2738446 -289.68672882 477.26979614 -288.53515625 477.265625 C-286.81878212 477.26849518 -286.81878212 477.26849518 -285.06773376 477.27142334 C-282.64419332 477.27278632 -280.22064561 477.26908203 -277.79711914 477.26074219 C-274.08137636 477.2500543 -270.36611818 477.26062889 -266.65039062 477.2734375 C-264.2994781 477.27211573 -261.94856587 477.26955299 -259.59765625 477.265625 C-258.48197769 477.26967346 -257.36629913 477.27372192 -256.21681213 477.27789307 C-254.66521645 477.26843658 -254.66521645 477.26843658 -253.08227539 477.25878906 C-252.17119522 477.25719788 -251.26011505 477.25560669 -250.32142639 477.25396729 C-247.72648365 477.15054433 -247.72648365 477.15054433 -245 475 C-243.66977404 472.75668429 -243.66977404 472.75668429 -242.51953125 470.09765625 C-242.07802734 469.12505859 -241.63652344 468.15246094 -241.18164062 467.15039062 C-240.72982422 466.13138672 -240.27800781 465.11238281 -239.8125 464.0625 C-239.34908203 463.04736328 -238.88566406 462.03222656 -238.40820312 460.98632812 C-235.85269263 455.69513006 -235.85269263 455.69513006 -235 450 C-235.83493988 449.99413376 -236.66987976 449.98826752 -237.53012085 449.98222351 C-245.38810947 449.92438571 -253.24581114 449.85236096 -261.10352135 449.76428509 C-265.14353833 449.7195047 -269.18345268 449.68026594 -273.22363281 449.65356445 C-277.12065092 449.62760733 -281.01727568 449.58726005 -284.91405106 449.53681374 C-286.40278872 449.52009333 -287.89159451 449.50861136 -289.38041306 449.50238609 C-291.46155047 449.4928005 -293.54166979 449.46481156 -295.62255859 449.43237305 C-296.80836517 449.42126999 -297.99417175 449.41016693 -299.21591187 449.39872742 C-300.59403549 449.20135735 -300.59403549 449.20135735 -302 449 C-304.14762184 445.77856724 -304.561068 444.7404533 -304 441 C-301.64001727 438.57830281 -300.20484774 438.02571372 -296.82354736 437.60127258 C-295.57112244 437.59016953 -294.31869751 437.57906647 -293.02832031 437.56762695 C-292.3352327 437.5574353 -291.64214508 437.54724365 -290.92805481 437.53674316 C-288.64466249 437.50662809 -286.36168977 437.4973499 -284.078125 437.48828125 C-282.49199023 437.47143339 -280.9058688 437.45328299 -279.31976318 437.43388367 C-275.15069752 437.38638889 -270.98168597 437.35657631 -266.81243896 437.33044434 C-262.55584021 437.30063608 -258.29942784 437.25410669 -254.04296875 437.20898438 C-245.69540409 437.12295724 -237.34782245 437.05560951 -229 437 C-227.53252546 429.85713666 -226.07986147 422.71142527 -224.64552212 415.56182957 C-223.97889115 412.24129878 -223.30738866 408.9219173 -222.62426758 405.60473633 C-221.83963889 401.7819107 -221.07251104 397.95591745 -220.30859375 394.12890625 C-220.06282089 392.95042618 -219.81704803 391.77194611 -219.56382751 390.55775452 C-217.98069485 382.50581823 -217.33764914 376.06175382 -220.48678589 368.36721802 C-223.01997383 360.84667844 -222.76443628 352.7410538 -223.04321289 344.88256836 C-223.11808126 343.0451088 -223.19412704 341.20769689 -223.27125549 339.37033081 C-223.43435255 335.4256303 -223.5892187 331.48072445 -223.73762703 327.53544426 C-223.97291019 321.28344786 -224.22697372 315.03229861 -224.48350525 308.78114319 C-224.88760974 298.88087111 -225.27950996 288.98016059 -225.66603416 279.07918793 C-226.35702132 261.38109347 -227.06215317 243.68357294 -227.78157037 225.98661143 C-228.03303532 219.78688346 -228.27710005 213.58692303 -228.51500523 207.38666046 C-228.6650109 203.50925586 -228.82058146 199.63208756 -228.97745323 195.75495529 C-229.04836048 193.97343635 -229.11697253 192.19182413 -229.18296051 190.4101162 C-230.0934704 165.90720967 -235.28269711 146.10136153 -245.36865234 123.80322266 C-246.3313169 121.66687899 -247.27241199 119.52203566 -248.2109375 117.375 C-248.50664642 116.7363501 -248.80235535 116.0977002 -249.10702515 115.43969727 C-251.06015342 110.91780741 -251.05923464 107.77384244 -250 103 C-246.6875 102.3125 -246.6875 102.3125 -243 102 C-240.5912028 103.86311873 -239.42462738 105.8488329 -238.25415039 108.62255859 C-237.94695572 109.34116058 -237.63976105 110.05976257 -237.32325745 110.80014038 C-237.00130905 111.57507843 -236.67936066 112.35001648 -236.34765625 113.1484375 C-236.00625107 113.95681061 -235.66484589 114.76518372 -235.31309509 115.59805298 C-234.59096337 117.31304752 -233.87251209 119.02959575 -233.1574707 120.74755859 C-232.0792623 123.33477796 -230.98692306 125.91566549 -229.89257812 128.49609375 C-224.93923118 140.24922507 -220.30967205 151.53656407 -218.95204163 164.3271637 C-218.86700884 165.11450128 -218.78197605 165.90183887 -218.69436651 166.71303517 C-217.85341476 174.85241925 -217.45949991 182.9899663 -217.14624023 191.16381836 C-217.07914488 192.79081935 -217.01149005 194.41779734 -216.94332886 196.04475403 C-216.76221312 200.40411656 -216.58870531 204.76375081 -216.41664004 209.12347865 C-216.23363017 213.72448444 -216.04318235 218.32518262 -215.85353088 222.92591858 C-215.49569061 231.63252432 -215.14402807 240.33936733 -214.79482561 249.04632336 C-214.28376683 261.78221824 -213.76347419 274.51773658 -213.24303532 287.25325108 C-213.16560679 289.14829053 -213.08818081 291.04333009 -213.01075745 292.93836975 C-212.9728804 293.86516763 -212.93500335 294.7919655 -212.89597851 295.74684817 C-212.60312871 302.91921122 -212.31423518 310.09172981 -212.02600121 317.2642796 C-211.77304391 323.54198262 -211.5117311 329.8193066 -211.2450273 336.09644008 C-211.07474511 340.12677513 -210.92108473 344.15730763 -210.78019714 348.18876648 C-210.46858758 356.39520074 -209.8298415 364.06228457 -207.18359375 371.90234375 C-206.8900148 372.79820694 -206.59643585 373.69407013 -206.29396057 374.61708069 C-205.67441625 376.46861819 -205.04141642 378.3157099 -204.39477539 380.15795898 C-203.42631331 382.96998164 -202.5592577 385.80262066 -201.68945312 388.64648438 C-201.06842528 390.46297406 -200.44167475 392.2775196 -199.80859375 394.08984375 C-199.56620468 394.9282933 -199.32381561 395.76674286 -199.07408142 396.63059998 C-198.02629841 399.39013579 -197.15146262 400.95816788 -195 403 C-190.48156902 404.79440232 -185.9563336 405.73141376 -181.18361092 406.59345818 C-178.43245922 407.105664 -175.71766753 407.73720417 -172.99434948 408.37896347 C-169.57057206 409.18430097 -166.1360855 409.94197104 -162.703125 410.70703125 C-161.60730228 410.95163369 -161.60730228 410.95163369 -160.48934174 411.2011776 C-156.64678177 412.05847922 -152.80362242 412.91303213 -148.95996094 413.76538086 C-145.00416664 414.64325784 -141.05080109 415.53162822 -137.09782791 416.42210865 C-134.03482972 417.11004034 -130.97011242 417.79005073 -127.90486908 418.46790123 C-126.44496311 418.79222768 -124.98572573 419.11957946 -123.52719879 419.45005226 C-121.50069304 419.90849673 -119.47200075 420.35561746 -117.44238281 420.80004883 C-116.29151184 421.05667801 -115.14064087 421.31330719 -113.95489502 421.57771301 C-111.18870447 421.97303206 -109.59523349 421.93420373 -107 421 C-106.5707117 417.06752125 -106.14352008 413.13482094 -105.71826172 409.2019043 C-105.50208553 407.20674802 -105.28425393 405.21177134 -105.06640625 403.21679688 C-104.86337891 401.33637695 -104.86337891 401.33637695 -104.65625 399.41796875 C-104.53056641 398.26063232 -104.40488281 397.1032959 -104.27539062 395.91088867 C-103.95290675 392.98953715 -103.95290675 392.98953715 -104 390 C-113.41356917 387.46594269 -122.91485948 385.58821193 -132.48719597 383.78080559 C-135.20800572 383.26682888 -137.92789601 382.74821215 -140.64759827 382.22840881 C-148.37070503 380.75322258 -156.0954504 379.2866965 -163.82055664 377.82202148 C-168.5684353 376.92150032 -173.31536529 376.01610981 -178.06176949 375.10785103 C-179.86309726 374.76424014 -181.66479625 374.42256928 -183.46687126 374.08289909 C-185.98002191 373.60919528 -188.49193127 373.12936007 -191.00366211 372.64819336 C-191.74294449 372.51048523 -192.48222687 372.3727771 -193.24391174 372.230896 C-202.57342102 370.42657898 -202.57342102 370.42657898 -205 368 C-205.25 364.5625 -205.25 364.5625 -205 361 C-201.66899216 358.77932811 -201.15016645 358.80178765 -197.38734436 359.27037048 C-196.05162478 359.43563138 -196.05162478 359.43563138 -194.68892097 359.60423088 C-190.70342845 360.19083602 -186.75403544 360.89232181 -182.80249023 361.67407227 C-181.51523796 361.92300735 -181.51523796 361.92300735 -180.20198059 362.17697144 C-177.40334696 362.71923313 -174.60598904 363.26779554 -171.80859375 363.81640625 C-169.85238182 364.19654245 -167.89608667 364.57625063 -165.93971252 364.95555115 C-160.81843396 365.94951713 -155.69819181 366.94871992 -150.57818604 367.94921875 C-143.33263275 369.36405676 -136.08567929 370.77170877 -128.83888245 372.18016052 C-124.98348642 372.92949328 -121.12848815 373.68082487 -117.27378845 374.43373108 C-115.52684659 374.77426813 -113.77990351 375.11479887 -112.03295898 375.45532227 C-111.22939972 375.61271378 -110.42584045 375.77010529 -109.59793091 375.93226624 C-106.32244639 376.67832297 -106.32244639 376.67832297 -103 377 C-98.95918268 337.06608069 -95.16052345 297.11067499 -91.47531223 257.14244843 C-90.41493193 245.6486765 -89.34327222 234.15617566 -88.24438477 222.66601562 C-87.27306598 212.50955676 -86.32306944 202.35135668 -85.39764637 192.19060946 C-84.91136502 186.85883236 -84.41565424 181.52838568 -83.89407539 176.19993591 C-81.63386636 153.03462499 -80.54174776 131.29723099 -83.64147758 108.17878723 C-84.18381118 103.37026468 -84.27193846 98.58507373 -84.25 93.75 C-84.24673675 93.00270882 -84.24347349 92.25541763 -84.24011135 91.48548126 C-84.18064172 88.1674492 -83.87133331 85.19372471 -83 82 C-89.18118463 77.88654261 -95.46766086 74.91114114 -102.3125 72.0625 C-122.76753976 63.52935966 -139.86347363 53.46403236 -150.45703125 33.30859375 C-151.22080078 32.16583984 -151.22080078 32.16583984 -152 31 C-154.83770633 31 -156.42426749 31.35546045 -159.06225586 32.25 Z M2 31 C0.15255648 33.58297326 0.15255648 33.58297326 -1.625 36.875 C-13.69476593 57.29883372 -32.95949663 66.19094886 -54.0703125 75.1640625 C-54.88717529 75.5151709 -55.70403809 75.8662793 -56.5456543 76.22802734 C-58.09603519 76.89046425 -59.65198085 77.54008306 -61.21411133 78.17431641 C-66.3951631 80.37717085 -69.41582661 82.83165323 -72 88 C-72.12359977 90.44258914 -72.17919026 92.84356466 -72.17327881 95.2868042 C-72.17155159 96.04050065 -72.16982437 96.7941971 -72.16804481 97.57073283 C-72.06814679 107.22605389 -71.13001496 116.8042879 -70.22753906 126.41113281 C-70.03632598 128.50802696 -69.84579431 130.60498333 -69.65588379 132.70199585 C-69.14181406 138.35736627 -68.61834598 144.01183081 -68.09314442 149.6661768 C-67.53950895 155.64499779 -66.9948267 161.62463464 -66.44915771 167.60418701 C-65.41172511 178.95806204 -64.3665774 190.31121264 -63.31851554 201.6641109 C-62.02624412 215.66611163 -60.74342545 229.66897536 -59.4609375 243.671875 C-59.00526674 248.64655263 -58.5495236 253.62122362 -58.09368896 258.59588623 C-57.98258592 259.80839766 -57.87148288 261.02090909 -57.75701308 262.2701633 C-57.00764311 270.44538166 -56.25570729 278.6203612 -55.50250244 286.79522705 C-55.1976672 290.10557318 -54.89290433 293.41592595 -54.5882144 296.72628546 C-54.39084442 298.87061743 -54.19340592 301.0149431 -53.99589586 303.15926218 C-52.92735846 314.7670205 -51.87297887 326.37584718 -50.8494873 337.9876709 C-50.71098645 339.55715976 -50.71098645 339.55715976 -50.5696876 341.15835547 C-50.13268782 346.11497198 -49.69805565 351.0717781 -49.26739883 356.02894974 C-49.11334946 357.78531536 -48.95925724 359.54167722 -48.80511475 361.29803467 C-48.73793039 362.08117774 -48.67074603 362.86432082 -48.60152578 363.67119551 C-48.20719725 368.14208139 -47.67501715 372.56254427 -47 377 C-41.42706767 375.95013983 -35.85422656 374.89979778 -30.28149414 373.84887695 C-25.48671073 372.94476174 -20.69158498 372.04249034 -15.89624023 371.14135742 C-4.36958436 368.97291657 7.15226932 366.78563992 18.66015625 364.51953125 C21.51611938 363.96093515 24.37221045 363.40299765 27.22833252 362.84521484 C29.02607339 362.4917176 30.8230854 362.13449207 32.61932373 361.7734375 C35.10778961 361.27337697 37.59841839 360.78584505 40.08984375 360.30078125 C40.80938736 360.15236282 41.52893097 360.0039444 42.27027893 359.85102844 C46.44603851 359.05275048 49.87932587 358.86670689 54 360 C55.38125018 362.76250036 55.19079306 364.94731099 55 368 C52.34708876 370.65291124 50.36101653 370.71588136 46.68383789 371.43286133 C46.03441223 371.56167191 45.38498657 371.69048248 44.71588135 371.82319641 C42.55285955 372.25024318 40.38785465 372.66617278 38.22265625 373.08203125 C36.69823488 373.38044384 35.17393977 373.67950207 33.64976501 373.97917175 C29.60902451 374.77163159 25.56648982 375.55455471 21.52355957 376.33575439 C18.30913297 376.95843894 15.09600782 377.58767485 11.88294411 378.2173481 C-7.05663318 381.92882712 -26.01353302 385.53564066 -45 389 C-46.19634162 392.58902485 -45.85150577 394.88020714 -45.44140625 398.63671875 C-45.30283203 399.93544922 -45.16425781 401.23417969 -45.02148438 402.57226562 C-44.86862967 403.94402603 -44.71563306 405.31577064 -44.5625 406.6875 C-44.41281649 408.0708993 -44.26372096 409.45436235 -44.11523438 410.83789062 C-43.74927857 414.2259331 -43.37729452 417.61320455 -43 421 C-38.92879918 422.60559983 -35.16746412 421.42593479 -31.06616211 420.50878906 C-30.2706041 420.3381897 -29.47504608 420.16759033 -28.65538025 419.99182129 C-26.02729487 419.4255491 -23.40232102 418.84612175 -20.77734375 418.265625 C-18.95188789 417.86735695 -17.12632993 417.46955655 -15.30067444 417.07220459 C-11.47539863 416.23737031 -7.65167062 415.39584132 -3.82885742 414.54980469 C1.07328144 413.46561815 5.97918241 412.39968792 10.88643742 411.33893204 C14.65679264 410.52155061 18.42480124 409.69374766 22.1921978 408.86284637 C24.00037694 408.46553227 25.80931623 408.07166151 27.6190052 407.68128204 C30.14702256 407.13447234 32.67149378 406.57353102 35.19555664 406.00878906 C36.32009247 405.7701413 36.32009247 405.7701413 37.46734619 405.52667236 C42.49544295 404.44629393 42.49544295 404.44629393 46 401 C60.74859062 371.67683753 62.4188192 341.46027583 63.10000229 309.23740768 C63.24859128 302.89052561 63.47181129 296.54626692 63.6887207 290.20141602 C64.02603251 280.12608245 64.3285341 270.05041684 64.6015625 259.97314453 C65.04982086 243.56336932 65.6915736 227.16371255 66.39804554 210.76327324 C66.61906795 205.62395593 66.82141577 200.48418883 67.0144043 195.34375 C67.78454769 175.07911186 68.70046151 157.03517345 76 138 C76.43732452 136.84646027 76.43732452 136.84646027 76.88348389 135.6696167 C78.66915725 130.99329272 80.53711741 126.35788396 82.47680664 121.7434082 C83.1278293 120.18078839 83.76614405 118.61282433 84.39282227 117.0402832 C85.3172194 114.72182982 86.27680926 112.42107986 87.24609375 110.12109375 C87.51924911 109.41713974 87.79240448 108.71318573 88.07383728 107.98789978 C88.92358398 106.04077148 88.92358398 106.04077148 91 103 C96.73277729 101.40598935 96.73277729 101.40598935 100 102.9375 C101.65283808 106.34647854 100.87677846 109.45282188 100 113 C98.12081694 117.94559322 95.94146019 122.74977606 93.75 127.5625 C83.85844232 149.39414645 79.96682079 169.09612866 79.10205078 192.97558594 C79.0300641 194.82054592 78.95742302 196.66548047 78.88418579 198.51039124 C78.72890419 202.44910604 78.57756411 206.38794459 78.42923355 210.32692719 C78.19365871 216.56560179 77.9452564 222.80372658 77.69454956 229.04180908 C76.98380816 246.76863745 76.28602539 264.49593883 75.60986328 282.22412109 C75.23531648 292.04143182 74.84815889 301.85816341 74.44727695 311.6744349 C74.19512891 317.86588113 73.95832158 324.05765762 73.73307443 330.25013781 C73.58896236 334.10909091 73.43005099 337.96733183 73.26705551 341.8255291 C73.19484084 343.60375087 73.12855974 345.38222593 73.06890869 347.16091347 C72.76516159 356.12087861 72.29237025 364.03058693 68.82386684 372.43864441 C67.26300622 377.29127214 68.17053029 382.06304611 69 387 C69.16275421 387.97900269 69.32550842 388.95800537 69.49319458 389.9666748 C70.04466064 393.02517144 70.65519206 396.06611996 71.28515625 399.109375 C71.50570175 400.20219788 71.72624725 401.29502075 71.95347595 402.42095947 C72.65009795 405.86530566 73.35612176 409.30764291 74.0625 412.75 C74.54034021 415.10403955 75.01755943 417.45820524 75.49414062 419.8125 C76.65559384 425.54314286 77.82474419 431.27217279 79 437 C79.88061096 437.00586624 80.76122192 437.01173248 81.66851807 437.01777649 C89.96735693 437.07567957 98.26592596 437.1477425 106.56450272 437.23571491 C110.83090578 437.28044306 115.09721281 437.31969365 119.36376953 437.34643555 C123.48123499 437.37244436 127.59833139 437.41282919 131.71556854 437.46318626 C133.28638875 437.47987146 134.85727282 437.49137546 136.42816925 437.49761391 C138.62861318 437.50723737 140.82810946 437.5352735 143.02832031 437.56762695 C144.28074524 437.57873001 145.53317017 437.58983307 146.82354736 437.60127258 C150.18090025 438.02270769 151.56962513 438.71146575 154 441 C153.125 447.875 153.125 447.875 152 449 C149.9145818 449.1238634 147.82499859 449.17799067 145.73608398 449.20532227 C145.08244873 449.21522186 144.42881348 449.22512146 143.75537109 449.23532104 C141.58564936 449.26701634 139.4159057 449.29172492 137.24609375 449.31640625 C135.74536048 449.33696887 134.2446331 449.35796515 132.74391174 449.37937927 C128.78688307 449.43467155 124.82980151 449.48404911 120.87268066 449.53222656 C116.8375984 449.5823895 112.80259328 449.63810268 108.76757812 449.69335938 C100.84511723 449.8010284 92.92259196 449.90245379 85 450 C86.03456012 455.47680078 88.08998195 460.12213562 90.375 465.1875 C90.77460938 466.10208984 91.17421875 467.01667969 91.5859375 467.95898438 C91.9778125 468.83232422 92.3696875 469.70566406 92.7734375 470.60546875 C93.30590088 471.79885864 93.30590088 471.79885864 93.84912109 473.01635742 C94.98353927 475.30775901 94.98353927 475.30775901 98 477 C100.38962714 477.30332916 100.38962714 477.30332916 103.08227539 477.25878906 C104.11667252 477.26509338 105.15106964 477.27139771 106.21681213 477.27789307 C107.33249069 477.2738446 108.44816925 477.26979614 109.59765625 477.265625 C111.31546547 477.26849518 111.31546547 477.26849518 113.06797791 477.27142334 C115.48973816 477.27278494 117.91150571 477.26909027 120.33325195 477.26074219 C124.05110973 477.25003281 127.76848534 477.26064365 131.48632812 477.2734375 C133.83593857 477.27211609 136.18554872 477.26955409 138.53515625 477.265625 C139.65285904 477.26967346 140.77056183 477.27372192 141.9221344 477.27789307 C142.95337936 477.27158875 143.98462433 477.26528442 145.04711914 477.25878906 C146.41254601 477.25640228 146.41254601 477.25640228 147.80555725 477.25396729 C150.20793517 477.20614888 150.20793517 477.20614888 152 475 C160.6478529 449.19711918 157.66312167 422.34282963 155.32794189 395.80596924 C154.98254379 391.79740988 154.65713368 387.78767757 154.33935547 383.77685547 C154.25566192 382.72121242 154.25566192 382.72121242 154.1702776 381.64424324 C154.11388961 380.93300741 154.05750162 380.22177158 153.99940491 379.48898315 C146.9278569 290.31794055 139.60993589 198.11743252 114 112 C113.73977051 111.12424316 113.47954102 110.24848633 113.21142578 109.34619141 C106.47312938 87.07178484 94.24765162 67.38830659 73.12548828 56.05395508 C60.75253589 49.91864202 47.69281965 45.68820368 34.625 41.3125 C31.66237373 40.3152066 28.7003027 39.31629077 25.73861694 38.31620789 C23.91165889 37.69984271 22.08408192 37.08530774 20.25576782 36.47297668 C16.32635152 35.1521384 12.43138308 33.79343291 8.56787109 32.28979492 C5.16208973 30.8300149 5.16208973 30.8300149 2 31 Z M-75 215 C-76.67568207 216.67568207 -76.36781806 218.81649766 -76.57582092 221.12234497 C-76.67816544 222.232686 -76.78050995 223.34302704 -76.88595581 224.48701477 C-76.9945694 225.7160704 -77.10318298 226.94512604 -77.21508789 228.21142578 C-77.33227676 229.49755264 -77.44946564 230.7836795 -77.57020569 232.10877991 C-77.89250046 235.64796559 -78.20909685 239.18764042 -78.52454305 242.72744226 C-78.8553384 246.4306844 -79.19074043 250.13350955 -79.52549744 253.83639526 C-80.0876072 260.06220007 -80.64609239 266.288322 -81.20239258 272.51464844 C-81.84482722 279.70459494 -82.49263535 286.89404139 -83.1434384 294.08323491 C-83.76948613 301.00009011 -84.39197066 307.91726142 -85.01275444 314.83459091 C-85.27679836 317.77629419 -85.54202895 320.71788686 -85.80821419 323.65939713 C-86.18058078 327.77667751 -86.54770979 331.89440891 -86.91430664 336.01220703 C-87.02494446 337.22911728 -87.13558228 338.44602753 -87.24957275 339.69981384 C-87.34909744 340.82707382 -87.44862213 341.9543338 -87.55116272 343.11575317 C-87.63835603 344.08878954 -87.72554934 345.0618259 -87.81538486 346.06434822 C-88.02328547 349.37027312 -88 352.6875444 -88 356 C-79.42 356 -70.84 356 -62 356 C-62.70771538 340.10281125 -64.05212758 324.30178966 -65.50390625 308.45703125 C-65.74980994 305.7489808 -65.99463389 303.04083302 -66.23948669 300.33268738 C-66.81387754 293.986517 -67.3918657 287.64067991 -67.97122759 281.29496163 C-68.63189499 274.05670721 -69.2884286 266.8180796 -69.94465744 259.57942164 C-71.29191888 244.719202 -72.64423364 229.8594463 -74 215 C-74.33 215 -74.66 215 -75 215 Z M-89 369 C-90.64812648 372.29625296 -90.38249331 375.99458475 -90.5625 379.625 C-90.706875 382.38875 -90.85125 385.1525 -91 388 C-80.44 388 -69.88 388 -59 388 C-59.144375 385.050625 -59.28875 382.10125 -59.4375 379.0625 C-59.48060303 378.13187744 -59.52370605 377.20125488 -59.56811523 376.24243164 C-59.6252771 375.14983032 -59.6252771 375.14983032 -59.68359375 374.03515625 C-59.72025146 373.2862915 -59.75690918 372.53742676 -59.79467773 371.76586914 C-59.81771063 369.97538674 -59.81771063 369.97538674 -61 369 C-63.07262076 368.91232888 -65.14820294 368.89304127 -67.22265625 368.90234375 C-69.11274414 368.90717773 -69.11274414 368.90717773 -71.04101562 368.91210938 C-72.38151109 368.92046597 -73.72200588 368.92893093 -75.0625 368.9375 C-76.40689942 368.9425134 -77.7513006 368.94707658 -79.09570312 368.95117188 C-82.39717941 368.96300512 -85.69856803 368.97949029 -89 369 Z " fill="#FFFFFF" transform="translate(331,19)"/>
<path d="M0 0 C2.77491083 2.14059793 3.4494101 3.87211452 3.95703125 7.28515625 C4.0972168 8.18830566 4.23740234 9.09145508 4.38183594 10.02197266 C4.52395508 11.02534668 4.66607422 12.0287207 4.8125 13.0625 C4.97137695 14.12001465 5.13025391 15.1775293 5.29394531 16.26708984 C5.76349792 19.42186899 6.21985411 22.5783181 6.67266846 25.73553467 C7.16434692 29.13694482 7.66975154 32.53630175 8.17338562 35.93595886 C8.73230197 39.71784413 9.28510316 43.50060405 9.83602905 47.28366089 C10.11100133 49.17096598 10.38705541 51.05811378 10.66421509 52.94509888 C11.05741282 55.63194512 11.44371083 58.31969719 11.828125 61.0078125 C12.00594765 62.21281151 12.00594765 62.21281151 12.18736267 63.44215393 C13.84342954 75.17256933 13.84342954 75.17256933 11.875 79.4375 C10 81 10 81 7.0625 81.5 C3.26254032 80.87959842 2.3711972 79.98760577 0 77 C-0.86738586 73.93312073 -0.86738586 73.93312073 -1.38793945 70.29125977 C-1.48766556 69.62571075 -1.58739166 68.96016174 -1.69013977 68.27444458 C-2.01425624 66.08212871 -2.31417919 63.88726331 -2.61328125 61.69140625 C-2.8329415 60.16192845 -3.0538412 58.63262819 -3.27592468 57.10350037 C-3.73739836 53.90134661 -4.18758436 50.69787835 -4.62915039 47.49291992 C-5.19476541 43.39030392 -5.78243583 39.29124011 -6.37786579 35.19285679 C-6.83503499 32.03592708 -7.28339077 28.87779752 -7.72881126 25.7191906 C-7.94249625 24.2074711 -8.15821827 22.69603807 -8.37603188 21.18490791 C-8.67886814 19.07039759 -8.97051753 16.95464041 -9.2590332 14.83813477 C-9.42683792 13.63552505 -9.59464264 12.43291534 -9.76753235 11.19386292 C-10.04384795 7.39757495 -9.92487869 4.41165695 -7.8125 1.1875 C-5.11075568 -0.58260835 -3.15326426 -0.39415803 0 0 Z " fill="#FFFFFF" transform="translate(367,277)"/>
<path d="M0 0 C3.0625 0.3125 3.0625 0.3125 4.875 1.5 C7.70414019 5.81816135 7.00605395 10.24486508 6.3215332 15.15063477 C6.2305687 15.8179361 6.13960419 16.48523743 6.04588318 17.17276001 C5.74393043 19.36782369 5.42938891 21.56083928 5.11328125 23.75390625 C4.89697939 25.28413891 4.68093403 26.81440784 4.46513367 28.3447113 C4.01116393 31.54734974 3.55026614 34.74890551 3.08520508 37.94995117 C2.49082526 42.04884162 1.91964501 46.15059772 1.354352 50.25358677 C0.91541273 53.41313582 0.46124199 56.57035727 0.00276756 59.72712517 C-0.21430773 61.23860408 -0.42596439 62.75087163 -0.63205528 64.26388741 C-0.92200346 66.37983383 -1.23308002 68.49164174 -1.54956055 70.60375977 C-1.72134323 71.80557388 -1.89312592 73.007388 -2.07011414 74.24562073 C-3.05323668 77.72171859 -4.09021584 79.13177235 -6.9375 81.3125 C-10 81.8125 -10 81.8125 -12.9375 81.3125 C-15.37195351 78.97212996 -15.91821267 77.73302589 -16.07420349 74.33192444 C-15.90683434 72.63440285 -15.90683434 72.63440285 -15.73608398 70.90258789 C-15.61699677 69.65518829 -15.49790955 68.4077887 -15.37521362 67.12258911 C-14.71310277 61.35922875 -13.98617231 55.61333079 -13.16015625 49.87109375 C-12.98874619 48.65978287 -12.81733612 47.44847198 -12.64073181 46.20045471 C-12.28091984 43.66836243 -11.91863802 41.13661995 -11.55395508 38.60522461 C-10.99705248 34.72948686 -10.45222115 30.85217423 -9.90820312 26.97460938 C-9.55541055 24.50250087 -9.20192001 22.03049185 -8.84765625 19.55859375 C-8.68612564 18.4033873 -8.52459503 17.24818085 -8.35816956 16.05796814 C-8.20138229 14.98237137 -8.04459503 13.9067746 -7.88305664 12.79858398 C-7.74839493 11.85707993 -7.61373322 10.91557587 -7.47499084 9.94554138 C-6.47076971 5.02609793 -5.54564963 0.58996273 0 0 Z " fill="#FFFFFF" transform="translate(147.9375,276.6875)"/>
<path d="M0 0 C2.69990662 1.79993774 4.5418865 3.083773 6 6 C6.48602588 10.29322859 6.46241608 12.32082639 4 15.9375 C0.66411401 18.23092162 -1.09984094 18.75815509 -5.0625 18.48046875 C-8.5685303 17.61102978 -10.01216563 15.91963173 -12 13 C-12.69151325 8.69725091 -12.51557405 6.79054688 -10.125 3.125 C-6.79974618 -0.20025382 -4.65430991 -0.45630489 0 0 Z " fill="#FFFFFF" transform="translate(295,313)"/>
<path d="M0 0 C3 2.0625 3 2.0625 5 5 C5.69151325 9.30274909 5.51557405 11.20945312 3.125 14.875 C0.61333682 17.38666318 -0.29384163 17.92153796 -3.8125 18.3125 C-7.7307645 17.92835642 -9.21293267 16.70743683 -12 14 C-13.3899408 11.2201184 -13.18488204 9.0813674 -13 6 C-10.81202928 -0.05899583 -5.96965303 -1.11495465 0 0 Z " fill="#FFFFFF" transform="translate(286,213)"/>
<path d="M0 0 C2.67881036 1.97386026 3.75391303 3.31447201 4.875 6.4375 C5.05785076 10.18594048 4.03711663 12.7074973 1.69921875 15.62109375 C-1.01491044 17.82359399 -3.46571367 17.47384323 -6.83984375 17.34765625 C-9 17 -9 17 -11.5 15.375 C-13.37256368 12.41010751 -13.92967856 10.51607206 -14 7 C-12.83893875 3.82235869 -11.87802343 1.72123353 -9.25 -0.4375 C-5.86232946 -1.28441764 -3.36855977 -0.84213994 0 0 Z " fill="#FFFFFF" transform="translate(278,113)"/>
<path d="M0 0 C2.5625 1.4375 2.5625 1.4375 4 4 C4.75220386 8.31527478 4.78950397 11.73679365 2.4375 15.5 C-0.81466794 17.50133412 -3.18732499 17.93311096 -7 18 C-9.88017082 16.78392788 -11.45238499 15.69696456 -13.375 13.25 C-14.31697802 9.85887913 -13.84752199 7.39008797 -13 4 C-9.91484945 -1.01336965 -5.3667251 -0.93548419 0 0 Z " fill="#FFFFFF" transform="translate(310,414)"/>
</svg>
