<?xml version="1.0" encoding="UTF-8"?>
<svg version="1.1" xmlns="http://www.w3.org/2000/svg" width="512" height="512" fill="#044B94" fill-opacity="0.2">
<path d="M0 0 C0.75171008 -0.00538554 1.50342016 -0.01077108 2.27790934 -0.01631981 C4.78045907 -0.03055325 7.28247639 -0.0235073 9.78504944 -0.01637268 C11.58589094 -0.02207866 13.38672883 -0.02904381 15.18756104 -0.03717041 C20.06774561 -0.05509149 24.94775028 -0.05393542 29.82795787 -0.04822803 C33.90599183 -0.04513473 37.98399131 -0.05123019 42.06202036 -0.05726677 C51.68424421 -0.07130688 61.30637926 -0.06975491 70.92860413 -0.05836487 C80.84719111 -0.04688329 90.76550772 -0.06096121 100.68405908 -0.08776134 C109.20826555 -0.10992946 117.73238722 -0.11655323 126.25662047 -0.11068493 C131.34406832 -0.10731693 136.43134285 -0.10972013 141.5187664 -0.12693596 C146.30332502 -0.14242075 151.08748354 -0.13843248 155.87202644 -0.11963081 C157.62474619 -0.11594923 159.37749568 -0.11904084 161.13018799 -0.1295166 C177.7223924 -0.22109232 177.7223924 -0.22109232 184.22669983 4.38768005 C188.75502281 10.10563538 189.30494564 16.264168 190.19154358 23.3603363 C190.35005295 24.53576492 190.50856232 25.71119354 190.671875 26.92224121 C191.18494316 30.76300869 191.67534788 34.60626121 192.16419983 38.45018005 C192.42444464 40.44550777 192.68677987 42.44055377 192.94919968 44.43559647 C197.17780303 76.62635744 201.25496956 108.96722811 203.22669983 141.38768005 C203.26629318 142.02168102 203.30588654 142.65568199 203.34667969 143.30889511 C204.24831878 158.08952409 204.38882219 172.83681847 204.39466858 187.6415863 C204.39871143 190.18786652 204.4029483 192.73414643 204.40736389 195.28042603 C204.41787403 202.79482467 204.41797258 210.30919493 204.41492414 217.82359886 C204.41419705 219.95834743 204.41394812 222.09309556 204.41383743 224.22784424 C204.40979454 275.4195143 203.8030638 326.57498805 202.47216606 377.75079346 C202.26419709 385.7972815 202.07266901 393.84409273 201.88587952 401.89109802 C201.59606356 414.36589455 201.2897769 426.84020205 200.9719696 439.3143158 C200.84982611 444.11946165 200.73321703 448.92469215 200.62132263 453.73008728 C200.49007173 459.33751305 200.34494949 464.94441376 200.18918228 470.5512104 C200.13411077 472.61331531 200.08379101 474.67555342 200.0385704 476.73789787 C199.97568198 479.56854005 199.89545022 482.39818895 199.81092834 485.22825623 C199.79679996 486.04474514 199.78267157 486.86123405 199.76811504 487.70246506 C199.54495974 494.17646542 198.5416944 500.13056035 193.72669983 504.82518005 C189.73878968 507.3176239 186.72090879 507.52048301 182.1063385 507.54881287 C180.84460312 507.55842041 179.58286774 507.56802795 178.28289795 507.57792664 C176.90349 507.58277508 175.52407995 507.5870538 174.14466858 507.59080505 C172.72843423 507.59655955 171.3121999 507.60231724 169.89596558 507.608078 C166.92604714 507.61858007 163.9561557 507.62442772 160.98622131 507.62791443 C157.18990443 507.63339325 153.39394727 507.65741113 149.59774303 507.68588638 C146.67141698 507.70455804 143.74517674 507.70972079 140.81879616 507.71125031 C139.41981861 507.71426788 138.02084226 507.72226611 136.62192345 507.73543549 C134.65977003 507.75258651 132.69746765 507.74875789 130.73524475 507.74412537 C129.62066391 507.747771 128.50608307 507.75141663 127.35772705 507.75517273 C122.65771155 507.20352589 119.52939646 505.66112354 116.14772034 502.35538578 C113.55493227 498.34989392 113.18287535 494.79419881 112.64715576 490.11416626 C112.52896443 489.19175398 112.4107731 488.2693417 112.28900021 487.31897753 C111.91490202 484.34391709 111.56767871 481.36670634 111.22669983 478.38768005 C111.11457854 477.43111267 111.00245724 476.47454529 110.88693833 475.48899102 C110.04333513 468.25228842 109.26763635 461.00892764 108.49940491 453.76390076 C108.24311221 451.37308545 107.98650601 448.98230374 107.72961426 446.59155273 C107.0403154 440.16708557 106.3557341 433.74212441 105.67236161 427.31702447 C105.24448881 423.29530598 104.81510375 419.27374988 104.38533592 415.25223351 C104.313583 414.58077788 104.24183008 413.90932225 104.16790282 413.21751949 C104.02206676 411.85282087 103.87622936 410.4881224 103.73039063 409.12342408 C102.37037661 396.3951488 101.01516594 383.6663656 99.66149976 370.93741389 C98.42500971 359.31169798 97.18257419 347.68662643 95.93735269 336.06184278 C94.65406025 324.08116583 93.37467833 312.10007727 92.09954566 300.11852902 C91.38542713 293.40906916 90.66980536 286.69977819 89.95009804 279.9909153 C89.27477408 273.69328755 88.60456325 267.39513613 87.93825722 261.09654808 C87.69337222 258.78974012 87.44670021 256.48312104 87.19808578 254.17671204 C86.85835763 251.02233716 86.52517156 247.86733553 86.193573 244.71209717 C86.0944547 243.80615871 85.99533641 242.90022026 85.89321452 241.96682912 C85.28451709 236.08756233 85.1166107 230.29681496 85.22669983 224.38768005 C84.56669983 224.38768005 83.90669983 224.38768005 83.22669983 224.38768005 C83.23843558 224.98510911 83.25017133 225.58253816 83.2622627 226.19807112 C83.33226958 232.57409258 82.90864962 238.77989884 82.21513367 245.11433411 C82.10628888 246.14755031 81.9974441 247.18076652 81.88530099 248.24529231 C81.52184138 251.68311754 81.15089386 255.12009153 80.77992249 258.55711365 C80.51671874 261.03165058 80.25396909 263.50623586 79.99163818 265.98086548 C79.35332075 271.9904699 78.71011043 277.99953198 78.06454732 284.00836085 C77.31176349 291.0169458 76.56437711 298.02610321 75.8171349 305.03528078 C74.48280982 317.54938016 73.1432664 330.06291551 71.80091858 342.57615662 C70.50072366 354.69646858 69.20473633 366.81722112 67.91322327 378.9384613 C66.50454537 392.15926978 65.09363079 405.37983582 63.67876661 418.59998381 C63.52763339 420.0121527 63.37650069 421.42432164 63.2253685 422.83649063 C63.15101895 423.53117211 63.07666939 424.22585358 63.00006682 424.94158601 C62.47833684 429.81759852 61.95811958 434.69377104 61.43844986 439.57000351 C60.7376675 446.14495968 60.03298383 452.71949019 59.32575417 459.29375648 C59.06735534 461.70097852 58.81014823 464.10832883 58.5542469 466.51581764 C58.20353977 469.81326167 57.8484224 473.11020297 57.49223328 476.40705872 C57.39300336 477.34969334 57.29377343 478.29232796 57.19153655 479.26352727 C56.65972604 484.14052761 56.02919458 488.99698537 55.29213524 493.84740639 C55.14475831 494.82001777 54.99738139 495.79262916 54.8455385 496.79471362 C53.87648592 500.85509466 52.34541242 502.63160847 49.22669983 505.38768005 C45.3637264 507.30923138 42.18480228 507.6486053 37.89515686 507.6782074 C36.63680023 507.6909671 35.3784436 507.70372681 34.08195496 507.71687317 C32.71614232 507.71993102 31.35032761 507.72215867 29.98451233 507.72361755 C28.57353075 507.73005053 27.16255049 507.73677927 25.75157166 507.74378967 C22.79777435 507.75574402 19.84409383 507.7594724 16.89027405 507.75828552 C13.11862179 507.75808242 9.34772375 507.78538289 5.57625008 507.81982994 C2.66273101 507.84214604 -0.25060788 507.84612164 -3.16420364 507.84506607 C-4.55398787 507.84741501 -5.9437776 507.85619858 -7.33347702 507.8717308 C-20.8855183 508.00902136 -20.8855183 508.00902136 -26.77330017 503.38768005 C-30.89486233 497.89226385 -30.95740372 492.44352401 -31.13047791 485.77415466 C-31.15670888 484.89640947 -31.18293985 484.01866428 -31.20996571 483.11432076 C-31.29663623 480.17299703 -31.37682585 477.23153414 -31.45689392 474.2900238 C-31.51703616 472.19361515 -31.57748848 470.09721537 -31.63822937 468.00082397 C-31.83598074 461.10912762 -32.0236615 454.21717139 -32.21080017 447.32518005 C-32.27672918 444.91837965 -32.34269827 442.51158034 -32.40870667 440.1047821 C-32.81551998 425.22669376 -33.20738292 410.34824594 -33.59043884 395.4695282 C-33.70691659 390.94617135 -33.82476723 386.42285527 -33.94444275 381.89958191 C-35.30369871 330.4897132 -35.97139275 279.09303692 -36.01680976 227.66627538 C-36.02058711 223.43849449 -36.02676293 219.21072772 -36.03519887 214.98295361 C-36.15141049 155.81880971 -36.15141049 155.81880971 -33.77330017 128.38768005 C-33.68886658 127.36384216 -33.60443298 126.34000427 -33.5174408 125.28514099 C-32.97356257 118.74789603 -32.3349951 112.22381749 -31.64830017 105.70018005 C-31.54713898 104.71936462 -31.44597778 103.73854919 -31.3417511 102.72801208 C-29.44779735 84.4419112 -27.1966906 66.20187696 -24.85323334 47.96888351 C-24.67540013 46.58495987 -24.4979233 45.20099039 -24.32080841 43.81697464 C-23.73581581 39.24577583 -23.1418299 34.67581951 -22.54283142 30.10643005 C-22.39402023 28.95225082 -22.24520905 27.79807159 -22.09188843 26.60891724 C-19.59562446 7.81900507 -19.59562446 7.81900507 -14.77330017 3.38768005 C-9.74483096 0.82690898 -5.6613145 -0.04930498 0 0 Z M-5.77330017 13.38768005 C-7.32474927 17.2663028 -8.12645297 19.78757398 -8.65538025 23.77732849 C-8.79942795 24.84188766 -8.94347565 25.90644684 -9.09188843 27.00326538 C-9.24069962 28.15621597 -9.3895108 29.30916656 -9.54283142 30.49705505 C-9.78484032 32.31838707 -9.78484032 32.31838707 -10.03173828 34.17651367 C-10.46738836 37.4765418 -10.89640012 40.77727164 -11.32080841 44.07875443 C-11.58641951 46.14249215 -11.854099 48.20595275 -12.12223816 50.2693634 C-14.51611112 68.72257956 -16.74447056 87.1891566 -18.64830017 105.70018005 C-18.74535248 106.62786194 -18.84240479 107.55554382 -18.94239807 108.51133728 C-19.5234364 114.11629472 -20.0473729 119.72372785 -20.5174408 125.33909607 C-20.68979415 127.39269945 -20.86863681 129.44576731 -21.05357361 131.49827576 C-23.56162976 160.07770401 -23.0866611 188.78424841 -23.03104782 217.44623947 C-23.02272475 221.81267384 -23.01866686 226.1791072 -23.01490784 230.54554749 C-22.96513275 282.42840988 -22.25742747 334.27768913 -20.86012268 386.14257812 C-20.73674052 390.75414354 -20.61650857 395.36578978 -20.49608326 399.9774332 C-20.11341097 414.62098427 -19.7174432 429.26413633 -19.30937576 443.9070015 C-19.2437382 446.26626314 -19.17842724 448.6255339 -19.11344528 450.98481369 C-18.93028935 457.63435767 -18.74235235 464.28372679 -18.54602814 470.93289566 C-18.48694475 472.95623241 -18.42948654 474.97961732 -18.37371063 477.00304794 C-18.29722286 479.76300879 -18.2147119 482.52272175 -18.13047791 485.28245544 C-18.10915896 486.0976298 -18.08784002 486.91280416 -18.06587505 487.75268078 C-18.27616697 491.37160687 -18.27616697 491.37160687 -16.77330017 494.38768005 C-14.96274992 494.48144059 -13.14852816 494.50512115 -11.33555603 494.50120544 C-10.17442795 494.50112991 -9.01329987 494.50105438 -7.81698608 494.50097656 C-6.55346817 494.49581528 -5.28995026 494.49065399 -3.98814392 494.4853363 C-2.70218826 494.48392136 -1.4162326 494.48250641 -0.09130859 494.48104858 C3.33313425 494.47722423 6.75753492 494.46739467 10.18196106 494.4563446 C13.67408172 494.4461287 17.16620917 494.44155058 20.65834045 494.43650818 C27.51447761 494.42577232 34.3705867 494.4086969 41.22669983 494.38768005 C42.41957394 490.51083918 43.22669983 487.47146082 43.22669983 483.38768005 C42.21858749 483.37554977 42.21858749 483.37554977 41.19010925 483.36317444 C34.21496683 483.27732721 27.24011514 483.17783302 20.26527405 483.07029724 C17.65985484 483.03193923 15.05438143 482.9970986 12.4488678 482.96580505 C8.7105518 482.92030254 4.97261118 482.86228379 1.23451233 482.80174255 C0.06365082 482.79019135 -1.10721069 482.77864014 -2.31355286 482.76673889 C-3.3945224 482.7468692 -4.47549194 482.72699951 -5.58921814 482.70652771 C-6.54408112 482.69320404 -7.49894409 482.67988037 -8.48274231 482.66615295 C-10.77330017 482.38768005 -10.77330017 482.38768005 -12.77330017 480.38768005 C-13.32883063 475.16569374 -13.32883063 475.16569374 -11.58486938 472.72329712 C-9.13429581 470.91656081 -7.50647972 470.99063086 -4.47569275 470.95530701 C-3.39479874 470.93551285 -2.31390472 470.91571869 -1.20025635 470.89532471 C-0.03455612 470.88893478 1.1311441 470.88254486 2.33216858 470.8759613 C3.52651016 470.8580101 4.72085175 470.8400589 5.9513855 470.82156372 C9.77228751 470.76730973 13.59306354 470.73351577 17.41419983 470.70018005 C20.00210805 470.66702041 22.5899996 470.63253203 25.1778717 470.59666443 C31.52736811 470.51157448 37.87688052 470.44328853 44.22669983 470.38768005 C45.42034241 468.00039489 45.56364645 466.12668471 45.84391689 463.46754646 C45.9561432 462.42101249 46.06836951 461.37447851 46.18399662 460.29623139 C46.30422988 459.13750106 46.42446315 457.97877074 46.54833984 456.78492737 C46.67845681 455.56097507 46.80857378 454.33702278 46.94263369 453.07598102 C47.30416631 449.66803368 47.66219951 446.25975053 48.01882303 442.85128808 C48.40386902 439.17947311 48.79341911 435.50813594 49.18249512 431.83674622 C49.85651345 425.47130951 50.52785613 419.1055952 51.19756889 412.73970413 C52.1664863 403.53109543 53.14114271 394.32310084 54.11752278 385.11528073 C55.70213829 370.17134135 57.28442188 355.22715629 58.864151 340.28269958 C58.95876055 339.3876954 59.0533701 338.49269121 59.15084661 337.57056569 C60.49345578 324.86847254 61.83374574 312.16613573 63.17310072 299.46369909 C63.31456026 298.12210238 63.31456026 298.12210238 63.45887756 296.75340271 C63.55306789 295.8600911 63.64725822 294.96677948 63.7443028 294.04639782 C65.31394865 279.16119329 66.88957969 264.27662959 68.47013861 249.39257991 C69.44539883 240.20629863 70.41557432 231.01950801 71.37927449 221.83200668 C72.03986329 215.53802277 72.70603563 209.24464602 73.37664359 202.9517218 C73.76365502 199.31828825 74.14807861 195.68462799 74.52573395 192.05020905 C74.93480205 188.11403149 75.35583467 184.17918747 75.77807617 180.24440002 C75.89607871 179.09013114 76.01408126 177.93586226 76.13565964 176.74661553 C76.25049369 175.69486606 76.36532775 174.64311659 76.48364162 173.55949593 C76.57954852 172.65077016 76.67545541 171.74204439 76.77426857 170.80578148 C77.23999173 168.31663905 77.89467796 166.53567072 79.22669983 164.38768005 C82.0254001 162.98832992 84.13168775 163.13502601 87.22669983 163.38768005 C89.85582553 165.38218921 91.05830736 167.27456179 91.55493259 170.55738449 C91.65121921 171.4668697 91.74750582 172.3763549 91.84671021 173.31340027 C92.01597472 174.88505133 92.01597472 174.88505133 92.18865871 176.48845291 C92.37003179 178.22859476 92.37003179 178.22859476 92.55506897 180.00389099 C92.6858915 181.22925442 92.81671404 182.45461784 92.95150089 183.71711349 C93.31497359 187.12891988 93.67494138 190.54106402 94.03348207 193.95339012 C94.42057378 197.62925596 94.81215493 201.30464368 95.20323181 204.98008728 C95.88063522 211.35206398 96.55527261 217.72432867 97.22813416 224.0967865 C98.20129862 233.31262952 99.1794712 242.5279357 100.15903342 251.74310064 C101.74844068 266.6959532 103.33494327 281.64911228 104.91908264 296.6025238 C105.0139545 297.49805261 105.10882636 298.39358142 105.20657313 299.31624746 C105.97639493 306.58307243 106.74607676 313.84991222 107.51575279 321.11675262 C108.18854211 327.46878745 108.86138729 333.82081635 109.53431702 340.1728363 C109.67645061 341.51449993 109.67645061 341.51449993 109.8214556 342.88326788 C111.39962837 357.7794568 112.98083695 372.67532196 114.5642271 387.57095718 C115.54157623 396.76671539 116.51614935 405.96275992 117.48719096 415.15918636 C118.1523038 421.45660839 118.82013788 427.75373788 119.49014497 434.05064106 C119.8770763 437.68807367 120.2626942 441.32563372 120.64493942 444.96356201 C121.0585709 448.89997797 121.47814423 452.83574715 121.89833069 456.77146912 C122.07970376 458.51161097 122.07970376 458.51161097 122.26474094 460.2869072 C122.37758395 461.33467457 122.49042696 462.38244194 122.60668945 463.46195984 C122.70297606 464.37144505 122.79926268 465.28093025 122.89846706 466.21797562 C123.11888398 468.42904482 123.11888398 468.42904482 124.22669983 470.38768005 C125.23148125 470.39647942 125.23148125 470.39647942 126.25656128 470.40545654 C133.21572015 470.46928986 140.17441224 470.55368333 147.13319397 470.65013123 C149.73176426 470.68342749 152.3304077 470.71144459 154.92909241 470.7341156 C158.66012302 470.76757457 162.39048044 470.81988735 166.12123108 470.8759613 C167.86978142 470.88554619 167.86978142 470.88554619 169.65365601 470.89532471 C171.27499702 470.92501595 171.27499702 470.92501595 172.92909241 470.95530701 C173.88173477 470.96641006 174.83437714 470.97751312 175.81588745 470.98895264 C178.22669983 471.38768005 178.22669983 471.38768005 180.03826904 472.72329712 C181.86044848 475.27523737 181.550048 477.34820728 181.22669983 480.38768005 C178.65384181 482.96053807 177.62106245 482.65659592 174.0426178 482.70652771 C172.42116348 482.73633224 172.42116348 482.73633224 170.76695251 482.76673889 C169.01066025 482.7840657 169.01066025 482.7840657 167.21888733 482.80174255 C166.0231308 482.8211087 164.82737427 482.84047485 163.59538269 482.86042786 C159.76422835 482.9203595 155.93304418 482.96666366 152.10169983 483.01268005 C149.50923858 483.05084729 146.91679017 483.08989827 144.32435608 483.12986755 C137.95858446 483.22607215 131.59273588 483.31107966 125.22669983 483.38768005 C125.3671286 485.03398333 125.51419312 486.67972185 125.66419983 488.32518005 C125.78601624 489.69996521 125.78601624 489.69996521 125.91029358 491.1025238 C125.98714959 493.34927737 125.98714959 493.34927737 127.22669983 494.38768005 C129.03179356 494.48667566 130.84076911 494.51567156 132.64857483 494.51707458 C133.80647522 494.52022675 134.96437561 494.52337891 136.15736389 494.52662659 C137.41774475 494.52460236 138.67812561 494.52257812 139.97669983 494.52049255 C141.90207581 494.52192764 141.90207581 494.52192764 143.86634827 494.52339172 C146.58673807 494.52486836 149.30709508 494.52271524 152.02748108 494.51805115 C155.52154652 494.51235386 159.01553516 494.51563305 162.50959778 494.52162361 C165.83197136 494.5260976 169.15432406 494.5229689 172.47669983 494.52049255 C174.36727112 494.5235289 174.36727112 494.5235289 176.29603577 494.52662659 C178.03288635 494.52189835 178.03288635 494.52189835 179.80482483 494.51707458 C181.34251526 494.5158812 181.34251526 494.5158812 182.91127014 494.5146637 C185.18876237 494.64805904 185.18876237 494.64805904 186.22669983 493.38768005 C186.40200764 490.68498466 186.51296703 488.00451902 186.58387756 485.29832458 C186.61010854 484.44051329 186.63633951 483.58270199 186.66336536 482.69889641 C186.75046523 479.80621528 186.83042634 476.91338179 186.91029358 474.02049255 C186.9704044 471.96481869 187.03085712 469.90915479 187.09162903 467.85350037 C187.28996996 461.07343055 187.4772987 454.29307321 187.66419983 447.51268005 C187.73011507 445.14547072 187.79608422 442.77826288 187.86210632 440.41105652 C188.30300197 424.55352085 188.72373092 408.69549508 189.13645935 392.83720398 C189.22257788 389.54524511 189.30993041 386.25332194 189.39784241 382.96141052 C190.77803584 331.21449148 191.42526096 279.48018716 191.47020942 227.71610045 C191.47399004 223.41162601 191.48016914 219.10716539 191.48859906 214.8026976 C191.70691897 171.54839947 191.70691897 171.54839947 189.22669983 128.38768005 C189.07621185 126.6867067 189.07621185 126.6867067 188.92268372 124.95137024 C188.21234807 117.02479423 187.39617575 109.11209001 186.53919983 101.20018005 C186.41275085 100.01428284 186.28630188 98.82838562 186.15602112 97.60655212 C184.15892526 78.92090233 181.91167507 60.27113131 179.47669983 41.63768005 C179.3282663 40.48949799 179.17983276 39.34131592 179.02690125 38.15834045 C178.60664532 34.92638127 178.17653475 31.6959158 177.74232483 28.46580505 C177.61856979 27.51330368 177.49481476 26.56080231 177.36730957 25.57943726 C177.18604271 24.261036 177.18604271 24.261036 177.00111389 22.91600037 C176.8483902 21.77823151 176.8483902 21.77823151 176.69258118 20.61747742 C176.18414059 17.86162724 176.18414059 17.86162724 174.22669983 13.38768005 C141.55669983 13.38768005 108.88669983 13.38768005 75.22669983 13.38768005 C75.22669983 20.31768005 75.22669983 27.24768005 75.22669983 34.38768005 C90.73669983 34.38768005 106.24669983 34.38768005 122.22669983 34.38768005 C121.89669983 29.43768005 121.56669983 24.48768005 121.22669983 19.38768005 C121.88669983 18.06768005 122.54669983 16.74768005 123.22669983 15.38768005 C126.19669983 15.38768005 129.16669983 15.38768005 132.22669983 15.38768005 C132.43166077 16.67545349 132.6366217 17.96322693 132.84779358 19.2900238 C133.11971635 20.96844368 133.39186334 22.64682725 133.66419983 24.32518005 C133.79890686 25.17531677 133.93361389 26.02545349 134.07240295 26.90135193 C134.20453186 27.71023865 134.33666077 28.51912537 134.47279358 29.3525238 C134.59324036 30.10138855 134.71368713 30.8502533 134.83778381 31.62181091 C135.06429887 33.40476855 135.06429887 33.40476855 136.22669983 34.38768005 C138.86763584 34.53542473 141.48577179 34.62268956 144.12904358 34.66893005 C145.31839256 34.69654419 145.31839256 34.69654419 146.5317688 34.72471619 C149.07583483 34.78364809 151.61996916 34.83637831 154.16419983 34.88768005 C157.50679384 34.95521996 160.8491676 35.02892077 164.19154358 35.10643005 C165.35253822 35.12679321 165.35253822 35.12679321 166.5369873 35.14756775 C172.00114851 35.27490439 172.00114851 35.27490439 174.22669983 36.38768005 C175.10169983 39.20018005 175.10169983 39.20018005 175.22669983 42.38768005 C173.57795137 44.84297844 172.24702093 46.16955762 169.30238342 46.79905701 C167.0213814 47.00574892 164.76656506 47.09590805 162.47669983 47.13768005 C161.68392639 47.16732849 160.89115295 47.19697693 160.07435608 47.2275238 C158.12567889 47.29795792 156.17618487 47.34511488 154.22669983 47.38768005 C154.60799587 56.69130346 156.87698292 63.45040818 163.22669983 70.38768005 C166.0225093 72.4682741 168.9519999 74.30452547 171.91419983 76.13768005 C173.46029099 77.11081549 175.00589088 78.08473205 176.55091858 79.05955505 C177.57318542 79.695224 177.57318542 79.695224 178.61610413 80.34373474 C180.22669983 81.38768005 180.22669983 81.38768005 181.22669983 82.38768005 C181.47669983 85.82518005 181.47669983 85.82518005 181.22669983 89.38768005 C178.22669983 91.38768005 178.22669983 91.38768005 175.50404358 91.27049255 C171.47027631 90.18392354 168.323744 88.44792282 164.78919983 86.26268005 C163.7935199 85.64936829 163.7935199 85.64936829 162.77772522 85.02366638 C148.51592457 76.02851861 143.91051385 63.24974983 140.22669983 47.38768005 C138.90669983 47.71768005 137.58669983 48.04768005 136.22669983 48.38768005 C136.22669983 49.04768005 136.22669983 49.70768005 136.22669983 50.38768005 C134.7692752 50.46864809 133.31057176 50.5268578 131.85169983 50.57518005 C131.03959045 50.60998474 130.22748108 50.64478943 129.39076233 50.6806488 C128.6766217 50.58396912 127.96248108 50.48728943 127.22669983 50.38768005 C126.56669983 49.39768005 125.90669983 48.40768005 125.22669983 47.38768005 C123.19782672 46.97287898 123.19782672 46.97287898 120.87513733 47.0947113 C120.02435608 47.10437927 119.17357483 47.11404724 118.29701233 47.12400818 C116.96283264 47.16171326 116.96283264 47.16171326 115.60169983 47.20018005 C114.70451233 47.21371521 113.80732483 47.22725037 112.88294983 47.24119568 C110.66360194 47.2766108 108.44544795 47.32599544 106.22669983 47.38768005 C106.2230542 48.13555283 106.21940857 48.8834256 106.21565247 49.65396118 C106.17753019 56.7580749 106.12040791 63.86173577 106.04279709 70.96551037 C106.00355877 74.61625964 105.97125628 78.26677625 105.95570374 81.91770935 C105.94037878 85.45177969 105.90566149 88.98520932 105.85839081 92.51899147 C105.83668594 94.49987595 105.83423981 96.48094209 105.83235168 98.46194458 C105.60763248 112.59681701 101.86063706 124.88660188 92.30091858 135.5322113 C87.82768293 139.80326681 82.75812807 143.16858124 77.53919983 146.45018005 C76.9094928 146.85704041 76.27978577 147.26390076 75.6309967 147.68309021 C72.46305605 149.58836116 70.56131075 150.40654764 66.83216858 150.1962738 C64.22669983 149.38768005 64.22669983 149.38768005 63.22669983 148.38768005 C62.53919983 145.26268005 62.53919983 145.26268005 63.22669983 141.38768005 C66.24894603 138.58747643 69.74185262 136.56510202 73.22669983 134.38768005 C83.16086258 127.31215555 90.69665516 119.72459898 93.22669983 107.38768005 C93.31325725 105.40190068 93.34440098 103.41342655 93.34022522 101.42576599 C93.34014969 100.224823 93.34007416 99.02388 93.33999634 97.7865448 C93.33483505 96.49476318 93.32967377 95.20298157 93.32435608 93.87205505 C93.32249 92.53255771 93.32106699 91.19305968 93.32006836 89.8535614 C93.31625818 86.33545534 93.30644073 82.81739084 93.29536438 79.29930115 C93.28511799 75.70637067 93.28056383 72.11343345 93.27552795 68.52049255 C93.26481708 61.47620314 93.24723245 54.43194869 93.22669983 47.38768005 C87.28669983 47.38768005 81.34669983 47.38768005 75.22669983 47.38768005 C75.20688049 49.49247742 75.18706116 51.59727478 75.16664124 53.76585388 C75.09977712 60.7149588 75.02213708 67.66391309 74.93917274 74.61284351 C74.88919635 78.8265738 74.84286652 83.04027886 74.80482483 87.25413513 C74.76798886 91.31965607 74.72163368 95.38496658 74.66863632 99.45030785 C74.65008335 101.00242616 74.63497872 102.5545896 74.62335587 104.10677528 C74.6065086 106.27851095 74.57747817 108.44976372 74.54554749 110.62132263 C74.53222382 111.85820328 74.51890015 113.09508392 74.50517273 114.3694458 C74.22669983 117.38768005 74.22669983 117.38768005 72.22669983 120.38768005 C68.72669983 120.70018005 68.72669983 120.70018005 65.22669983 120.38768005 C62.38573129 117.54671152 62.95005369 115.62406132 62.90785217 111.64305115 C62.89780655 110.95025558 62.88776093 110.25746002 62.87741089 109.54367065 C62.8464743 107.24949488 62.82951507 104.95543633 62.81263733 102.66111755 C62.79393406 101.07212813 62.77436129 99.48314872 62.75395203 97.8941803 C62.70253574 93.70866288 62.66296106 89.52311322 62.62580872 85.33744812 C62.5858284 81.06765202 62.5347089 76.79799111 62.48451233 72.52830505 C62.38764068 64.14818893 62.30327211 55.76800612 62.22669983 47.38768005 C59.10187421 47.30080509 55.97735737 47.24733437 52.85169983 47.20018005 C51.9622467 47.17504333 51.07279358 47.14990662 50.15638733 47.12400818 C48.88021545 47.10950623 48.88021545 47.10950623 47.57826233 47.0947113 C46.79273987 47.07900085 46.00721741 47.06329041 45.19789124 47.04710388 C44.54739807 47.15949402 43.89690491 47.27188416 43.22669983 47.38768005 C42.56669983 48.37768005 41.90669983 49.36768005 41.22669983 50.38768005 C39.06263733 50.6806488 39.06263733 50.6806488 36.60169983 50.57518005 C35.7844342 50.54810974 34.96716858 50.52103943 34.12513733 50.4931488 C33.49865295 50.45834412 32.87216858 50.42353943 32.22669983 50.38768005 C31.89669983 49.39768005 31.56669983 48.40768005 31.22669983 47.38768005 C30.23669983 47.38768005 29.24669983 47.38768005 28.22669983 47.38768005 C27.9353717 48.57103943 27.64404358 49.7543988 27.34388733 50.97361755 C22.93964027 68.22906311 16.55435837 78.64353727 1.03919983 87.95018005 C0.45718811 88.30934509 -0.12482361 88.66851013 -0.72447205 89.03855896 C-3.75979431 90.76772577 -5.61869823 91.39504205 -9.13658142 91.2275238 C-10.4417572 90.81180115 -10.4417572 90.81180115 -11.77330017 90.38768005 C-13.1978083 87.5386638 -13.11937679 85.53817063 -12.77330017 82.38768005 C-10.90220642 80.48143005 -10.90220642 80.48143005 -8.33580017 78.88768005 C-6.96874939 78.00209412 -6.96874939 78.00209412 -5.57408142 77.09861755 C-3.82738336 76.03159698 -2.0755873 74.97282375 -0.31626892 73.92674255 C6.75092092 69.56844149 10.69652501 64.49133071 13.60169983 56.70018005 C14.20600713 53.49735133 14.27211873 50.6351316 14.22669983 47.38768005 C13.19029358 47.3618988 12.15388733 47.33611755 11.08607483 47.30955505 C9.71624182 47.25326055 8.34645178 47.1959135 6.97669983 47.13768005 C6.29478577 47.12350037 5.6128717 47.10932068 4.91029358 47.0947113 C1.49362351 46.92885353 -0.49134979 46.59671223 -3.26548767 44.5400238 C-4.77330017 42.38768005 -4.77330017 42.38768005 -4.64830017 39.20018005 C-4.35955017 38.27205505 -4.07080017 37.34393005 -3.77330017 36.38768005 C-0.72578431 34.86392212 2.47702733 35.16865741 5.82435608 35.10643005 C6.57382004 35.08802063 7.323284 35.06961121 8.09545898 35.05064392 C11.30841083 34.97183902 14.52157403 34.90407937 17.73475647 34.83543396 C20.07723239 34.7838261 22.41952135 34.72653943 24.76185608 34.66893005 C25.49412918 34.65535461 26.22640228 34.64177917 26.98086548 34.62779236 C30.39355794 34.84055618 30.39355794 34.84055618 33.22669983 33.38768005 C33.52100755 32.05137889 33.76331816 30.70348783 33.98060608 29.3525238 C34.11273499 28.54363708 34.24486389 27.73475037 34.3809967 26.90135193 C34.51570374 26.05121521 34.65041077 25.20107849 34.78919983 24.32518005 C34.99706116 23.04417419 34.99706116 23.04417419 35.2091217 21.73728943 C35.55192987 19.62133555 35.88977599 17.50457887 36.22669983 15.38768005 C39.19669983 15.38768005 42.16669983 15.38768005 45.22669983 15.38768005 C47.87458375 22.03770914 46.94432444 27.35495887 46.22669983 34.38768005 C51.50669983 34.38768005 56.78669983 34.38768005 62.22669983 34.38768005 C62.22669983 27.45768005 62.22669983 20.52768005 62.22669983 13.38768005 C39.78669983 13.38768005 17.34669983 13.38768005 -5.77330017 13.38768005 Z " fill="#FFFFFF" transform="translate(171.77330017089844,2.6123199462890625)"/>
<path d="M0 0 C3.125 0.375 3.125 0.375 5.125 2.5625 C6.125 5.375 6.125 5.375 5.375 8.125 C4.125 10.375 4.125 10.375 3.125 11.375 C0.25 11.75 0.25 11.75 -2.875 11.375 C-4.875 9.1875 -4.875 9.1875 -5.875 6.375 C-4.75985345 2.2861293 -4.26801792 0.55669799 0 0 Z " fill="#FFFFFF" transform="translate(255.875,20.625)"/>
</svg>
