<?xml version="1.0" encoding="UTF-8"?>
<svg version="1.1" xmlns="http://www.w3.org/2000/svg" width="512" height="512" fill="#044B94" fill-opacity="0.2">
<path d="M0 0 C8.09505183 5.64612859 13.64813318 14.21681932 16.07421875 23.76953125 C17.85258517 34.85256486 16.75996168 44.68528584 10.77539062 54.27978516 C5.11559331 63.43752766 4.48737721 70.78411337 4.57421875 81.30859375 C4.56107097 82.79104667 4.54481193 84.27347537 4.52539062 85.75585938 C4.48509868 89.33637512 4.4864325 92.91536819 4.51171875 96.49609375 C5.09687256 96.60493896 5.68202637 96.71378418 6.28491211 96.82592773 C17.40241124 99.06311766 25.98413091 105.2091165 32.51171875 114.49609375 C39.46818198 126.45695145 40.70189716 138.07193591 37.51171875 151.49609375 C33.34085521 163.04093498 26.20433818 171.59262981 15.51171875 177.49609375 C14.52171875 178.15609375 13.53171875 178.81609375 12.51171875 179.49609375 C13.19492188 180.41261719 13.878125 181.32914063 14.58203125 182.2734375 C30.55184145 203.93723417 45.42986035 226.56396312 59.51171875 249.49609375 C59.98158203 250.25470703 60.45144531 251.01332031 60.93554688 251.79492188 C69.73620328 266.03300114 77.79751996 280.643315 85.51171875 295.49609375 C86.02154297 296.47481445 86.53136719 297.45353516 87.05664062 298.46191406 C92.77697286 309.56452438 97.57017153 320.78513342 101.57421875 332.62109375 C101.94458252 333.71091553 102.31494629 334.8007373 102.6965332 335.92358398 C110.71515842 360.68870523 108.22334283 386.65083542 96.63671875 409.87109375 C95.30316505 412.43683619 93.92195584 414.97181137 92.51171875 417.49609375 C91.96773437 418.48222656 91.42375 419.46835937 90.86328125 420.484375 C75.7878327 445.89202122 49.63559365 462.23581876 21.60546875 469.55078125 C-6.81088687 476.34862423 -38.12032496 471.25861179 -63.07763672 456.33349609 C-88.70902125 440.15863258 -106.07782028 415.88862599 -113.48828125 386.49609375 C-117.52314402 368.45181611 -116.46073508 350.91894526 -110.48828125 333.49609375 C-110.25786133 332.80370605 -110.02744141 332.11131836 -109.79003906 331.39794922 C-102.14232485 308.87612418 -90.38020714 287.02657487 -78.48828125 266.49609375 C-78.02776367 265.70009766 -77.56724609 264.90410156 -77.09277344 264.08398438 C-69.03561447 250.24488885 -60.32071654 236.84929388 -51.48828125 223.49609375 C-50.42185366 221.87631613 -49.35544625 220.25652523 -48.2890625 218.63671875 C-40.09515089 206.23083515 -31.75608067 193.88780246 -22.60302734 182.16455078 C-21.3031005 180.55336282 -21.3031005 180.55336282 -21.48828125 178.49609375 C-23.1167818 177.41541599 -24.79375647 176.40748503 -26.48828125 175.43359375 C-37.47743126 168.58303108 -43.67242166 159.34360701 -46.80078125 146.80859375 C-49.14300974 134.06146565 -45.64723334 122.1669846 -38.48828125 111.49609375 C-31.9764478 103.19669817 -23.53247986 98.91190056 -13.48828125 96.49609375 C-13.5039917 95.47773437 -13.51970215 94.459375 -13.53588867 93.41015625 C-13.59054229 89.60083042 -13.62475899 85.79153866 -13.65307617 81.98193359 C-13.66808261 80.33897049 -13.68849437 78.69604689 -13.71459961 77.05322266 C-13.75134484 74.67991333 -13.76808897 72.3071375 -13.78125 69.93359375 C-13.79673386 69.20930176 -13.81221771 68.48500977 -13.82817078 67.73876953 C-13.83054399 60.40605157 -11.40339723 54.53588987 -7.42578125 48.37109375 C-3.46202546 41.90908989 -1.29183354 36.12650007 -2.48828125 28.49609375 C-4.55352495 22.68439556 -7.06903182 17.74764341 -12.48828125 14.49609375 C-18.5848666 11.65032819 -25.38855529 11.313222 -31.87109375 13.18359375 C-36.37607523 15.23909861 -40.20010472 18.01623675 -42.48828125 22.49609375 C-44.68580783 29.78652703 -45.85565076 37.3822746 -47.1015625 44.8828125 C-47.30967308 46.13356819 -47.30967308 46.13356819 -47.52198792 47.40959167 C-48.09306581 50.85923326 -48.66209455 54.30899816 -49.2097168 57.76245117 C-53.37245294 83.86829256 -62.89201957 104.41790727 -77.77416992 126.14013672 C-79.32815187 128.41109258 -80.86489371 130.69307759 -82.40039062 132.9765625 C-83.39355 134.43946873 -84.38765416 135.9017341 -85.3828125 137.36328125 C-85.83703079 138.03817596 -86.29124908 138.71307068 -86.75923157 139.40841675 C-89.01217577 142.67767116 -90.9929168 145.44768465 -94.48828125 147.49609375 C-98.52147222 147.88054003 -102.29612583 147.39924179 -105.55078125 144.93359375 C-107.1814235 140.69392391 -107.40964459 136.57006456 -105.56222534 132.41156006 C-104.21346388 130.17061653 -102.77070435 128.03362991 -101.265625 125.89453125 C-100.72732559 125.09560455 -100.18902618 124.29667786 -99.63441467 123.47354126 C-97.91533419 120.92723909 -96.17247144 118.39851799 -94.42578125 115.87109375 C-77.31205218 90.88828881 -69.92138789 69.15284026 -65.65698242 39.30200195 C-63.63826223 25.32977821 -61.24008047 11.32918197 -49.5625 1.94921875 C-33.98233926 -9.23086107 -16.31819564 -9.86264572 0 0 Z M-25.15234375 124.58984375 C-28.7480986 129.72062845 -29.90457778 135.59744369 -29.2421875 141.80078125 C-27.65054481 150.16746937 -23.30071052 155.59288032 -16.48828125 160.49609375 C-10.63688293 163.87190047 -5.09224729 164.44081516 1.51171875 163.49609375 C9.84551844 160.87585979 15.70420859 155.60065768 19.88671875 147.99609375 C21.80247436 140.33307129 22.34668472 133.32065933 18.21484375 126.2890625 C13.52690975 119.77670057 8.38385472 115.42621465 0.51171875 113.49609375 C-10.22536108 111.87938124 -18.52477898 116.25093597 -25.15234375 124.58984375 Z M-5.48828125 188.49609375 C-7.15971002 190.7122845 -8.70861072 192.93393999 -10.23828125 195.24609375 C-11.23456918 196.72600687 -12.23201894 198.20513832 -13.23046875 199.68359375 C-14.02469238 200.86308594 -14.02469238 200.86308594 -14.83496094 202.06640625 C-17.05251939 205.32528719 -19.32821504 208.54136288 -21.60498047 211.7590332 C-28.63563431 221.70366951 -35.37603357 231.80898653 -41.93554688 242.06982422 C-43.43027845 244.40545981 -44.93517197 246.73427205 -46.44140625 249.0625 C-79.34914838 294.93399736 -79.34914838 294.93399736 -94.17578125 346.55859375 C-90.84916489 358.21195535 -84.02488211 369.1592522 -76.48828125 378.49609375 C-75.91335937 379.223125 -75.3384375 379.95015625 -74.74609375 380.69921875 C-70.56420555 385.74831879 -65.78310878 389.65404203 -60.48828125 393.49609375 C-59.34553504 390.06785512 -59.64970581 389.3832736 -60.86328125 386.12109375 C-68.56468358 365.17615844 -60.06416458 344.67823661 -51.48828125 325.49609375 C-51.13137207 324.69719727 -50.77446289 323.89830078 -50.40673828 323.07519531 C-44.38505659 309.74499258 -37.46750145 297.02450341 -30.14501953 284.37011719 C-28.48229405 281.48570746 -26.83977921 278.59067824 -25.203125 275.69140625 C-24.1523726 273.83461909 -23.10159246 271.97784763 -22.05078125 270.12109375 C-21.34332764 268.86522461 -21.34332764 268.86522461 -20.62158203 267.58398438 C-11.85486271 252.17938448 -11.85486271 252.17938448 -8.48828125 250.49609375 C-1.18393342 250.26420969 -1.18393342 250.26420969 2.51171875 251.49609375 C3.21573457 253.14733085 3.87086265 254.81933328 4.51171875 256.49609375 C6.17371187 259.46548034 7.97974202 262.34751849 9.76171875 265.24609375 C25.30194744 290.88367151 40.32447823 317.21376727 50.51171875 345.49609375 C50.74890625 346.14223633 50.98609375 346.78837891 51.23046875 347.45410156 C56.64166012 362.55229178 55.17711287 375.58182177 50.51171875 390.49609375 C50.16628306 391.826343 49.82631862 393.1582164 49.51171875 394.49609375 C66.51018582 384.20754789 77.10256213 367.83366109 85.015625 350.0703125 C86.45268138 342.6134609 83.79883088 335.72882268 80.94921875 328.93359375 C80.59061768 328.06081787 80.2320166 327.18804199 79.86254883 326.28881836 C76.77864887 318.89838328 73.34758402 311.73283308 69.63183594 304.64208984 C68.41226695 302.30555729 67.21556286 299.95803753 66.01953125 297.609375 C47.97610463 262.39644831 25.81172821 229.4413736 2.79980469 197.31298828 C1.8988882 196.04221108 1.01264467 194.76096153 0.13769531 193.47216797 C-1.02334212 191.77980114 -2.25046319 190.13313982 -3.48828125 188.49609375 C-4.14828125 188.49609375 -4.80828125 188.49609375 -5.48828125 188.49609375 Z M-5.48828125 276.49609375 C-37.51273866 324.80268668 -37.51273866 324.80268668 -45.765625 378.6328125 C-43.77634879 384.40735112 -41.00231849 389.51692046 -37.48828125 394.49609375 C-36.93140625 395.34171875 -36.37453125 396.18734375 -35.80078125 397.05859375 C-27.94133613 405.34287374 -17.43025467 410.79735211 -5.9921875 411.53125 C6.473006 411.35623168 17.24630222 405.48645296 26.51171875 397.49609375 C34.83346358 386.5589434 38.89137046 375.23686737 37.51171875 361.49609375 C34.42058646 346.33105157 26.41867165 332.17328882 19.51171875 318.49609375 C18.96499512 317.41215332 18.41827148 316.32821289 17.85498047 315.21142578 C12.41847201 304.48715712 6.85353734 293.83834761 0.82421875 283.43359375 C0.41413574 282.71880859 0.00405273 282.00402344 -0.41845703 281.26757812 C-1.38221783 279.64033198 -2.42682476 278.06136529 -3.48828125 276.49609375 C-4.14828125 276.49609375 -4.80828125 276.49609375 -5.48828125 276.49609375 Z M85.51171875 384.49609375 C83.86091407 386.26872904 82.24543969 388.06090682 80.63671875 389.87109375 C59.22095718 413.43574537 32.9335648 426.41254118 0.95556641 428.39404297 C-28.57811679 429.62731765 -57.63706994 419.87073483 -79.7109375 400.07421875 C-83.06338389 396.9622432 -86.33254521 393.80660704 -89.48828125 390.49609375 C-90.46494686 389.5144324 -91.44389846 388.53503674 -92.42578125 387.55859375 C-93.10640625 386.87796875 -93.78703125 386.19734375 -94.48828125 385.49609375 C-92.69172778 398.07196801 -85.82644218 410.07574597 -77.48828125 419.49609375 C-76.79992187 420.31464844 -76.1115625 421.13320313 -75.40234375 421.9765625 C-60.64454289 439.09043332 -39.21351258 451.33289363 -16.48828125 453.49609375 C10.03126798 455.04655036 35.16039859 450.37759963 56.046875 432.70703125 C56.86027344 431.97742188 57.67367187 431.2478125 58.51171875 430.49609375 C59.41792969 429.68398438 60.32414063 428.871875 61.2578125 428.03515625 C73.43468131 416.51695302 83.25588674 401.10083701 86.51171875 384.49609375 C86.18171875 384.49609375 85.85171875 384.49609375 85.51171875 384.49609375 Z " fill="#FFFFFF" transform="translate(140.48828125,6.50390625)"/>
<path d="M0 0 C9.47685238 6.58063831 15.735221 14.91949872 18.4140625 26.15625 C19.96208612 35.63246939 19.43248083 45.47322538 13.88671875 53.546875 C5.11782355 66.794507 6.63226394 82.37576664 6.83203125 97.71484375 C8.6728125 98.14216797 8.6728125 98.14216797 10.55078125 98.578125 C20.8135449 101.15510857 29.5221061 107.65766586 35.14453125 116.58984375 C36.07122811 118.28163365 36.96937023 119.98952172 37.83203125 121.71484375 C38.17363281 122.37742187 38.51523437 123.04 38.8671875 123.72265625 C42.68559587 132.78027611 42.30764269 145.5792956 39.20703125 154.77734375 C33.89532266 166.90512594 25.92300716 173.94621044 14.83203125 180.71484375 C15.57066406 181.75640625 16.30929687 182.79796875 17.0703125 183.87109375 C20.33389189 188.47888332 23.58583035 193.09479724 26.83203125 197.71484375 C27.27482422 198.34455078 27.71761719 198.97425781 28.17382812 199.62304688 C117.84370351 327.54073641 117.84370351 327.54073641 108.24609375 383.56933594 C105.80448478 396.22078618 101.10524305 407.5080284 94.83203125 418.71484375 C94.27644531 419.71257812 93.72085938 420.7103125 93.1484375 421.73828125 C77.68227173 447.62649159 51.7905401 463.66533703 23.19921875 470.98828125 C6.09974145 474.67795965 -15.32854535 474.76871687 -32.16796875 469.71484375 C-33.36292969 469.38613281 -34.55789063 469.05742187 -35.7890625 468.71875 C-49.9777127 464.45181982 -63.10241596 457.61055474 -74.16796875 447.71484375 C-75.39193359 446.68617188 -75.39193359 446.68617188 -76.640625 445.63671875 C-98.86535032 426.53788216 -111.20130575 399.46657848 -114.04296875 370.52734375 C-116.02157711 326.23695671 -84.61232213 280.66730417 -62.16796875 244.71484375 C-61.64509277 243.87373047 -61.1222168 243.03261719 -60.58349609 242.16601562 C-50.45513352 225.91039739 -39.63311673 210.19102308 -28.5234375 194.59375 C-27.96479004 193.80782471 -27.40614258 193.02189941 -26.83056641 192.2121582 C-25.79381616 190.7560572 -24.75335235 189.30259027 -23.70849609 187.85229492 C-21.78482954 185.15664404 -20.22182639 182.87641668 -19.16796875 179.71484375 C-19.80863281 179.36292969 -20.44929688 179.01101562 -21.109375 178.6484375 C-32.3347025 172.24113432 -39.82265829 164.32010713 -43.609375 151.8046875 C-46.61372764 140.56462691 -45.34491684 129.39377722 -39.98046875 119.02734375 C-34.2340004 109.54739147 -27.03854499 102.50297777 -16.4140625 99.08203125 C-15.61540771 98.82276855 -14.81675293 98.56350586 -13.99389648 98.29638672 C-13.09006226 98.00852295 -13.09006226 98.00852295 -12.16796875 97.71484375 C-12.1743335 96.6976123 -12.18069824 95.68038086 -12.18725586 94.63232422 C-12.20189575 90.78864975 -12.16993488 86.94643115 -12.12524414 83.10302734 C-12.11225818 81.45268768 -12.11122659 79.80220213 -12.12329102 78.15185547 C-12.20018312 66.10542509 -10.43036784 58.08408049 -4.16796875 47.71484375 C-0.74371146 41.07672807 1.1466749 36.15544594 -0.67578125 28.61328125 C-2.80214072 22.08755736 -6.92139571 17.70741557 -13.01953125 14.4453125 C-19.0041045 12.41055759 -25.85630849 12.74836621 -31.60546875 15.33984375 C-37.42634585 18.77670258 -40.31736972 23.23681201 -42.16796875 29.71484375 C-42.78829128 32.78327212 -43.27467353 35.86771319 -43.75390625 38.9609375 C-44.04804768 40.78713022 -44.34232295 42.61330139 -44.63671875 44.43945312 C-45.08892399 47.28206012 -45.53867724 50.12502446 -45.98535156 52.96850586 C-50.84968121 83.79659948 -61.65296635 106.6735166 -78.98046875 132.46484375 C-79.40251587 133.09660522 -79.82456299 133.7283667 -80.25939941 134.37927246 C-81.47809973 136.19933554 -82.70626093 138.01262133 -83.9375 139.82421875 C-84.65526611 140.88608398 -85.37303223 141.94794922 -86.11254883 143.04199219 C-89.041489 146.85076247 -90.81502334 148.51805169 -95.60546875 149.21484375 C-99.16796875 148.71484375 -99.16796875 148.71484375 -102.10546875 146.71484375 C-104.67831775 142.97251793 -104.94754378 140.08282591 -104.16796875 135.71484375 C-102.76350921 132.57412945 -100.88268015 129.85320678 -98.91015625 127.04296875 C-98.36948517 126.23929871 -97.82881409 125.43562866 -97.27175903 124.60760498 C-95.5459404 122.04790181 -93.79618156 119.50584382 -92.04296875 116.96484375 C-77.36470111 95.47842841 -69.07937137 76.69942894 -65.04296875 51.02734375 C-59.09882905 14.08415258 -59.09882905 14.08415258 -48.16796875 4.71484375 C-47.6059375 4.22371094 -47.04390625 3.73257813 -46.46484375 3.2265625 C-33.13893795 -7.68876278 -14.76837475 -8.75458612 0 0 Z M-21.765625 123.8671875 C-25.76067062 129.13085485 -27.3384146 135.18463723 -27.16796875 141.71484375 C-25.91396818 149.02611493 -23.20848353 155.67062028 -17.171875 160.21875 C-10.19482453 164.71222654 -4.40836814 165.28351715 3.83203125 164.71484375 C11.09375378 162.6573557 17.43997169 157.59494683 21.33203125 151.08984375 C24.10986561 144.75638141 24.1458877 136.30938511 21.70703125 129.83984375 C17.20658211 122.33909519 12.36601216 117.60159405 3.81640625 115.1328125 C-6.05175318 113.05428286 -15.08006585 116.45801489 -21.765625 123.8671875 Z M-3.16796875 189.71484375 C-4.48794892 191.24322938 -4.48794892 191.24322938 -5.78515625 193.2734375 C-6.30335938 194.04292725 -6.8215625 194.81241699 -7.35546875 195.60522461 C-7.91234375 196.44577393 -8.46921875 197.28632324 -9.04296875 198.15234375 C-10.22665672 199.9135728 -11.41157696 201.67397422 -12.59765625 203.43359375 C-13.49629395 204.76970703 -13.49629395 204.76970703 -14.41308594 206.1328125 C-16.93874772 209.84892255 -19.55280903 213.49899845 -22.16796875 217.15234375 C-68.53076256 277.68946843 -68.53076256 277.68946843 -92.16796875 347.02734375 C-87.17330419 365.44516931 -75.18998403 382.0551568 -60.16796875 393.71484375 C-59.17796875 394.04484375 -58.18796875 394.37484375 -57.16796875 394.71484375 C-57.45671875 393.68488281 -57.74546875 392.65492188 -58.04296875 391.59375 C-68.25294253 353.31429295 -46.44323347 317.49135541 -27.70141602 285.06616211 C-25.41422791 281.16901901 -23.09841993 277.28963048 -20.77246094 273.41552734 C-19.21821504 270.79941838 -17.70547203 268.16402017 -16.20703125 265.515625 C-15.75360352 264.72051514 -15.30017578 263.92540527 -14.83300781 263.10620117 C-14.00176472 261.64586248 -13.17762147 260.18144807 -12.36230469 258.7121582 C-9.00557464 252.87632774 -9.00557464 252.87632774 -5.16796875 251.71484375 C-1.45786256 251.24121317 0.20882023 251.28699305 3.32348633 253.42529297 C5.85887092 255.73934034 7.33683939 257.75489538 9.03125 260.72265625 C9.59537598 261.69984619 10.15950195 262.67703613 10.74072266 263.68383789 C11.32772949 264.72531982 11.91473633 265.76680176 12.51953125 266.83984375 C13.13747559 267.91935303 13.75541992 268.9988623 14.39208984 270.11108398 C16.21635396 273.30626861 18.02585506 276.50940831 19.83203125 279.71484375 C20.73693636 281.30731599 21.6418795 282.89976663 22.546875 284.4921875 C25.02223045 288.87458203 27.43895236 293.28705658 29.83203125 297.71484375 C30.30882324 298.59462891 30.78561523 299.47441406 31.27685547 300.38085938 C62.69768744 358.64010838 62.69768744 358.64010838 53.8046875 388.5703125 C53.48371094 389.60800781 53.16273438 390.64570313 52.83203125 391.71484375 C52.48711675 393.04522824 52.14737072 394.37714053 51.83203125 395.71484375 C68.84686683 385.41639063 80.25776338 368.67830688 87.3359375 350.41015625 C92.4896425 322.40971176 56.91709374 277.30058273 42.83203125 254.71484375 C42.26226562 253.79703125 41.6925 252.87921875 41.10546875 251.93359375 C32.14367985 237.52925726 22.62096146 223.56743498 12.83203125 209.71484375 C11.6287814 208.0079005 10.42565118 206.30087292 9.22265625 204.59375 C7.18187705 201.69933287 5.13736376 198.8076198 3.08984375 195.91796875 C1.64493306 193.86809545 0.22318434 191.80157338 -1.16796875 189.71484375 C-1.82796875 189.71484375 -2.48796875 189.71484375 -3.16796875 189.71484375 Z M-3.16796875 277.71484375 C-34.91076365 325.98053969 -34.91076365 325.98053969 -43.55078125 379.96875 C-39.89628872 392.37138615 -32.17897028 401.17609774 -21.16796875 407.71484375 C-12.23564548 412.44210407 -2.66104918 413.91533178 7.22265625 411.5703125 C20.55996984 407.19775011 29.41385178 400.15403811 35.83203125 387.71484375 C42.45113413 371.69272118 39.50035364 359.01404764 33.17578125 343.6015625 C31.18200736 338.91516054 29.02729304 334.30973615 26.83203125 329.71484375 C26.36764648 328.74224609 25.90326172 327.76964844 25.42480469 326.76757812 C17.99256026 311.32507933 9.85185839 296.42010235 1.02441406 281.73242188 C0.24820395 280.41903113 -0.48569353 279.07939419 -1.16796875 277.71484375 C-1.82796875 277.71484375 -2.48796875 277.71484375 -3.16796875 277.71484375 Z M87.83203125 385.71484375 C86.09309811 387.54704147 84.39392411 389.39817122 82.70703125 391.27734375 C81.69622866 392.38755357 80.68451295 393.49693273 79.671875 394.60546875 C79.18058105 395.14365234 78.68928711 395.68183594 78.18310547 396.23632812 C57.68588717 418.66696673 29.6839019 427.84688753 0.13671875 429.90234375 C-23.84527387 430.55270287 -48.992938 423.11692907 -68.16796875 408.71484375 C-69.02777344 408.07675781 -69.88757813 407.43867188 -70.7734375 406.78125 C-77.0827507 401.91965518 -82.63139331 396.42625842 -88.16796875 390.71484375 C-89.49902872 389.37924092 -90.83158781 388.04512249 -92.16796875 386.71484375 C-89.40624853 406.04688529 -75.19928702 424.15233223 -60.3125 435.984375 C-37.47107416 452.64017248 -11.27140328 458.41274251 16.77734375 454.0546875 C20.90796406 453.25518279 24.86644988 452.11263091 28.83203125 450.71484375 C29.50234375 450.47878418 30.17265625 450.24272461 30.86328125 449.99951172 C55.22851336 441.05290305 73.14264789 423.0030192 84.26953125 399.83984375 C86.33068687 395.17512313 87.85154548 390.71532116 88.83203125 385.71484375 C88.50203125 385.71484375 88.17203125 385.71484375 87.83203125 385.71484375 Z " fill="#FFFFFF" transform="translate(377.16796875,39.28515625)"/>
</svg>
