<?xml version="1.0" encoding="UTF-8"?>
<svg version="1.1" xmlns="http://www.w3.org/2000/svg" width="512" height="512" fill="#044B94" fill-opacity="0.2">
<path d="M0 0 C1.7751759 -0.00576652 3.55034583 -0.01371119 5.32550335 -0.02363622 C10.18644405 -0.0444599 15.04689233 -0.03421472 19.90783453 -0.01870513 C25.15673968 -0.00737723 30.40556104 -0.02486149 35.65444946 -0.03860474 C45.93025696 -0.06082625 56.20588174 -0.05604074 66.48169637 -0.04154153 C74.8337906 -0.03024505 83.18583367 -0.02872018 91.53793335 -0.03416061 C92.72709655 -0.03492678 93.91625976 -0.03569294 95.14145821 -0.03648233 C97.55729558 -0.03808097 99.97313292 -0.03970204 102.38897026 -0.04134528 C125.03700548 -0.05559961 147.68493948 -0.03921498 170.3329581 -0.01234345 C189.76181768 0.00999501 209.19052788 0.00611479 228.61938477 -0.01693726 C251.18692515 -0.0437008 273.75437684 -0.05422634 296.32193089 -0.03887594 C298.7288316 -0.03728321 301.13573232 -0.03571135 303.54263306 -0.03416061 C305.31894868 -0.03300355 305.31894868 -0.03300355 307.13114947 -0.03182311 C315.4722508 -0.02750779 323.81329582 -0.03478907 332.15438843 -0.04655838 C342.32080119 -0.06058803 352.48702095 -0.05677348 362.65341163 -0.03015466 C367.8395104 -0.01702291 373.0252875 -0.01185337 378.21138382 -0.02840042 C382.96115192 -0.04332598 387.7103009 -0.03506863 392.46001303 -0.00851266 C394.17589064 -0.00293877 395.89182081 -0.0057436 397.60766447 -0.0178916 C415.02393305 -0.13171483 415.02393305 -0.13171483 422.5402832 5.63491821 C428.30876114 11.85704807 429.68982819 16.63248338 429.70141602 25.06607056 C429.70638092 25.92654495 429.71134583 26.78701935 429.71646118 27.67356873 C429.73107693 30.5226725 429.73788356 33.3717206 429.7434082 36.22085571 C429.7491598 38.19999188 429.75491753 40.17912803 429.76068115 42.15826416 C429.77118923 46.30933899 429.77703328 50.46039445 429.78051758 54.61148071 C429.78600422 59.9301727 429.81003675 65.24860894 429.83848953 70.56722069 C429.85711338 74.65587105 429.86232136 78.74445975 429.86385345 82.83314896 C429.86688069 84.79395573 429.87491161 86.75476141 429.88803864 88.71552658 C429.90509499 91.45887472 429.90321998 94.20159715 429.89672852 96.94497681 C429.9059433 97.75450302 429.91515808 98.56402924 429.9246521 99.39808655 C429.89045931 104.01142389 429.38749081 106.9635245 426.5402832 110.63491821 C419.54790366 117.46081253 410.57614862 120.11387656 401.40356445 122.92788696 C400.43045319 123.23160721 399.45734192 123.53532745 398.45474243 123.84825134 C395.25583367 124.84535778 392.05455532 125.83454754 388.8527832 126.82241821 C384.26621001 128.24094514 379.6803481 129.66174954 375.0949707 131.08413696 C373.31941048 131.63416885 373.31941048 131.63416885 371.50798035 132.1953125 C364.14009628 134.48673346 356.7968761 136.84361042 349.46839905 139.25804138 C344.64169188 140.84784058 339.80893072 142.4187989 334.97592163 143.98931885 C332.67032196 144.74437574 330.36766149 145.50847626 328.06826782 146.28222656 C312.65207712 151.46363 295.88046176 157.02257384 280.0480957 150.00210571 C269.2960674 144.14040804 263.09523809 136.6759173 256.5402832 126.63491821 C255.66707872 125.32642655 254.79204201 124.01915596 253.9152832 122.71304321 C251.96126415 119.7968649 250.01794895 116.87386412 248.0793457 113.94741821 C242.93995874 106.20980231 237.718797 98.52667041 232.48461914 90.85293579 C231.67239054 89.66181059 230.86021527 88.47064901 230.0480957 87.27944946 C229.65448853 86.70225662 229.26088135 86.12506378 228.85534668 85.53038025 C226.58654892 82.19604287 224.35503149 78.84078087 222.1574707 75.45913696 C221.67221924 74.72259888 221.18696777 73.98606079 220.68701172 73.22720337 C219.84086736 71.93994917 219.00648504 70.64482249 218.18847656 69.33950806 C214.57720705 63.89799748 209.66348625 60.67598589 203.5402832 58.63491821 C196.01194571 57.95457957 189.72786746 58.04192329 183.5402832 62.63491821 C177.42076362 68.67298399 172.69067677 75.57154931 168.0402832 82.75991821 C166.64126536 84.89145625 165.24016695 87.02162994 163.8371582 89.15054321 C162.77271484 90.76606079 162.77271484 90.76606079 161.68676758 92.41421509 C158.29755219 97.49958012 154.79821303 102.50601542 151.2902832 107.50991821 C145.88519605 115.22366794 140.57336052 122.98614025 135.43188477 130.87857056 C129.05832874 140.58280863 121.06436578 149.09335849 109.36206055 152.11953735 C92.40192432 155.21720543 77.60419585 149.86128822 61.6652832 144.50991821 C59.15033935 143.68685982 56.63453882 142.86641481 54.11791992 142.04849243 C49.03431378 140.39426653 43.95583042 138.72535146 38.88012695 137.04702759 C32.07411596 134.80201714 25.25034505 132.61779837 18.4152832 130.46304321 C17.40456757 130.14421173 16.39385193 129.82538025 15.35250854 129.49688721 C13.39466118 128.87971156 11.43672724 128.26281045 9.47869873 127.64620972 C-26.87644254 116.19349237 -26.87644254 116.19349237 -33.4597168 108.63491821 C-34.73466543 104.81007231 -34.6153622 101.20564652 -34.62084961 97.21963501 C-34.62581451 96.36076691 -34.63077942 95.5018988 -34.63589478 94.61700439 C-34.65051205 91.77270713 -34.65731785 88.92846564 -34.6628418 86.08413696 C-34.66859381 84.10739643 -34.67435154 82.13065591 -34.68011475 80.15391541 C-34.69062364 76.00703674 -34.69646697 71.86017746 -34.69995117 67.71328735 C-34.70543422 62.40366157 -34.72945875 57.09429244 -34.75792313 51.78474712 C-34.77656183 47.70034541 -34.78175578 43.61600536 -34.78328705 39.53156471 C-34.78631155 37.57437551 -34.79433325 35.61718734 -34.80747223 33.6600399 C-34.82455762 30.91929062 -34.82264633 28.17916617 -34.81616211 25.43838501 C-34.82537689 24.63245407 -34.83459167 23.82652313 -34.84408569 22.99617004 C-34.79235012 16.00316693 -32.45763603 10.63283744 -27.4597168 5.63491821 C-18.99327017 -0.48442059 -9.95533167 -0.07048275 0 0 Z " fill="#FFFFFF" transform="translate(58.459716796875,255.36508178710938)"/>
<path d="M0 0 C2.10375 1.36125 2.10375 1.36125 4.25 2.75 C2.93 8.03 1.61 13.31 0.25 18.75 C-1.503125 17.945625 -3.25625 17.14125 -5.0625 16.3125 C-14.98752437 12.20237226 -24.03856118 11.5887069 -34.02734375 15.68359375 C-42.74171887 19.98864402 -48.26487165 26.49069119 -51.51904297 35.61376953 C-52.38491731 38.27493777 -53.19087559 40.95162561 -53.9921875 43.6328125 C-54.4479461 45.09333779 -54.90585187 46.55319455 -55.36575317 48.01242065 C-56.56953215 51.85102945 -57.74531814 55.69763751 -58.91479492 59.54681396 C-60.07452514 63.34862809 -61.25845684 67.14285944 -62.44140625 70.9375 C-63.83971278 75.42813713 -65.23565816 79.91943882 -66.61932373 84.41461182 C-71.18462692 99.24116056 -75.95904299 113.99454802 -80.75 128.75 C-101.54 128.75 -122.33 128.75 -143.75 128.75 C-140.70624904 123.27124828 -137.77108848 118.07067491 -134.25 112.9453125 C-133.61399117 112.00911324 -133.61399117 112.00911324 -132.96513367 111.05400085 C-132.04631521 109.70240342 -131.12578727 108.3519668 -130.20370483 107.00259399 C-128.70361373 104.80711061 -127.2082788 102.60845412 -125.71411133 100.40893555 C-124.09932189 98.03195913 -122.48425364 95.65517714 -120.86787415 93.27928162 C-114.97955996 84.62398705 -109.11967409 75.94960388 -103.26574707 67.27102661 C-101.4354141 64.55940977 -99.60218027 61.849772 -97.76855469 59.14038086 C-91.58469839 49.99255242 -85.46357141 40.80985429 -79.44140625 31.5546875 C-77.68811277 28.8740416 -75.93363873 26.19417197 -74.17886353 23.51449585 C-73.07315799 21.81727715 -71.97383692 20.11587925 -70.88143921 18.4100647 C-60.08730229 1.55496461 -60.08730229 1.55496461 -51.75 -2.25 C-50.78449219 -2.72050781 -49.81898438 -3.19101563 -48.82421875 -3.67578125 C-48.03660156 -3.96839844 -47.24898438 -4.26101562 -46.4375 -4.5625 C-45.23673828 -5.02076172 -45.23673828 -5.02076172 -44.01171875 -5.48828125 C-29.30250374 -10.44216195 -13.10211258 -7.70068455 0 0 Z " fill="#FFFFFF" transform="translate(195.75,111.25)"/>
<path d="M0 0 C0.87914062 0.40089844 1.75828125 0.80179687 2.6640625 1.21484375 C16.14441654 8.24010379 24.11636095 26.16866279 32.1875 38.5 C40.24445007 50.80135764 48.35201921 63.05635209 56.68481445 75.17285156 C62.19810647 83.18959396 67.64766222 91.24970918 73.09619141 99.31054688 C74.37820275 101.20577985 75.66176221 103.09996644 76.94677734 104.99316406 C78.84310695 107.78730288 80.7345498 110.58469352 82.625 113.3828125 C83.19275146 114.21732941 83.76050293 115.05184631 84.34545898 115.91165161 C84.88372314 116.71053802 85.4219873 117.50942444 85.9765625 118.33251953 C86.44143066 119.01911652 86.90629883 119.7057135 87.38525391 120.41311646 C89.74019088 124.18581344 91.84017325 128.11231186 94 132 C73.21 132 52.42 132 31 132 C26.28722737 117.39813072 21.57686592 102.79551884 16.8775959 88.18929863 C16.24414379 86.22050194 15.61060613 84.2517328 14.97703552 82.28297424 C14.76613187 81.62761153 14.55522821 80.97224882 14.33793354 80.29702663 C13.90963805 78.96615183 13.48133845 77.63527834 13.05303478 76.30440617 C11.77651922 72.33770004 10.50056857 68.37081275 9.22500324 64.40380096 C8.60886096 62.48794597 7.99242599 60.57218543 7.37586975 58.65646362 C6.61491596 56.29205708 5.85441387 53.92750508 5.09446716 51.56277466 C4.40399737 49.41828844 3.71014328 47.27488821 3.01251221 45.13272095 C2.31898046 42.98692813 1.64062755 40.8361868 0.97528076 38.68148804 C0.64038635 37.62023712 0.30549194 36.55898621 -0.03955078 35.46557617 C-0.33161407 34.52050705 -0.62367737 33.57543793 -0.92459106 32.60173035 C-3.65698452 25.99126734 -9.09686457 22.18807667 -15.3125 19.0625 C-25.87466994 14.77070918 -35.61554721 15.50517202 -46.08984375 19.87109375 C-47.42157376 20.52599157 -48.71811138 21.25223164 -50 22 C-50.50980881 20.29456816 -51.00738268 18.58547682 -51.5 16.875 C-51.7784375 15.92367187 -52.056875 14.97234375 -52.34375 13.9921875 C-53.02146084 10.90214879 -53.11227205 8.15297352 -53 5 C-50.81623234 3.86722732 -48.62842872 2.74377211 -46.4375 1.625 C-45.82841797 1.30789062 -45.21933594 0.99078125 -44.59179688 0.6640625 C-31.08751727 -6.19525413 -13.73207659 -6.57737603 0 0 Z " fill="#FFFFFF" transform="translate(366,108)"/>
</svg>
