<?xml version="1.0" encoding="UTF-8"?>
<svg version="1.1" xmlns="http://www.w3.org/2000/svg" width="512" height="512" fill="#044B94" fill-opacity="0.2">
<path d="M0 0 C1.25358944 1.0335717 2.48433617 2.09564207 3.6875 3.1875 C4.23148437 3.67734375 4.77546875 4.1671875 5.3359375 4.671875 C9.0108445 8.44005375 10.07093603 11.60514356 11.375 16.6875 C12.98179784 21.1487491 12.98179784 21.1487491 16.39208984 24.28222656 C20.20401093 26.00030138 24.17725427 27.16705025 28.16796875 28.39453125 C69.72770949 41.22179619 107.63765566 73.77641676 128.66992188 111.37109375 C129.67432999 113.16399116 130.70356038 114.94093971 131.734375 116.71875 C148.69784778 146.58672484 154.90504379 180.09307152 154.9375 214.0625 C154.93883942 214.89199158 154.94017883 215.72148315 154.94155884 216.57611084 C154.93762467 227.88725853 154.54525886 239.05806392 153.375 250.3125 C153.19855957 252.0138208 153.19855957 252.0138208 153.01855469 253.74951172 C150.88213834 271.98008242 145.65190297 287.10100494 131.2734375 299.22265625 C123.51013209 305.02665125 113.9585125 309.28576966 104.13769531 309.3293457 C103.24286438 309.33638016 102.34803345 309.34341461 101.42608643 309.35066223 C100.46563416 309.35482651 99.50518188 309.35899078 98.515625 309.36328125 C96.46873976 309.38648348 94.42186473 309.41060097 92.375 309.43554688 C89.15813394 309.47060875 85.941643 309.49998269 82.72460938 309.51342773 C79.6128223 309.52896754 76.5021223 309.56921753 73.390625 309.61328125 C71.96209198 309.61041862 71.96209198 309.61041862 70.50469971 309.60749817 C63.68998408 309.73134227 58.11523616 310.99520664 53.01228333 315.74765015 C51.50264124 317.35507563 50.12208385 319.02395277 48.75 320.75 C48.28916016 321.30751953 47.82832031 321.86503906 47.35351562 322.43945312 C45.13710819 325.12973386 42.95579032 327.84414977 40.80957031 330.59082031 C34.76310691 338.20436526 28.1143223 345.0674115 21.22265625 351.91308594 C19.31535668 353.80965939 17.41899941 355.71670305 15.5234375 357.625 C8.55340506 364.60296832 1.47591624 371.12073367 -6.3125 377.1875 C-7.43182825 378.09141036 -8.55046281 378.99618143 -9.66796875 379.90234375 C-27.40173341 393.82029146 -46.3564288 404.70436539 -68.3125 410.1875 C-69.10140625 410.38988281 -69.8903125 410.59226562 -70.703125 410.80078125 C-93.14520186 414.12677767 -111.2896631 407.30254 -129.3125 394.1875 C-134.25165239 390.50871878 -139.119796 386.73663406 -143.99560547 382.97460938 C-169.97691843 362.93422888 -196.44909368 343.89994152 -227.3125 332.1875 C-228.09866699 331.88312012 -228.88483398 331.57874023 -229.69482422 331.26513672 C-235.44828483 329.05823949 -235.44828483 329.05823949 -241.3125 330.1875 C-243.69552838 332.16077892 -243.69552838 332.16077892 -245.9375 334.6875 C-251.0614825 340.01613861 -256.49891256 344.63285495 -262.3125 349.1875 C-263.23675781 349.9403125 -264.16101563 350.693125 -265.11328125 351.46875 C-270.64677761 355.84163481 -276.28436051 359.45123431 -282.5625 362.625 C-283.21178467 362.95508057 -283.86106934 363.28516113 -284.5300293 363.62524414 C-295.98569544 369.18510343 -309.50457022 370.31605451 -321.75 366.625 C-332.0943224 362.57783693 -341.20392447 355.48776556 -346.6953125 345.73046875 C-350.73924645 336.29933607 -350.89780303 324.89934111 -347.6875 315.1875 C-344.22696431 307.0968399 -338.40600998 301.05451594 -332.53515625 294.625 C-330.59905698 292.50175581 -328.6971134 290.35633584 -326.8125 288.1875 C-314.3285828 273.87527456 -301.2915756 260.04893964 -288.3125 246.1875 C-287.63541992 245.46385254 -286.95833984 244.74020508 -286.26074219 243.99462891 C-284.15462213 241.74488762 -282.04637346 239.49716024 -279.9375 237.25 C-279.29586914 236.56454102 -278.65423828 235.87908203 -277.99316406 235.17285156 C-277.36893555 234.50866211 -276.74470703 233.84447266 -276.1015625 233.16015625 C-275.48442383 232.50289551 -274.86728516 231.84563477 -274.23144531 231.16845703 C-272.91704925 229.81158558 -271.57045427 228.48538421 -270.19824219 227.18701172 C-261.64270696 219.07250385 -259.80399883 212.38520086 -258.58795166 200.70742798 C-258.22255731 197.24152273 -257.79795625 193.78301469 -257.37109375 190.32421875 C-257.28577393 189.63047653 -257.2004541 188.93673431 -257.11254883 188.2219696 C-250.57722992 136.43254203 -227.0142936 84.50935213 -185.5 51.5625 C-154.79673861 27.78912833 -115.45515573 11.90607658 -76.23828125 12.1875 C-74.99369141 12.18621094 -73.74910156 12.18492188 -72.46679688 12.18359375 C-69.89365882 12.18621006 -67.32037034 12.22036221 -64.74804688 12.28515625 C-57.87686721 12.38668605 -57.87686721 12.38668605 -52.05419922 9.25561523 C-50.23471772 6.90403201 -50.23471772 6.90403201 -48.71166992 4.40576172 C-45.32071956 -0.97029394 -38.67147719 -3.78879292 -33 -6.25 C-20.90363903 -8.09520761 -10.16725039 -7.16896861 0 0 Z M-37.3125 11.1875 C-37.6425 11.8475 -37.9725 12.5075 -38.3125 13.1875 C-37.21748169 13.35354736 -37.21748169 13.35354736 -36.1003418 13.52294922 C-32.73330851 14.03448491 -29.36665474 14.54847908 -26 15.0625 C-24.85208984 15.23652344 -23.70417969 15.41054687 -22.52148438 15.58984375 C-15.42859444 16.67487507 -8.36385504 17.85860798 -1.3125 19.1875 C-4.03255192 13.74739617 -8.23278042 9.65975619 -13.71484375 7.0390625 C-22.23993243 4.24437177 -30.03506891 6.24603444 -37.3125 11.1875 Z M-104.3125 28.1875 C-105.50891113 28.45288574 -105.50891113 28.45288574 -106.72949219 28.72363281 C-150.78824985 38.76299554 -189.02841601 64.25821264 -213.46118164 102.54199219 C-222.77954626 117.50672902 -230.09916163 133.35074604 -235.3125 150.1875 C-235.56628418 151.00524902 -235.82006836 151.82299805 -236.08154297 152.66552734 C-241.26944932 169.72433875 -244.38629419 187.08799395 -246.09106445 204.82910156 C-247.3906002 218.30300915 -250.87799373 225.46579415 -260.3125 235.1875 C-261.72233823 236.71945415 -263.11947032 238.26238897 -264.51635742 239.80615234 C-268.46959695 244.17026799 -272.50308657 248.42672151 -276.70703125 252.55078125 C-278.46877243 254.34681423 -280.10885946 256.21832661 -281.75 258.125 C-284.71855556 261.57171216 -287.85329104 264.77860859 -291.125 267.9375 C-293.02276547 269.88948734 -294.80981452 271.88266319 -296.59375 273.9375 C-300.83091649 278.81611387 -305.26400214 283.497127 -309.70703125 288.1875 C-314.02171962 292.76124833 -318.19425525 297.43670646 -322.3125 302.1875 C-323.30691022 303.31413888 -324.30168119 304.44045949 -325.296875 305.56640625 C-326.21932987 306.62710015 -327.14121431 307.68829043 -328.0625 308.75 C-328.53042969 309.27529297 -328.99835938 309.80058594 -329.48046875 310.34179688 C-335.17922335 316.95267509 -336.95797806 323.22642026 -336.71875 331.8984375 C-335.86000722 338.85095114 -333.03630034 344.17251213 -327.5625 348.5625 C-326.16835801 349.47296008 -324.75106625 350.34899144 -323.3125 351.1875 C-322.65636719 351.6 -322.00023437 352.0125 -321.32421875 352.4375 C-313.5020711 356.68002076 -304.3476786 356.43054182 -295.87890625 354.33984375 C-284.79226661 350.41360282 -275.75887805 343.58608891 -266.875 336.0625 C-266.29564697 335.57193115 -265.71629395 335.0813623 -265.11938477 334.57592773 C-261.44128758 331.37839672 -258.34292778 328.00527256 -255.3125 324.1875 C-264.35306233 320.79728912 -273.52660512 320.97799212 -283.0625 320.9375 C-284.26132812 320.916875 -285.46015625 320.89625 -286.6953125 320.875 C-298.14985166 320.82530569 -308.74770724 322.52666767 -318.3125 329.1875 C-318.828125 329.71472656 -319.34375 330.24195313 -319.875 330.78515625 C-322.1732197 333.02716949 -324.17609123 333.12349166 -327.3125 333.1875 C-329.75 331.625 -329.75 331.625 -331.3125 329.1875 C-331.625 326.375 -331.625 326.375 -330.3125 323.1875 C-321.60760266 313.75197579 -307.54454989 309.81678411 -295.07104492 308.96655273 C-291.41944857 308.84620413 -287.77858528 308.80711675 -284.125 308.8125 C-283.46876648 308.81337616 -282.81253296 308.81425232 -282.13641357 308.81515503 C-253.79559258 308.939032 -226.59857647 316.62222382 -201.3125 329.1875 C-200.5798291 329.54569824 -199.8471582 329.90389648 -199.09228516 330.27294922 C-187.52445223 335.96952685 -176.88110069 342.82292134 -166.3125 350.1875 C-165.67151367 350.63270996 -165.03052734 351.07791992 -164.37011719 351.53662109 C-154.7496459 358.24449597 -145.43774709 365.34029429 -136.2421875 372.6171875 C-129.98944428 377.52222166 -123.59975371 382.13287153 -117 386.5625 C-116.25919189 387.06249512 -115.51838379 387.56249023 -114.75512695 388.07763672 C-100.98604118 397.20564813 -87.72484457 400.41552783 -71.25 397.5703125 C-42.87664992 391.67468809 -16.53727607 371.19516516 3.1328125 350.7421875 C4.82294042 349.05205958 6.60694649 347.53648869 8.4375 346 C13.48576099 341.64368211 17.86127601 336.68104031 22.30273438 331.72509766 C23.62332135 330.25876184 24.9597251 328.80671677 26.296875 327.35546875 C30.46651417 322.82972685 34.4773705 318.25111288 38.3125 313.4375 C45.00761788 305.23246918 51.09552315 299.48261283 61.6875 297.1875 C70.32630119 296.42650912 79.06994269 296.71029297 87.7331543 296.7722168 C103.78605248 296.84970566 115.41730977 296.31949884 127.49609375 284.5703125 C147.18995693 263.15630797 142.8370386 222.71981396 141.80078125 195.4944458 C139.51517083 148.94853142 115.73841232 105.14872651 81.6875 74.1875 C50.24886551 46.716581 8.64137213 31.39728531 -32.3125 26.1875 C-32.99017426 26.10017105 -33.66784851 26.0128421 -34.36605835 25.92286682 C-39.80538388 25.26683503 -45.16448872 25.0142551 -50.640625 24.984375 C-51.93530952 24.97385353 -51.93530952 24.97385353 -53.25614929 24.96311951 C-56.02498652 24.94571444 -58.79361009 24.93926784 -61.5625 24.9375 C-62.50690948 24.93682526 -63.45131897 24.93615051 -64.42434692 24.93545532 C-77.91906607 24.95080474 -91.09803873 25.17388003 -104.3125 28.1875 Z " fill="#FFFFFF" transform="translate(353.3125,53.8125)"/>
<path d="M0 0 C0.92151855 0.18804199 1.84303711 0.37608398 2.79248047 0.56982422 C45.16244593 9.56476537 83.68773714 30.01067187 120.6875 51.875 C144.82031759 66.117058 170.18779136 78.77506166 195.89599609 89.89990234 C198 91 198 91 199 93 C199.44396083 98.21653972 199.44396083 98.21653972 197.9375 100.875 C194.96913425 102.59856721 192.29988592 102.51393181 189 102 C185.16048314 100.64700941 181.53685517 98.89660964 177.875 97.125 C176.81748535 96.62540771 175.7599707 96.12581543 174.67041016 95.61108398 C172.49115982 94.57981122 170.31455815 93.54292303 168.140625 92.50048828 C165.28016226 91.1338524 162.40954225 89.79340843 159.53125 88.46484375 C142.62717106 80.62236839 126.42520107 71.64031421 110.375 62.1875 C65.30478245 35.67473993 17.08190664 10.80886194 -36.38134766 10.81469727 C-38.59948344 10.81252499 -40.81710891 10.79435461 -43.03515625 10.77539062 C-51.45225142 10.74320624 -59.54306525 11.2681582 -67.86572266 12.54467773 C-77.56864187 13.95423875 -77.56864187 13.95423875 -82 11 C-83 8.1875 -83 8.1875 -83 5 C-79.75368209 0.7189991 -76.9834188 -0.69246749 -71.87329102 -1.50732422 C-71.04885498 -1.60803223 -70.22441895 -1.70874023 -69.375 -1.8125 C-68.48546631 -1.92867676 -67.59593262 -2.04485352 -66.67944336 -2.16455078 C-44.84759752 -4.62554909 -21.53291552 -4.41297819 0 0 Z " fill="#FFFFFF" transform="translate(193,253)"/>
</svg>
