<?xml version="1.0" encoding="UTF-8"?>
<svg version="1.1" xmlns="http://www.w3.org/2000/svg" width="512" height="512" fill="#044B94" fill-opacity="0.2">
<path d="M0 0 C1.3038414 -0.01272446 2.6076828 -0.02544891 3.95103455 -0.03855896 C5.38894835 -0.03237703 6.82686039 -0.02577104 8.26477051 -0.01878357 C9.78447812 -0.02584359 11.3041787 -0.03458895 12.8238678 -0.04489136 C16.94579213 -0.06738475 21.06733249 -0.06444607 25.18929482 -0.05556989 C28.63128054 -0.05045874 32.07319418 -0.05775348 35.51517248 -0.06504196 C43.63473153 -0.0820404 51.75410263 -0.07847525 59.87365723 -0.06175232 C68.24956365 -0.0448245 76.62494916 -0.06067449 85.0007987 -0.0929752 C92.19416329 -0.11966454 99.38736565 -0.1269491 106.58077478 -0.11846012 C110.87622802 -0.11352973 115.1713677 -0.11575254 119.46678162 -0.13624763 C123.505344 -0.15459509 127.54315639 -0.14865834 131.58167839 -0.12404823 C133.06313133 -0.11903756 134.54464134 -0.12253692 136.02604866 -0.13519669 C138.04929845 -0.15111831 140.07273012 -0.13316099 142.09594727 -0.11352539 C143.79382763 -0.11264593 143.79382763 -0.11264593 145.52600861 -0.1117487 C149.50717311 0.71349275 151.01802267 2.40418751 153.54797363 5.5146637 C154.14924622 8.12802124 154.14924622 8.12802124 154.11560059 10.94752502 C154.11522293 12.00824722 154.11484528 13.06896942 154.11445618 14.16183472 C154.08864975 15.29533859 154.06284332 16.42884247 154.03625488 17.59669495 C154.02564278 19.35066841 154.02564278 19.35066841 154.01481628 21.14007568 C153.98685857 24.8697595 153.92411235 28.59793466 153.86047363 32.3271637 C153.83539278 34.85774095 153.81257925 37.38834177 153.79211426 39.91896057 C153.7370271 46.11804182 153.65338485 52.31624497 153.54797363 58.5146637 C154.15794189 58.49371643 154.76791016 58.47276917 155.3963623 58.45118713 C158.17589657 58.36773508 160.95516684 58.31591359 163.73547363 58.2646637 C164.69518066 58.23114807 165.6548877 58.19763245 166.64367676 58.1631012 C170.85597574 58.10479948 173.82866049 58.17945089 177.68395996 59.97608948 C180.42364062 63.70722235 180.240173 66.85794987 180.18469238 71.3818512 C180.19507034 72.25302582 180.2054483 73.12420044 180.21614075 74.02177429 C180.24582034 76.81146917 180.24246507 79.59983994 180.23547363 82.3896637 C180.24734868 86.03305526 180.27304604 89.67612653 180.30969238 93.3193512 C180.3184288 94.20174973 180.32716522 95.08414825 180.33616638 95.99328613 C180.64396726 115.29293104 185.45648199 128.38739073 198.55578613 142.7099762 C217.42495441 163.41258593 229.53173881 188.52154377 236.54016113 215.4990387 C236.71217041 216.1585553 236.88417969 216.8180719 237.06140137 217.49757385 C237.39965637 218.8998131 237.6957343 220.31262405 237.95837402 221.73097229 C238.71978852 226.01731962 238.71978852 226.01731962 241.68469238 228.9599762 C242.5264502 229.18427307 243.36820801 229.40856995 244.23547363 229.6396637 C251.52571458 232.07674712 255.69916648 235.49603417 259.42297363 242.2646637 C262.68424739 249.44377128 263.44557129 256.64022109 261.39172363 264.2881012 C258.37212653 272.25648244 253.22340035 277.82302247 245.54797363 281.5146637 C243.10624582 282.18546804 241.09605152 282.40623485 238.54797363 282.5146637 C238.47320801 283.22106995 238.39844238 283.9274762 238.32141113 284.6552887 C234.22415291 316.62997051 218.61035271 346.06884847 196.92297363 369.5146637 C183.95050472 383.86814588 180.50151166 398.52659641 180.33703613 417.35450745 C180.30901622 419.1767828 180.28035225 420.99904835 180.25109863 422.82130432 C180.20959899 425.65439577 180.17265071 428.48729342 180.14660645 431.3205719 C180.11911054 434.08225109 180.07330846 436.84313325 180.02453613 439.60450745 C180.02128326 440.454478 180.0180304 441.30444855 180.01467896 442.18017578 C179.8920369 448.01633468 179.8920369 448.01633468 178.35470581 450.24295044 C175.88463229 451.98157295 174.22626745 451.85739785 171.22375488 451.80763245 C170.19572754 451.79796448 169.1677002 451.78829651 168.10852051 451.77833557 C167.03666504 451.75319885 165.96480957 451.72806213 164.86047363 451.7021637 C163.7770166 451.68862854 162.69355957 451.67509338 161.57727051 451.66114807 C158.90033959 451.62577013 156.22440526 451.57640558 153.54797363 451.5146637 C153.56462822 452.51278328 153.56462822 452.51278328 153.58161926 453.53106689 C153.69225022 460.45767289 153.76765702 467.38402788 153.82263184 474.31129456 C153.84777365 476.89635919 153.88189179 479.48135277 153.9251709 482.06617737 C153.98583285 485.78225743 154.01418783 489.49739755 154.03625488 493.21388245 C154.06206131 494.3692601 154.08786774 495.52463776 154.11445618 496.71502686 C154.11483383 497.79576981 154.11521149 498.87651276 154.11560059 499.99000549 C154.12670364 500.93820663 154.1378067 501.88640778 154.14924622 502.86334229 C153.29045337 506.65020358 151.50956592 508.06166153 148.54797363 510.5146637 C145.52600861 511.14107609 145.52600861 511.14107609 142.09594727 511.14285278 C140.14018517 511.16183372 140.14018517 511.16183372 138.14491272 511.18119812 C136.70699675 511.16988268 135.26908474 511.15805524 133.83117676 511.14576721 C132.31146917 511.15090728 130.79176753 511.15818922 129.27207947 511.16744995 C125.15004582 511.18596149 121.02865915 511.17302736 116.90665245 511.15335965 C112.5914879 511.1369696 108.27636421 511.14578654 103.96118164 511.15087891 C96.71477936 511.15539948 89.46863524 511.1395324 82.22229004 511.11158752 C73.84643203 511.07953569 65.47103963 511.07955141 57.09514856 511.09680229 C49.03533246 511.11267024 40.97568694 511.10593213 32.9158783 511.08886528 C29.48692785 511.08199558 26.05811417 511.08302637 22.62916565 511.09041023 C18.59066018 511.09807571 14.55268409 511.08593889 10.51426888 511.05856133 C9.0328281 511.05167908 7.55133787 511.05157786 6.06989861 511.05877686 C4.04659396 511.06747552 2.023227 511.04907248 0 511.02932739 C-1.13192024 511.02652047 -2.26384048 511.02371355 -3.43006134 511.02082157 C-7.13305486 510.40059622 -8.81548736 509.14387743 -11.45202637 506.5146637 C-12.05329895 503.94563293 -12.05329895 503.94563293 -12.01965332 501.01173401 C-12.01927567 499.91089478 -12.01889801 498.81005554 -12.01850891 497.67585754 C-11.99270248 496.49344482 -11.96689606 495.3110321 -11.94030762 494.0927887 C-11.93323288 492.87766602 -11.92615814 491.66254333 -11.91886902 490.41059875 C-11.89087142 486.52799528 -11.82811732 482.64683162 -11.76452637 478.7646637 C-11.73945069 476.1331741 -11.71663626 473.50166191 -11.69616699 470.87013245 C-11.64102677 464.41781793 -11.55734452 457.96634367 -11.45202637 451.5146637 C-12.1330542 451.53037415 -12.81408203 451.54608459 -13.51574707 451.56227112 C-16.59858918 451.62459591 -19.68129881 451.66364628 -22.76452637 451.7021637 C-24.37230957 451.73986877 -24.37230957 451.73986877 -26.01257324 451.77833557 C-27.04060059 451.78800354 -28.06862793 451.79767151 -29.12780762 451.80763245 C-30.07567139 451.8233429 -31.02353516 451.83905334 -32.00012207 451.85523987 C-34.8883236 451.45406083 -35.70612818 450.79573497 -37.45202637 448.5146637 C-38.62183457 446.17504729 -38.58240993 444.78617577 -38.59387207 442.17945862 C-38.60090652 441.28059433 -38.60794098 440.38173004 -38.6151886 439.45562744 C-38.61935287 438.47866409 -38.62351715 437.50170074 -38.62780762 436.49513245 C-38.65103497 434.41895076 -38.67515342 432.34277889 -38.70007324 430.26661682 C-38.73495996 426.99970721 -38.76439779 423.73315153 -38.7779541 420.46607971 C-38.88396192 399.09327248 -41.68196519 384.6421276 -56.67468262 368.61231995 C-66.31048535 358.07262165 -73.95830555 346.18578357 -80.45202637 333.5146637 C-80.80249023 332.83822815 -81.1529541 332.1617926 -81.51403809 331.46485901 C-101.5792767 292.29647714 -104.58152278 245.89409088 -91.66589355 203.9624176 C-83.89479151 180.2256562 -71.63704894 159.55073083 -55.07409668 140.96876526 C-44.07604004 128.55363618 -39.17902007 116.938534 -39.14343262 100.3740387 C-39.11829676 98.23080653 -39.09289843 96.08757742 -39.06726074 93.9443512 C-39.03842198 90.59116763 -39.01437827 87.23803684 -38.99572754 83.88478088 C-38.97412706 80.63094106 -38.93472255 77.37767939 -38.89343262 74.1240387 C-38.8933168 73.11983887 -38.89320099 72.11563904 -38.89308167 71.08100891 C-38.87974289 70.14613647 -38.86640411 69.21126404 -38.85266113 68.24806213 C-38.84505516 67.018508 -38.84505516 67.018508 -38.83729553 65.76411438 C-38.35537619 62.95035743 -37.39703753 61.58158728 -35.45202637 59.5146637 C-32.51070746 58.53422406 -30.62700972 58.39845168 -27.56530762 58.41700745 C-26.62751465 58.4202301 -25.68972168 58.42345276 -24.72351074 58.42677307 C-23.25881348 58.43934143 -23.25881348 58.43934143 -21.76452637 58.4521637 C-20.28242676 58.45893127 -20.28242676 58.45893127 -18.77038574 58.46583557 C-16.33087163 58.47762066 -13.89147948 58.49407358 -11.45202637 58.5146637 C-11.46312943 57.84703003 -11.47423248 57.17939636 -11.485672 56.49153137 C-11.5962065 49.54885727 -11.67166958 42.60643267 -11.72668457 35.6631012 C-11.75184392 33.07120106 -11.78597488 30.47937198 -11.82922363 27.88771057 C-11.88980868 24.16422509 -11.91822283 20.44167675 -11.94030762 16.7177887 C-11.96611404 15.55724976 -11.99192047 14.39671082 -12.01850891 13.20100403 C-12.01888657 12.12018555 -12.01926422 11.03936707 -12.01965332 9.92579651 C-12.03075638 8.97537476 -12.04185944 8.024953 -12.05329895 7.04573059 C-10.62137628 1.01802838 -5.50791367 0.01365845 0 0 Z M3.54797363 15.5146637 C3.54797363 40.2646637 3.54797363 65.0146637 3.54797363 90.5146637 C48.09797363 90.5146637 92.64797363 90.5146637 138.54797363 90.5146637 C138.54797363 65.7646637 138.54797363 41.0146637 138.54797363 15.5146637 C93.99797363 15.5146637 49.44797363 15.5146637 3.54797363 15.5146637 Z M-23.45202637 73.5146637 C-23.46660889 74.5977179 -23.48119141 75.68077209 -23.49621582 76.79664612 C-23.55489234 80.87670805 -23.63210982 84.9562573 -23.71447754 89.03590393 C-23.74740492 90.79005005 -23.77553305 92.54429394 -23.79846191 94.29859924 C-24.12748583 118.82138156 -30.33737429 136.46478632 -47.01452637 154.5146637 C-72.43012088 182.29761587 -85.27673699 221.29567313 -84.63952637 258.61231995 C-82.75719922 297.78825372 -68.55219667 332.28620822 -42.45202637 361.5146637 C-27.19236973 378.82800496 -24.04978963 396.38987431 -23.76452637 418.8271637 C-23.73127604 420.64684852 -23.69677957 422.46651101 -23.66101074 424.28614807 C-23.57700327 428.69552798 -23.50978551 433.10486506 -23.45202637 437.5146637 C-19.49202637 437.5146637 -15.53202637 437.5146637 -11.45202637 437.5146637 C-11.43744385 436.68217102 -11.42286133 435.84967834 -11.40783691 434.99195862 C-11.34674006 431.89976717 -11.27258081 428.80824288 -11.1895752 425.71656799 C-11.14001318 423.7217574 -11.10551503 421.72659112 -11.07116699 419.73146057 C-11.01799316 417.85104065 -11.01799316 417.85104065 -10.96374512 415.93263245 C-10.93756104 414.77529602 -10.91137695 413.61795959 -10.88439941 412.42555237 C-10.45202637 409.5146637 -10.45202637 409.5146637 -9.3248167 407.85528088 C-6.57013997 405.88337463 -4.42046437 406.14594398 -1.05500793 406.15390015 C-0.40315983 406.15133687 0.24868827 406.1487736 0.92028934 406.14613265 C3.10852739 406.14118396 5.29607826 406.15770461 7.48425293 406.17408752 C9.05117781 406.17493357 10.61810389 406.1744591 12.18502808 406.17276001 C16.44308285 406.17189773 20.70088514 406.18956095 24.95888114 406.21048188 C29.40717022 406.22921005 33.85546481 406.23099607 38.30378723 406.23455811 C46.72920189 406.24388994 55.15450006 406.26851909 63.57986337 406.29860657 C73.17102787 406.3321152 82.76219787 406.34862769 92.35340631 406.36369288 C112.08499382 406.39506767 131.8164764 406.44785026 151.54797363 406.5146637 C152.64868123 409.81678649 152.75424435 412.45549648 152.86437988 415.93263245 C152.92722168 417.81305237 152.92722168 417.81305237 152.99133301 419.73146057 C153.03064941 421.0417926 153.06996582 422.35212463 153.11047363 423.7021637 C153.15368355 425.03746348 153.19729863 426.37275022 153.24133301 427.70802307 C153.34753865 430.97679667 153.4495836 434.24564703 153.54797363 437.5146637 C157.50797363 437.5146637 161.46797363 437.5146637 165.54797363 437.5146637 C165.56984741 435.74590881 165.56984741 435.74590881 165.59216309 433.94142151 C165.65069708 429.51290994 165.72792019 425.08487796 165.8104248 420.65675354 C165.84341751 418.75025796 165.87152682 416.84367071 165.89440918 414.93702698 C166.18921682 391.01370035 171.88480948 375.05788316 187.95080566 357.31105042 C217.32048423 324.27801848 227.62835415 282.85893942 225.54797363 239.5146637 C225.061637 233.38577624 223.9988244 227.4822871 222.54797363 221.5146637 C222.38168457 220.79101624 222.21539551 220.06736877 222.04406738 219.3217926 C216.05369734 193.6907741 203.34405876 170.16312785 185.42297363 150.9521637 C173.12917285 137.59688875 166.58005255 123.21991515 166.23156738 105.05763245 C166.21078629 104.15466934 166.19000519 103.25170624 166.16859436 102.32138062 C166.10342083 99.44838273 166.04436408 96.57529656 165.98547363 93.7021637 C165.94225777 91.74968076 165.89864251 89.79720661 165.85461426 87.84474182 C165.74777256 83.06813867 165.64641506 78.29144706 165.54797363 73.5146637 C161.58797363 73.5146637 157.62797363 73.5146637 153.54797363 73.5146637 C153.5103894 74.76340271 153.5103894 74.76340271 153.4720459 76.03736877 C153.3768467 79.12929202 153.27761691 82.22105221 153.17565918 85.3127594 C153.11110357 87.30769689 153.05119534 89.30278299 152.99133301 91.29786682 C152.94943848 92.5514801 152.90754395 93.80509338 152.86437988 95.09669495 C152.80939331 96.83269958 152.80939331 96.83269958 152.7532959 98.60377502 C152.54797363 101.5146637 152.54797363 101.5146637 151.54797363 104.5146637 C130.86878509 104.58468614 110.18961603 104.63761865 89.51033306 104.67010021 C79.90898874 104.68558156 70.307718 104.70669524 60.7064209 104.74098206 C52.33977311 104.77084567 43.97317859 104.79022947 35.60647899 104.79692918 C31.17469077 104.80084661 26.74305499 104.81007928 22.31131554 104.83185387 C18.1425288 104.85217111 13.97395773 104.85850721 9.80512619 104.85398674 C8.2728324 104.85481408 6.74053163 104.86080813 5.20828056 104.87228012 C3.12025033 104.88715029 1.03304027 104.88363812 -1.05500793 104.87542725 C-2.80964088 104.87957531 -2.80964088 104.87957531 -4.59972095 104.88380718 C-7.45202637 104.5146637 -7.45202637 104.5146637 -9.3248167 103.17404652 C-11.09279588 100.57137697 -10.89339775 98.20604852 -10.96374512 95.09669495 C-10.99919434 93.84308167 -11.03464355 92.58946838 -11.07116699 91.29786682 C-11.09372559 89.98753479 -11.11628418 88.67720276 -11.13952637 87.3271637 C-11.17270303 85.99184357 -11.20719303 84.65655538 -11.24304199 83.32130432 C-11.32564694 80.05250865 -11.39475866 76.78398558 -11.45202637 73.5146637 C-15.41202637 73.5146637 -19.37202637 73.5146637 -23.45202637 73.5146637 Z M240.54797363 244.5146637 C240.54797363 251.7746637 240.54797363 259.0346637 240.54797363 266.5146637 C245.65667563 262.7544201 245.65667563 262.7544201 247.54797363 257.5146637 C247.4372816 251.4266021 245.64385761 248.71294477 241.54797363 244.5146637 C241.21797363 244.5146637 240.88797363 244.5146637 240.54797363 244.5146637 Z M3.54797363 420.5146637 C3.54797363 445.2646637 3.54797363 470.0146637 3.54797363 495.5146637 C48.09797363 495.5146637 92.64797363 495.5146637 138.54797363 495.5146637 C138.54797363 470.7646637 138.54797363 446.0146637 138.54797363 420.5146637 C93.99797363 420.5146637 49.44797363 420.5146637 3.54797363 420.5146637 Z " fill="#FFFFFF" transform="translate(174.4520263671875,0.4853363037109375)"/>
<path d="M0 0 C1.76815063 0.00845947 1.76815063 0.00845947 3.57202148 0.01708984 C12.91443705 0.14633907 21.71898457 0.90114621 30.75 3.3125 C31.45850098 3.50054199 32.16700195 3.68858398 32.89697266 3.88232422 C50.03361498 8.62803019 66.1711819 16.796762 79.75 28.3125 C80.27787109 28.75819336 80.80574219 29.20388672 81.34960938 29.66308594 C104.74235588 49.64153357 119.79835863 77.70609676 123.75 108.3125 C124.07178726 113.47944371 124.14003953 118.63707747 124.125 123.8125 C124.12445618 124.51737549 124.12391235 125.22225098 124.12335205 125.94848633 C124.082624 137.45269402 123.20729132 148.28625748 119.75 159.3125 C119.43651611 160.33005371 119.43651611 160.33005371 119.11669922 161.36816406 C113.92684985 177.65690479 105.69182031 192.23702473 94.75 205.3125 C94.1209375 206.08207031 93.491875 206.85164062 92.84375 207.64453125 C74.19352713 229.81286434 44.43457546 244.60000478 15.796875 248.03125 C0.66312604 249.25449603 -14.48639161 249.02367165 -29.25 245.3125 C-29.89807617 245.15152832 -30.54615234 244.99055664 -31.21386719 244.82470703 C-62.85000011 236.6445743 -90.42018428 216.3738813 -107.05639648 188.1652832 C-123.70586004 158.84540293 -128.72298846 125.46046448 -120.4375 92.6875 C-110.77142796 58.62610327 -89.38366323 31.53294127 -58.50390625 14.18359375 C-51.2746523 10.27142126 -43.92496878 7.33143014 -36.0625 4.9375 C-35.27987793 4.69878174 -34.49725586 4.46006348 -33.69091797 4.21411133 C-22.59801282 1.03962543 -11.50845286 -0.05834661 0 0 Z M-71.25 41.3125 C-70.84007812 41.77140625 -70.43015625 42.2303125 -70.0078125 42.703125 C-69.46898437 43.31671875 -68.93015625 43.9303125 -68.375 44.5625 C-67.84132812 45.16578125 -67.30765625 45.7690625 -66.7578125 46.390625 C-64.27827666 49.55106964 -63.1745029 51.36878623 -63.5 55.4375 C-64.25 58.3125 -64.25 58.3125 -66.25 60.3125 C-69.375 60.875 -69.375 60.875 -73.25 60.3125 C-76.19831778 58.2491921 -78.7318326 55.87645227 -81.25 53.3125 C-91.10329309 57.3948839 -96.99294555 73.02608439 -101.25 82.3125 C-105.75094417 93.31909703 -108.31209339 104.48994041 -109.25 116.3125 C-108.51394531 116.37308594 -107.77789062 116.43367188 -107.01953125 116.49609375 C-105.55580078 116.62177734 -105.55580078 116.62177734 -104.0625 116.75 C-102.61810547 116.87181641 -102.61810547 116.87181641 -101.14453125 116.99609375 C-98.46350398 117.28916151 -95.8837014 117.73953754 -93.25 118.3125 C-91.91533865 125.59247102 -91.91533865 125.59247102 -93.28125 128.53125 C-96.1775629 131.15172357 -98.59517671 130.92149731 -102.4375 131.0625 C-103.70980469 131.11921875 -104.98210937 131.1759375 -106.29296875 131.234375 C-107.26878906 131.26015625 -108.24460938 131.2859375 -109.25 131.3125 C-107.28377272 153.38120027 -100.21386877 173.88088555 -86.25 191.3125 C-85.24601573 192.64283581 -84.24460567 193.97513792 -83.25 195.3125 C-80.4057415 194.15372802 -78.97152243 193.01974153 -76.8125 190.75 C-74.06907418 188.14039983 -72.96290909 187.49814545 -69.25 187.3125 C-66.4375 187.75 -66.4375 187.75 -64.25 188.3125 C-63.4404275 191.33490401 -62.92770652 193.2559102 -63.25 196.3125 C-64.86050579 198.65658696 -66.62091681 200.4994349 -68.68359375 202.453125 C-70.67952278 204.41715162 -70.67952278 204.41715162 -70.25 208.3125 C-68.34010111 210.11646649 -66.5847105 211.52595642 -64.4375 213 C-63.81512451 213.43207764 -63.19274902 213.86415527 -62.55151367 214.30932617 C-46.33654889 225.18340391 -26.9381706 232.82582612 -7.25 233.3125 C-7.17652344 231.95705078 -7.17652344 231.95705078 -7.1015625 230.57421875 C-6.98941406 228.80498047 -6.98941406 228.80498047 -6.875 227 C-6.80539063 225.82824219 -6.73578125 224.65648437 -6.6640625 223.44921875 C-6.25 220.3125 -6.25 220.3125 -4.25 217.3125 C-0.29880899 216.03103265 1.4578291 216.45406582 5.75 217.3125 C6.74 225.2325 6.74 225.2325 7.75 233.3125 C29.96216378 231.1309482 56.40814282 223.77047541 71.75 206.3125 C71.25628906 205.83039063 70.76257813 205.34828125 70.25390625 204.8515625 C69.61324219 204.21992188 68.97257813 203.58828125 68.3125 202.9375 C67.67441406 202.31101562 67.03632813 201.68453125 66.37890625 201.0390625 C64.15034951 198.67689925 63.7722675 197.66135751 63.5625 194.375 C63.75 191.3125 63.75 191.3125 65.75 188.3125 C68.98988581 187.05254441 70.4215015 187.18669206 73.6875 188.4375 C77.03632413 190.48780049 79.80712606 192.7199682 82.75 195.3125 C95.54938965 182.43079916 103.11924496 165.37154643 107.125 147.875 C107.29298096 147.14176514 107.46096191 146.40853027 107.6340332 145.65307617 C108.65703669 140.78786835 108.89567444 136.28223945 108.75 131.3125 C107.84636719 131.27511719 106.94273437 131.23773438 106.01171875 131.19921875 C104.83222656 131.13347656 103.65273438 131.06773437 102.4375 131 C101.26574219 130.94199219 100.09398437 130.88398438 98.88671875 130.82421875 C95.75 130.3125 95.75 130.3125 93.8515625 128.95703125 C92.13451329 126.39363509 92.43756974 124.31183051 92.75 121.3125 C94.75 118.3125 94.75 118.3125 98.0078125 117.58203125 C99.28398437 117.43121094 100.56015625 117.28039062 101.875 117.125 C103.15632812 116.96644531 104.43765625 116.80789062 105.7578125 116.64453125 C107.23894531 116.48017578 107.23894531 116.48017578 108.75 116.3125 C108.29555444 92.92921015 98.27886668 69.72365356 82.75 52.3125 C81.62411986 53.26979916 80.4993285 54.22837895 79.375 55.1875 C78.74851562 55.72117188 78.12203125 56.25484375 77.4765625 56.8046875 C76.19163349 57.92682007 74.95628025 59.10621975 73.75 60.3125 C67.69759825 60.86271834 67.69759825 60.86271834 64.8125 59.1875 C63.11737734 56.19610708 63.10592811 54.72608101 63.75 51.3125 C65.44091441 49.09159749 67.25130015 47.12369211 69.21875 45.14453125 C71.07065507 43.3268075 71.07065507 43.3268075 70.75 40.3125 C68.78591132 38.58471574 66.88905009 37.10914018 64.75 35.625 C64.12206543 35.18583252 63.49413086 34.74666504 62.84716797 34.29418945 C46.94672768 23.46189197 27.25941627 15.00148032 7.75 15.3125 C7.71261719 16.13234375 7.67523438 16.9521875 7.63671875 17.796875 C7.57097656 18.87453125 7.50523437 19.9521875 7.4375 21.0625 C7.37949219 22.12984375 7.32148438 23.1971875 7.26171875 24.296875 C6.71084062 27.54327132 6.09305347 29.02406316 3.75 31.3125 C-2.13818956 32.04852369 -2.13818956 32.04852369 -4.92578125 30.203125 C-6.87271243 27.42343565 -6.77141915 24.97983307 -6.9375 21.625 C-7.00324219 20.44550781 -7.06898438 19.26601562 -7.13671875 18.05078125 C-7.19279297 16.69533203 -7.19279297 16.69533203 -7.25 15.3125 C-29.52210827 14.42445741 -55.31785646 26.15753419 -71.25 41.3125 Z " fill="#FFFFFF" transform="translate(245.25,131.6875)"/>
<path d="M0 0 C1.765087 2.75921991 2.24209882 4.86210302 2.19189453 8.10668945 C2.18296677 9.30362175 2.18296677 9.30362175 2.17385864 10.5247345 C2.16031342 11.37895493 2.14676819 12.23317535 2.1328125 13.11328125 C2.13361927 14.93685064 2.13628177 16.76041998 2.140625 18.58398438 C2.1386623 21.4483054 2.1250307 24.31058582 2.07910156 27.17456055 C1.4606571 37.90473536 1.4606571 37.90473536 4.76855469 47.72119141 C6.84022944 49.58862595 6.84022944 49.58862595 9.08544922 50.82983398 C11.97256336 52.59442696 12.64861593 54.68473683 13.67944336 57.80981445 C14 60 14 60 13.57250977 62.27416992 C12.87288782 66.24665181 12.88510542 69.35632461 15.21893311 72.79705811 C19.39436123 77.77061313 24.19205819 82.14410963 28.9375 86.5625 C31.07225289 88.60260985 33.19940857 90.65042499 35.3263092 92.69871521 C36.64871382 93.96638333 37.97736007 95.22757843 39.31272888 96.48158264 C39.91327591 97.04654953 40.51382294 97.61151642 41.13256836 98.19360352 C41.66329453 98.68893082 42.19402069 99.18425812 42.74082947 99.69459534 C44.88334644 101.91578109 45.02585182 103.23266636 45.375 106.375 C45 110 45 110 42.9375 112.5 C38.98731252 114.51711701 37.26863884 114.16389665 33 113 C30.33743843 110.99943528 28.20573697 108.59882671 25.9921875 106.12109375 C24.66248442 104.7106205 23.33172127 103.30114602 22 101.89257812 C19.93272403 99.67059969 17.87725484 97.43999164 15.84082031 95.18969727 C8.29836338 86.26317015 8.29836338 86.26317015 -1.73144531 81.09057617 C-5.15465899 81.04986257 -5.15465899 81.04986257 -8.27490234 81.60986328 C-11.96183959 82.1377011 -14.20585902 81.20358768 -17.34765625 79.34375 C-21.61326121 75.87479467 -24.63905232 71.33136953 -25.23828125 65.80078125 C-25.42222934 59.63367953 -24.64480524 55.07460022 -21 50 C-18.71809758 47.88109061 -16.76653461 46.38326731 -14 45 C-13.98541748 43.74864258 -13.97083496 42.49728516 -13.95581055 41.20800781 C-13.89782073 36.56351197 -13.8205877 31.91950061 -13.73754883 27.27539062 C-13.70430274 25.26570501 -13.67626981 23.25592609 -13.65356445 21.24609375 C-13.62001278 18.35636653 -13.56769663 15.46749407 -13.51171875 12.578125 C-13.50213387 11.23104462 -13.50213387 11.23104462 -13.49235535 9.85675049 C-13.34547722 3.61949279 -13.34547722 3.61949279 -11.58129883 0.45605469 C-7.77901357 -3.0450769 -4.47086434 -2.04104676 0 0 Z M-10 61 C-9.71016731 64.30683466 -9.71016731 64.30683466 -8 67 C-5.54207971 67.33343551 -5.54207971 67.33343551 -3 67 C-0.71399972 64.29667695 -0.71399972 64.29667695 -1.3125 61.875 C-1.84578486 60.01406147 -1.84578486 60.01406147 -3 59 C-6.961168 58.60909667 -6.961168 58.60909667 -10 61 Z " fill="#FFFFFF" transform="translate(251,193)"/>
</svg>
