<?xml version="1.0" encoding="UTF-8"?>
<svg version="1.1" xmlns="http://www.w3.org/2000/svg" width="512" height="512" fill="#044B94" fill-opacity="0.2">
<path d="M0 0 C0.73759048 -0.00511093 1.47518097 -0.01022186 2.23512268 -0.01548767 C4.65374044 -0.02929513 7.07207037 -0.02843352 9.49072266 -0.02612305 C11.18551742 -0.03001504 12.88031121 -0.03435075 14.57510376 -0.03910828 C18.12057665 -0.04655163 21.66594993 -0.04629307 25.21142578 -0.04101562 C29.73598573 -0.03522572 34.26013569 -0.0521495 38.78462791 -0.0753603 C42.28325755 -0.090153 45.78178972 -0.0909618 49.2804451 -0.08785057 C50.94766679 -0.08836108 52.61489433 -0.09354752 54.28208542 -0.10366249 C74.2674188 -0.21003941 74.2674188 -0.21003941 80.13656616 4.88725281 C86.71573128 11.70235436 86.71901496 20.287578 87.27978516 29.2746582 C87.83327637 29.44070557 88.38676758 29.60675293 88.95703125 29.77783203 C91.42895508 30.51940918 91.42895508 30.51940918 93.90087891 31.26098633 C94.80966797 31.53362305 95.71845703 31.80625977 96.65478516 32.0871582 C98.41259766 32.61450195 100.17041016 33.1418457 101.92822266 33.66918945 C102.80881348 33.92724365 103.6894043 34.18529785 104.59667969 34.45117188 C106.41934659 35.01057638 108.22812676 35.61692254 110.02148438 36.26416016 C112.4523109 37.11259703 114.73829232 37.86158534 117.27978516 38.2746582 C119.92922318 37.17514501 119.92922318 37.17514501 121.65478516 34.8371582 C130.37826761 25.80487991 141.2250339 22.30022266 153.46728516 21.8996582 C166.58099024 22.12104151 177.77635726 26.50073024 187.52978516 35.3059082 C197.31610182 45.53705745 201.70012412 57.82557174 201.40478516 71.7746582 C201.39576172 72.59708008 201.38673828 73.41950195 201.37744141 74.2668457 C201.35415381 76.26957903 201.31829474 78.27215974 201.27978516 80.2746582 C203.16310547 80.22245117 203.16310547 80.22245117 205.08447266 80.16918945 C221.23776044 79.84799598 232.95815816 82.1504966 245.15478516 93.7121582 C249.22213441 98.08333354 252.73981718 102.52082151 253.90478516 108.4621582 C253.02888134 112.40372538 251.50040023 113.89420358 248.27978516 116.2746582 C244.63515788 116.95802582 242.99981066 116.71775082 239.84228516 114.7746582 C237.71509645 112.69935215 235.86744818 110.61133522 233.96728516 108.3371582 C227.582752 100.91617486 220.59429289 97.85933485 210.90478516 96.9621582 C203.39746476 97.609341 197.32427042 99.85186411 191.27978516 104.2746582 C189.79478516 104.7696582 189.79478516 104.7696582 188.27978516 105.2746582 C187.18725378 107.08863625 187.18725378 107.08863625 186.27978516 109.2746582 C185.86599609 109.99782227 185.45220703 110.72098633 185.02587891 111.46606445 C180.51948451 119.63138206 178.94162279 127.89290814 181.43994141 137.02075195 C184.80583174 146.05386229 189.84607005 151.63881801 198.27978516 156.2746582 C206.47932137 159.70355517 214.64170663 159.22919819 222.77978516 155.9621582 C226.28304876 154.4271756 228.64661185 153.01219508 231.27978516 150.2746582 C231.93978516 150.2746582 232.59978516 150.2746582 233.27978516 150.2746582 C233.65103516 149.5012207 233.65103516 149.5012207 234.02978516 148.7121582 C235.27978516 146.2746582 235.27978516 146.2746582 237.21728516 143.2121582 C239.53317578 139.27258043 240.43052243 135.16986946 241.37353516 130.7277832 C242.47292552 127.75184722 243.54534877 126.82568289 246.27978516 125.2746582 C250.5475088 124.6538984 252.57024577 124.84597815 256.27978516 127.0871582 C258.85298134 131.18818962 258.65636416 133.57941012 258.00634766 138.2824707 C256.79088032 143.28810499 254.57199763 147.69023325 252.27978516 152.2746582 C251.94978516 153.2646582 251.61978516 154.2546582 251.27978516 155.2746582 C252.04162109 155.49379883 252.80345703 155.71293945 253.58837891 155.9387207 C267.42418458 160.18791945 277.93569056 167.93079657 285.02587891 180.73950195 C290.71012717 192.23195405 291.4195168 206.6130863 287.65478516 218.8996582 C283.6276407 228.96751935 277.07992004 235.89073605 269.27978516 243.2746582 C270.00423828 243.88051758 270.72869141 244.48637695 271.47509766 245.1105957 C280.79658662 253.18921947 288.33016636 262.70474755 290.27978516 275.2746582 C291.41201704 291.21718231 289.21090352 303.30903145 279.27978516 316.2746582 C272.13491536 324.21645579 263.09304773 328.44247172 253.27978516 332.2746582 C253.68970703 333.02489258 254.09962891 333.77512695 254.52197266 334.5480957 C261.5543202 347.90619127 263.39620259 360.75380562 259.24462891 375.46606445 C254.82401479 388.33416789 245.30724274 398.14133821 233.27978516 404.2746582 C224.23399695 408.10498415 213.90813336 409.24409306 204.27978516 407.2746582 C204.60978516 408.2646582 204.93978516 409.2546582 205.27978516 410.2746582 C206.31189912 424.3851306 205.22206482 437.34270713 195.74072266 448.67700195 C195.25861328 449.20422852 194.77650391 449.73145508 194.27978516 450.2746582 C193.49603516 451.1409082 192.71228516 452.0071582 191.90478516 452.8996582 C180.32490405 463.37669349 168.40981692 467.68079766 152.77978516 467.1574707 C144.75242003 466.21193972 138.25125327 463.26912101 131.27978516 459.2746582 C131.25916016 460.3059082 131.23853516 461.3371582 131.21728516 462.3996582 C130.66901224 466.82557148 128.96487055 470.61430313 127.02978516 474.5871582 C126.5984729 475.50295654 126.5984729 475.50295654 126.15844727 476.43725586 C124.16377524 480.36996712 122.3430759 482.51687099 118.27978516 484.2746582 C114.53936006 484.21016812 112.24652035 484.08546837 109.34228516 481.6496582 C107.78567587 478.17017861 107.78796806 476.08624069 108.27978516 472.2746582 C109.41557188 469.59599274 110.69624146 467.06326829 112.08837891 464.5090332 C115.59242782 457.93750541 115.28609504 450.06072993 113.40869141 442.99731445 C109.89422423 433.85969979 105.03598765 428.15230907 96.17431641 424.0012207 C88.2922635 420.97841278 79.89412936 421.30793972 72.02978516 424.2121582 C64.27298062 427.82658545 59.35445834 433.36685709 55.77978516 441.0871582 C53.03706612 448.93742958 53.2140633 457.4418509 56.25244141 465.18481445 C60.43668126 473.69648107 66.54912642 478.69167478 75.39697266 482.0871582 C81.49867524 483.74497928 87.67769812 483.23237801 93.92431641 482.85668945 C97.27978516 483.2746582 97.27978516 483.2746582 99.69384766 485.59887695 C101.64792336 488.89577808 101.98654988 490.50524633 101.27978516 494.2746582 C98.53843942 497.70134038 96.58349067 499.56700193 92.27978516 500.2746582 C77.67685397 501.21827982 66.21119661 499.33369283 54.27978516 490.2746582 C53.35166016 489.5940332 52.42353516 488.9134082 51.46728516 488.2121582 C49.07930401 486.09708918 47.24343333 483.78170587 45.27978516 481.2746582 C44.2453125 482.46961914 44.2453125 482.46961914 43.18994141 483.6887207 C33.12980455 495.11807389 23.10317398 502.5681162 7.46728516 504.2121582 C-6.86018711 504.87270028 -18.47310985 500.55733597 -29.32958984 491.5324707 C-36.53396951 484.72833435 -40.30255574 476.44091443 -43.72021484 467.2746582 C-44.32607422 467.67297852 -44.93193359 468.07129883 -45.55615234 468.48168945 C-57.80683579 476.22789083 -70.14264152 478.26851388 -84.38818359 475.58325195 C-96.36365168 472.22787461 -106.99822642 465.02356228 -113.54833984 454.2746582 C-119.1223616 443.45131498 -120.72021484 433.38146339 -120.72021484 421.2746582 C-121.48011719 421.51249023 -121.48011719 421.51249023 -122.25537109 421.75512695 C-135.23067912 424.49001755 -148.32065656 421.72803503 -159.59521484 415.0246582 C-170.57497423 407.52395048 -177.21131838 396.31024405 -180.40771484 383.5246582 C-181.5580288 371.56139301 -180.3725597 361.00936357 -174.72021484 350.2746582 C-176.17041016 349.85506836 -176.17041016 349.85506836 -177.64990234 349.42700195 C-192.3223386 344.98825 -203.75479106 337.46760191 -211.43505859 323.8684082 C-217.68489984 311.25474685 -217.96293441 297.5757389 -213.72021484 284.2746582 C-210.59411938 276.78950415 -205.26027235 267.04468696 -197.72021484 263.2746582 C-198.68121094 262.54762695 -198.68121094 262.54762695 -199.66162109 261.8059082 C-210.80061028 253.1736066 -218.42479853 244.26928962 -221.72021484 230.2746582 C-223.34662889 214.47597763 -220.6073926 201.0063613 -210.72021484 188.2746582 C-204.86015829 181.77224929 -197.83784907 177.49245916 -189.72021484 174.2746582 C-188.73021484 174.2746582 -187.74021484 174.2746582 -186.72021484 174.2746582 C-187.19072266 173.52442383 -187.66123047 172.77418945 -188.14599609 172.0012207 C-196.05008281 159.00775309 -199.17948898 146.38464641 -196.32910156 131.18969727 C-194.27598735 123.03067481 -190.49923011 116.32273694 -184.72021484 110.2746582 C-184.06279297 109.57727539 -183.40537109 108.87989258 -182.72802734 108.16137695 C-173.61985224 99.30342644 -162.85340168 95.52636201 -150.40771484 94.7121582 C-149.15345703 94.62836914 -147.89919922 94.54458008 -146.60693359 94.45825195 C-145.65431641 94.39766602 -144.70169922 94.33708008 -143.72021484 94.2746582 C-143.88779297 93.41485352 -144.05537109 92.55504883 -144.22802734 91.66918945 C-146.75961113 76.9763899 -144.60972147 63.4892599 -136.03271484 51.0246582 C-128.47876568 41.77923951 -118.36722423 35.82273862 -106.72021484 33.2746582 C-92.39500575 32.02169927 -80.57903557 33.72725042 -68.72021484 42.2746582 C-68.01896484 42.9140332 -67.31771484 43.5534082 -66.59521484 44.2121582 C-64.6034788 45.6225516 -64.6034788 45.6225516 -61.59521484 44.5246582 C-59.95390922 43.81104706 -58.3209959 43.07504873 -56.72021484 42.2746582 C-49.52808641 41.69464785 -49.52808641 41.69464785 -46.28271484 44.0246582 C-44.70288039 46.29961982 -43.88700185 47.52267264 -43.72021484 50.2746582 C-44.83189793 54.72139057 -46.93356952 56.78101372 -50.72021484 59.2746582 C-51.71021484 59.2746582 -52.70021484 59.2746582 -53.72021484 59.2746582 C-53.28708984 60.69004883 -53.28708984 60.69004883 -52.84521484 62.1340332 C-48.77588897 75.95923734 -47.98894292 88.99853585 -54.19677734 102.48168945 C-61.41758247 115.58794534 -70.90460727 122.64252327 -84.87646484 127.48950195 C-91.21786011 129.24035422 -97.29984789 129.78194865 -103.72021484 128.2746582 C-103.22521484 129.8215332 -103.22521484 129.8215332 -102.72021484 131.3996582 C-99.57156209 144.33651407 -102.02536342 157.00442499 -108.40771484 168.5246582 C-115.74115431 179.71494361 -124.83223867 184.92142231 -136.72021484 190.2746582 C-136.32189453 190.81993164 -135.92357422 191.36520508 -135.51318359 191.92700195 C-130.17192784 199.52951927 -126.59820691 206.81773422 -127.72021484 216.2746582 C-129.22021484 218.7746582 -129.22021484 218.7746582 -131.72021484 220.2746582 C-134.52704602 220.87858704 -136.96604223 221.14071639 -139.72021484 220.2746582 C-142.93465413 216.95845827 -144.56087859 213.63038231 -146.15771484 209.3371582 C-149.48334208 201.11378905 -153.70871597 196.27316397 -161.72021484 192.2746582 C-169.59808813 189.20089045 -178.11528908 188.97124508 -186.09521484 191.8996582 C-193.67341826 195.39350523 -199.54438357 200.70377986 -202.62646484 208.5949707 C-205.65387542 217.76129717 -205.50182648 225.31295213 -201.72021484 234.2746582 C-197.77707634 241.2027894 -192.05301922 246.33872433 -184.78271484 249.5871582 C-174.3273707 251.93427628 -166.15522078 251.29872693 -156.78662109 245.7590332 C-152.92639922 242.986095 -150.20755017 239.38525786 -147.48974609 235.52856445 C-145.23556976 232.48652066 -143.87000968 231.32280654 -140.22021484 230.1496582 C-136.72021484 230.2746582 -136.72021484 230.2746582 -133.84521484 231.8371582 C-131.19889833 234.87263891 -130.64265955 236.24178306 -130.72021484 240.2746582 C-133.06768881 247.98545809 -139.16258317 253.71702653 -144.72021484 259.2746582 C-144.16333984 259.67555664 -143.60646484 260.07645508 -143.03271484 260.48950195 C-131.74643806 268.89701557 -123.60358008 278.66833528 -121.00537109 292.8449707 C-119.52263547 305.47869072 -121.86707494 316.02120011 -127.72021484 327.2746582 C-126.84623047 327.27852539 -126.84623047 327.27852539 -125.95458984 327.2824707 C-114.79402526 327.80891243 -105.92445305 333.1760232 -97.97802734 340.7902832 C-88.89761103 350.78188316 -84.98545343 361.89031087 -84.72021484 375.2746582 C-84.89994918 377.68226238 -85.24573268 379.90224739 -85.72021484 382.2746582 C-85.16076172 382.11868164 -84.60130859 381.96270508 -84.02490234 381.80200195 C-71.69283827 378.80820505 -59.99173977 380.54262122 -48.72021484 386.2746582 C-39.14312217 392.2658075 -31.74260189 400.67018326 -27.72021484 411.2746582 C-27.33888186 413.2660638 -26.99390883 415.26562791 -26.72021484 417.2746582 C-25.32609375 416.55149414 -25.32609375 416.55149414 -23.90380859 415.8137207 C-22.6552773 415.17537387 -21.40656989 414.53737142 -20.15771484 413.8996582 C-19.54863281 413.58254883 -18.93955078 413.26543945 -18.31201172 412.9387207 C-11.25585486 409.35464103 -4.78656329 407.90456306 3.09228516 407.9621582 C3.88691162 407.96707275 4.68153809 407.9719873 5.50024414 407.97705078 C21.51070971 408.29611473 32.35353782 416.25193187 43.27978516 427.2746582 C43.70388672 426.69458008 44.12798828 426.11450195 44.56494141 425.5168457 C52.41077776 415.0672263 61.54972545 407.7171787 74.65478516 404.8371582 C87.27176128 403.09938244 98.98033118 405.62493121 110.27978516 411.2746582 C110.49892578 410.45223633 110.71806641 409.62981445 110.94384766 408.7824707 C114.85135207 395.02678443 121.0126103 384.18394964 133.71728516 376.9621582 C141.88461594 372.61040485 149.12077689 370.80815213 158.34228516 371.0871582 C159.20789063 371.10069336 160.07349609 371.11422852 160.96533203 371.12817383 C163.07042689 371.1630649 165.1751949 371.21685155 167.27978516 371.2746582 C166.94720703 370.09516602 166.61462891 368.91567383 166.27197266 367.70043945 C163.57514815 356.84870402 166.18891529 345.30481258 171.73681641 335.77075195 C173.1839229 333.54697058 174.70215203 331.40706341 176.27978516 329.2746582 C177.14603516 327.9752832 177.14603516 327.9752832 178.02978516 326.6496582 C184.05728717 320.28729497 191.84556768 315.65695472 200.27978516 313.2746582 C201.59978516 313.2746582 202.91978516 313.2746582 204.27978516 313.2746582 C203.88146484 312.59661133 203.48314453 311.91856445 203.07275391 311.2199707 C195.94895855 298.70566354 193.23319235 286.93544106 195.97119141 272.6730957 C197.92969697 265.674921 200.81002357 259.98344696 205.27978516 254.2746582 C205.71548828 253.71133789 206.15119141 253.14801758 206.60009766 252.56762695 C209.27747136 249.24195836 212.22278197 246.24431845 215.27978516 243.2746582 C214.30138672 242.45674805 214.30138672 242.45674805 213.30322266 241.62231445 C203.44711985 233.11815495 196.34069536 223.4178214 194.27978516 210.2746582 C193.36219019 197.51858398 195.17592581 186.18415649 202.27978516 175.2746582 C201.60173828 175.12770508 200.92369141 174.98075195 200.22509766 174.8293457 C185.79025482 171.35058856 176.02441739 163.50185894 168.27197266 150.97973633 C162.63731803 141.29656018 162.55839583 131.1428023 163.27978516 120.2746582 C163.60978516 119.2846582 163.93978516 118.2946582 164.27978516 117.2746582 C163.74482422 117.43450195 163.20986328 117.5943457 162.65869141 117.7590332 C149.98986336 120.50498608 137.11621138 116.90293891 126.27978516 110.2746582 C116.25293162 103.17230361 109.7754866 92.81414859 106.68603516 81.00512695 C106.13499419 77.30149587 106.13519845 73.63418946 106.15478516 69.8996582 C106.15091797 69.17004883 106.14705078 68.44043945 106.14306641 67.6887207 C106.15122981 63.1172142 106.53010226 58.78465533 107.27978516 54.2746582 C104.3639493 53.29300541 101.44697636 52.31477519 98.52978516 51.3371582 C97.29228516 50.92046875 97.29228516 50.92046875 96.02978516 50.49536133 C95.23056641 50.22788086 94.43134766 49.96040039 93.60791016 49.68481445 C92.87475586 49.43868408 92.14160156 49.19255371 91.38623047 48.93896484 C89.36469042 48.30143466 87.34131089 47.76559467 85.27978516 47.2746582 C85.23853516 48.2852832 85.19728516 49.2959082 85.15478516 50.3371582 C84.47252335 55.07455354 81.87184048 58.23233043 78.27978516 61.2746582 C72.58475364 65.15971181 66.55767771 64.82502555 59.90478516 64.9621582 C58.78716797 64.99631836 57.66955078 65.03047852 56.51806641 65.06567383 C53.77207293 65.14781893 51.02638533 65.21707949 48.27978516 65.2746582 C50.01971672 68.84517066 51.81243321 72.38322127 53.65698242 75.90087891 C54.57881799 77.68607809 55.45802539 79.49308184 56.33642578 81.30004883 C59.41167703 87.59794321 59.41167703 87.59794321 65.02807617 91.20825195 C67.81134952 91.41818654 70.49323646 91.37345279 73.27978516 91.2746582 C80.06722093 93.37780732 85.48776329 97.22792063 89.27978516 103.2746582 C92.47645049 109.74514975 92.44607976 117.83994519 90.62744141 124.75512695 C87.79726102 131.03496926 82.86904645 134.78085361 77.02978516 138.1496582 C69.5590932 140.39086579 62.36508228 140.24429921 55.35009766 136.66137695 C49.52549296 132.75999079 45.54025561 127.45939229 43.64697266 120.7043457 C42.75781133 114.82074627 43.26481008 109.2670167 45.96728516 103.9621582 C47.58972112 101.35611473 47.58972112 101.35611473 46.67041016 98.64575195 C44.91952778 94.40133766 42.70549807 90.57811604 40.34228516 86.6496582 C39.89949219 85.89942383 39.45669922 85.14918945 39.00048828 84.3762207 C36.91040281 80.8626344 34.7732374 77.52016127 32.27978516 74.2746582 C30.16502907 77.62442572 28.10124248 81.00026375 26.07861328 84.40649414 C25.04594368 86.12280256 23.97557271 87.81624405 22.90478516 89.5090332 C19.1878728 95.41922645 19.1878728 95.41922645 18.73510742 102.10888672 C19.78220251 104.59349144 21.00338 106.90257783 22.27978516 109.2746582 C23.4267197 117.03227062 22.43396789 123.52316499 18.06103516 130.1105957 C13.75639155 135.77837645 8.61967369 138.66719906 1.57275391 139.65356445 C-5.91502552 139.97820944 -11.99208397 138.4878138 -17.72802734 133.54418945 C-22.77242836 128.25706621 -25.5097563 122.87843887 -25.84521484 115.5402832 C-25.47102646 107.07427092 -22.45191552 101.57641714 -16.28271484 95.8996582 C-10.12753949 91.03891887 -4.28429802 91.00558015 3.27978516 91.2746582 C3.55161621 90.5544751 3.82344727 89.83429199 4.10351562 89.09228516 C5.26323078 86.31431243 6.59707463 83.79893284 8.10009766 81.19262695 C8.63505859 80.2612793 9.17001953 79.32993164 9.72119141 78.37036133 C10.27677734 77.4106543 10.83236328 76.45094727 11.40478516 75.4621582 C12.24976563 73.99359375 12.24976563 73.99359375 13.11181641 72.49536133 C14.4982293 70.08676265 15.88763571 67.67994426 17.27978516 65.2746582 C16.46300293 65.26007568 15.6462207 65.24549316 14.8046875 65.23046875 C11.08758755 65.15578898 7.37136596 65.05919209 3.65478516 64.9621582 C1.72699219 64.92832031 1.72699219 64.92832031 -0.23974609 64.89379883 C-2.10566406 64.840625 -2.10566406 64.840625 -4.00927734 64.78637695 C-5.15090332 64.76019287 -6.2925293 64.73400879 -7.46875 64.70703125 C-13.7804699 63.86771184 -17.63545168 60.90396939 -21.52880859 56.1262207 C-23.16381792 53.58525539 -23.57437265 51.26442326 -23.72021484 48.2746582 C-24.81333984 48.2127832 -25.90646484 48.1509082 -27.03271484 48.0871582 C-30.72021484 47.2746582 -30.72021484 47.2746582 -32.72021484 45.1496582 C-34.05436482 41.31397702 -33.91941971 39.15443865 -32.72021484 35.2746582 C-27.89970202 31.2746582 -27.89970202 31.2746582 -24.72021484 31.2746582 C-24.75501953 30.2846582 -24.78982422 29.2946582 -24.82568359 28.2746582 C-25.22802965 12.30819202 -25.22802965 12.30819202 -20.20849609 6.53637695 C-14.37333513 1.04214674 -7.86451807 -0.028623 0 0 Z M-7.72021484 18.2746582 C-7.80797089 20.42024647 -7.82716703 22.56870242 -7.81787109 24.71606445 C-7.81537354 25.89112549 -7.81287598 27.06618652 -7.81030273 28.27685547 C-7.80119873 29.78175537 -7.79209473 31.28665527 -7.78271484 32.8371582 C-7.76208984 37.6015332 -7.74146484 42.3659082 -7.72021484 47.2746582 C2.17978516 47.2746582 12.07978516 47.2746582 22.27978516 47.2746582 C22.27978516 37.3746582 22.27978516 27.4746582 22.27978516 17.2746582 C17.51541016 17.2540332 12.75103516 17.2334082 7.84228516 17.2121582 C6.33738525 17.2030542 4.83248535 17.1939502 3.28198242 17.18457031 C2.10692139 17.18207275 0.93186035 17.1795752 -0.27880859 17.17700195 C-1.48851318 17.17176514 -2.69821777 17.16652832 -3.94458008 17.16113281 C-6.62833501 16.95690535 -6.62833501 16.95690535 -7.72021484 18.2746582 Z M39.27978516 17.2746582 C39.27978516 27.1746582 39.27978516 37.0746582 39.27978516 47.2746582 C44.04416016 47.2952832 48.80853516 47.3159082 53.71728516 47.3371582 C55.22218506 47.34626221 56.72708496 47.35536621 58.27758789 47.36474609 C59.45264893 47.36724365 60.62770996 47.36974121 61.83837891 47.37231445 C63.0480835 47.37755127 64.25778809 47.38278809 65.50415039 47.38818359 C68.18790533 47.59241106 68.18790533 47.59241106 69.27978516 46.2746582 C69.37972047 44.2141051 69.41059421 42.1501323 69.41259766 40.0871582 C69.41388672 38.83161133 69.41517578 37.57606445 69.41650391 36.2824707 C69.41440918 35.62537109 69.41231445 34.96827148 69.41015625 34.29125977 C69.40480749 32.28304486 69.41010207 30.27505361 69.41650391 28.2668457 C69.41521484 27.01129883 69.41392578 25.75575195 69.41259766 24.4621582 C69.41146973 23.30071289 69.4103418 22.13926758 69.40917969 20.94262695 C69.58315989 18.35402537 69.58315989 18.35402537 68.27978516 17.2746582 C66.13419689 17.18690215 63.98574094 17.16770601 61.83837891 17.17700195 C60.66331787 17.17949951 59.48825684 17.18199707 58.27758789 17.18457031 C56.77268799 17.19367432 55.26778809 17.20277832 53.71728516 17.2121582 C48.95291016 17.2327832 44.18853516 17.2534082 39.27978516 17.2746582 Z M128.67822266 51.14575195 C123.48132788 59.05722584 121.23012269 67.33436665 122.84228516 76.7746582 C125.05228313 85.09898389 129.98562138 92.62499205 137.27978516 97.2746582 C145.38298083 101.85597025 153.99409894 102.77293884 163.04931641 100.61450195 C171.7217924 97.53717176 177.38947906 92.47960022 181.71728516 84.3996582 C185.63170293 75.82420347 186.28895221 68.28835586 183.27978516 59.2746582 C179.14999054 50.37061057 173.19513591 43.67993551 163.98681641 39.9777832 C150.52368437 36.48086579 137.30987244 40.05092405 128.67822266 51.14575195 Z M-122.28662109 60.93481445 C-127.20882534 67.15001563 -129.34376884 75.12751139 -128.99755859 82.9934082 C-127.77906536 93.01594408 -123.36143667 100.85061136 -115.40771484 107.1496582 C-108.7387055 111.46138908 -100.58244264 113.40157752 -92.72021484 112.2746582 C-83.32720426 110.20267058 -75.61067475 105.13093251 -70.24365234 97.05200195 C-66.11211452 89.10102089 -65.34280318 80.20748555 -67.36865234 71.48168945 C-70.67492304 62.36825099 -76.95526038 55.43002049 -85.72021484 51.2746582 C-99.53024111 46.13291353 -112.43191846 50.49030419 -122.28662109 60.93481445 Z M-6.72021484 109.2746582 C-9.04770829 112.76589837 -9.22320801 114.16688071 -8.72021484 118.2746582 C-7.28360173 120.79472664 -7.28360173 120.79472664 -4.72021484 122.2746582 C-0.05382814 122.85337918 -0.05382814 122.85337918 4.15478516 121.0871582 C5.63383922 118.70423777 6.14569823 117.09048373 6.27978516 114.2746582 C4.94317514 111.08164539 3.87223726 109.63324763 0.90478516 107.8371582 C-2.38741642 107.13168644 -3.81685055 107.62680279 -6.72021484 109.2746582 Z M62.27978516 109.2746582 C59.95229171 112.76589837 59.77679199 114.16688071 60.27978516 118.2746582 C61.71639827 120.79472664 61.71639827 120.79472664 64.27978516 122.2746582 C67.77978516 123.0246582 67.77978516 123.0246582 71.27978516 122.2746582 C73.93863116 120.28445703 73.93863116 120.28445703 75.27978516 117.2746582 C75.2146516 114.01798052 74.88364278 112.10855683 72.96728516 109.4621582 C69.05281726 106.70753265 66.46305251 107.07293854 62.27978516 109.2746582 Z M-171.40771484 120.5871582 C-177.61987396 127.80669447 -181.24681247 135.18189897 -180.96630859 144.8840332 C-180.03746058 153.90712816 -176.51683067 160.89513941 -169.83349609 166.99731445 C-161.42643821 173.7196574 -153.4555963 175.44842841 -142.72021484 174.2746582 C-133.86530501 171.87814591 -126.39453014 166.23155101 -121.72802734 158.3996582 C-117.96318402 150.46138391 -117.41332361 141.98741631 -119.37255859 133.4230957 C-122.30593898 125.29020416 -127.96685814 118.22448143 -135.72021484 114.2746582 C-149.63763468 109.99949333 -160.20023598 110.9435136 -171.40771484 120.5871582 Z M217.52978516 183.0871582 C211.3328581 191.86613821 210.14293872 199.50391723 211.27978516 210.2746582 C213.34211771 218.65822307 219.20873304 225.48488799 226.34228516 230.1496582 C233.90614672 234.43680874 241.09868778 235.38382739 249.67431641 233.8449707 C257.88410882 231.51574764 264.17365043 226.50551396 268.71728516 219.3371582 C273.1384607 211.25412258 274.5082589 203.42362855 272.15478516 194.3996582 C269.08131374 185.03695362 264.05357852 178.80681636 255.27978516 174.2746582 C240.91569431 167.82547456 228.1321942 172.24378532 217.52978516 183.0871582 Z M220.45947266 261.9074707 C214.55856156 268.28282691 210.94495132 276.52712414 211.27978516 285.2746582 C212.66316957 295.21108277 216.23823522 303.30397574 224.15478516 309.6496582 C232.21016074 315.11092979 239.55349686 316.29416071 249.27978516 315.2746582 C257.74331446 313.35770498 264.34523318 308.29037601 269.65869141 301.5168457 C273.97165561 294.67339696 275.46340896 285.68304141 273.74462891 277.8293457 C271.13616892 268.27924631 266.17086856 262.1701453 258.27978516 256.2746582 C245.3641154 249.19890667 231.11498969 252.34951766 220.45947266 261.9074707 Z M-193.72021484 282.2746582 C-198.58772391 290.01155805 -200.62751706 297.16329929 -199.72021484 306.2746582 C-197.41043834 315.7909374 -193.21526032 323.30449328 -184.90771484 328.6496582 C-176.96921153 333.00456212 -169.60862317 334.18131993 -160.72021484 332.2746582 C-152.06958222 329.63061102 -145.29321722 324.44499616 -140.78271484 316.5871582 C-136.82753406 309.03879623 -136.18639309 299.78211143 -138.47412109 291.56762695 C-139.43074387 289.36551884 -140.49133293 287.33559558 -141.72021484 285.2746582 C-142.58646484 283.6968457 -142.58646484 283.6968457 -143.47021484 282.0871582 C-148.48977544 275.81270745 -154.80297328 271.78329794 -162.72021484 270.2746582 C-175.38764388 268.88621199 -185.32848183 272.5753376 -193.72021484 282.2746582 Z M190.27978516 338.2746582 C183.99309326 346.87160436 181.36004421 354.63829925 182.27978516 365.2746582 C183.90880175 374.3527234 189.31786351 381.46589247 196.77978516 386.7121582 C204.45842632 391.38667668 212.25338355 392.55742083 221.01416016 390.69262695 C229.21655844 388.15544443 235.97472693 383.24973262 240.75634766 376.05200195 C244.88788548 368.10102089 245.65719682 359.20748555 243.63134766 350.48168945 C240.29552646 341.28679769 234.02895702 334.57097122 225.27978516 330.2746582 C213.06037929 325.60906687 199.43780582 328.85612491 190.27978516 338.2746582 Z M-156.72021484 353.2746582 C-162.91121259 361.93602974 -164.69879758 370.75799058 -163.72021484 381.2746582 C-161.74797743 389.69504908 -157.20739556 396.40611231 -149.91552734 401.06762695 C-141.10573379 405.78635862 -133.90812534 407.32716001 -124.14208984 405.06762695 C-114.72190151 401.98327497 -108.24333303 394.85867811 -103.72021484 386.2746582 C-100.37404112 377.6702115 -100.90940813 369.42453705 -104.33740234 360.95043945 C-109.25259877 351.43939551 -116.78747007 346.58557313 -126.72021484 343.2746582 C-138.76921631 342.33389533 -148.04608406 344.53315553 -156.72021484 353.2746582 Z M134.27978516 398.2746582 C128.52026201 404.82948298 126.41177486 411.56333749 126.27978516 420.2746582 C127.67712448 431.27054337 132.24934702 438.07656225 140.49853516 445.2824707 C146.92475705 449.8855229 155.4769068 451.48031128 163.27978516 450.2746582 C172.27333498 447.78737958 179.57779362 443.37196386 184.65478516 435.4621582 C189.15369347 427.24889235 190.26533628 419.47567616 188.27978516 410.2746582 C185.14521339 401.36519074 179.83633752 395.0539935 171.65478516 390.3996582 C158.01587683 384.17005061 144.22711574 387.32606459 134.27978516 398.2746582 Z M-96.25537109 407.2434082 C-102.08009448 415.32035797 -104.70621237 423.37302107 -103.72021484 433.2746582 C-101.40259279 442.82326108 -97.20687668 450.3274348 -88.84521484 455.6496582 C-80.71354536 460.13609654 -72.88364857 461.49783805 -63.78271484 459.1496582 C-54.44647083 456.10369088 -48.50243096 449.84001449 -43.68505859 441.4777832 C-40.50621899 434.55826258 -40.55251778 425.93849587 -42.37646484 418.65356445 C-46.38777901 408.67714948 -54.01247987 402.47607717 -63.47021484 397.9621582 C-75.5129753 395.41465118 -87.7835075 397.79800527 -96.25537109 407.2434082 Z M-20.50927734 435.34887695 C-25.87660584 442.92394895 -28.85100825 450.94561257 -27.72021484 460.2746582 C-25.87405932 470.15159024 -21.08592992 477.29283068 -12.84521484 483.02075195 C-5.91330398 487.11108906 1.30946358 488.3059797 9.27978516 487.2746582 C17.19349327 484.97821943 23.61594167 481.74653217 28.46728516 474.9621582 C29.14146484 474.03790039 29.81564453 473.11364258 30.51025391 472.16137695 C35.13424648 464.61804248 34.99968307 456.8952079 34.27978516 448.2746582 C32.26263285 439.94031632 26.36162473 433.11599245 19.34228516 428.3996582 C6.23369042 420.88372647 -10.61887464 423.88205635 -20.50927734 435.34887695 Z " fill="#FFFFFF" transform="translate(221.72021484375,3.725341796875)"/>
<path d="M0 0 C2.82412956 2.22957597 3.83671916 3.93534229 4.3828125 7.49609375 C4.64615465 13.82508331 3.83736795 18.87228902 0 24 C-4.38354397 28.66400768 -8.59714466 31.50375026 -15 32.4375 C-18 32 -18 32 -20.875 29.875 C-23 27 -23 27 -23.5625 24 C-22.86165197 20.26214382 -21.75456634 18.60567086 -19 16 C-16.35546875 15.36328125 -16.35546875 15.36328125 -14 15 C-13.76216797 13.64455078 -13.76216797 13.64455078 -13.51953125 12.26171875 C-13.16955078 10.49248047 -13.16955078 10.49248047 -12.8125 8.6875 C-12.59207031 7.51574219 -12.37164062 6.34398437 -12.14453125 5.13671875 C-11 2 -11 2 -8.578125 0.08203125 C-5.17853125 -1.34476795 -3.47945117 -1.18449401 0 0 Z " fill="#FFFFFF" transform="translate(451,353)"/>
<path d="M0 0 C2.5 1.75 2.5 1.75 4 5 C5.08250581 12.09299042 4.44703347 17.99803293 0.56640625 24.08984375 C-3.40602576 28.93403141 -8.11126081 31.67902898 -14.375 32.375 C-18 32 -18 32 -20.9375 29.875 C-23 27 -23 27 -23.625 24 C-22.79027034 19.99329761 -21.13142197 18.56207252 -18 16 C-17.30390625 15.72414062 -16.6078125 15.44828125 -15.890625 15.1640625 C-13.77563683 14.14885353 -13.77563683 14.14885353 -13.3125 11.7578125 C-13.1578125 10.45457031 -13.1578125 10.45457031 -13 9.125 C-12.46050509 5.96118241 -12.08312266 4.13427507 -10.375 1.375 C-6.89144451 -0.64179528 -3.91790272 -0.87510532 0 0 Z " fill="#FFFFFF" transform="translate(481,196)"/>
<path d="M0 0 C2.82412956 2.22957597 3.83671916 3.93534229 4.3828125 7.49609375 C4.64615465 13.82508331 3.83736795 18.87228902 0 24 C-4.38779577 28.66853152 -8.61433108 31.5854283 -15.0625 32.375 C-18 32 -18 32 -20.3125 30.4375 C-22.56831266 27.17910394 -23 24.95524221 -23 21 C-21.15133069 17.80038004 -20.0197531 16.30561408 -16.4453125 15.234375 C-13.72455771 14.21348693 -13.72455771 14.21348693 -13.03125 11.28515625 C-12.8559375 10.22167969 -12.680625 9.15820312 -12.5 8.0625 C-11.57212028 2.44746318 -11.57212028 2.44746318 -8.59765625 0.12109375 C-5.18523244 -1.35163653 -3.50612392 -1.1935741 0 0 Z " fill="#FFFFFF" transform="translate(325,449)"/>
</svg>
