<?xml version="1.0" encoding="UTF-8"?>
<svg version="1.1" xmlns="http://www.w3.org/2000/svg" width="512" height="512" fill="#044B94" fill-opacity="0.2">
<path d="M0 0 C3.33566083 1.75050273 3.33566083 1.75050273 6.8125 0 C7.47507812 -0.29519531 8.13765625 -0.59039062 8.8203125 -0.89453125 C16.09244666 -3.20839212 24.8410905 -2.83063814 31.8125 0.25 C40.72130299 5.6041316 43.87082241 13.21008188 46.98022461 22.65576172 C51.13410852 35.09431368 57.43774011 45.62963189 66.3125 55.3125 C67.15683594 56.24964844 68.00117188 57.18679687 68.87109375 58.15234375 C82.79355423 72.88307479 100.70986018 80.97475971 120.8515625 82.59765625 C141.25293341 83.12726294 160.7642218 75.9347207 175.84375 62.19140625 C188.32203669 50.29334044 197.87354474 35.91753091 202.9375 19.375 C205.76250254 10.39318128 209.30653919 4.97869022 217.48046875 0.22265625 C223.87804517 -2.95567063 233.25585712 -2.82290356 240.08984375 -0.91015625 C241.55397762 -0.3270055 243.01757098 0.25750525 244.48046875 0.84375 C247.53777201 1.62600243 249.63227612 -0.24017911 252.3125 -1.6875 C260.0253286 -3.61570715 266.65386892 -0.67747786 273.625 2.375 C274.48496582 2.74463867 275.34493164 3.11427734 276.23095703 3.49511719 C281.83728105 6.10011993 285.93365196 9.05738099 289.3125 14.3125 C290.1875 17.25 290.1875 17.25 290.3125 19.3125 C291.1478125 19.51552734 291.1478125 19.51552734 292 19.72265625 C299.77101102 21.91481645 305.56410679 25.99841603 309.75 33 C313.19844161 40.31069621 313.53280217 47.99874697 311.32861328 55.79052734 C310.18122421 58.90535245 308.98212064 61.97614311 307.69833374 65.03610229 C306.85325847 67.05186006 306.03443767 69.07662669 305.22192383 71.10571289 C304.11577379 73.86783442 303.00305086 76.62714091 301.88574219 79.38476562 C284.75510746 121.90438433 267.27559018 177.39087108 286.3125 222.3125 C286.67085938 223.17875 287.02921875 224.045 287.3984375 224.9375 C291.09313749 233.07079931 296.59167917 239.17120507 303.5 244.75 C308.92809251 249.42865173 311.9995378 254.63824252 312.61328125 261.84375 C312.62363139 265.01779195 312.53577077 268.14701671 312.3125 271.3125 C313.50875 271.374375 314.705 271.43625 315.9375 271.5 C320.60818688 272.09520258 323.03301702 273.88048293 326.3125 277.3125 C328.89884807 281.66267185 329.68840648 284.83974786 329.69345093 289.87805176 C329.7019104 291.18182266 329.71036987 292.48559357 329.71908569 293.82887268 C329.71325359 295.26156742 329.70710914 296.69426092 329.70068359 298.12695312 C329.70475147 299.64518104 329.71009456 301.163406 329.71661377 302.68162537 C329.7302676 306.79525222 329.72499676 310.90865285 329.71547651 315.02228355 C329.70786988 319.33163427 329.71492831 323.64096589 329.71963501 327.95031738 C329.72508964 335.18647735 329.71790864 342.4225454 329.70361328 349.65869141 C329.68728731 358.01914413 329.69257603 366.37937736 329.7090925 374.73982477 C329.72271571 381.92386326 329.72462294 389.10783576 329.71677649 396.29188299 C329.71210456 400.58000631 329.71146189 404.86802653 329.72138596 409.15614319 C329.73006552 413.18799656 329.72401577 417.21956752 329.70670319 421.25139046 C329.70274361 422.72919814 329.70386334 424.20702968 329.71049118 425.6848278 C329.71871688 427.70552586 329.70656199 429.72627598 329.69345093 431.74694824 C329.69231985 432.87664787 329.69118877 434.0063475 329.69002342 435.17028046 C329.06754978 440.35128041 327.1743451 443.48812643 323.4375 447.0625 C319.65028362 449.78929579 316.99691791 451.3125 312.3125 451.3125 C312.37050781 452.20710938 312.42851562 453.10171875 312.48828125 454.0234375 C312.84283798 463.52555779 311.85373673 470.09995002 305.515625 477.375 C296.71864944 485.82009654 286.36002488 485.80931189 274.75 486 C273.3456726 486.03323948 271.94137433 486.06773505 270.53710938 486.10351562 C267.12898692 486.18549795 263.72110575 486.25481345 260.3125 486.3125 C259.97694092 486.99666992 259.64138184 487.68083984 259.2956543 488.38574219 C258.85133057 489.28454102 258.40700684 490.18333984 257.94921875 491.109375 C257.51053467 491.99979492 257.07185059 492.89021484 256.61987305 493.80761719 C252.48030534 501.73888976 245.82383767 506.05590092 237.7130394 509.37684059 C233.48601227 510.53990834 229.66778469 510.59616758 225.30621338 510.57992554 C224.40976097 510.58445665 223.51330856 510.58898776 222.58969092 510.59365618 C219.59131679 510.60629782 216.59312436 510.60467995 213.59472656 510.60302734 C211.44260424 510.60901278 209.29048406 510.61581836 207.1383667 510.62338257 C201.29525022 510.64104924 195.45219231 510.64573826 189.6090517 510.64701414 C185.95688836 510.64843603 182.3047399 510.65270639 178.65258026 510.65800858 C165.90672358 510.67651178 153.16090873 510.68467891 140.41503906 510.68310547 C128.54192267 510.68190432 116.66898813 510.70300078 104.79591775 510.7345928 C94.59614084 510.76076344 84.39642329 510.77147241 74.19661307 510.77019465 C68.10751436 510.76968521 62.01857724 510.77535869 55.92951202 510.79655075 C50.20028464 510.81594596 44.47137275 510.81604856 38.74213409 510.80151749 C36.64354999 510.79942983 34.54494607 510.80412763 32.44639587 510.8162384 C12.10440932 510.92599565 12.10440932 510.92599565 4.3125 506.3125 C2.95898438 505.53519531 2.95898438 505.53519531 1.578125 504.7421875 C-4.7994522 499.8230485 -9.12555412 493.99833763 -11.6875 486.3125 C-12.54915771 486.29791748 -13.41081543 486.28333496 -14.29858398 486.26831055 C-17.53624375 486.20677131 -20.77330928 486.13253217 -24.01049805 486.05004883 C-25.40394362 486.01706692 -26.79751422 485.98895433 -28.19116211 485.96606445 C-39.47612206 485.77575476 -48.4747254 485.19781795 -56.9609375 477.21875 C-62.18965303 471.44586951 -63.82065837 465.82676213 -63.75 458.125 C-63.74097656 456.85269531 -63.73195313 455.58039063 -63.72265625 454.26953125 C-63.71105469 453.29371094 -63.69945313 452.31789063 -63.6875 451.3125 C-64.61304687 451.18359375 -65.53859375 451.0546875 -66.4921875 450.921875 C-72.54503759 449.76754173 -76.20203353 446.21797133 -79.6875 441.3125 C-81.0719177 438.54366461 -80.82304553 436.29650161 -80.83467102 433.19673157 C-80.84182632 431.89149033 -80.84898163 430.58624908 -80.85635376 429.24145508 C-80.85919419 427.78637719 -80.8619059 426.33129905 -80.86450195 424.8762207 C-80.87076554 423.35035547 -80.87741225 421.82449178 -80.88441467 420.29862976 C-80.90183645 416.14552339 -80.91238009 411.99242854 -80.9206202 407.83929467 C-80.92576891 405.24450178 -80.93184476 402.64971247 -80.93813133 400.0549221 C-80.95718852 391.93642098 -80.97141734 383.81792898 -80.9797433 375.69940978 C-80.98951229 366.32835919 -81.01582067 356.95754501 -81.05624419 347.58657771 C-81.08641376 340.34402304 -81.10121305 333.10153609 -81.10452431 325.8589198 C-81.10687426 321.53318787 -81.11582694 317.20770835 -81.14098549 312.88204384 C-81.16428542 308.81000368 -81.16849187 304.73838176 -81.15822411 300.66629219 C-81.15772906 299.174376 -81.16404027 297.68243909 -81.17778015 296.19058609 C-81.25982221 286.75187679 -81.08000077 280.94902859 -74.4375 273.9375 C-70.76552258 271.76769516 -67.92544353 271.59981821 -63.6875 271.3125 C-63.74550781 270.49007813 -63.80351563 269.66765625 -63.86328125 268.8203125 C-64.18841853 260.77548723 -63.73827034 254.77552457 -58.6875 248.3125 C-56.49218495 246.16347825 -54.18637713 244.1477588 -51.875 242.125 C-37.12203544 229.16434409 -32.3565197 210.79874573 -30.83251953 191.625 C-27.86880975 144.36530468 -43.95379821 100.83829684 -61.64697266 57.89916992 C-64.54812223 50.68713808 -65.09155889 42.80241999 -62.0625 35.5 C-57.74003478 27.20026644 -52.44066173 22.72875197 -43.6875 19.3125 C-43.0275 19.3125 -42.3675 19.3125 -41.6875 19.3125 C-41.64625 18.631875 -41.605 17.95125 -41.5625 17.25 C-40.0806132 12.27509432 -36.85086321 8.70561134 -32.49804688 5.90258789 C-30.03421075 4.61896156 -27.55233971 3.47196811 -25 2.375 C-24.11094971 1.98602539 -23.22189941 1.59705078 -22.3059082 1.19628906 C-14.59687368 -2.01715815 -7.7922061 -3.89610305 0 0 Z M11.3125 18.3125 C11.61542969 18.9923999 11.91835937 19.6722998 12.23046875 20.37280273 C13.60832534 23.49126317 14.96048003 26.62025647 16.3125 29.75 C16.78945312 30.81927734 17.26640625 31.88855469 17.7578125 32.99023438 C20.64736352 39.73939997 23.16596476 46.01211724 20.60766602 53.328125 C18.24912328 58.47245647 14.19302106 60.81423011 9.3125 63.3125 C8.30316406 63.84230469 7.29382813 64.37210938 6.25390625 64.91796875 C-1.75677891 68.89028731 -8.66826621 71.79358538 -17.5 69.1875 C-25.60679046 64.41879973 -27.947838 57.96543281 -31.5 49.5 C-32.00208984 48.33017578 -32.50417969 47.16035156 -33.02148438 45.95507812 C-34.25425745 43.07860763 -35.47579385 40.19789315 -36.6875 37.3125 C-40.10097491 37.83895633 -41.42038632 38.05982489 -44 40.5 C-46.05044452 43.91740753 -46.03315863 45.36456183 -45.6875 49.3125 C-44.78627197 52.04435304 -43.83094451 54.61820255 -42.72265625 57.26171875 C-42.41391571 58.02339859 -42.10517517 58.78507843 -41.78707886 59.56983948 C-41.12549453 61.20193145 -40.4598414 62.83237896 -39.79049683 64.46130371 C-38.03157841 68.7528686 -36.31563821 73.06145964 -34.6015625 77.37109375 C-34.26054001 78.22812897 -33.91951752 79.08516418 -33.56816101 79.96817017 C-15.41383801 125.81278638 -1.59974995 182.55435841 -21.46923828 230.18652344 C-26.49773349 241.700002 -33.28157392 250.66568709 -42.90234375 258.71875 C-44.78713585 260.20395834 -44.78713585 260.20395834 -45.6875 262.3125 C-45.75700541 263.85273996 -45.77202357 265.39584988 -45.75 266.9375 C-45.74097656 267.75476563 -45.73195312 268.57203125 -45.72265625 269.4140625 C-45.71105469 270.04054688 -45.69945312 270.66703125 -45.6875 271.3125 C-45.09582031 271.47105469 -44.50414062 271.62960937 -43.89453125 271.79296875 C-38.6113935 273.35291644 -35.19676311 274.84616513 -31.6875 279.3125 C-29.77873465 283.20285629 -29.43305598 286.3565535 -29.42007446 290.66841125 C-29.41154449 291.95108887 -29.40301453 293.23376648 -29.39422607 294.55531311 C-29.39492504 295.9695741 -29.39584808 297.38383499 -29.39697266 298.7980957 C-29.39098573 300.29322647 -29.3841798 301.78835415 -29.37661743 303.28347778 C-29.3589659 307.3393912 -29.35426238 311.39522019 -29.35298586 315.4511683 C-29.35156311 317.98719613 -29.34729114 320.52320257 -29.34199142 323.05922508 C-29.32349326 331.91246272 -29.31532046 340.76564017 -29.31689453 349.61889648 C-29.31809556 357.86173933 -29.29700037 366.10432018 -29.2654072 374.34709674 C-29.23922386 381.43177751 -29.22852811 388.51637282 -29.22980535 395.60110158 C-29.23031442 399.828998 -29.22466181 404.05666158 -29.20344925 408.28450966 C-29.18403227 412.26304722 -29.18396571 416.24113067 -29.19848251 420.2196846 C-29.20056752 421.67569965 -29.19588809 423.13174338 -29.1837616 424.58770943 C-29.12177533 432.54892823 -29.19397493 438.58299497 -33.6875 445.3125 C-37.42530744 448.40025397 -41.04514526 449.98611293 -45.6875 451.3125 C-46.39637565 458.52361036 -46.39637565 458.52361036 -43.8125 464.9375 C-40.13185251 467.31909544 -37.9829731 467.43070315 -33.5859375 467.41015625 C-31.76835938 467.40532227 -31.76835938 467.40532227 -29.9140625 467.40039062 C-28.64304687 467.39201172 -27.37203125 467.38363281 -26.0625 467.375 C-24.144375 467.36823242 -24.144375 467.36823242 -22.1875 467.36132812 C-19.02078708 467.34951203 -15.85416644 467.33303815 -12.6875 467.3125 C-12.68603344 466.46104464 -12.68456688 465.60958927 -12.68305588 464.73233223 C-12.64596436 443.99090077 -12.58691848 423.24963242 -12.50359726 402.50833321 C-12.46382977 392.47788356 -12.43142563 382.44751211 -12.41650391 372.41699219 C-12.40347553 363.67186787 -12.37648058 354.92691578 -12.33288693 346.18188846 C-12.31029881 341.5537148 -12.29458773 336.92575335 -12.29561615 332.29751968 C-12.29636433 327.9356891 -12.27835046 323.57432715 -12.24633217 319.21261787 C-12.23785712 317.61718319 -12.23606689 316.0216958 -12.24169731 314.42624855 C-12.27140281 304.70995614 -11.94881819 295.92430019 -5.86328125 287.91015625 C-5.24839844 287.40355469 -4.63351563 286.89695312 -4 286.375 C-3.39800781 285.85035156 -2.79601562 285.32570313 -2.17578125 284.78515625 C5.82352578 280.0508725 13.85496 279.8572448 22.96484375 279.87890625 C24.26015518 279.8736644 25.55546661 279.86842255 26.89002991 279.86302185 C29.61908793 279.8541385 32.34785257 279.85645867 35.0769043 279.86645508 C38.54779015 279.87793966 42.01765773 279.85771835 45.48841 279.82853794 C48.83477217 279.80561909 52.18090534 279.81264943 55.52734375 279.81640625 C56.75992416 279.80517227 57.99250458 279.79393829 59.26243591 279.78236389 C65.92485291 279.83571684 71.15728711 280.51446049 77.2190094 283.35728455 C79.30325477 284.3082816 81.03886837 285.01334686 83.3125 285.3125 C85.08007036 284.36558731 86.84997744 283.41313966 88.53125 282.3203125 C92.2456402 280.21874962 95.91390793 280.17578005 100.11572266 280.13549805 C101.28438873 280.12266281 102.45305481 280.10982758 103.65713501 280.09660339 C104.91754608 280.08921646 106.17795715 280.08182953 107.4765625 280.07421875 C108.77894867 280.066147 110.08133484 280.05807526 111.42318726 280.04975891 C114.18202583 280.03475459 116.94083891 280.02490741 119.69970703 280.01733398 C123.2098765 280.00630971 126.71940502 279.97194792 130.22934914 279.93216228 C133.60339258 279.89949919 136.97737332 279.89520014 140.3515625 279.88671875 C141.59982819 279.86921066 142.84809387 279.85170258 144.13418579 279.83366394 C150.85224756 279.8502137 156.11476757 280.4780053 162.22518921 283.35481262 C164.30770037 284.31029786 166.03849331 285.01372423 168.3125 285.3125 C170.08007036 284.36558731 171.84997744 283.41313966 173.53125 282.3203125 C177.24077307 280.22150339 180.90346988 280.1758465 185.09985352 280.13549805 C186.2652919 280.12266281 187.43073029 280.10982758 188.63148499 280.09660339 C189.888759 280.08921646 191.14603302 280.08182953 192.44140625 280.07421875 C193.74142075 280.066147 195.04143524 280.05807526 196.38084412 280.04975891 C199.13548652 280.03475288 201.89010339 280.0249071 204.64477539 280.01733398 C208.1458798 280.00632073 211.64633966 279.97197285 215.14721775 279.93216228 C218.51608568 279.89945836 221.88489203 279.8951963 225.25390625 279.88671875 C227.11856285 279.86045662 227.11856285 279.86045662 229.02088928 279.83366394 C237.40576313 279.85432116 245.90632845 280.52534033 252.51930237 286.20927429 C261.0382491 295.0133965 260.75765028 305.02183529 260.74487305 316.55078125 C260.75389866 318.19726798 260.76422783 319.84374801 260.77575684 321.49021912 C260.80325918 325.94210066 260.81260214 330.39385447 260.81861091 334.84580994 C260.82801222 339.50500519 260.85421703 344.16410569 260.87861633 348.82324219 C260.92223671 357.63799117 260.95081107 366.45272172 260.97393972 375.2675457 C261.00101532 385.30628896 261.04492537 395.3449367 261.09022844 405.38361168 C261.18301081 426.02652302 261.25472088 446.66946295 261.3125 467.3125 C265.70820794 467.3997253 270.10369271 467.45296869 274.5 467.5 C275.74587891 467.52513672 276.99175781 467.55027344 278.27539062 467.57617188 C279.47744141 467.58583984 280.67949219 467.59550781 281.91796875 467.60546875 C283.02293701 467.6211792 284.12790527 467.63688965 285.26635742 467.65307617 C288.70115356 467.26904631 290.55540535 466.36063635 293.3125 464.3125 C294.63479189 461.66791621 294.40927194 459.63488699 294.375 456.6875 C294.36597656 455.68460937 294.35695313 454.68171875 294.34765625 453.6484375 C294.33605469 452.87757813 294.32445312 452.10671875 294.3125 451.3125 C293.63703125 451.08175781 292.9615625 450.85101563 292.265625 450.61328125 C285.88380687 448.28004427 282.24863115 446.38041825 279.2354641 440.0495882 C278.16433641 436.87311475 278.05516407 434.30788691 278.04507446 430.95658875 C278.03227951 429.03257233 278.03227951 429.03257233 278.01922607 427.06968689 C278.01992504 425.6554259 278.02084808 424.24116501 278.02197266 422.8269043 C278.01598573 421.33177353 278.0091798 419.83664585 278.00161743 418.34152222 C277.9839659 414.2856088 277.97926238 410.22977981 277.97798586 406.1738317 C277.97656311 403.63780387 277.97229114 401.10179743 277.96699142 398.56577492 C277.94849326 389.71253728 277.94032046 380.85935983 277.94189453 372.00610352 C277.94309556 363.76326067 277.92200037 355.52067982 277.8904072 347.27790326 C277.86422386 340.19322249 277.85352811 333.10862718 277.85480535 326.02389842 C277.85531442 321.796002 277.84966181 317.56833842 277.82844925 313.34049034 C277.80903227 309.36195278 277.80896571 305.38386933 277.82348251 301.4053154 C277.82556752 299.94930035 277.82088809 298.49325662 277.8087616 297.03729057 C277.74693757 289.0969094 277.77793173 283.00228843 282.3125 276.3125 C285.87376967 273.42767665 289.75802967 271.86455701 294.3125 271.3125 C294.78623465 267.44366706 295.17824456 263.85780749 293.22265625 260.3671875 C290.7446549 257.43565274 288.02951434 255.0858405 285 252.75 C268.37354563 238.84557577 263.35828089 213.37975342 261.4934082 192.91381836 C258.26826388 146.53876738 272.15279347 102.97662564 289.84179688 60.76000977 C290.13875458 60.04095963 290.43571228 59.32190948 290.7416687 58.58106995 C291.29667555 57.23787144 291.86000202 55.89806642 292.43338013 54.56260681 C294.0343538 50.66546312 294.73652663 47.51812115 294.3125 43.3125 C292.7491674 40.42072929 292.7491674 40.42072929 290.3125 38.3125 C287.72983763 37.65190315 287.72983763 37.65190315 285.3125 37.3125 C285.00546143 38.04364014 284.69842285 38.77478027 284.38208008 39.52807617 C282.97556196 42.85749605 281.55051722 46.17867298 280.125 49.5 C279.64224609 50.65048828 279.15949219 51.80097656 278.66210938 52.98632812 C275.46865898 60.38055892 273.16434014 65.04671168 266.125 69.1875 C257.62331013 71.69619537 250.18044769 68.90642912 242.5 65.125 C241.27120117 64.56329102 241.27120117 64.56329102 240.01757812 63.99023438 C234.8097048 61.4896118 231.60069409 59.08651854 228.3125 54.3125 C225.50079285 45.87737856 228.14167363 39.19074755 231.75 31.4375 C232.58258176 29.58618498 233.41463697 27.73463304 234.24609375 25.8828125 C234.61790771 25.07602051 234.98972168 24.26922852 235.37280273 23.43798828 C236.40313046 21.19791045 236.40313046 21.19791045 237.3125 18.3125 C233.65005697 15.96853646 230.58855847 15.78737001 226.3125 16.3125 C221.35371492 20.20264767 219.91378435 24.3566901 218.0625 30.125 C213.15309734 44.30954014 206.22822062 56.05779521 196.3125 67.3125 C195.53261719 68.2921875 194.75273437 69.271875 193.94921875 70.28125 C191.24939839 73.5249637 188.20336816 76.10867134 184.875 78.6875 C184.26591797 79.16010254 183.65683594 79.63270508 183.02929688 80.11962891 C162.48953635 95.71443681 137.72255731 103.09784904 112.0234375 99.80859375 C92.76686011 96.95889768 73.88395199 89.14832611 60.08984375 75.0390625 C58.48638955 73.08023811 58.48638955 73.08023811 56.3125 73.3125 C56.05597656 72.73242188 55.79945313 72.15234375 55.53515625 71.5546875 C54.19950357 69.10527972 52.68325692 67.44496274 50.75 65.4375 C39.51114593 52.99521147 32.60859396 38.06258377 27.5859375 22.2109375 C26.21351276 19.08719776 25.28479884 17.92202786 22.3125 16.3125 C17.90301846 15.91879629 15.15184743 16.19917499 11.3125 18.3125 Z M257.3125 16.3125 C253.0225 25.8825 248.7325 35.4525 244.3125 45.3125 C247.3006017 47.55357627 249.56361014 49.06088835 252.875 50.5625 C253.63941406 50.91828125 254.40382813 51.2740625 255.19140625 51.640625 C257.46314481 52.58891873 257.46314481 52.58891873 260.3125 51.3125 C261.85950412 48.66620604 261.85950412 48.66620604 263.23046875 45.37890625 C263.76220703 44.17298828 264.29394531 42.96707031 264.84179688 41.72460938 C265.1137085 41.09321045 265.38562012 40.46181152 265.66577148 39.8112793 C266.4972006 37.88149753 267.34377091 35.95895574 268.19335938 34.03710938 C271.06087131 28.37440443 271.06087131 28.37440443 272.3125 22.3125 C270.18967331 21.30789469 268.06416979 20.30894398 265.9375 19.3125 C264.75414062 18.755625 263.57078125 18.19875 262.3515625 17.625 C259.55821425 16.18033959 259.55821425 16.18033959 257.3125 16.3125 Z M-17.3125 19.3125 C-18.50101563 19.869375 -19.68953125 20.42625 -20.9140625 21 C-21.82929687 21.433125 -22.74453125 21.86625 -23.6875 22.3125 C-21.60172368 29.01152278 -19.04907095 35.40938084 -16.1875 41.8125 C-15.79691406 42.71742187 -15.40632813 43.62234375 -15.00390625 44.5546875 C-14.62105469 45.41320312 -14.23820312 46.27171875 -13.84375 47.15625 C-13.50150391 47.93162109 -13.15925781 48.70699219 -12.80664062 49.50585938 C-11.74597517 51.64853921 -11.74597517 51.64853921 -8.6875 52.3125 C-5.44181136 51.10480842 -5.44181136 51.10480842 -2 49.375 C-0.82050781 48.80910156 0.35898438 48.24320313 1.57421875 47.66015625 C2.47785156 47.21542969 3.38148438 46.77070312 4.3125 46.3125 C3.88167114 45.32237915 3.88167114 45.32237915 3.44213867 44.31225586 C2.12789587 41.29158939 0.81394564 38.27079574 -0.5 35.25 C-0.95181641 34.21166016 -1.40363281 33.17332031 -1.86914062 32.10351562 C-4.15586671 26.84571477 -6.43616598 21.58555809 -8.6875 16.3125 C-11.91202084 16.3125 -14.42203013 17.95227889 -17.3125 19.3125 Z M-62.6875 289.3125 C-62.6875 336.8325 -62.6875 384.3525 -62.6875 433.3125 C-57.4075 433.3125 -52.1275 433.3125 -46.6875 433.3125 C-46.6875 385.7925 -46.6875 338.2725 -46.6875 289.3125 C-51.9675 289.3125 -57.2475 289.3125 -62.6875 289.3125 Z M295.3125 289.3125 C295.3125 336.8325 295.3125 384.3525 295.3125 433.3125 C300.5925 433.3125 305.8725 433.3125 311.3125 433.3125 C311.3125 385.7925 311.3125 338.2725 311.3125 289.3125 C306.0325 289.3125 300.7525 289.3125 295.3125 289.3125 Z M6.3125 301.3125 C4.57775572 304.78198857 5.15601634 308.80418156 5.15136719 312.62402344 C5.14640228 313.59003479 5.14143738 314.55604614 5.13632202 315.55133057 C5.12167609 318.75818588 5.11489375 321.96499169 5.109375 325.171875 C5.10362481 327.3966675 5.09786706 329.62145998 5.09210205 331.84625244 C5.08158463 336.51697013 5.07574706 341.18767057 5.07226562 345.85839844 C5.06678449 351.84176317 5.04276758 357.82489993 5.01429367 363.80819321 C4.99566255 368.40643985 4.99046139 373.0046317 4.98892975 377.6029129 C4.98590292 379.80850722 4.9778734 382.01410057 4.96474457 384.2196579 C4.94767723 387.30774717 4.94956637 390.39528105 4.95605469 393.48339844 C4.9468399 394.39375854 4.93762512 395.30411865 4.9281311 396.24206543 C4.96176829 401.35649926 5.45450397 404.89189509 8.3125 409.3125 C14.66464399 415.52348523 20.4553354 416.62324638 28.96484375 416.61328125 C29.78320206 416.61756638 30.60156036 416.6218515 31.44471741 416.62626648 C33.16845783 416.63198671 34.89222238 416.63252713 36.6159668 416.62817383 C39.23854131 416.62501381 41.85998652 416.64850128 44.48242188 416.67382812 C46.16406109 416.67610152 47.84570331 416.67680443 49.52734375 416.67578125 C50.30359604 416.684991 51.07984833 416.69420074 51.87962341 416.70368958 C58.41718497 416.64872744 63.06888347 415.25696766 68.125 410.875 C71.18111243 407.29498258 72.5601482 404.71056631 72.57319641 399.98608398 C72.58028122 399.12812225 72.58736603 398.27016052 72.59466553 397.38619995 C72.59218811 396.4530899 72.58971069 395.51997986 72.5871582 394.55859375 C72.5948246 393.07505905 72.5948246 393.07505905 72.60264587 391.56155396 C72.61655083 388.2909745 72.61558459 385.02060551 72.61328125 381.75 C72.61716729 379.47843344 72.62150177 377.20686762 72.62626648 374.93530273 C72.63373035 370.17396692 72.63343589 365.41270526 72.62817383 360.65136719 C72.62237485 354.54453465 72.63931993 348.43800498 72.6625185 342.33122253 C72.67723595 337.64040345 72.67813032 332.94965766 72.67500877 328.25881958 C72.67552285 326.00692138 72.68077668 323.75501917 72.69082069 321.50314331 C72.70313091 318.35736274 72.69642607 315.212177 72.68481445 312.06640625 C72.69245819 311.1332962 72.70010193 310.20018616 72.70797729 309.23880005 C72.68520483 304.30975665 72.68520483 304.30975665 70.97673035 299.76538086 C67.91515188 297.09260857 64.88421403 297.17549797 61.00244141 297.13549805 C59.9176651 297.12266281 58.83288879 297.10982758 57.71524048 297.09660339 C56.54335175 297.08921646 55.37146301 297.08182953 54.1640625 297.07421875 C52.95938324 297.066147 51.75470398 297.05807526 50.51351929 297.04975891 C47.96312906 297.03592131 45.41272033 297.02519771 42.86230469 297.01733398 C38.95993105 297.00009907 35.05839965 296.95620564 31.15625 296.91210938 C28.67969374 296.90198443 26.20313027 296.89346771 23.7265625 296.88671875 C22.55872223 296.86921066 21.39088196 296.85170258 20.18765259 296.83366394 C12.36682135 296.72715507 12.36682135 296.72715507 6.3125 301.3125 Z M91.3125 301.3125 C89.96976692 305.34069924 90.1566816 309.22937633 90.15136719 313.43041992 C90.14640228 314.364104 90.14143738 315.29778809 90.13632202 316.25976562 C90.12169665 319.35417413 90.11489686 322.44853133 90.109375 325.54296875 C90.10362274 327.69428 90.09786501 329.84559124 90.09210205 331.99690247 C90.08159023 336.51201618 90.07574911 341.02711209 90.07226562 345.54223633 C90.06678828 351.31799342 90.04277714 357.09351389 90.01429367 362.86919689 C89.99563453 367.31568581 89.99045988 371.7621182 89.98892975 376.20864296 C89.98590882 378.33722537 89.97789923 380.46580691 89.96474457 382.59435081 C89.94761995 385.57895044 89.94958037 388.5629781 89.95605469 391.54760742 C89.9468399 392.42115372 89.93762512 393.29470001 89.9281311 394.19471741 C89.96839887 400.14422496 90.5770212 406.12318983 94.62287521 410.84027386 C100.42328679 416.04254879 106.52705879 416.62198525 113.9296875 416.61328125 C115.15366745 416.61970894 115.15366745 416.61970894 116.40237427 416.62626648 C118.1219185 416.63198727 119.84148692 416.63252671 121.56103516 416.62817383 C124.17262678 416.62501797 126.78307971 416.64848617 129.39453125 416.67382812 C131.07291525 416.67610198 132.75130227 416.67680421 134.4296875 416.67578125 C135.2007785 416.684991 135.97186951 416.69420074 136.7663269 416.70368958 C142.49716475 416.65550476 148.31797366 415.87508046 152.84371948 412.00215149 C158.29130522 405.91254168 158.60899701 399.54252591 158.5871582 391.80639648 C158.5948246 390.39798492 158.5948246 390.39798492 158.60264587 388.96112061 C158.61650578 385.86854619 158.61558821 382.77619546 158.61328125 379.68359375 C158.61716933 377.5293825 158.62150423 375.37517202 158.62626648 373.22096252 C158.63372033 368.7111665 158.63344283 364.20144878 158.62817383 359.69165039 C158.62237147 353.91230022 158.63933289 348.13326973 158.6625185 342.35397243 C158.67724585 337.90759914 158.67812905 333.4613031 158.67500877 329.01490974 C158.67552219 326.88385445 158.68076383 324.75279486 158.69082069 322.62176323 C158.70315218 319.64403302 158.69641367 316.66692911 158.68481445 313.68920898 C158.69245819 312.80959 158.70010193 311.92997101 158.70797729 311.0236969 C158.66734246 306.30591419 158.41759545 303.11675224 155.3125 299.3125 C151.96109476 297.07822984 150.82974557 297.05267651 146.91064453 297.02197266 C145.80584747 297.00921295 144.70105042 296.99645325 143.56277466 296.98330688 C142.36901215 296.98108124 141.17524963 296.97885559 139.9453125 296.9765625 C138.71843719 296.9699057 137.49156189 296.9632489 136.22750854 296.95639038 C133.6300405 296.94625684 131.03254639 296.94157358 128.43505859 296.94189453 C124.46017534 296.93752493 120.4864052 296.90121987 116.51171875 296.86328125 C113.98958714 296.85741261 111.46745024 296.85344354 108.9453125 296.8515625 C107.75559845 296.83719147 106.5658844 296.82282043 105.34011841 296.80801392 C97.41053698 296.68161314 97.41053698 296.68161314 91.3125 301.3125 Z M177.3125 300.3125 C176.17673418 302.58403164 176.17760136 303.8482698 176.15859985 306.37149048 C176.14999939 307.22092224 176.14139893 308.070354 176.13253784 308.94552612 C176.12827789 309.87954254 176.12401794 310.81355896 176.11962891 311.77587891 C176.11145142 312.75818481 176.10327393 313.74049072 176.09484863 314.75256348 C176.06996702 318.01472358 176.05346925 321.27684 176.0390625 324.5390625 C176.03373882 325.65256451 176.02841515 326.76606651 176.02293015 327.913311 C175.99618333 333.80987612 175.97681551 339.70641998 175.96240234 345.60302734 C175.94577381 351.68947698 175.90101485 357.77538312 175.8500309 363.86162758 C175.81634181 368.54402271 175.80482287 373.22628931 175.79917526 377.9087944 C175.79246473 380.15184037 175.77724794 382.39487794 175.75328445 384.63780594 C175.72160308 387.78323556 175.72160142 390.92720607 175.72900391 394.07275391 C175.71259857 394.99462494 175.69619324 395.91649597 175.67929077 396.86630249 C175.73990254 403.17887925 177.2290835 407.44004139 181.3125 412.3125 C186.76277848 416.43344227 192.09884312 416.47972231 198.734375 416.515625 C199.55319153 416.52132507 200.37200806 416.52702515 201.21563721 416.53289795 C202.94713049 416.54233085 204.67864158 416.54887513 206.41015625 416.55273438 C209.03938738 416.5624149 211.66782798 416.59344355 214.296875 416.625 C215.98437039 416.63153338 217.67187134 416.63678253 219.359375 416.640625 C220.52542267 416.6591452 220.52542267 416.6591452 221.71502686 416.67803955 C227.83524185 416.65346037 233.52626095 415.6387717 238.37109375 411.59375 C238.82613281 411.0059375 239.28117187 410.418125 239.75 409.8125 C240.45962891 408.93078125 240.45962891 408.93078125 241.18359375 408.03125 C243.09756188 405.11725007 243.43978014 402.57827845 243.45967102 399.18899536 C243.46682632 398.35068176 243.47398163 397.51236816 243.48135376 396.64865112 C243.48404266 395.73221832 243.48673157 394.81578552 243.48950195 393.87158203 C243.49607315 392.90381836 243.50264435 391.93605469 243.50941467 390.93896484 C243.52914447 387.73274663 243.54080827 384.5265752 243.55078125 381.3203125 C243.55485678 380.22604824 243.5589323 379.13178398 243.56313133 378.0043602 C243.58398856 372.21498554 243.59829302 366.42563457 243.60766602 360.63623047 C243.61874263 354.65160747 243.65315821 348.66735504 243.69283772 342.68286324 C243.71895494 338.0846588 243.7273534 333.48654342 243.73094749 328.88827133 C243.73582442 326.68183763 243.74746969 324.47540819 243.76598549 322.26904678 C243.79027716 319.18313242 243.78943019 316.0981873 243.7824707 313.01220703 C243.79528076 312.09982269 243.80809082 311.18743835 243.82128906 310.24740601 C243.78689848 306.06756554 243.67149911 303.88628302 241.40812683 300.26876831 C238.20669565 297.28023129 236.40142943 297.18192564 232.1159668 297.15136719 C231.03111496 297.14175964 229.94626312 297.1321521 228.82853699 297.12225342 C227.65148697 297.11800354 226.47443695 297.11375366 225.26171875 297.109375 C223.45257744 297.10082489 223.45257744 297.10082489 221.60688782 297.09210205 C219.05051555 297.08264154 216.49413102 297.07611391 213.93774414 297.07226562 C210.02663873 297.06256606 206.11605997 297.03155409 202.20507812 297 C199.72396146 296.99346956 197.24284103 296.98821925 194.76171875 296.984375 C193.59074142 296.9720282 192.4197641 296.9596814 191.21330261 296.94696045 C190.11899429 296.94996155 189.02468597 296.95296265 187.8972168 296.95605469 C186.93728317 296.95240906 185.97734955 296.94876343 184.98832703 296.94500732 C181.79412166 297.38369303 179.90964797 298.43195296 177.3125 300.3125 Z M81.3125 422.3125 C80.36375 423.22 79.415 424.1275 78.4375 425.0625 C69.65335749 432.46702569 59.32049606 433.27452519 48.3125 434.3125 C48.26351562 434.98796875 48.21453125 435.6634375 48.1640625 436.359375 C48.08929688 437.25140625 48.01453125 438.1434375 47.9375 439.0625 C47.86789063 439.94421875 47.79828125 440.8259375 47.7265625 441.734375 C47.1818117 445.12621961 46.36985123 447.49011571 43.625 449.625 C40.24088082 450.63108949 37.71583226 450.11692399 34.3125 449.3125 C32.640625 448.1484375 32.640625 448.1484375 31.3125 446.3125 C30.80078125 443.39453125 30.80078125 443.39453125 30.625 440.125 C30.55925781 439.03832031 30.49351562 437.95164062 30.42578125 436.83203125 C30.38839844 436.00058594 30.35101563 435.16914063 30.3125 434.3125 C29.178125 434.19132812 28.04375 434.07015625 26.875 433.9453125 C25.35413488 433.77632749 23.8333033 433.60704047 22.3125 433.4375 C21.19681641 433.31955078 21.19681641 433.31955078 20.05859375 433.19921875 C19.31738281 433.11542969 18.57617188 433.03164063 17.8125 432.9453125 C17.1421875 432.87199707 16.471875 432.79868164 15.78125 432.72314453 C12.23259586 432.13287196 8.7954543 431.21204978 5.3125 430.3125 C5.21082324 437.30496763 5.14091829 444.29724358 5.09277344 451.2902832 C5.07269637 453.66763432 5.04542887 456.0449363 5.01074219 458.42211914 C4.96205386 461.84533845 4.93949147 465.26790306 4.921875 468.69140625 C4.90122986 469.74896622 4.88058472 470.80652618 4.85931396 471.89613342 C4.85738502 478.28399381 5.5093983 482.11860176 9.3125 487.3125 C14.52639671 492.02983512 17.86125606 492.46119195 24.71282959 492.45967102 C25.59235235 492.46334771 26.47187512 492.4670244 27.37805009 492.4708125 C30.34285951 492.48187826 33.30763392 492.48569807 36.27246094 492.48950195 C38.39107373 492.49576441 40.50968542 492.50241101 42.6282959 492.50941467 C48.39698757 492.52684443 54.16567094 492.53738177 59.93438244 492.5456202 C63.53623538 492.55076605 67.13808572 492.55684196 70.73993683 492.56313133 C82.00278568 492.58218871 93.26562795 492.59641882 104.52848983 492.6047433 C117.54164322 492.61451946 130.55462668 492.64084671 143.56772017 492.68124419 C153.61787874 492.71137595 163.66798852 492.72620938 173.71819139 492.72952431 C179.72451446 492.73187811 185.73065611 492.74088151 191.73693085 492.76598549 C197.38728557 492.78921975 203.03733882 492.79351806 208.68772888 492.78322411 C210.76219433 492.78272751 212.83667437 492.78908428 214.91109467 492.80278015 C217.74250508 492.82042859 220.57282533 492.81342754 223.40423584 492.80024719 C224.22583938 492.81121644 225.04744293 492.82218568 225.89394355 492.83348733 C231.16558958 492.77421087 234.11148816 491.76983805 238.3125 488.3125 C242.15632645 484.05312475 243.44035937 481.07266903 243.42602539 475.38208008 C243.42594986 474.38126907 243.42587433 473.38045807 243.42579651 472.34931946 C243.42063522 471.27111435 243.41547394 470.19290924 243.41015625 469.08203125 C243.4087413 467.97647385 243.40732635 466.87091644 243.40586853 465.7318573 C243.40026514 462.19621083 243.38771204 458.66062738 243.375 455.125 C243.36998544 452.72981862 243.36542246 450.33463625 243.36132812 447.93945312 C243.35029461 442.06378053 243.33355316 436.18814477 243.3125 430.3125 C242.37583496 430.52108643 241.43916992 430.72967285 240.47412109 430.94458008 C238.61134521 431.35293091 238.61134521 431.35293091 236.7109375 431.76953125 C235.48552246 432.03999268 234.26010742 432.3104541 232.99755859 432.58911133 C228.1207613 433.54644208 223.26865844 434.01917634 218.3125 434.3125 C218.27511719 435.14394531 218.23773438 435.97539062 218.19921875 436.83203125 C218.10060547 438.46205078 218.10060547 438.46205078 218 440.125 C217.94199219 441.20394531 217.88398438 442.28289062 217.82421875 443.39453125 C217.3125 446.3125 217.3125 446.3125 215.984375 448.1484375 C213.23024864 450.06603015 210.60471535 450.13922551 207.3125 450.3125 C204.64402091 449.51916838 203.68841551 448.93076397 202.24609375 446.55859375 C201.18139006 443.99706813 200.9054085 441.82267436 200.6875 439.0625 C200.57535156 437.72445313 200.57535156 437.72445313 200.4609375 436.359375 C200.41195312 435.68390625 200.36296875 435.0084375 200.3125 434.3125 C198.68054688 434.20035156 198.68054688 434.20035156 197.015625 434.0859375 C184.92470056 433.07330188 175.82902729 430.220118 166.3125 422.3125 C165.91160156 422.69921875 165.51070312 423.0859375 165.09765625 423.484375 C155.57436217 432.20866255 145.7273065 433.2292333 133.3125 434.3125 C133.27511719 435.06015625 133.23773438 435.8078125 133.19921875 436.578125 C133.13347656 437.56296875 133.06773437 438.5478125 133 439.5625 C132.94199219 440.53703125 132.88398438 441.5115625 132.82421875 442.515625 C132.2549413 445.62709563 131.51623005 447.06748227 129.3125 449.3125 C125.33905839 450.41623378 123.22250228 450.72793583 119.4375 449 C116.81196224 446.91501413 116.39888835 446.02280422 115.99609375 442.7109375 C115.91488281 441.71320313 115.83367187 440.71546875 115.75 439.6875 C115.66621094 438.68460937 115.58242187 437.68171875 115.49609375 436.6484375 C115.43550781 435.87757813 115.37492187 435.10671875 115.3125 434.3125 C113.62833984 434.16554688 113.62833984 434.16554688 111.91015625 434.015625 C99.47334793 432.82098017 91.12490072 430.33353601 81.3125 422.3125 Z " fill="#FFFFFF" transform="translate(131.6875,1.6875)"/>
<path d="M0 0 C0.73481917 -0.00538554 1.46963833 -0.01077108 2.22672474 -0.01631981 C4.66622759 -0.03052142 7.1051818 -0.02351528 9.54470825 -0.01637268 C11.30304395 -0.02208038 13.06137595 -0.02904619 14.81970215 -0.03717041 C19.5801323 -0.05507373 24.34037783 -0.05393863 29.10083151 -0.04822803 C33.08179961 -0.04513177 37.06273249 -0.05123356 41.04369557 -0.05726677 C50.43924539 -0.07130141 59.83470427 -0.06975982 69.23025513 -0.05836487 C78.90740996 -0.04688737 88.58428753 -0.06095557 98.26140583 -0.08776134 C106.58439195 -0.10994881 114.90729125 -0.11654877 123.23030484 -0.11068493 C128.19484226 -0.10732112 133.15920203 -0.10969197 138.12371445 -0.12693596 C142.79420783 -0.14245139 147.46429195 -0.13839871 152.13476944 -0.11963081 C153.8431109 -0.11595749 155.551483 -0.11901654 157.25979614 -0.1295166 C167.9480087 -0.19016588 176.38020077 0.60818985 185.58425903 6.51268005 C192.87450694 14.31154991 194.08501053 22.46583018 193.9236145 32.83738708 C193.89678131 34.88597914 193.92347638 36.92909694 193.95535278 38.9775238 C193.97938784 47.9523104 192.77754796 55.50463314 186.51638794 62.2900238 C180.70086243 67.80223731 174.41890989 69.84325729 166.51191711 69.78208923 C165.76161816 69.78818034 165.01131921 69.79427144 164.23828393 69.80054712 C161.74041511 69.81710986 159.24305983 69.81241106 156.74514771 69.80760193 C154.94755019 69.81494624 153.14995738 69.82353353 151.35237122 69.83326721 C146.48032696 69.85545539 141.60845197 69.85841519 136.73636413 69.8565197 C132.66348727 69.85639986 128.59064608 69.86496972 124.51777917 69.87329721 C114.90506783 69.89252214 105.29244332 69.89541865 95.67971802 69.88865662 C85.77702843 69.8820185 75.87471158 69.90487311 65.97209758 69.94197035 C57.4580484 69.97270347 48.94411889 69.98402339 40.43001539 69.98013353 C35.3502802 69.97806953 30.27083503 69.98349123 25.19115257 70.00802612 C20.41145063 70.03034999 15.63235291 70.02836862 10.85264778 70.0080986 C9.10398765 70.00469836 7.3552864 70.00973495 5.60668182 70.02408218 C-4.60154745 70.10202418 -13.70914188 69.96954967 -21.62115192 62.63227081 C-28.75799273 55.14888132 -29.26167008 47.02407073 -29.22921753 37.16429138 C-29.22824768 35.08954314 -29.26988395 33.01853424 -29.31417847 30.94432068 C-29.38798081 22.82405522 -28.64829852 16.08486273 -23.72824097 9.38768005 C-16.98271908 2.84623708 -9.34510812 0.0173736 0 0 Z M-10.72824097 23.38768005 C-11.46906244 26.10079685 -11.46906244 26.10079685 -11.35714722 28.9853363 C-11.35908081 30.03398865 -11.3610144 31.08264099 -11.36300659 32.16307068 C-11.33915894 33.24781677 -11.31531128 34.33256287 -11.29074097 35.45018005 C-11.301698 36.53879333 -11.31265503 37.62740662 -11.32394409 38.74900818 C-11.49481485 44.49343611 -11.49481485 44.49343611 -9.14562988 49.5170517 C-5.83653114 52.0777046 -3.67801143 51.89080091 0.48342896 51.89561462 C1.21089671 51.90185459 1.93836447 51.90809455 2.6878767 51.9145236 C5.1263231 51.93048286 7.56377391 51.91783863 10.00222778 51.90525818 C11.75000594 51.91067802 13.49777952 51.9177999 15.24554443 51.92649841 C19.9934723 51.94475116 24.74105294 51.93765621 29.48898697 51.92498207 C34.45459183 51.9148645 39.42016669 51.92424429 44.38577271 51.93052673 C52.72510117 51.93780676 61.064288 51.9282061 69.40359497 51.90916443 C79.0489865 51.88739501 88.69403985 51.89444613 98.33942318 51.91647005 C106.61638506 51.93461391 114.89324504 51.93718734 123.17022038 51.92671537 C128.11561185 51.92047486 133.06084429 51.91966012 138.00622559 51.93286133 C142.65532663 51.94440446 147.30399108 51.93642233 151.95304489 51.9132843 C153.66067148 51.90798897 155.36833473 51.90952506 157.07594681 51.91833496 C159.40449256 51.92924203 161.73163327 51.9155873 164.06008911 51.89561462 C165.36383987 51.89410652 166.66759064 51.89259842 168.010849 51.89104462 C171.81407795 51.30396596 173.00301485 50.44023009 175.27175903 47.38768005 C176.08713873 43.44736235 175.87467376 39.46550229 175.83425903 35.45018005 C175.85810669 34.36543396 175.88195435 33.28068787 175.90652466 32.16307068 C175.90459106 31.11441833 175.90265747 30.06576599 175.90066528 28.9853363 C175.90139038 28.03151062 175.90211548 27.07768494 175.90286255 26.09495544 C175.00765651 22.25474663 173.30854016 20.85834685 170.27175903 18.38768005 C166.85119203 17.63933778 166.85119203 17.63933778 163.02249146 17.75276184 C162.30304194 17.74496189 161.58359243 17.73716193 160.84234142 17.72912562 C158.43677927 17.70921594 156.03280105 17.72496448 153.62722778 17.7407074 C151.90062538 17.73393076 150.17403021 17.72502737 148.44744873 17.7141571 C143.76142787 17.69136253 139.0759574 17.70020069 134.38992691 17.71605253 C129.48618333 17.72871071 124.58248689 17.71697165 119.67874146 17.7091217 C111.44371071 17.70002491 103.20890417 17.71201386 94.97390747 17.73582458 C85.45284782 17.76303592 75.9323235 17.75422178 66.41127682 17.72669256 C58.23702124 17.70400337 50.06292683 17.70080048 41.88864994 17.7138859 C37.00636584 17.72168146 32.12433337 17.72271913 27.24206543 17.70620346 C22.65195021 17.69176072 18.06252523 17.70177664 13.47248459 17.73067474 C11.78785727 17.73728664 10.10317187 17.73538606 8.41856766 17.72436142 C6.11860304 17.71069725 3.82085021 17.72782817 1.52102661 17.75276184 C0.23424515 17.75464697 -1.05253632 17.7565321 -2.37831116 17.75847435 C-6.60519348 18.552395 -8.08886461 20.06117683 -10.72824097 23.38768005 Z " fill="#FFFFFF" transform="translate(173.72824096679688,135.61231994628906)"/>
</svg>
