<?xml version="1.0" encoding="UTF-8"?>
<svg version="1.1" xmlns="http://www.w3.org/2000/svg" width="512" height="512" fill="#044B94" fill-opacity="0.2">
<path d="M0 0 C3.3538996 2.69844206 4.63268872 5.00751574 5.703125 9.1328125 C5.9609375 10.10347656 6.21875 11.07414063 6.484375 12.07421875 C6.73703125 13.08097656 6.9896875 14.08773438 7.25 15.125 C7.518125 16.13949219 7.78625 17.15398438 8.0625 18.19921875 C10 25.62300702 10 25.62300702 10 28 C10.61746094 27.89300781 11.23492187 27.78601563 11.87109375 27.67578125 C19.97768444 26.52827298 26.17761611 27.59339547 32.8125 32.5625 C39.20074345 38.70321542 40.87980909 48.58922417 42.98046875 56.90625 C43.23878983 57.9115979 43.4971109 58.9169458 43.76325989 59.95275879 C44.30345108 62.06286558 44.84024956 64.17384359 45.3737793 66.28564453 C46.18597832 69.49398907 47.01315871 72.69821075 47.84179688 75.90234375 C48.36809251 77.96591523 48.89351268 80.02971023 49.41796875 82.09375 C49.78513252 83.51137634 49.78513252 83.51137634 50.15971375 84.9576416 C52.5047427 94.32632663 54.55032432 103.0326942 50 112 C46.19892389 118.14487064 41.65520367 120.47908952 35 123 C35.66 126.63 36.32 130.26 37 134 C37.94875 133.79375 38.8975 133.5875 39.875 133.375 C47.59154516 132.33053833 54.02397646 134.42190608 60.2109375 138.9765625 C65.81631381 145.31626759 67.49197246 153.7260922 69.48828125 161.71484375 C69.79573776 162.92515762 70.10319427 164.1354715 70.41996765 165.38246155 C71.22821774 168.58127203 72.02669043 171.78234973 72.82281494 174.98419189 C73.3122201 176.93638349 73.81118046 178.88586805 74.3137207 180.8347168 C75.28350943 184.60346792 76.23237468 188.37691255 77.17578125 192.15234375 C77.62405022 193.8824192 77.62405022 193.8824192 78.08137512 195.64744568 C79.85194178 202.89415184 80.99250291 209.34835751 77.94921875 216.453125 C77.53285156 217.04609375 77.11648437 217.6390625 76.6875 218.25 C76.02234375 219.21679688 76.02234375 219.21679688 75.34375 220.203125 C73.61458174 222.51538489 71.86215602 224.79300027 70 227 C70.3609375 227.48210937 70.721875 227.96421875 71.09375 228.4609375 C71.5578125 229.09257812 72.021875 229.72421875 72.5 230.375 C72.9640625 231.00148437 73.428125 231.62796875 73.90625 232.2734375 C75 234 75 234 75 236 C75.49886719 235.6390625 75.99773437 235.278125 76.51171875 234.90625 C83.23916273 230.55817131 89.11653839 230.0786924 97 231 C100.25 232 100.25 232 103 234 C103.77601563 234.56074219 104.55203125 235.12148437 105.3515625 235.69921875 C111.4922739 240.53764306 111.4922739 240.53764306 112.75 244.16015625 C112.96704745 247.78891824 112.19081625 249.76292527 109.9375 252.5625 C106.00364096 254.48757996 104.18923553 254.22787938 100 253 C98.80528678 252.16370075 97.63851792 251.28632489 96.5 250.375 C93.52394509 248.01980008 93.18927307 247.990987 89.0625 248.1875 C88.051875 248.455625 87.04125 248.72375 86 249 C86.4021875 249.7734375 86.4021875 249.7734375 86.8125 250.5625 C87.204375 251.366875 87.59625 252.17125 88 253 C88.5775 254.11375 89.155 255.2275 89.75 256.375 C91 260 91 260 90.3125 263.3125 C88.83459494 266.33868654 87.93941812 267.66076568 84.75 268.8125 C81.0748876 269.06307585 79.11931185 267.87158711 76 266 C75.34 265.34 74.68 264.68 74 264 C72.90467861 266.86000586 72.46143395 268.05692696 73 271 C75.84984256 274.55729762 79.41763837 277.20924637 83 280 C84.07488714 280.85332541 85.14909169 281.70751125 86.22265625 282.5625 C88.53464866 284.39461957 90.85958063 286.20883787 93.19140625 288.015625 C98.0642634 291.80747289 102.82734861 295.73492176 107.58251953 299.67285156 C112.51083771 303.75204536 112.51083771 303.75204536 118 307 C121.22556523 306.59152808 121.22556523 306.59152808 124 305 C125.42055068 302.99863756 125.42055068 302.99863756 126 301 C125.01 300.2575 125.01 300.2575 124 299.5 C121.87953102 296.84941377 121.66381786 296.17371169 121.5625 292.9375 C122 289 122 289 123.125 287.0625 C125.80970827 285.54116531 127.91722261 285.18133985 131 285 C134.375 285.9375 134.375 285.9375 137 287 C136.74428656 283.38804766 136.18282354 282.17674871 133.53125 279.61328125 C132.5309375 278.85402344 131.530625 278.09476562 130.5 277.3125 C124.19732057 272.47990431 124.19732057 272.47990431 123.625 268.1875 C124 265 124 265 126.125 262.125 C129 260 129 260 131.75 259.25 C136.84384515 260.42550273 140.08387651 263.66742812 144 267 C144.58394531 267.40476562 145.16789063 267.80953125 145.76953125 268.2265625 C150.68277491 271.68449095 152.54089349 276.36368 154 282 C154.41284559 285.83771958 154.75465126 289.49069747 153 293 C154.41538717 293.33872513 155.83237963 293.67074624 157.25 294 C158.03890625 294.185625 158.8278125 294.37125 159.640625 294.5625 C162.25556002 295.12154828 162.25556002 295.12154828 166 295 C167.29664844 293.44547472 167.29664844 293.44547472 168.25 291.375 C171.07409798 286.45250105 175.20916797 282.21361038 180.74763489 280.44050598 C183.53242921 279.89587023 186.16413455 279.84922614 189.00268555 279.82299805 C190.21462082 279.81016281 191.42655609 279.79732758 192.67521667 279.78410339 C194.6361602 279.77302299 194.6361602 279.77302299 196.63671875 279.76171875 C197.30583597 279.75764322 197.97495319 279.7535677 198.66434669 279.74936867 C202.20843822 279.72854178 205.75249147 279.71422745 209.29663086 279.70483398 C212.93692404 279.69379696 216.57660136 279.65941977 220.21667767 279.61966228 C223.0333206 279.59337399 225.84981969 279.58513128 228.66657448 279.58155251 C230.65448885 279.57438013 232.6423044 279.54799274 234.63005066 279.52116394 C242.61629773 279.54019496 249.79920345 280.01847187 255.83818054 285.74223328 C258.67875713 288.87567549 260.97363032 292.28498892 263 296 C263.61488281 295.7834375 264.22976563 295.566875 264.86328125 295.34375 C266.07564453 294.92609375 266.07564453 294.92609375 267.3125 294.5 C268.11300781 294.2215625 268.91351563 293.943125 269.73828125 293.65625 C272 293 272 293 275 293 C274.67 292.01 274.34 291.02 274 290 C273.43744358 281.70229283 275.07527345 275.89358154 280.5612793 269.51269531 C282.91821167 267.0345767 285.58770623 264.98634879 288.3125 262.9375 C289.56227522 261.97796404 290.81092939 261.01696657 292.05859375 260.0546875 C292.70554199 259.55678711 293.35249023 259.05888672 294.01904297 258.54589844 C297.35291297 255.94421433 300.60807539 253.24736326 303.875 250.5625 C309.43921466 246.01498192 315.07684953 241.57952052 320.8125 237.25 C321.48845215 236.73638916 322.1644043 236.22277832 322.86083984 235.69360352 C329.72125831 230.56101364 335.5706099 230.08608689 344 231 C347.30425775 232.29277389 350.12984254 233.92340029 353 236 C353.29648437 235.40703125 353.59296875 234.8140625 353.8984375 234.203125 C355.265625 231.46875 356.6328125 228.734375 358 226 C357.29423828 225.29037109 357.29423828 225.29037109 356.57421875 224.56640625 C351.62882682 219.31384712 347.94675119 214.24796972 348.02262878 206.76980591 C348.7057103 200.12813438 350.10895042 193.81969068 351.80078125 187.3671875 C352.07842819 186.29050812 352.35607513 185.21382874 352.64213562 184.10452271 C353.22766414 181.84296403 353.8169815 179.58238321 354.40991211 177.32275391 C355.31093414 173.88098136 356.19424457 170.43498962 357.07617188 166.98828125 C357.64997899 164.78097348 358.22481417 162.57393265 358.80078125 160.3671875 C359.06135818 159.34615936 359.32193512 158.32513123 359.59040833 157.27316284 C361.82357976 148.85195997 364.20710587 141.29870027 371.65234375 136.19140625 C377.64265798 133.15139653 384.49394997 132.2416081 391 134 C391.66 130.37 392.32 126.74 393 123 C391.63875 122.484375 390.2775 121.96875 388.875 121.4375 C382.35333222 118.50480034 378.6765172 114.32218042 376.0625 107.6875 C373.66297914 98.93003669 376.56174014 89.90670553 378.80078125 81.3671875 C379.07842819 80.29050812 379.35607513 79.21382874 379.64213562 78.10452271 C380.22766414 75.84296403 380.8169815 73.58238321 381.40991211 71.32275391 C382.31093414 67.88098136 383.19424457 64.43498962 384.07617188 60.98828125 C384.64997899 58.78097348 385.22481417 56.57393265 385.80078125 54.3671875 C386.06135818 53.34615936 386.32193512 52.32513123 386.59040833 51.27316284 C388.88260863 42.62936435 391.27787346 35.36571444 398.93359375 30.19140625 C405.36089632 26.48568359 410.93851674 26.94859203 418 28 C418.24234375 26.80503906 418.4846875 25.61007813 418.734375 24.37890625 C422.13171636 8.09185334 422.13171636 8.09185334 426 1 C429.05693322 -0.52846661 431.62984547 -0.23242445 435 0 C437.20117188 1.23291016 437.20117188 1.23291016 439 3 C440.53763139 9.77028514 438.28878526 17.09835108 436.5 23.625 C436.26152344 24.53378906 436.02304687 25.44257813 435.77734375 26.37890625 C435.19572158 28.5890705 434.6032271 30.79565416 434 33 C434.91652344 33.12503906 435.83304687 33.25007813 436.77734375 33.37890625 C442.11429197 34.40748173 445.41818383 36.75843136 448.5546875 41.203125 C454.2350773 51.40857108 451.89470933 60.9344522 449.078125 71.796875 C448.77686707 72.98927795 448.47560913 74.18168091 448.16522217 75.41021729 C447.52877089 77.91608772 446.88635388 80.42044977 446.23828125 82.92333984 C445.25051549 86.74800399 444.28813902 90.57844386 443.328125 94.41015625 C442.704635 96.85194856 442.07968486 99.29336861 441.453125 101.734375 C441.16753723 102.8750946 440.88194946 104.01581421 440.58770752 105.19110107 C438.37270353 113.64336255 435.72004903 120.13413391 428 125 C421.42837054 128.26689449 416.16152434 128.10953194 409 127 C408.34 130.63 407.68 134.26 407 138 C408.52625 138.680625 410.0525 139.36125 411.625 140.0625 C417.7513742 143.13436469 421.42184781 146.70022725 424.375 152.875 C426.12036097 161.60180487 424.26097469 169.24249136 422.078125 177.69921875 C421.77686707 178.89303665 421.47560913 180.08685455 421.16522217 181.31684875 C420.52822539 183.82855371 419.88580945 186.33888985 419.23828125 188.84790039 C418.2515004 192.68167077 417.2887752 196.52093739 416.328125 200.36132812 C415.70456255 202.80765854 415.07960968 205.25363506 414.453125 207.69921875 C414.16753723 208.84307541 413.88194946 209.98693207 413.58770752 211.16545105 C411.17524497 220.39900785 407.91163285 226.4132768 400 232 C391.97399626 235.83852353 383.31571412 233.94438409 375 232 C374.45730469 232.81984375 373.91460937 233.6396875 373.35546875 234.484375 C372.64003906 235.56203125 371.92460937 236.6396875 371.1875 237.75 C370.12595703 239.35101563 370.12595703 239.35101563 369.04296875 240.984375 C367.42050074 243.3792991 365.76324711 245.70833498 364 248 C365.70768079 251.55038751 367.74198184 254.79398379 369.87890625 258.09765625 C373.03831998 263.45875202 372.89547518 270.21145118 371.4921875 276.1484375 C367.44075089 285.78534982 356.69383699 292.37118807 348.62451172 298.6015625 C344.49140877 301.79618822 340.46558528 305.09769116 336.46557617 308.45727539 C317.00275318 324.75457478 317.00275318 324.75457478 306 324 C296.05770337 322.15288512 290.58692641 315.9841537 285 308 C278.98987839 308.55908108 273.52595068 310.30633816 267.79296875 312.16015625 C265 313 265 313 263 313 C263.03480469 313.67804688 263.06960938 314.35609375 263.10546875 315.0546875 C263.33727375 323.02436406 262.71340261 330.76871573 257.8125 337.375 C250.38311833 344.30908956 243.752066 344.54043954 234 344.25 C232.84371094 344.23195313 231.68742188 344.21390625 230.49609375 344.1953125 C227.66370116 344.14849609 224.83173919 344.07676401 222 344 C222 349.28 222 354.56 222 360 C223.35158203 359.97381592 224.70316406 359.94763184 226.09570312 359.9206543 C231.13492117 359.82980165 236.17406755 359.77262302 241.21386719 359.7253418 C243.39042354 359.70027744 245.56689639 359.66621669 247.74316406 359.62280273 C250.88106954 359.56179588 254.01785737 359.53370878 257.15625 359.51171875 C258.60360535 359.47300911 258.60360535 359.47300911 260.0802002 359.43351746 C266.66355989 359.43081605 270.88809398 360.80172097 276 365 C282.4461678 371.6158038 282.29453329 378.84175331 282.2746582 387.56982422 C282.2823246 389.30750565 282.2823246 389.30750565 282.29014587 391.08029175 C282.30403199 394.90514307 282.30308574 398.72981399 282.30078125 402.5546875 C282.30368591 404.54416632 282.30659542 406.53364521 282.310188 408.52312291 C282.32126775 414.77633856 282.32172945 421.02949413 282.31567383 427.28271484 C282.30963678 433.71862806 282.32194158 440.1543225 282.3432439 446.5901984 C282.36089896 452.12926618 282.36685506 457.66826457 282.36360615 463.20735943 C282.36179911 466.509656 282.36569742 469.81176248 282.37832069 473.11404037 C282.39068108 476.79999302 282.38389503 480.48544191 282.37231445 484.17138672 C282.37995819 485.25528687 282.38760193 486.33918701 282.39547729 487.45593262 C282.34657254 494.51190959 281.8192635 500.68622859 277.0625 506.27734375 C276.381875 506.82519531 275.70125 507.37304688 275 507.9375 C274.319375 508.50339844 273.63875 509.06929688 272.9375 509.65234375 C269.84561076 511.80295219 267.24488785 512.12724276 263.58624268 512.14717102 C262.68350616 512.15432632 261.78076965 512.16148163 260.85067749 512.16885376 C259.36853256 512.17288712 259.36853256 512.17288712 257.85644531 512.17700195 C256.29257584 512.18685875 256.29257584 512.18685875 254.69711304 512.19691467 C251.24078298 512.21665371 247.78449639 512.22831159 244.328125 512.23828125 C243.14809654 512.24235678 241.96806808 512.2464323 240.75228119 512.25063133 C234.5067309 512.27149452 228.2612026 512.28579526 222.015625 512.29516602 C215.56487356 512.30623164 209.11446695 512.34063305 202.66383743 512.38033772 C197.70354572 512.40648288 192.74333643 512.41485601 187.78298187 512.41844749 C185.40515565 512.42331875 183.02733323 512.43494797 180.64957428 512.45348549 C177.31981579 512.47783157 173.99095305 512.47691974 170.66113281 512.4699707 C169.68113312 512.48278076 168.70113342 512.49559082 167.69143677 512.50878906 C160.99317719 512.4579021 156.55844884 511.36060746 151.54237747 506.62341785 C145.90848271 500.39264889 145.65834883 493.90743062 145.6875 485.9375 C145.67138672 485.05255859 145.65527344 484.16761719 145.63867188 483.25585938 C145.63501014 478.37476779 145.75365266 474.9256317 149 471 C151.88861709 469.55569145 153.79647701 469.62311494 157 470 C159.83278235 472.04243191 161.7197626 473.64134764 162.44555664 477.16015625 C162.60831951 479.67877785 162.64782178 482.16379097 162.625 484.6875 C162.625 486.39978909 162.63741531 488.11213702 162.6640625 489.82421875 C162.65560303 490.95476685 162.65560303 490.95476685 162.64697266 492.1081543 C162.76347168 492.73246338 162.8799707 493.35677246 163 494 C166.9906373 496.66042487 170.47282444 496.28004919 175.10546875 496.25878906 C176.03743073 496.2622937 176.9693927 496.26579834 177.92959595 496.26940918 C181.01563934 496.27822436 184.1014542 496.27237805 187.1875 496.265625 C189.32836959 496.26697171 191.46923888 496.26891229 193.61010742 496.27142334 C198.09915068 496.27437432 202.58811441 496.27007777 207.07714844 496.26074219 C212.83766511 496.24934771 218.59799542 496.25590732 224.35850525 496.26788712 C228.77992157 496.2751064 233.20129354 496.27281746 237.62271118 496.26763153 C239.74704002 496.26629523 241.87137285 496.26794208 243.99569702 496.27259064 C246.96208394 496.27765694 249.92816702 496.26994406 252.89453125 496.25878906 C253.77670319 496.26283752 254.65887512 496.26688599 255.56777954 496.27105713 C260.58133374 496.24910663 260.58133374 496.24910663 265 494 C265.44920006 491.86956948 265.44920006 491.86956948 265.36749268 489.3624115 C265.37584641 487.89639244 265.37584641 487.89639244 265.3843689 486.40075684 C265.37515411 485.32483276 265.36593933 484.24890869 265.35644531 483.14038086 C265.35951187 481.44523094 265.35951187 481.44523094 265.36264038 479.71583557 C265.36565839 475.96534254 265.34714143 472.21528481 265.328125 468.46484375 C265.3250693 465.86935027 265.32319174 463.27385516 265.32244873 460.67835999 C265.31783936 455.23334078 265.30377661 449.78847772 265.28125 444.34350586 C265.25236146 437.3463454 265.24202586 430.34928633 265.2375679 423.35207272 C265.23402004 417.99140793 265.22360993 412.63076595 265.21169281 407.27011299 C265.20597559 404.68918614 265.20122173 402.10825698 265.19742584 399.52732658 C265.19058893 395.92825126 265.17696917 392.32927014 265.16113281 388.73022461 C265.16001495 387.65227631 265.15889709 386.574328 265.15774536 385.4637146 C265.15203522 384.48918839 265.14632507 383.51466217 265.14044189 382.51060486 C265.13746723 381.6587004 265.13449257 380.80679594 265.13142776 379.92907619 C265.2118496 377.9927137 265.2118496 377.9927137 264 377 C260.90029236 376.89932966 257.82282329 376.863857 254.72265625 376.87060547 C253.74875946 376.86885315 252.77486267 376.86710083 251.77145386 376.86529541 C248.53511806 376.86087501 245.2988364 376.86381555 242.0625 376.8671875 C239.82430002 376.86651451 237.58610012 376.86554454 235.34790039 376.86428833 C230.65022081 376.8628111 225.9525602 376.86496671 221.25488281 376.86962891 C215.21839386 376.8753262 209.18194936 376.87204733 203.14546204 376.86605644 C198.52168439 376.8624515 193.89791736 376.86358911 189.2741394 376.86618423 C187.04767858 376.86685369 184.8212168 376.86602444 182.59475708 376.86370468 C179.48892645 376.86117926 176.3831689 376.8650172 173.27734375 376.87060547 C171.88248245 376.86756912 171.88248245 376.86756912 170.45944214 376.86447144 C166.40848194 376.46615772 166.40848194 376.46615772 163 378 C162.90240799 380.09026679 162.87483756 382.18382357 162.87402344 384.27636719 C162.8721553 384.93172455 162.87028717 385.58708191 162.86836243 386.26229858 C162.86434945 387.69027054 162.86228277 389.11824896 162.86190033 390.5462265 C162.85849378 393.58224138 162.83713943 396.61804036 162.81666946 399.65398026 C162.77861117 405.31101459 162.74738229 410.96782319 162.74951172 416.625 C162.75029932 420.55572112 162.72691168 424.4856592 162.6876297 428.41617584 C162.67717101 429.91361215 162.67564481 431.41113886 162.68328094 432.90859222 C162.69291797 435.00860486 162.67169738 437.10625523 162.64355469 439.20605469 C162.63990906 440.39994812 162.63626343 441.59384155 162.63250732 442.82391357 C161.81279578 446.94003144 160.28457187 448.46244752 157 451 C153.34256132 451 151.06054525 450.81308469 148.125 448.5625 C145.69688397 445.19011663 145.86237938 442.68849315 145.83886719 438.56591797 C145.83390228 437.90547989 145.82893738 437.24504181 145.82382202 436.56459045 C145.80918772 434.37377892 145.80239403 432.18303995 145.796875 429.9921875 C145.79112171 428.46721393 145.785364 426.94224038 145.77960205 425.41726685 C145.76908649 422.21437239 145.76324842 419.01150305 145.75976562 415.80859375 C145.75429956 411.71987388 145.73031478 407.63149017 145.70179367 403.54287529 C145.68308941 400.38914043 145.67795743 397.23548499 145.67642975 394.08169937 C145.67341692 392.57552389 145.665435 391.06934934 145.65224457 389.56322861 C145.51106153 372.19320216 145.51106153 372.19320216 150.68359375 365.9765625 C151.26238281 365.53054688 151.84117187 365.08453125 152.4375 364.625 C153.01371094 364.16351563 153.58992187 363.70203125 154.18359375 363.2265625 C157.74544282 360.82135689 160.34146472 359.74912893 164.67675781 359.77294922 C165.59741028 359.77310028 166.51806274 359.77325134 167.46661377 359.77340698 C168.45216248 359.78372955 169.43771118 359.79405212 170.453125 359.8046875 C171.97616241 359.80893234 171.97616241 359.80893234 173.52996826 359.81326294 C176.77009916 359.82444999 180.00995276 359.84955209 183.25 359.875 C185.44791267 359.8850317 187.64582968 359.89415722 189.84375 359.90234375 C195.22927337 359.92438454 200.61458968 359.95890448 206 360 C206 354.72 206 349.44 206 344 C204.288125 344.04640625 202.57625 344.0928125 200.8125 344.140625 C198.54168419 344.17815915 196.27084942 344.21455753 194 344.25 C192.87464844 344.28351563 191.74929687 344.31703125 190.58984375 344.3515625 C182.63808194 344.44456556 176.93937852 343.61996945 170.9765625 338.140625 C165.11898962 329.94679473 164.67157164 322.92583497 165 313 C164.20335937 312.80664062 163.40671875 312.61328125 162.5859375 312.4140625 C153.49530957 310.18011257 153.49530957 310.18011257 149.5625 308.75 C146.47462808 307.84623261 145.04948497 307.99736631 142 309 C139.95414697 311.14735308 139.95414697 311.14735308 138.1875 313.8125 C133.63715559 319.78856208 129.37889868 322.56351606 122 323.875 C110.61991778 324.74015245 102.9689101 317.77392103 94.8125 310.8125 C94.2652124 310.34158936 93.7179248 309.87067871 93.15405273 309.38549805 C89.14284749 305.93779786 85.04767888 302.62499598 80.875 299.375 C79.70694697 298.46234744 78.53897704 297.54958851 77.37109375 296.63671875 C76.52587158 295.97615479 76.52587158 295.97615479 75.66357422 295.30224609 C57.8368762 281.34750479 57.8368762 281.34750479 56 274 C55.00498502 265.30509989 57.11029843 258.93320491 62.25 251.9375 C62.8275 251.298125 63.405 250.65875 64 250 C62.56900493 245.88682568 60.54821899 242.78556175 57.9375 239.3125 C54.07629428 234.15258856 54.07629428 234.15258856 53 232 C52.26136719 232.15597656 51.52273437 232.31195313 50.76171875 232.47265625 C41.76991744 234.19789386 33.3370054 235.35396761 25.125 230.5625 C17.15106446 224.38809136 14.96352857 214.35465668 12.66796875 204.96484375 C12.3864949 203.84614395 12.10502106 202.72744415 11.8150177 201.57484436 C11.22713571 199.22572402 10.64507523 196.87513978 10.06860352 194.52319336 C9.188137 190.9400923 8.28389122 187.36359045 7.37695312 183.78710938 C6.80586162 181.49254295 6.23615278 179.19763186 5.66796875 176.90234375 C5.39929489 175.84272934 5.13062103 174.78311493 4.85380554 173.69139099 C2.73345471 164.93555742 1.42599079 157.23321658 6 149 C9.92678526 143.04689285 14.34650946 140.38047106 21 138 C20.67 136.9275 20.34 135.855 20 134.75 C19 131 19 131 19 127 C18.484375 127.165 17.96875 127.33 17.4375 127.5 C10.02285286 129.02095326 4.11242981 127.62925841 -2.14453125 123.62890625 C-10.80823878 116.92618633 -12.46077522 105.93796237 -15.015625 95.77734375 C-15.27631775 94.75121475 -15.5370105 93.72508575 -15.80560303 92.66786194 C-16.34970432 90.51657089 -16.89070724 88.36449398 -17.42871094 86.21166992 C-18.24958428 82.93915732 -19.08920777 79.67182119 -19.9296875 76.40429688 C-20.45948584 74.29976897 -20.98816975 72.19496013 -21.515625 70.08984375 C-21.76556213 69.1260228 -22.01549927 68.16220184 -22.27301025 67.16917419 C-24.29556366 58.9421018 -25.7966889 50.56416999 -21.3984375 42.890625 C-18.09122901 38.41942694 -14.44989426 34.45623323 -8.86279297 33.41577148 C-7.91807129 33.27856689 -6.97334961 33.1413623 -6 33 C-6.19223145 32.23856689 -6.38446289 31.47713379 -6.58251953 30.69262695 C-7.44574677 27.23629459 -8.28557121 23.77468555 -9.125 20.3125 C-9.42792969 19.11431641 -9.73085938 17.91613281 -10.04296875 16.68164062 C-10.32011719 15.52470703 -10.59726562 14.36777344 -10.8828125 13.17578125 C-11.14465332 12.11270752 -11.40649414 11.04963379 -11.67626953 9.9543457 C-12.04563152 6.58356937 -11.65039175 4.93897918 -10 2 C-6.2794164 -0.48038907 -4.40203429 -0.46337203 0 0 Z M14 44 C14.09539063 44.67546875 14.19078125 45.3509375 14.2890625 46.046875 C14.39992188 46.93890625 14.51078125 47.8309375 14.625 48.75 C14.79902344 50.07257812 14.79902344 50.07257812 14.9765625 51.421875 C15.0023954 54.26349367 14.55715677 55.64837549 13 58 C10.15916359 59.42041821 8.14522722 59.31452272 5 59 C0.8947957 56.14916368 0.0936871 52.73931075 -1 48 C-4.27227932 48.56418609 -5.92669311 49.38591578 -8 52 C-8.57374461 58.51770267 -6.00065847 65.75366097 -4.41796875 72.01953125 C-4.16251785 73.04052414 -3.90706696 74.06151703 -3.64387512 75.1134491 C-3.10494503 77.25638441 -2.56271302 79.39849179 -2.01733398 81.53979492 C-1.18643883 84.81668506 -0.37713307 88.09844925 0.43164062 91.38085938 C0.95962294 93.46908281 1.48887573 95.55698552 2.01953125 97.64453125 C2.25823441 98.62372025 2.49693756 99.60290924 2.74287415 100.61177063 C4.3610381 107.22537957 4.3610381 107.22537957 9 112 C11.70705512 111.85974801 11.70705512 111.85974801 14 111 C13.89300781 110.10796875 13.78601563 109.2159375 13.67578125 108.296875 C13.55589844 107.12640625 13.43601562 105.9559375 13.3125 104.75 C13.18488281 103.58984375 13.05726562 102.4296875 12.92578125 101.234375 C13 98 13 98 14.23046875 95.60546875 C16.32668918 93.70359989 17.20705678 93.48315502 20 93.5625 C21.0209375 93.56443359 21.0209375 93.56443359 22.0625 93.56640625 C24.61022904 94.13656335 25.43172384 94.9210172 27 97 C27.94921875 99.48046875 27.94921875 99.48046875 28.6875 102.1875 C28.93886719 103.08855469 29.19023438 103.98960938 29.44921875 104.91796875 C29.63097656 105.60503906 29.81273437 106.29210937 30 107 C33.65316671 105.75023244 34.78065836 105.32901247 37 102 C36.89553951 99.81790847 36.89553951 99.81790847 36.28100586 97.46630859 C36.07933807 96.57627136 35.87767029 95.68623413 35.66989136 94.76922607 C35.44882721 93.85538147 35.22776306 92.94153687 35 92 C34.80431427 91.15431458 34.60862854 90.30862915 34.40701294 89.43731689 C33.78994714 86.8000768 33.15062222 84.16918331 32.50390625 81.5390625 C32.15258888 80.10957779 32.15258888 80.10957779 31.79417419 78.6512146 C31.30222425 76.6559723 30.8088864 74.66107173 30.31420898 72.66650391 C29.81066956 70.62912355 29.3113583 68.59069381 28.81616211 66.55126953 C28.09623507 63.58652873 27.36401888 60.62506965 26.62890625 57.6640625 C26.41005264 56.7536319 26.19119904 55.84320129 25.9657135 54.90518188 C25.75216721 54.05684784 25.53862091 53.20851379 25.31860352 52.33447266 C25.04452415 51.22055649 25.04452415 51.22055649 24.76490784 50.08413696 C23.86465465 47.63122583 22.7305614 45.9522729 21 44 C17.42666341 42.85097761 17.42666341 42.85097761 14 44 Z M406.51879883 44.8190918 C402.88152723 48.7091788 402.08293168 53.65773156 400.88671875 58.70703125 C400.49780205 60.2660743 400.49780205 60.2660743 400.10102844 61.85661316 C399.55757055 64.05086466 399.02268851 66.24725573 398.49584961 68.44555664 C397.69163037 71.79529617 396.85890833 75.1369406 396.02148438 78.47851562 C395.49569186 80.61676922 394.97154862 82.75542917 394.44921875 84.89453125 C394.20241867 85.8874971 393.95561859 86.88046295 393.70133972 87.90351868 C392.39613719 93.40277709 391.55445576 98.34396283 392 104 C393.72928883 106.09100628 393.72928883 106.09100628 396 107 C396.66 107 397.32 107 398 107 C398.20496094 106.31292969 398.40992188 105.62585938 398.62109375 104.91796875 C398.89050781 104.01691406 399.15992188 103.11585937 399.4375 102.1875 C399.70433594 101.29417969 399.97117187 100.40085938 400.24609375 99.48046875 C400.80387873 97.64526945 401.39344575 95.81966274 402 94 C403.6026782 93.89175157 405.20745748 93.81429355 406.8125 93.75 C407.70582031 93.70359375 408.59914063 93.6571875 409.51953125 93.609375 C412 94 412 94 413.84375 95.59375 C415.41753368 98.86892144 415.08214115 101.16235315 414.6875 104.75 C414.56761719 105.92046875 414.44773437 107.0909375 414.32421875 108.296875 C414.21722656 109.18890625 414.11023438 110.0809375 414 111 C415.73575649 111.87436418 415.73575649 111.87436418 418 112 C421.01897282 110.42168742 422.64444826 108.86910729 423.9425354 105.69607544 C424.83596658 102.69144295 425.60171655 99.67733399 426.33203125 96.62890625 C426.75424202 94.95718605 426.75424202 94.95718605 427.1849823 93.25169373 C427.77586823 90.89775765 428.35780399 88.54155929 428.93139648 86.18334961 C429.80948923 82.5748726 430.7137057 78.97376245 431.62304688 75.37304688 C432.19424564 73.08371635 432.76395744 70.7940142 433.33203125 68.50390625 C433.60070511 67.42669815 433.86937897 66.34949005 434.14619446 65.23963928 C434.39032578 64.23186935 434.63445709 63.22409943 434.88598633 62.18579102 C435.2097802 60.86152855 435.2097802 60.86152855 435.54011536 59.51051331 C436.01619115 56.9116124 436.20768409 54.63474822 436 52 C434.29118236 49.62419982 434.29118236 49.62419982 432 48 C431.01 48 430.02 48 429 48 C428.81824219 48.62648438 428.63648438 49.25296875 428.44921875 49.8984375 C428.07216797 51.12433594 428.07216797 51.12433594 427.6875 52.375 C427.44386719 53.18710937 427.20023437 53.99921875 426.94921875 54.8359375 C426 57 426 57 423 59 C418.92509248 59.33957563 417.46998729 59.31332486 414 57 C412.93347107 52.37837463 412.98653663 48.61688868 414 44 C410.57806673 42.72899621 409.52641256 42.61406081 406.51879883 44.8190918 Z M41 150 C41.2475 151.2375 41.2475 151.2375 41.5 152.5 C42.90066225 162.30463576 42.90066225 162.30463576 40.9375 166 C37.86784865 167.58433618 35.38318857 167.36248449 32 167 C29.00661929 164.77489618 28.27384455 162.33743 27.3125 158.8125 C27.06113281 157.91144531 26.80976562 157.01039063 26.55078125 156.08203125 C26.36902344 155.39496094 26.18726563 154.70789063 26 154 C23.08482708 155.07401108 21.22189824 155.77810176 19 158 C19.37297508 164.87254547 20.90079098 171.36349925 22.58203125 178.01953125 C22.83748215 179.04052414 23.09293304 180.06151703 23.35612488 181.1134491 C23.89505497 183.25638441 24.43728698 185.39849179 24.98266602 187.53979492 C25.81356117 190.81668506 26.62286693 194.09844925 27.43164062 197.38085938 C27.95962294 199.46908281 28.48887573 201.55698552 29.01953125 203.64453125 C29.25823441 204.62372025 29.49693756 205.60290924 29.74287415 206.61177063 C31.34612164 213.24835465 31.34612164 213.24835465 36 218 C39.69432511 217.85387105 39.69432511 217.85387105 43 217 C42.67 216.484375 42.34 215.96875 42 215.4375 C40.6421768 212.12780596 40.67785502 209.54359483 41 206 C42.0625 204.0625 42.0625 204.0625 44 203 C47.375 202.5 47.375 202.5 51 203 C54.20773633 205.62451154 56.62107143 208.6194173 59 212 C61.0162233 211.28436734 61.0162233 211.28436734 63 210 C64.30228978 206.69065827 63.82853645 204.33128655 62.96777344 200.94360352 C62.59178009 199.43667686 62.59178009 199.43667686 62.20819092 197.89930725 C61.92808167 196.82007492 61.64797241 195.74084259 61.359375 194.62890625 C61.07652649 193.51442612 60.79367798 192.39994598 60.5022583 191.25169373 C59.90146459 188.89439826 59.29593124 186.53830646 58.68603516 184.18334961 C57.7553385 180.58315083 56.84341057 176.97857164 55.93359375 173.37304688 C55.34747563 171.08304601 54.76027174 168.79332271 54.171875 166.50390625 C53.89986267 165.42669815 53.62785034 164.34949005 53.34759521 163.23963928 C53.08432434 162.23186935 52.82105347 161.22409943 52.54980469 160.18579102 C52.32250671 159.30294937 52.09520874 158.42010773 51.86102295 157.51051331 C50.89958082 154.70720446 49.67347707 152.44272376 48 150 C45.030755 148.70095531 44.15849546 148.94716818 41 150 Z M380.49609375 150.046875 C377.24448351 152.59117096 376.64762945 155.07827653 375.75 158.9375 C375.46854126 160.05161255 375.46854126 160.05161255 375.18139648 161.18823242 C374.72828178 162.98977489 374.28376462 164.79348952 373.84521484 166.59863281 C373.01264985 169.94909369 372.13724748 173.28541963 371.25021362 176.62174988 C370.39075815 179.8625077 369.54618964 183.10704816 368.70397949 186.35232544 C368.27702045 187.98978041 367.84563519 189.62608778 367.40979004 191.26119995 C366.79067344 193.59370432 366.19194049 195.93059433 365.59765625 198.26953125 C365.40633621 198.97415497 365.21501617 199.67877869 365.01789856 200.40475464 C363.97817869 204.59720325 363.7403158 207.24043059 366 211 C366.99 211.66 367.98 212.32 369 213 C369.40992188 212.36191406 369.81984375 211.72382813 370.2421875 211.06640625 C370.78101563 210.24011719 371.31984375 209.41382813 371.875 208.5625 C372.40867187 207.73878906 372.94234375 206.91507813 373.4921875 206.06640625 C375 204 375 204 377 203 C383.18035883 202.55051936 383.18035883 202.55051936 385.9375 204.0625 C387.60000982 207.09413555 387.29734156 209.61030622 387 213 C386 215.4375 386 215.4375 385 217 C388.30567489 217.85387105 388.30567489 217.85387105 392 218 C395.35024633 215.37327 396.61687538 213.04820181 397.66333008 208.9753418 C397.92652542 207.97717941 398.18972076 206.97901703 398.46089172 205.9506073 C398.72774277 204.87764908 398.99459381 203.80469086 399.26953125 202.69921875 C399.69742195 201.03461357 399.69742195 201.03461357 400.13395691 199.33638 C400.73312039 196.99039721 401.32526682 194.64261265 401.91088867 192.29321289 C402.80780309 188.70628384 403.73325774 185.12760264 404.66210938 181.54882812 C405.24131554 179.26606381 405.81884528 176.98287335 406.39453125 174.69921875 C406.80998955 173.09889046 406.80998955 173.09889046 407.23384094 171.4662323 C408.60187514 165.89523534 409.34382555 161.61337958 408 156 C406.02 155.34 404.04 154.68 402 154 C401.81824219 154.68707031 401.63648438 155.37414062 401.44921875 156.08203125 C401.07216797 157.43361328 401.07216797 157.43361328 400.6875 158.8125 C400.44386719 159.70582031 400.20023437 160.59914062 399.94921875 161.51953125 C398.95900592 164.10712446 398.21110844 165.35639155 396 167 C392.61681143 167.36248449 390.13215135 167.58433618 387.0625 166 C384.55859151 161.28676049 385.99588754 155.02056228 387 150 C384.28297384 148.89306342 383.24724849 148.89662622 380.49609375 150.046875 Z M328 251.8125 C326.85230252 252.83432952 325.70249443 253.8537925 324.55078125 254.87109375 C323.96377441 255.39429199 323.37676758 255.91749023 322.77197266 256.45654297 C319.99630256 258.87425947 317.0977527 261.12275713 314.1875 263.375 C313.03096533 264.28218929 311.87472146 265.18974941 310.71875 266.09765625 C308.76703093 267.62653814 306.80928789 269.14583614 304.83984375 270.65185547 C302.61101245 272.35788047 300.39874367 274.08376795 298.1875 275.8125 C297.48713623 276.33956543 296.78677246 276.86663086 296.06518555 277.40966797 C291.99051857 280.62395188 291.99051857 280.62395188 290.05078125 285.38671875 C290.03402344 286.24910156 290.01726562 287.11148438 290 288 C290.66386719 287.82082031 291.32773437 287.64164062 292.01171875 287.45703125 C299.10313901 285.74887892 299.10313901 285.74887892 303.125 286.875 C305.44902996 289.50890062 305.63986207 291.52241161 305.44140625 294.9921875 C304.77424695 298.0268767 303.15876307 299.84123693 301 302 C302.91165222 304.76127543 304.27211969 306.67436933 307.375 308.0625 C313.56886429 307.91502704 319.44216004 301.25547142 324 297.4375 C329.43772644 292.9151163 334.91492498 288.46396555 340.5 284.125 C341.62711114 283.23800628 342.75344178 282.35001967 343.87890625 281.4609375 C345.87421899 279.88766212 347.88106014 278.32882902 349.90234375 276.7890625 C354.24651738 273.61489609 354.24651738 273.61489609 356.3203125 268.953125 C356.10270194 266.78363571 356.10270194 266.78363571 355 264 C354.01 264 353.02 264 352 264 C351.525625 264.474375 351.05125 264.94875 350.5625 265.4375 C348.66651763 267.33348237 347.66338193 267.76499571 345 268 C342.09120957 267.23817394 340.49613651 266.63144647 338.625 264.25 C337.58337053 260.50013392 338.24324532 257.52270072 339.96484375 254.05859375 C340.9356246 252.34849937 341.96381119 250.67127227 343 249 C336.8212234 244.8808156 332.95375335 247.18136341 328 251.8125 Z M181 301 C184.46100211 303.30733474 187.93757182 304.55944694 191.8203125 306 C194 307 194 307 195 309 C195.37252607 312.42723983 195.36781772 314.36467848 193.625 317.375 C189.5952124 319.86963042 185.61933486 319.31735888 181 319 C181.32960216 324.01535052 181.32960216 324.01535052 184 328 C186.60768842 328.3279053 186.60768842 328.3279053 189.68725586 328.30639648 C190.87866684 328.32238388 192.07007782 328.33837128 193.29759216 328.35484314 C194.59028519 328.36020584 195.88297821 328.36556854 197.21484375 328.37109375 C198.55001428 328.38005748 199.88518376 328.38917927 201.22035217 328.39845276 C204.02054284 328.41495246 206.8206138 328.4226447 209.62084961 328.42553711 C213.21042825 328.43092458 216.79888339 328.46861245 220.38814449 328.51428127 C223.1462465 328.54401249 225.90407656 328.55125976 228.66232491 328.55226326 C230.62948166 328.55852102 232.59651982 328.58801591 234.5634613 328.61778259 C235.75802444 328.61170486 236.95258759 328.60562714 238.18334961 328.59936523 C239.23654892 328.60443588 240.28974823 328.60950653 241.37486267 328.61473083 C244.19497336 328.236263 244.19497336 328.236263 245.86354065 325.71253967 C247.25761395 322.875283 247.25761395 322.875283 247 319 C246.24074219 319.04640625 245.48148437 319.0928125 244.69921875 319.140625 C243.70535156 319.17671875 242.71148437 319.2128125 241.6875 319.25 C240.20830078 319.31960938 240.20830078 319.31960938 238.69921875 319.390625 C236 319 236 319 234.1640625 317.17578125 C232.61063101 314.27221971 232.65444825 312.24818643 233 309 C235.46301279 305.30548082 236.96047003 305.0973018 241.125 303.8125 C242.22070312 303.46832031 243.31640625 303.12414062 244.4453125 302.76953125 C245.28835938 302.51558594 246.13140625 302.26164062 247 302 C245.24545615 298.81765895 245.24545615 298.81765895 243 296 C241.21144035 295.88007384 239.41816463 295.82981556 237.62573242 295.80712891 C236.47751511 295.79106598 235.32929779 295.77500305 234.14628601 295.75845337 C228.88554556 295.71419653 223.62489404 295.67248819 218.36401367 295.64990234 C214.89673699 295.63326542 211.43041297 295.58850335 207.96349621 295.5375309 C204.6567047 295.4957632 201.34999941 295.4887197 198.04296875 295.4765625 C196.17562325 295.44255844 196.17562325 295.44255844 194.27055359 295.40786743 C193.11287979 295.41071747 191.95520599 295.4135675 190.76245117 295.41650391 C189.74398605 295.40841705 188.72552094 295.4003302 187.67619324 295.39199829 C184.05432372 296.21484726 183.00911657 297.98171687 181 301 Z " fill="#FFFFFF" transform="translate(42,0)"/>
<path d="M0 0 C1.72669922 -0.04350586 1.72669922 -0.04350586 3.48828125 -0.08789062 C13.89655709 -0.16503292 20.98998164 2.29626789 28.6484375 9.375 C35.27346151 16.80941608 35.61333617 25.06238944 35.67016602 34.59936523 C35.68735018 36.60749192 35.73125424 38.61533174 35.77539062 40.62304688 C35.78376953 41.89857422 35.79214844 43.17410156 35.80078125 44.48828125 C35.81536377 45.65270752 35.82994629 46.81713379 35.8449707 48.0168457 C35.17525952 52.71317366 33.00797612 55.83110816 29.5234375 58.9921875 C24.59722222 62.3125 24.59722222 62.3125 22.375 62.3125 C22.4575 63.34375 22.54 64.375 22.625 65.4375 C22.33473559 69.9365984 21.17820422 71.84971832 18.375 75.3125 C13.88695526 77.55652237 7.81605378 76.62238449 2.8269043 76.66259766 C1.32251499 76.67914188 -0.1817962 76.70641251 -1.68579102 76.74462891 C-3.85995041 76.79956208 -6.03227022 76.8212937 -8.20703125 76.8359375 C-10.15959839 76.8656665 -10.15959839 76.8656665 -12.15161133 76.89599609 C-16.48455921 76.16810227 -17.90151423 74.67622826 -20.625 71.3125 C-22.1033226 68.35585481 -21.68532783 65.57020263 -21.625 62.3125 C-22.32625 62.085625 -23.0275 61.85875 -23.75 61.625 C-28.61514812 59.40395412 -32.70157633 56.40329465 -34.625 51.3125 C-35.08590761 46.59536238 -34.99533501 41.86229691 -35 37.125 C-35.02449219 35.83529297 -35.04898438 34.54558594 -35.07421875 33.21679688 C-35.10759092 22.3319067 -32.97918899 15.06315274 -25.5625 7.0390625 C-18.02052101 0.31818606 -9.63711992 0.07933963 0 0 Z M-16.87890625 21.3203125 C-20.86975475 28.15921619 -20.45869593 38.74636936 -18.625 46.3125 C-15.98927335 49.34380064 -13.86429983 50.48503884 -10.20703125 52.0625 C-7.625 53.3125 -7.625 53.3125 -6.44921875 55.25 C-5.9375 57.25 -5.9375 57.25 -5.625 60.3125 C-1.665 60.3125 2.295 60.3125 6.375 60.3125 C6.478125 59.301875 6.58125 58.29125 6.6875 57.25 C7.19921875 55.25 7.19921875 55.25 8.375 53.3125 C10.22950576 52.41470599 12.10808799 51.56602367 14 50.75 C17.125867 49.18689189 17.125867 49.18689189 19.375 46.3125 C20.32751662 42.64068973 20.43688383 39.09364867 20.4375 35.3125 C20.44539551 34.35013428 20.45329102 33.38776855 20.46142578 32.39624023 C20.22146618 26.41939247 19.08580317 22.91033865 14.94311523 18.5546875 C10.83826329 15.3030159 5.45588163 16.09069847 0.5 16.0625 C-0.39847656 16.041875 -1.29695313 16.02125 -2.22265625 16 C-8.74359249 15.96147157 -11.95256142 16.93185281 -16.87890625 21.3203125 Z " fill="#FFFFFF" transform="translate(255.625,397.6875)"/>
</svg>
