<?xml version="1.0" encoding="UTF-8"?>
<svg version="1.1" xmlns="http://www.w3.org/2000/svg" width="512" height="512" fill="#044B94" fill-opacity="0.2">
<path d="M0 0 C8.2520696 5.13781029 13.74742459 11.3867139 17.24609375 20.3984375 C18.26316406 19.69267578 18.26316406 19.69267578 19.30078125 18.97265625 C29.3734593 12.23428575 38.63491249 8.64563849 50.81640625 10.8671875 C60.40003923 13.32903817 67.57606352 19.40339592 73.24609375 27.3984375 C75.32690136 31.61029654 76.89336926 35.9606572 78.45703125 40.38671875 C78.92280442 41.66400043 79.39015886 42.94070645 79.85897827 44.21687317 C81.09210932 47.58696355 82.30342745 50.96449094 83.51011658 54.34412384 C84.71824032 57.71632775 85.94650757 61.08116684 87.17285156 64.44677734 C89.85016359 71.80711663 92.4992282 79.1774291 95.14147949 86.55041504 C97.10186179 92.01960942 99.06601057 97.48744997 101.0315361 102.95479774 C101.70911213 104.84119883 102.38492389 106.72823333 103.06069946 108.61528015 C103.66801407 110.30654778 103.66801407 110.30654778 104.28759766 112.03198242 C104.64302643 113.02372971 104.9984552 114.01547699 105.36465454 115.03727722 C106.188578 117.37187353 106.188578 117.37187353 107.24609375 119.3984375 C107.25195999 118.7109845 107.25782623 118.02353149 107.26387024 117.31524658 C107.32216694 110.78480333 107.39444901 104.2546747 107.48180866 97.72455215 C107.52622811 94.36859977 107.56399691 91.01288536 107.5925293 87.65673828 C107.62635015 83.78389063 107.6786805 79.91165015 107.734375 76.0390625 C107.74076492 74.8541925 107.74715485 73.66932251 107.7537384 72.44854736 C107.97183851 59.88451651 110.02832426 48.97201253 118.91015625 39.65234375 C127.23160301 32.03385025 135.54845238 30.0629585 146.60546875 30.09765625 C151.66297855 30.51549772 155.76728095 32.08679218 160.24609375 34.3984375 C160.1996875 33.70878906 160.15328125 33.01914062 160.10546875 32.30859375 C159.83679808 25.31356105 160.8044177 20.4811219 164.24609375 14.3984375 C164.82359375 13.3671875 165.40109375 12.3359375 165.99609375 11.2734375 C171.36762689 4.40981182 177.61293501 -0.68182062 186.24609375 -2.6015625 C198.44701869 -3.80429595 208.66606165 -2.24136117 218.4296875 5.6484375 C225.14804399 12.12117666 228.69808823 20.37178897 229.421875 29.65234375 C229.43146947 31.23543062 229.35140106 32.8188279 229.24609375 34.3984375 C230.13296875 33.9240625 231.01984375 33.4496875 231.93359375 32.9609375 C239.51278862 29.38584558 248.91746131 29.12845944 256.93359375 31.5234375 C266.95619377 35.42716758 273.77351358 41.77314438 278.37994385 51.4571228 C281.49345815 59.52501624 280.81723995 68.19511168 280.79199219 76.70947266 C280.80073642 78.66167013 280.81122515 80.61386044 280.82331848 82.56604004 C280.8510949 87.84219654 280.85458501 93.1181182 280.85359859 98.39433718 C280.85673488 103.91702774 280.882368 109.43961365 280.90557861 114.96224976 C280.94608732 125.40962572 280.96646729 135.85693935 280.97955251 146.30438173 C280.99543991 158.20287114 281.03386291 170.10125473 281.07414579 181.99968266 C281.15647457 206.46589873 281.21061057 230.93211181 281.24609375 255.3984375 C282.10775146 254.52106934 282.96940918 253.64370117 283.85717773 252.73974609 C287.08663443 249.45557889 290.32634603 246.18168651 293.5690918 242.91064453 C294.96542108 241.49932176 296.35903481 240.08530648 297.74975586 238.66845703 C299.76080359 236.62060865 301.78174423 234.5829655 303.8046875 232.546875 C304.41444931 231.92162933 305.02421112 231.29638367 305.65245056 230.65219116 C315.70019984 220.60064694 326.56604158 214.97324531 340.86328125 214.37109375 C352.23364905 214.46300203 363.36360841 218.88093299 371.7265625 226.71484375 C380.39331145 236.31733424 384.59879818 247.48063762 384.24609375 260.3984375 C382.35969021 277.0677149 373.34338717 288.7155893 360.83203125 299.32421875 C353.93254588 305.2798989 347.65396412 311.9254654 341.24609375 318.3984375 C326.45533035 333.3394699 326.45533035 333.3394699 320.40625 338.4609375 C314.60299565 343.6660264 309.22761027 349.35914841 303.74609375 354.8984375 C301.81980093 356.84503253 299.89271737 358.79075213 297.96095276 360.73191833 C296.72060471 361.98165307 295.48608314 363.23719951 294.25767517 364.49867249 C291.14312148 367.66404132 288.16685843 370.15873408 284.40625 372.55078125 C280.91155551 375.52621023 280.6673477 378.66718476 280.27902222 383.02542114 C280.09997983 386.58430183 280.09026017 390.12435118 280.14819336 393.68676758 C280.18358263 396.46006627 280.12812025 399.22154775 280.06445312 401.99414062 C279.70848297 411.00650158 279.70848297 411.00650158 283.24121094 418.89428711 C285.53601362 420.40773769 287.69746201 421.39750776 290.24609375 422.3984375 C297.37920933 429.71926665 297.71314895 437.24136278 297.71484375 446.98046875 C297.72245728 448.1898259 297.7300708 449.39918304 297.73791504 450.64518738 C297.74869525 453.19776348 297.75157764 455.75038362 297.74707031 458.30297852 C297.74609954 462.18776887 297.7877185 466.07057332 297.83203125 469.95507812 C297.83723995 472.44270424 297.83992642 474.93033718 297.83984375 477.41796875 C297.85623901 478.56932816 297.87263428 479.72068756 297.88952637 480.90693665 C297.81937002 489.18367738 296.21979735 496.07004749 290.49060059 502.31062317 C284.53898774 507.91608291 278.2273687 509.85237669 270.16908264 509.79284668 C269.38470414 509.79893778 268.60032564 509.80502889 267.79217809 509.81130457 C265.17909214 509.82787644 262.56649657 509.82316718 259.95336914 509.81835938 C258.07371009 509.82570303 256.19405554 509.83429012 254.31440735 509.84402466 C249.21936584 509.86621663 244.12448617 509.86917254 239.02940297 509.86727715 C234.77242394 509.86715735 230.51547908 509.87572497 226.25850958 509.88405466 C216.21439003 509.9032799 206.1703536 509.90617553 196.1262207 509.89941406 C185.77134036 509.89277163 175.41681609 509.91564792 165.06200796 509.95272779 C156.16413003 509.98343201 147.2663666 509.9947841 138.36843675 509.99089098 C133.0573802 509.98882448 127.74660085 509.99428791 122.43559456 510.01878357 C117.44086389 510.04106035 112.4467121 510.03916497 107.45197868 510.01885605 C105.62185084 510.01544782 103.79168394 510.02052702 101.96160889 510.03483963 C84.81978725 510.15962398 84.81978725 510.15962398 78.24609375 504.3984375 C76.24609375 502.0859375 76.24609375 502.0859375 75.24609375 500.3984375 C74.54637451 500.67107422 73.84665527 500.94371094 73.12573242 501.22460938 C69.90201226 502.46828346 66.66821157 503.68340339 63.43359375 504.8984375 C62.33337891 505.32769531 61.23316406 505.75695312 60.09960938 506.19921875 C51.93764432 509.23286948 44.34693203 511.09871693 35.87109375 508.2734375 C28.42934267 502.95790102 26.17249812 495.86097579 23.1640625 487.51171875 C22.70095802 486.2460614 22.23726832 484.98061806 21.77302551 483.71537781 C20.80580756 481.06982526 19.84814046 478.42105116 18.89672852 475.76977539 C17.6855202 472.39797028 16.4473444 469.03682159 15.20121288 465.67779255 C14.23727256 463.06804477 13.29000399 460.45246977 12.34722328 457.83501244 C11.68157072 455.99754837 11.00079412 454.16558543 10.31962585 452.33381653 C7.80255223 445.2301395 4.91719491 436.82882092 8.07536316 429.46479797 C9.54445563 427.17649668 11.32788909 425.31664216 13.24609375 423.3984375 C12.90362235 419.96154076 11.29084905 417.8302559 9.2109375 415.15234375 C8.57446289 414.32565186 7.93798828 413.49895996 7.28222656 412.6472168 C6.58967773 411.76074463 5.89712891 410.87427246 5.18359375 409.9609375 C3.71859596 408.06261887 2.25375668 406.1641779 0.7890625 404.265625 C0.03544434 403.29334961 -0.71817383 402.32107422 -1.49462891 401.31933594 C-5.02149804 396.7596361 -8.51318312 392.17333371 -12.00390625 387.5859375 C-13.00212402 386.27471924 -13.00212402 386.27471924 -14.02050781 384.93701172 C-15.32122182 383.2278594 -16.62152732 381.51839611 -17.92138672 379.80859375 C-19.0940507 378.26628909 -20.26748053 376.72456624 -21.44189453 375.18359375 C-24.91875908 370.61721952 -28.36132099 366.02781634 -31.75390625 361.3984375 C-32.22135254 360.76164062 -32.68879883 360.12484375 -33.17041016 359.46875 C-47.18546266 340.208326 -55.55654665 319.69704262 -63.52160645 297.41012573 C-66.32102201 289.58053645 -69.16738339 281.76858856 -72.02734375 273.9609375 C-72.97862772 271.36337388 -73.92987283 268.76579603 -74.88110352 266.16821289 C-75.12157819 265.51159951 -75.36205286 264.85498613 -75.60981464 264.17847538 C-78.57887296 256.06942063 -81.53436264 247.95542291 -84.49005699 239.84148979 C-87.50533045 231.56406487 -90.52440308 223.28805702 -93.55085278 215.01471138 C-95.50966508 209.65902347 -97.46396379 204.30170199 -99.41495228 198.9431591 C-100.56274543 195.79109324 -101.71313463 192.64003965 -102.86746216 189.49035645 C-104.14257372 186.00993163 -105.41003729 182.52680933 -106.67578125 179.04296875 C-107.04660324 178.03629654 -107.41742523 177.02962433 -107.79948425 175.9924469 C-112.76818029 162.24953208 -116.30312873 149.67956188 -110.03515625 135.7109375 C-105.4177585 127.37709766 -98.21983153 121.49262524 -89.13671875 118.55078125 C-84.00598461 117.37336354 -79.98014719 117.52420672 -74.75390625 118.3984375 C-75.0463623 117.63813232 -75.33881836 116.87782715 -75.64013672 116.09448242 C-76.73993633 113.22152313 -77.83096285 110.34541511 -78.91650391 107.46704102 C-79.61228108 105.62983638 -80.31774429 103.79630925 -81.0234375 101.96289062 C-85.54336221 89.94251113 -89.14279516 78.17766813 -84.06640625 65.7734375 C-79.08424755 55.72046959 -72.92691272 50.82900581 -62.87890625 46.0234375 C-57.86603782 45.02086381 -52.84738899 45.25008363 -47.75390625 45.3984375 C-48.07617188 44.39425781 -48.3984375 43.39007813 -48.73046875 42.35546875 C-51.151953 33.82884414 -51.03597919 23.81135422 -47.203125 15.7421875 C-37.32533358 -0.23267733 -17.75192993 -8.44189585 0 0 Z M-27.75390625 19.3984375 C-32.06647543 24.92737235 -32.51329276 29.51504878 -31.75390625 36.3984375 C-30.62925747 40.75860593 -29.06689002 44.91377716 -27.4609375 49.1171875 C-26.76483753 51.00020677 -26.06873916 52.88322663 -25.37270355 54.76626968 C-24.62906315 56.76845274 -23.8774848 58.76748245 -23.12338257 60.76574707 C-21.54460738 64.94962355 -19.98778289 69.14144828 -18.43481445 73.33496094 C-16.82530648 77.67845729 -15.21461481 82.02148643 -13.59642029 86.36175537 C-9.98174227 96.05928042 -6.41773236 105.77386201 -2.90234375 115.5078125 C-2.66960188 116.15217255 -2.43686001 116.79653259 -2.19706535 117.4604187 C-0.61000964 121.85576356 0.97434085 126.25208162 2.55859375 130.6484375 C4.19875757 135.19595112 5.84087912 139.74275213 7.484375 144.2890625 C7.87084702 145.36003174 8.25731903 146.43100098 8.65550232 147.53442383 C10.74882684 153.32033758 12.87337906 159.09339106 15.03662109 164.85351562 C15.49650925 166.08148865 15.9563974 167.30946167 16.43022156 168.574646 C17.31389379 170.92921331 18.2021671 173.28206072 19.09577942 175.63287354 C19.49367172 176.69342957 19.89156403 177.7539856 20.30151367 178.84667969 C20.65356369 179.77615417 21.00561371 180.70562866 21.36833191 181.66326904 C22.64650637 185.64615176 23.58463395 189.04427671 22.55859375 193.1484375 C21.00398777 195.81347633 20.0959264 196.32283929 17.24609375 197.3984375 C14.88671875 197.375 14.88671875 197.375 12.49609375 197.0234375 C11.696875 196.91257813 10.89765625 196.80171875 10.07421875 196.6875 C9.16929687 196.54441406 9.16929687 196.54441406 8.24609375 196.3984375 C7.99964111 195.63563477 7.75318848 194.87283203 7.49926758 194.08691406 C5.82232445 189.15115393 4.00673593 184.27056201 2.1953125 179.3828125 C1.35262216 177.10264988 0.51001537 174.82245638 -0.33251953 172.54223633 C-1.00060638 170.73548935 -1.00060638 170.73548935 -1.68218994 168.89224243 C-8.07870537 151.59197955 -14.45243111 134.28433991 -20.7109375 116.93359375 C-20.95114183 116.26801075 -21.19134617 115.60242775 -21.43882942 114.91667557 C-23.54672199 109.07572029 -25.65387646 103.23450604 -27.74990845 97.38928223 C-29.03216496 93.81444974 -30.31857315 90.24113327 -31.60546875 86.66796875 C-31.98270584 85.61110367 -32.35994293 84.55423859 -32.74861145 83.46534729 C-37.01159462 71.3015042 -37.01159462 71.3015042 -46.75390625 63.3984375 C-52.46716493 62.63859333 -57.38300661 62.557616 -62.25390625 65.8984375 C-66.04270896 69.23507857 -68.00997019 72.39947713 -68.75390625 77.3984375 C-68.03348898 85.35867764 -64.98334758 92.92568936 -62.265625 100.37109375 C-61.80951263 101.63603475 -61.35398768 102.9011877 -60.89900208 104.16653442 C-59.67577203 107.56248036 -58.44354402 110.9550955 -57.20944214 114.34710312 C-56.17761897 117.18694864 -55.15140521 120.02880727 -54.12518883 122.87068272 C-48.73799171 137.78739721 -43.29455684 152.68328151 -37.8046875 167.5625 C-37.56798529 168.20417807 -37.33128307 168.84585613 -37.08740807 169.50697899 C-34.62375056 176.18437069 -32.15328241 182.85917555 -29.6706543 189.52954102 C-25.88452566 199.71852882 -22.14067936 209.92279789 -18.59765625 220.19921875 C-18.29178589 221.05992477 -17.98591553 221.9206308 -17.67077637 222.80741882 C-15.16491315 230.21669866 -15.16491315 230.21669866 -16.75390625 234.3984375 C-17.41390625 235.3884375 -18.07390625 236.3784375 -18.75390625 237.3984375 C-26.67475598 238.93150519 -26.67475598 238.93150519 -30.75390625 237.3984375 C-31.6401062 235.77038574 -31.6401062 235.77038574 -32.21826172 233.61523438 C-33.31733678 229.86528592 -34.51901038 226.20559077 -35.87939453 222.54101562 C-36.2705545 221.48120483 -36.66171448 220.42139404 -37.06472778 219.32946777 C-37.4803598 218.20754028 -37.89599182 217.08561279 -38.32421875 215.9296875 C-38.98500931 214.13996521 -38.98500931 214.13996521 -39.65914917 212.31408691 C-41.06439684 208.50837438 -42.47147329 204.70334215 -43.87890625 200.8984375 C-45.25958269 197.16501394 -46.63959172 193.43134505 -48.01849365 189.69726562 C-48.92885359 187.23206111 -49.84018615 184.76721555 -50.75250244 182.30273438 C-52.97690933 176.27979899 -55.17019774 170.24856868 -57.29980469 164.19140625 C-57.70246552 163.05110962 -58.10512634 161.91081299 -58.51998901 160.73596191 C-59.27248876 158.59780402 -60.01818103 156.4572328 -60.75564575 154.31384277 C-63.52692934 146.44993324 -66.03577805 140.48450537 -73.75390625 136.3984375 C-78.75434543 135.14832771 -82.07637705 135.20895575 -86.75390625 137.3984375 C-91.29790546 140.42777031 -93.43234806 142.98417089 -95.40625 148.04296875 C-96.30842394 154.15545062 -94.40173991 160.02352783 -92.33203125 165.70703125 C-92.07998428 166.40591461 -91.82793732 167.10479797 -91.56825256 167.82485962 C-90.72168212 170.1649583 -89.86291236 172.50037781 -89.00390625 174.8359375 C-88.390268 176.52313761 -87.77725014 178.21056345 -87.16479492 179.89819336 C-85.04151154 185.73664681 -82.89805011 191.56761942 -80.75390625 197.3984375 C-79.90636613 199.70603756 -79.0588743 202.01365536 -78.21142578 204.32128906 C-73.27702719 217.75245137 -68.32723091 231.17789665 -63.36991882 244.60061646 C-59.8809187 254.04936659 -56.40541046 263.50299769 -52.94140625 272.9609375 C-52.49772705 274.17209229 -52.05404785 275.38324707 -51.59692383 276.63110352 C-50.64883972 279.22006455 -49.70109084 281.80914726 -48.75390625 284.3984375 C-47.89394043 284.26211914 -47.89394043 284.26211914 -47.01660156 284.12304688 C-18.86938103 279.71975124 9.58657522 280.75979164 33.72265625 297.7890625 C61.65367565 318.3147625 74.07870867 349.99944768 85.12890625 381.78515625 C85.5458374 382.98422607 85.5458374 382.98422607 85.97119141 384.20751953 C86.47237395 385.66495962 86.96484921 387.12543579 87.44677734 388.58935547 C88.45610078 392.19440462 88.45610078 392.19440462 91.24609375 394.3984375 C93.9172165 393.6950835 93.9172165 393.6950835 97.01489258 392.52758789 C98.22828812 392.0928566 99.44168365 391.65812531 100.69184875 391.21022034 C102.02901595 390.72238399 103.3661059 390.23433584 104.703125 389.74609375 C106.08463442 389.2475546 107.4663675 388.74963487 108.84831238 388.25230408 C111.76294114 387.20167102 114.67572652 386.14612976 117.5871582 385.08666992 C121.25362067 383.75246638 124.92284838 382.42610717 128.59332466 381.1029911 C144.53694478 375.35500623 160.43910461 369.51425698 176.24609375 363.3984375 C175.94102402 362.53322227 175.94102402 362.53322227 175.62979126 361.65052795 C174.14712078 357.44307755 172.66935445 353.23410659 171.20703125 349.01953125 C169.96378846 345.44074168 168.69779662 341.87162468 167.41015625 338.30859375 C166.85490132 336.73457505 166.30018841 335.16036502 165.74609375 333.5859375 C165.47909668 332.86486816 165.21209961 332.14379883 164.93701172 331.40087891 C164.69869629 330.71300293 164.46038086 330.02512695 164.21484375 329.31640625 C164.00279297 328.72625732 163.79074219 328.1361084 163.57226562 327.52807617 C162.5718281 320.99602784 165.28296022 315.55621616 168.078125 309.87890625 C168.46585083 309.07160568 168.85357666 308.26430511 169.25305176 307.43254089 C170.51315225 304.81285416 171.7859821 302.19956573 173.05859375 299.5859375 C174.37483785 296.85516681 175.68759988 294.12273937 177.00028992 291.39025879 C177.87118357 289.57812229 178.74317968 287.76651519 179.61628723 285.95544434 C183.00317312 278.92723537 186.31012005 271.86684644 189.55859375 264.7734375 C193.47618181 256.23536779 197.42598843 247.71321223 201.40625 239.20422363 C202.29834806 237.29536067 203.18860921 235.38565344 204.078125 233.47558594 C204.66015262 232.22590977 205.24218385 230.97623528 205.82421875 229.7265625 C206.25257019 228.80674591 206.25257019 228.80674591 206.6895752 227.86834717 C208.62399985 223.71932369 210.58021418 219.58103242 212.54296875 215.4453125 C213.54845773 213.30481931 214.55368074 211.16420116 215.55859375 209.0234375 C216.02080322 208.06163574 216.4830127 207.09983398 216.95922852 206.10888672 C220.92189062 197.61302415 222.3532957 190.46673886 219.24609375 181.3984375 C215.57870603 174.47114959 209.83352484 169.29503677 202.34765625 166.8671875 C194.62373679 165.14438019 188.29182011 166.63106775 181.47265625 170.37109375 C175.27655449 174.73079431 172.59293997 181.95852444 169.52539062 188.62060547 C168.29441313 191.29351806 167.04797624 193.95886171 165.79733276 196.62261963 C163.18394596 202.1904078 160.58513654 207.76488778 158.00390625 213.34765625 C157.52066895 214.39268311 157.03743164 215.43770996 156.53955078 216.5144043 C155.69993209 218.38650991 154.91199283 220.28298086 154.18701172 222.20239258 C153.24609375 224.3984375 153.24609375 224.3984375 151.43359375 225.5859375 C150.71171875 225.8540625 149.98984375 226.1221875 149.24609375 226.3984375 C148.52421875 226.7696875 147.80234375 227.1409375 147.05859375 227.5234375 C141.88407281 229.13328846 137.10948538 229.04345768 131.99609375 227.2734375 C124.84890802 222.40035632 122.64401582 216.02614575 119.90234375 208.12890625 C119.50081085 207.00614792 119.09927795 205.88338959 118.68557739 204.72660828 C117.59053984 201.65928092 116.50641457 198.58834919 115.42639923 195.51570892 C114.27374507 192.2460615 113.10623408 188.98173778 111.93896484 185.71728516 C111.46016982 184.37793138 110.98137956 183.03857591 110.50259399 181.69921875 C110.26366047 181.03093048 110.02472694 180.36264221 109.77855301 179.67410278 C109.04600152 177.62333798 108.3150944 175.57199344 107.58456421 173.52050781 C102.78969647 160.06418539 97.83774169 146.66720368 92.87109375 133.2734375 C87.42592011 118.58173281 82.03625441 103.87331625 76.78522873 89.1111908 C75.99270389 86.88352511 75.19909013 84.65625015 74.40518188 82.42907715 C72.09959318 75.95898148 69.79755336 69.4878053 67.51815987 63.00842762 C66.58204085 60.35331777 65.63819702 57.70099861 64.6925087 55.04928398 C64.04933122 53.23771112 63.4160728 51.42262606 62.78317261 49.60743713 C58.87121798 38.06179298 58.87121798 38.06179298 50.37109375 29.8984375 C45.35182814 27.7756278 41.27954114 27.66639644 36.12109375 29.5234375 C31.83518442 32.31859576 28.89684136 35.44619467 27.24609375 40.3984375 C26.28866449 48.53619201 28.48213161 55.17220199 31.3203125 62.71484375 C31.75220383 63.90124954 32.18409515 65.08765533 32.6290741 66.31001282 C33.56056463 68.86803217 34.50208289 71.42203598 35.45184326 73.97332764 C36.95143558 78.00176263 38.42728663 82.03865653 39.90087891 86.07666016 C44.50685425 98.67728323 49.18605123 111.25068158 53.87733459 123.81974792 C54.87214531 126.48541906 55.86537158 129.15167079 56.85691833 131.81855774 C57.09683911 132.46383643 57.33675989 133.10911512 57.583951 133.77394772 C58.0613599 135.05813434 58.53867053 136.3423575 59.01587963 137.62661839 C60.6273268 141.95912104 62.25828153 146.28399394 63.89331055 150.60766602 C64.73793919 152.86847616 65.58212094 155.12945333 66.42578125 157.390625 C66.81533493 158.40772049 67.20488861 159.42481598 67.60624695 160.47273254 C71.82512439 171.86883959 71.82512439 171.86883959 69.18359375 177.7734375 C66.31777025 180.17703141 63.9267015 180.26929337 60.24609375 180.3984375 C57.75903962 179.51164407 56.55556309 178.88566316 55.12974548 176.64086914 C54.84321609 175.93309326 54.55668671 175.22531738 54.26147461 174.49609375 C53.93025604 173.68672363 53.59903748 172.87735352 53.25778198 172.04345703 C51.45306424 167.3250927 49.69972622 162.59322924 48 157.8359375 C47.3947625 156.15585602 47.3947625 156.15585602 46.77729797 154.4418335 C45.68033812 151.39624264 44.58608143 148.34969557 43.49263763 145.30284119 C41.37982207 139.42068386 39.25560279 133.5426255 37.1328125 127.6640625 C36.89111076 126.99443733 36.64940903 126.32481216 36.400383 125.63489532 C30.16890588 108.37439585 23.82678821 91.15499693 17.45507812 73.94580078 C16.60012639 71.63579179 15.74530556 69.32573434 14.890625 67.015625 C14.48296906 65.91384918 14.07531311 64.81207336 13.65530396 63.6769104 C11.28969025 57.26897243 8.96830902 50.84757719 6.6953125 44.40625 C6.18852501 42.98071917 5.68153717 41.55525954 5.17431641 40.12988281 C4.30407036 37.68370824 3.45366204 35.23375614 2.61474609 32.77636719 C0.2445023 26.10895341 -2.39164697 19.8777297 -8.79345703 16.23925781 C-15.45498341 13.38218473 -22.29115304 15.13748999 -27.75390625 19.3984375 Z M180.93359375 22.0234375 C178.47748098 25.48018881 178.12166571 27.22382855 178.12583923 31.4223938 C178.12446457 32.48532654 178.1230899 33.54825928 178.12167358 34.6434021 C178.12526886 35.8144046 178.12886414 36.9854071 178.13256836 38.19189453 C178.13242233 39.42113647 178.13227631 40.65037842 178.13212585 41.91687012 C178.13270421 45.29270092 178.13772838 48.66847098 178.14469981 52.04429102 C178.15094017 55.57036823 178.15153769 59.0964462 178.15272522 62.62252808 C178.15583652 69.30192074 178.1640472 75.98129709 178.17407471 82.66068256 C178.18524209 90.26396775 178.19074787 97.86725371 178.19577014 105.47054505 C178.20622997 121.11318533 178.22382553 136.75580931 178.24609375 152.3984375 C179.12434814 152.18550049 180.00260254 151.97256348 180.9074707 151.75317383 C182.06722412 151.47755615 183.22697754 151.20193848 184.421875 150.91796875 C185.56825439 150.64315674 186.71463379 150.36834473 187.89575195 150.08520508 C194.35872808 148.76039623 200.12076083 149.07719181 206.546875 150.41796875 C207.43157471 150.60077393 208.31627441 150.7835791 209.2277832 150.97192383 C210.22684692 151.1830481 210.22684692 151.1830481 211.24609375 151.3984375 C211.33965974 135.49943891 211.41013285 119.60051501 211.45334244 103.7013092 C211.47394138 96.31851989 211.50201058 88.93590195 211.54785156 81.55322266 C211.58780148 75.11621355 211.61354595 68.67932859 211.62244773 62.24219894 C211.6276488 58.83576837 211.63981653 55.42969289 211.66901398 52.02337646 C211.69808539 48.21458961 211.70204798 44.40653635 211.70019531 40.59765625 C211.71457642 39.47627762 211.72895752 38.35489899 211.74377441 37.19953918 C211.70994242 30.76411754 211.0583394 25.72745341 207.24609375 20.3984375 C202.15269987 15.66885747 198.80606339 15.04609468 192.0078125 15.1171875 C186.85806819 15.64163105 184.23236978 18.27888092 180.93359375 22.0234375 Z M130.49609375 54.2109375 C126.08343369 60.46220592 125.91476316 66.29823034 125.81274414 73.69775391 C125.79157028 74.72344986 125.77039642 75.74914581 125.74858093 76.80592346 C125.54166291 87.63518873 125.45745573 98.46700817 125.38110352 109.29785156 C125.34146139 114.39576505 125.2655992 119.49102091 125.15551758 124.58789062 C124.50104539 155.58589429 125.37266154 182.21327372 139.24609375 210.3984375 C141.19020671 207.91295534 142.79432551 205.52824843 144.13134766 202.67138672 C144.6366954 201.60040237 144.6366954 201.60040237 145.1522522 200.50778198 C145.50548553 199.74724518 145.85871887 198.98670837 146.22265625 198.203125 C146.77873062 197.02014328 146.77873062 197.02014328 147.34603882 195.81326294 C148.52535714 193.30197791 149.69833735 190.78779259 150.87109375 188.2734375 C151.6675441 186.57401967 152.4644145 184.87479863 153.26171875 183.17578125 C154.71700147 180.07398302 156.16950101 176.97091031 157.61962891 173.86669922 C158.47818943 172.03591104 159.34178058 170.20706384 160.24609375 168.3984375 C160.34400307 167.01013747 160.38110315 165.61729307 160.38653564 164.22555542 C160.39224579 163.3508812 160.39795593 162.47620697 160.40383911 161.57502747 C160.40495697 160.61295883 160.40607483 159.6508902 160.40722656 158.65966797 C160.41219147 157.64810135 160.41715637 156.63653473 160.42227173 155.59431458 C160.43692201 152.23474454 160.4437014 148.87522178 160.44921875 145.515625 C160.45496943 143.18352253 160.46072718 140.85142007 160.4664917 138.51931763 C160.47701093 133.62160013 160.48284703 128.72389909 160.48632812 123.82617188 C160.49180378 117.5582738 160.51580821 111.29059396 160.54430008 105.02276421 C160.56295278 100.20139946 160.56813355 95.38008689 160.569664 90.55868912 C160.57268692 88.2486871 160.58070325 85.93868592 160.59384918 83.62871933 C160.6109584 80.39017077 160.60901688 77.15215 160.60253906 73.91357422 C160.61175385 72.96365097 160.62096863 72.01372772 160.63046265 71.03501892 C160.58964644 64.5005504 159.87462465 58.54670064 155.52734375 53.33984375 C154.93953125 52.88480469 154.35171875 52.42976563 153.74609375 51.9609375 C153.15828125 51.48785156 152.57046875 51.01476563 151.96484375 50.52734375 C144.49257828 45.61942393 136.24565016 48.33070935 130.49609375 54.2109375 Z M231.4453125 56.6796875 C229.40283064 59.60702306 229.11776277 62.19481887 229.0921936 65.65361023 C229.08359314 66.52124496 229.07499268 67.3888797 229.06613159 68.2828064 C229.06187164 69.23192902 229.05761169 70.18105164 229.05322266 71.15893555 C229.04504517 72.16089462 229.03686768 73.1628537 229.02844238 74.19517517 C229.00359519 77.51682945 228.98707316 80.83844099 228.97265625 84.16015625 C228.96467073 85.86213134 228.96467073 85.86213134 228.9565239 87.59848976 C228.92979403 93.60528513 228.9104194 99.61205974 228.89599609 105.61889648 C228.8793574 111.81853368 228.83458498 118.01763837 228.78362465 124.21707439 C228.74994187 128.9878245 228.73841743 133.75844842 228.73276901 138.52930641 C228.72605846 140.81421791 228.71084164 143.09912117 228.6868782 145.38391685 C228.65520585 148.58670598 228.65519368 151.78806171 228.66259766 154.9909668 C228.64619232 155.92996826 228.62978699 156.86896973 228.61288452 157.83642578 C228.66640836 163.50979074 229.65572356 167.03061173 233.00195885 171.6481142 C238.49616097 179.37768592 238.94647442 189.535407 237.5546875 198.609375 C236.38307921 204.59686474 234.14513496 209.74329766 231.49609375 215.2109375 C231.01076172 216.240979 230.52542969 217.27102051 230.02539062 218.33227539 C228.97969255 220.55041781 227.92875514 222.76609654 226.87304688 224.97949219 C224.7006319 229.54469316 222.56754506 234.12779191 220.43383789 238.71118164 C218.99609862 241.79900385 217.5551713 244.8852963 216.11268616 247.97090149 C212.90361121 254.83661702 209.70616612 261.70768397 206.515625 268.58203125 C206.1088855 269.45803482 205.702146 270.33403839 205.28308105 271.23658752 C203.21909031 275.6844571 201.16077213 280.13482146 199.11279297 284.59008789 C195.65941079 292.09496787 192.19291154 299.57815603 188.484375 306.9609375 C187.9483667 308.05035645 187.4123584 309.13977539 186.86010742 310.26220703 C185.91011085 312.18338389 184.93477368 314.0923767 183.92700195 315.98388672 C181.06897161 321.83999711 181.08789444 325.37517983 183.19580078 331.52441406 C183.7156958 332.94705566 183.7156958 332.94705566 184.24609375 334.3984375 C184.85183293 336.45841185 185.45330094 338.51964633 186.05078125 340.58203125 C189.17412691 351.96487904 189.17412691 351.96487904 196.4453125 360.59375 C199.78200479 361.51968311 199.78200479 361.51968311 203.16015625 361.94140625 C208.38132039 362.71466727 211.08414044 365.34004979 214.24609375 369.3984375 C215.27407106 371.45249612 216.22027335 373.5484586 217.10546875 375.66796875 C217.35999313 376.27646164 217.61451752 376.88495453 217.87675476 377.5118866 C220.82928814 384.66029576 223.44822748 391.93239146 226.05859375 399.2109375 C226.79066242 401.24719168 227.52395811 403.28297004 228.26066589 405.31755066 C228.91615144 407.12832929 229.56721739 408.94070599 230.21801758 410.75317383 C230.99701324 413.28366706 230.99701324 413.28366706 232.24609375 414.3984375 C234.46464639 414.48627292 236.68597871 414.50538359 238.90625 414.49609375 C239.5707164 414.4946788 240.2351828 414.49326385 240.91978455 414.49180603 C243.04943274 414.48619268 245.17897714 414.47363804 247.30859375 414.4609375 C248.74934744 414.45592421 250.19010278 414.45136101 251.63085938 414.44726562 C255.16930477 414.43621895 258.70768914 414.41894542 262.24609375 414.3984375 C262.25543945 413.09696777 262.26478516 411.79549805 262.27441406 410.45458984 C262.31437422 405.61244855 262.38015032 400.77093857 262.45361328 395.92919922 C262.48178788 393.83618294 262.50301984 391.74306096 262.51708984 389.64990234 C262.53856769 386.63584413 262.58524363 383.62305213 262.63671875 380.609375 C262.63794739 379.67789642 262.63917603 378.74641785 262.64044189 377.78671265 C262.78615486 371.28045774 264.13056694 367.46966772 268.89453125 362.7734375 C269.46429688 362.3196875 270.0340625 361.8659375 270.62109375 361.3984375 C274.576865 358.06533395 278.22882651 354.502774 281.87109375 350.8359375 C282.46664062 350.2370874 283.0621875 349.6382373 283.67578125 349.02124023 C285.53451796 347.14890904 287.39073231 345.27411312 289.24609375 343.3984375 C302.94420498 329.55034695 302.94420498 329.55034695 307.21484375 325.9296875 C313.78244653 320.35421194 319.69139076 314.01695418 325.74609375 307.8984375 C340.56706017 292.92126516 340.56706017 292.92126516 346.58642578 287.80908203 C355.62038196 280.13061795 363.08827992 272.59813006 366.18359375 260.8359375 C366.3374663 252.37294706 363.82859944 245.80153423 358.24609375 239.3984375 C352.83162898 234.52897356 346.42004997 232.81858135 339.24609375 232.3984375 C329.43526024 233.09547718 322.16322807 240.04139162 315.67578125 246.78125 C314.99105743 247.47733368 314.30633362 248.17341736 313.6008606 248.89059448 C311.4334505 251.09435423 309.27611986 253.30757042 307.12109375 255.5234375 C304.27308604 258.45145613 301.41514109 261.36923603 298.55078125 264.28125 C297.90688446 264.95004181 297.26298767 265.61883362 296.59957886 266.30789185 C292.49299457 270.48071245 288.68083338 273.86437737 282.68359375 274.796875 C277.47809489 274.74682213 273.66598334 274.45026603 269.24609375 271.3984375 C263.73825712 265.73760541 262.94762049 259.76232331 262.98780823 252.12451172 C262.98413252 251.30690809 262.98045682 250.48930447 262.97666973 249.64692497 C262.96671375 246.91559429 262.97083572 244.18446814 262.97485352 241.453125 C262.97046515 239.49155461 262.96516259 237.52998608 262.95901489 235.56842041 C262.94752353 231.34835674 262.94205611 227.12834322 262.9411335 222.90826416 C262.93919203 216.23550859 262.92113524 209.56285674 262.90037537 202.89013672 C262.85120041 186.31781866 262.82028964 169.74547248 262.79907227 153.1730957 C262.78255483 140.29052674 262.75976138 127.40804679 262.71605152 114.52553749 C262.69426111 107.89204079 262.68621859 101.25871314 262.68844426 94.62518311 C262.68677829 90.499276 262.67273477 86.37347944 262.65523148 82.247612 C262.64962934 80.33441725 262.64914915 78.4211996 262.65416908 76.50800323 C262.66030445 73.89587012 262.64808986 71.2844356 262.63136292 68.67236328 C262.64068064 67.53743344 262.64068064 67.53743344 262.6501866 66.37957573 C262.58693514 60.95737314 261.44502013 56.8092396 257.74609375 52.75390625 C247.99007424 45.15742231 238.93488723 47.71578703 231.4453125 56.6796875 Z M-40.75390625 300.3984375 C-41.86979849 303.70006447 -41.66192323 305.45576413 -40.3828125 308.671875 C-40.06038574 309.48922119 -39.73795898 310.30656738 -39.40576172 311.14868164 C-38.86653076 312.44793579 -38.86653076 312.44793579 -38.31640625 313.7734375 C-37.94660645 314.67247803 -37.57680664 315.57151855 -37.19580078 316.49780273 C-30.80644111 331.69459467 -21.68736409 344.34246342 -11.75390625 357.3984375 C-11.10824707 358.24889648 -10.46258789 359.09935547 -9.79736328 359.97558594 C-6.4622799 364.36580437 -3.1184222 368.74921447 0.23046875 373.12890625 C4.16299005 378.27868184 8.05303438 383.459446 11.93359375 388.6484375 C18.64027584 397.61463273 25.42533812 406.51880286 32.24609375 415.3984375 C40.21647788 413.15999207 47.99285226 410.42489872 55.76293945 407.58227539 C57.83352846 406.82684031 59.90786038 406.08233651 61.98242188 405.33789062 C63.30102236 404.85743203 64.6193909 404.37633628 65.9375 403.89453125 C67.12545166 403.46325928 68.31340332 403.0319873 69.53735352 402.58764648 C72.36683579 401.68962016 72.36683579 401.68962016 73.24609375 399.3984375 C72.58423018 396.80202397 72.58423018 396.80202397 71.47265625 393.81640625 C71.0645874 392.66688477 70.65651855 391.51736328 70.23608398 390.33300781 C69.78563721 389.09647461 69.33519043 387.85994141 68.87109375 386.5859375 C68.64334259 385.95651245 68.41559143 385.3270874 68.18093872 384.67858887 C56.54218168 352.43297108 56.54218168 352.43297108 37.24609375 324.3984375 C36.4984375 323.55796875 35.75078125 322.7175 34.98046875 321.8515625 C20.68653926 306.63544401 1.47432904 299.42145071 -19.05078125 298.26953125 C-26.39358099 298.08956067 -33.5204526 299.23107899 -40.75390625 300.3984375 Z M187.21484375 378.01782227 C185.67908691 378.54979469 185.67908691 378.54979469 184.11230469 379.09251404 C183.00145508 379.48350784 181.89060547 379.87450165 180.74609375 380.27734375 C179.58625977 380.68247696 178.42642578 381.08761017 177.23144531 381.50502014 C165.7017356 385.55224752 154.23653652 389.77061741 142.78149414 394.02371216 C136.59525557 396.31984219 130.40535528 398.60604594 124.21484375 400.890625 C123.58765945 401.12214075 122.96047516 401.3536565 122.31428528 401.59218788 C110.19429848 406.06449285 98.04896086 410.46474915 85.89059448 414.83154297 C82.77954927 415.94892145 79.66913512 417.06804136 76.55883789 418.1875 C68.15698169 421.20960954 59.75307026 424.22489913 51.33297729 427.19587708 C48.17212595 428.31266126 45.01426477 429.43773032 41.85693359 430.56442261 C40.42536428 431.07261605 38.99228273 431.57657256 37.55761719 432.07595825 C35.63634754 432.74473753 33.7203235 433.42853203 31.8046875 434.11328125 C30.21611938 434.67196899 30.21611938 434.67196899 28.59545898 435.24194336 C27.82016846 435.62358643 27.04487793 436.00522949 26.24609375 436.3984375 C25.03267493 440.03869395 25.5685695 440.98132957 26.87670898 444.51245117 C27.2571788 445.55330368 27.63764862 446.59415619 28.02964783 447.66654968 C28.45041092 448.78850235 28.87117401 449.91045502 29.3046875 451.06640625 C29.7278273 452.21635574 30.1509671 453.36630524 30.58692932 454.55110168 C31.9438616 458.23263222 33.31356137 461.90926442 34.68359375 465.5859375 C35.60539366 468.07678432 36.52428958 470.56869001 37.44335938 473.06054688 C39.70128252 479.17678481 41.96971322 485.28904686 44.24609375 491.3984375 C47.91262065 490.74854304 51.28189849 489.7662551 54.78417969 488.50683594 C55.88333206 488.11341003 56.98248444 487.71998413 58.11494446 487.31463623 C59.30806747 486.8833844 60.50119049 486.45213257 61.73046875 486.0078125 C63.00175431 485.5509524 64.27313421 485.09435475 65.54460144 484.63800049 C68.98016793 483.40368164 72.41398396 482.16456085 75.84739304 480.92425537 C78.00222986 480.14622197 80.15754304 479.36952312 82.3130188 478.59326172 C104.98666474 470.42699262 127.62353539 462.16339366 150.22241211 453.79223633 C152.51413353 452.94345024 154.80588121 452.09473505 157.09765625 451.24609375 C158.20474442 450.83611649 159.31183258 450.42613922 160.45246887 450.0037384 C167.87703643 447.25965376 175.31792876 444.56423243 182.76953125 441.89453125 C184.70717776 441.19744664 186.64476106 440.50018628 188.58227539 439.80273438 C192.12424075 438.52780266 195.67071954 437.26676787 199.22045898 436.01367188 C200.77739603 435.45372256 202.33413151 434.89321234 203.890625 434.33203125 C204.58558075 434.09133408 205.2805365 433.8506369 205.99655151 433.60264587 C209.9147606 432.17320262 212.86063816 430.88946801 215.24609375 427.3984375 C216.03018501 421.56647935 214.33435058 416.76733762 212.39453125 411.359375 C212.09801666 410.51549225 211.80150208 409.6716095 211.4960022 408.80215454 C210.86780976 407.02687272 210.23377611 405.25364819 209.59423828 403.48242188 C208.62415615 400.78196244 207.68637815 398.07167665 206.75 395.359375 C206.13344792 393.62951655 205.51502018 391.90032524 204.89453125 390.171875 C204.61926605 389.36656342 204.34400085 388.56125183 204.06039429 387.73153687 C202.08766429 382.38911396 200.03562019 379.55694883 195.24609375 376.3984375 C192.0988027 376.3984375 190.17171942 376.98879743 187.21484375 378.01782227 Z M227.22727966 439.45501709 C224.82603457 444.21112768 219.87089885 446.24736536 215.24609375 448.3984375 C215.24609375 448.7284375 215.24609375 449.0584375 215.24609375 449.3984375 C216.81907227 449.40460083 216.81907227 449.40460083 218.42382812 449.41088867 C222.34553985 449.43279783 226.26626496 449.48720714 230.1875 449.55102539 C231.87880945 449.57410337 233.57026053 449.58857701 235.26171875 449.59399414 C252.6061595 449.66046753 252.6061595 449.66046753 257.91748047 453.94897461 C262.42563888 458.86719153 262.72012602 463.68537193 262.62109375 470.0234375 C262.63269531 470.77367187 262.64429688 471.52390625 262.65625 472.296875 C262.63888178 475.5621003 262.47711463 477.97400379 260.90234375 480.8671875 C258.45649072 483.12844784 256.53050467 483.26706106 253.24609375 483.3984375 C250.31235912 482.66500384 248.77326339 482.23779626 247.14453125 479.64453125 C246.12195655 477.08809451 245.83744999 474.8889499 245.62109375 472.1484375 C245.50894531 470.81039062 245.50894531 470.81039062 245.39453125 469.4453125 C245.34554687 468.76984375 245.2965625 468.094375 245.24609375 467.3984375 C204.86341927 465.1863566 165.9243446 463.12494088 127.74609375 478.2734375 C126.76334661 478.66194256 126.76334661 478.66194256 125.760746 479.0582962 C112.05551933 483.70512253 112.05551933 483.70512253 100.24609375 491.3984375 C122.99413712 491.4918181 145.74214895 491.56238593 168.490345 491.60568619 C179.05238496 491.62632432 189.61430594 491.65446884 200.17626953 491.70019531 C209.38050468 491.74002476 218.58465368 491.76586121 227.78897262 491.77479148 C232.66405256 491.78001283 237.53888598 491.79231084 242.41388702 491.82135773 C247.00048684 491.84846535 251.5867381 491.85689195 256.17341042 491.85086823 C257.85848445 491.85197055 259.54356989 491.85995219 261.22857475 491.8752594 C263.52661357 491.89511527 265.82333054 491.89039383 268.12139893 491.87945557 C269.40822193 491.88314274 270.69504494 491.88682991 272.02086258 491.89062881 C275.80148176 491.31368167 276.98047722 490.42166564 279.24609375 487.3984375 C279.84501067 485.01906106 279.84501067 485.01906106 279.76367188 482.41796875 C279.78258484 480.93623169 279.78258484 480.93623169 279.80187988 479.42456055 C279.79378296 478.36406494 279.78568604 477.30356934 279.77734375 476.2109375 C279.78117065 475.11628174 279.78499756 474.02162598 279.78894043 472.89379883 C279.79166111 470.58055705 279.78428909 468.26728458 279.76757812 465.95410156 C279.74617215 462.41141228 279.76737601 458.87075114 279.79296875 455.328125 C279.7903255 453.08072469 279.78520059 450.83332563 279.77734375 448.5859375 C279.78544067 447.52544189 279.7935376 446.46494629 279.80187988 445.37231445 C279.74615742 439.83509645 279.74615742 439.83509645 277.82788086 434.74121094 C273.78203168 432.63698678 269.90727107 432.74819626 265.40625 432.7265625 C263.96758827 432.7065921 263.96758827 432.7065921 262.49986267 432.68621826 C260.47337506 432.66598707 258.44675451 432.65658356 256.42016602 432.65722656 C253.32149734 432.64847395 250.22852005 432.57583495 247.13085938 432.5 C245.16017571 432.4882636 243.18946502 432.48032485 241.21875 432.4765625 C240.29465836 432.44782043 239.37056671 432.41907837 238.41847229 432.38946533 C232.18429566 432.47789183 229.9849987 433.81388682 227.22727966 439.45501709 Z " fill="#FFFFFF" transform="translate(120.75390625,2.6015625)"/>
<path d="M0 0 C6.38705762 3.58176173 9.32891481 9.3804171 11.37109375 16.23046875 C12.27028631 20.72643154 11.70727667 24.0416484 9.25 27.875 C6.40652874 29.69773799 4.14401203 30.07076275 0.7734375 29.8828125 C-2.69017929 29.09625411 -4.11747295 27.21725061 -6.1875 24.4375 C-7.28685122 22.13975413 -8.21831166 19.79521032 -9.1875 17.4375 C-18.33439504 20.72621914 -27.48008424 24.01828182 -36.625 27.3125 C-37.30889297 27.55883305 -37.99278595 27.80516609 -38.69740295 28.05896378 C-60.51716783 35.91904127 -82.30913851 43.85039342 -104.06420898 51.88818359 C-105.02505905 52.24269089 -105.98590912 52.59719818 -106.97587585 52.96244812 C-108.7360502 53.61203824 -110.49579071 54.26280593 -112.25495911 54.91511536 C-116.18139552 56.36409715 -120.11694224 57.78636326 -124.07128906 59.1574707 C-124.7828717 59.405439 -125.49445435 59.65340729 -126.2276001 59.90888977 C-129.21431603 60.7144455 -131.28938171 60.4484715 -134.1875 59.4375 C-137.09148503 57.31837579 -138.02995093 55.93115377 -139.125 52.5 C-139.20362504 48.64737307 -138.71694926 47.35019914 -136.1875 44.4375 C-129.66116469 40.81254998 -122.80784555 38.35801653 -115.78515625 35.8671875 C-113.92809386 35.20120895 -112.0710326 34.53522726 -110.21401787 33.86911583 C-108.24538647 33.16397002 -106.27591823 32.46121097 -104.30618286 31.75915527 C-98.1370753 29.56010036 -91.973266 27.34626908 -85.80917168 25.13320923 C-84.41243456 24.6318238 -83.0156307 24.13062426 -81.61876106 23.62960815 C-65.39401277 17.81008969 -49.2161016 11.86527359 -33.04516602 5.89794922 C-31.5961792 5.3636882 -31.5961792 5.3636882 -30.11791992 4.81863403 C-28.33834752 4.16227262 -26.55910339 3.50502008 -24.78027344 2.84664917 C-7.79623711 -3.42094773 -7.79623711 -3.42094773 0 0 Z " fill="#FFFFFF" transform="translate(307.1875,403.5625)"/>
</svg>
